<?xml version="1.0" standalone="no"?>
<!DOCTYPE svg PUBLIC "-//W3C//DTD SVG 1.1//EN" "http://www.w3.org/Graphics/SVG/1.1/DTD/svg11.dtd" >
<svg xmlns="http://www.w3.org/2000/svg">
<metadata>
Created by FontPrep 20130207 at Tue Jul 16 13:21:39 2013
 By John Horstman
Typeface (c) The Monotype Corporation plc. Data (c) The Monotype Corporation plc / Type Solutions Inc. 1990-91 All Rights Reserved
</metadata>
<defs>
<font id="13db03934b676bad49f0835d401d12db" >
  <font-face 
    font-family="CenturyGothic"
    font-weight="400"
    font-stretch="normal"
    units-per-em="2048"
    panose-1="2 11 5 2 2 2 2 2 2 4"
    ascent="1638"
    descent="-410"
    x-height="1088"
    cap-height="1471"
    bbox="-347 -628 2360 2170"
    underline-thickness="119"
    underline-position="-138"
    unicode-range="U+0020-F108"
  />
<missing-glyph horiz-adv-x="1536" 
d="M288 32h960v1216h-960v-1216zM256 0v1280h1024v-1280h-1024z" />
    <glyph glyph-name=".notdef" horiz-adv-x="1536" 
d="M288 32h960v1216h-960v-1216zM256 0v1280h1024v-1280h-1024z" />
    <glyph glyph-name=".null" horiz-adv-x="0" 
 />
    <glyph glyph-name="nonmarkingreturn" horiz-adv-x="567" 
 />
    <glyph glyph-name="space" unicode=" " horiz-adv-x="567" 
 />
    <glyph glyph-name="exclam" unicode="!" horiz-adv-x="604" 
d="M302 220q51 0 87 -36t36 -88t-36 -88t-87 -36t-87 36t-36 88t36 88t87 36zM373 1508v-1140h-145v1140h145z" />
    <glyph glyph-name="quotedbl" unicode="&#x22;" horiz-adv-x="633" 
d="M174 1045h-104l-22 463h148zM562 1045h-103l-22 463h148z" />
    <glyph glyph-name="numbersign" unicode="#" horiz-adv-x="1475" 
d="M940 936h-334l-49 -334h332zM1233 602v-108h-248l-72 -494h-112l72 494h-333l-76 -494h-110l76 494h-246v108h263l51 334h-253v109h269l70 468h107l-68 -468h332l68 468h112l-69 -468h224v-109h-240l-48 -334h231z" />
    <glyph glyph-name="dollar" unicode="$" horiz-adv-x="1135" 
d="M928 352q0 87 -55.5 160t-210.5 156v-562q121 17 193.5 88t72.5 158zM311 1114q0 -138 220 -237v455q-139 -11 -179.5 -82.5t-40.5 -135.5zM531 1574h131v-109q98 -18 167.5 -64t133.5 -136l-108 -87q-77 119 -193 144v-499q262 -138 326 -224q82 -109 82 -231
t-60.5 -213.5t-145.5 -133.5t-202 -57v-313h-131v313q-123 10 -197 39t-144.5 87.5t-117.5 135.5l107 81q139 -184 352 -205v619q-157 77 -199 105q-167 114 -167 293q0 90 70 210t296 142v103z" />
    <glyph glyph-name="percent" unicode="%" horiz-adv-x="1587" 
d="M1195 522q-91 0 -155 -64t-64 -155t64 -155t155 -64t155.5 64t64.5 155t-64.5 155t-155.5 64zM1195 649q143 0 244.5 -101.5t101.5 -244.5t-101.5 -244.5t-244.5 -101.5t-244.5 101.5t-101.5 244.5t101.5 244.5t244.5 101.5zM392 1381q-91 0 -155 -64.5t-64 -155.5
t64 -155t155 -64t155.5 64t64.5 155t-64.5 155.5t-155.5 64.5zM738 1167q0 -137 -95 -245t-247 -108t-251 100.5t-99 244.5q0 96 45 174.5t128 126.5t170 48q37 0 145 -23t239 -23q132 0 231.5 14.5t258.5 59.5h118l-1072 -1638h-132l975 1492q-173 -42 -422 -42l-54 1
q62 -86 62 -182z" />
    <glyph glyph-name="ampersand" unicode="&#x26;" horiz-adv-x="1550" 
d="M326 308q0 -78 71 -142.5t161 -64.5q90 -1 188 41q96 42 257 157l-240 246q-60 63 -134 148q-187 -141 -245 -224t-58 -161zM846 1156q0 48 -49.5 84.5t-129.5 36.5t-129 -38t-49 -84t20 -81q49 -85 138 -186q107 84 153 152t46 116zM555 -37q-170 0 -273 97.5
t-103 243.5q0 110 69.5 220.5t283.5 279.5q-121 146 -155.5 215.5t-34.5 132.5q0 110 92 188t237 78q92 0 168 -37t116 -99.5t40 -134.5t-52 -155.5t-205 -213.5l223 -234l153 -153q110 92 178 153l100 -106q-96 -85 -173 -147q51 -55 137 -141t141 -150h-205l-189 197
q-190 -144 -305 -189t-243 -45z" />
    <glyph glyph-name="quotesingle" unicode="'" horiz-adv-x="405" 
d="M254 1045h-103l-22 463h148z" />
    <glyph glyph-name="parenleft" unicode="(" horiz-adv-x="756" 
d="M267 495q0 576 203 1041h162q-98 -201 -157 -469.5t-59 -542.5q0 -552 167 -950h-154q-74 178 -118 419t-44 502z" />
    <glyph glyph-name="parenright" unicode=")" horiz-adv-x="756" 
d="M489 614q0 -575 -203 -1040h-162q99 201 157.5 469.5t58.5 542.5q0 552 -167 950h154q75 -178 118.5 -419.5t43.5 -502.5z" />
    <glyph glyph-name="asterisk" unicode="*" horiz-adv-x="870" 
d="M369 1508h130l-29 -297l246 176l66 -112l-277 -125l277 -123l-66 -113l-246 174l29 -297h-130l31 297l-246 -174l-66 113l281 123l-281 125l66 112l246 -176z" />
    <glyph glyph-name="plus" unicode="+" horiz-adv-x="1241" 
d="M552 804v434h137v-434h438v-137h-438v-434h-137v434h-437v137h437z" />
    <glyph glyph-name="comma" unicode="," horiz-adv-x="567" 
d="M295 270l135 -64l-203 -378l-99 42z" />
    <glyph glyph-name="hyphen" unicode="-" horiz-adv-x="680" 
d="M65 614h550v-122h-550v122z" />
    <glyph glyph-name="hyphen" unicode="&#xad;" horiz-adv-x="680" 
d="M65 614h550v-122h-550v122z" />
    <glyph glyph-name="period" unicode="." horiz-adv-x="567" 
d="M310 220q51 0 87 -36t36 -88t-36 -88t-87 -36t-87 36t-36 88t36 88t87 36z" />
    <glyph glyph-name="slash" unicode="/" horiz-adv-x="895" 
d="M836 1508l-611 -1708h-153l610 1708h154z" />
    <glyph glyph-name="zero" unicode="0" horiz-adv-x="1135" 
d="M204 732q0 -250 44.5 -377t131 -193t184.5 -66t183 64.5t135 207.5q50 142 49 364q0 222 -49 363.5t-135.5 207t-183.5 65.5t-183 -65.5t-131 -193t-45 -377.5zM65 736q0 290 62.5 449t176.5 241t256 82t325.5 -130.5t183.5 -641.5t-183.5 -642t-325.5 -131t-255 81
t-176.5 241.5t-63.5 450.5z" />
    <glyph glyph-name="one" unicode="1" horiz-adv-x="1135" 
d="M668 1471v-1471h-146v1327h-231l88 144h289z" />
    <glyph glyph-name="two" unicode="2" horiz-adv-x="1135" 
d="M585 1508q204 0 329.5 -131t125.5 -309q0 -125 -60 -234.5t-233 -296.5l-366 -395h679v-142h-999l562 607q171 183 222.5 271.5t51.5 199.5t-92.5 200.5t-230.5 89.5t-231 -94t-106 -264h-141q6 218 145.5 358t343.5 140z" />
    <glyph glyph-name="three" unicode="3" horiz-adv-x="1135" 
d="M552 1508q115 0 214.5 -52.5t154 -141.5t54.5 -186q0 -190 -189 -301q106 -43 174 -126q96 -117 96 -252t-66 -248.5t-180 -175.5t-255 -62q-190 0 -317 109.5t-166 321.5h144q38 -144 119 -216t231 -72t247.5 96t97.5 225q0 86 -48.5 161t-130 113t-252.5 47v135
q101 0 221.5 51.5t120.5 194.5q0 96 -76.5 166t-182.5 70t-175 -53.5t-117 -181.5h-150q41 182 157 280t274 98z" />
    <glyph glyph-name="four" unicode="4" horiz-adv-x="1135" 
d="M755 483v613l-433 -613h433zM902 1508v-1025h178v-141h-178v-342h-147v342h-703l820 1166h30z" />
    <glyph glyph-name="five" unicode="5" horiz-adv-x="1135" 
d="M1007 1471v-140h-524l-73 -401q96 28 173 28q201 0 331.5 -134.5t130.5 -344.5q0 -145 -67 -266t-181.5 -185.5t-278.5 -64.5t-287.5 109.5t-147.5 283.5h151q32 -159 132.5 -207.5t174.5 -48.5q145 0 249 110t104 267t-94 250t-238 93t-328 -79l136 730h637z" />
    <glyph glyph-name="six" unicode="6" horiz-adv-x="1135" 
d="M590 725q-128 0 -218.5 -90.5t-90.5 -218.5t90.5 -219t218.5 -91t218.5 91t90.5 219t-90.5 218.5t-218.5 90.5zM625 854q175 0 297 -126.5t122 -311.5q0 -127 -59 -229.5t-167.5 -163t-231.5 -60.5t-226.5 58.5t-162.5 164.5t-59 212t36.5 205t130.5 239l446 666l121 -79
l-397 -602q80 27 150 27z" />
    <glyph glyph-name="seven" unicode="7" horiz-adv-x="1135" 
d="M147 1471h933l-787 -1508l-121 62l680 1307h-705v139z" />
    <glyph glyph-name="eight" unicode="8" horiz-adv-x="1135" 
d="M570 733q-147 0 -250 -98.5t-103 -229.5q0 -81 68 -192t282 -111q161 0 256 95t95 220t-100.5 220.5t-247.5 95.5zM576 1365q-129 0 -208.5 -71.5t-79.5 -169.5t85.5 -178t199.5 -80q73 0 138 36t101.5 98.5t36.5 138.5t-72 151t-201 75zM997 1070.5
q0 -149.5 -210 -263.5q149 -74 213.5 -169t64.5 -216q0 -170 -111 -300q-136 -159 -384 -159t-374.5 139.5t-126.5 307.5q0 123 66 221.5t220 175.5q-108 56 -162 138.5t-54 178.5t57.5 187.5t159.5 144t218 52.5t214 -53t153.5 -144t55.5 -240.5z" />
    <glyph glyph-name="nine" unicode="9" horiz-adv-x="1135" 
d="M554 746q128 0 218.5 90.5t90.5 218.5t-90.5 218.5t-218.5 90.5t-219 -90.5t-91 -218.5t91 -218.5t219 -90.5zM519 617q-175 0 -297 126.5t-122 311.5q0 127 59 229t167.5 163t231.5 61t226.5 -59t162.5 -165t59 -212t-36.5 -205t-130.5 -239l-446 -665l-121 78l397 602
q-80 -26 -150 -26z" />
    <glyph glyph-name="colon" unicode=":" horiz-adv-x="567" 
d="M310 220q51 0 87 -36t36 -88t-36 -88t-87 -36t-87 36t-36 88t36 88t87 36zM310 1116q51 0 87 -36t36 -88t-36 -88t-87 -36t-87 36t-36 88t36 88t87 36z" />
    <glyph glyph-name="semicolon" unicode=";" horiz-adv-x="567" 
d="M295 270l135 -64l-203 -378l-99 42zM310 1116q51 0 87 -36t36 -88t-36 -88t-87 -36t-87 36t-36 88t36 88t87 36z" />
    <glyph glyph-name="semicolon" unicode="&#x37e;" horiz-adv-x="567" 
d="M295 270l135 -64l-203 -378l-99 42zM310 1116q51 0 87 -36t36 -88t-36 -88t-87 -36t-87 36t-36 88t36 88t87 36z" />
    <glyph glyph-name="less" unicode="&#x3c;" horiz-adv-x="1241" 
d="M1137 347v-146l-1033 469v130l1033 471v-147l-839 -390z" />
    <glyph glyph-name="equal" unicode="=" horiz-adv-x="1241" 
d="M1127 584v-137h-1012v137h1012zM1127 1024v-137h-1012v137h1012z" />
    <glyph glyph-name="greater" unicode="&#x3e;" horiz-adv-x="1241" 
d="M104 347l839 387l-839 390v147l1033 -471v-130l-1033 -469v146z" />
    <glyph glyph-name="question" unicode="?" horiz-adv-x="1210" 
d="M607 220q51 0 87 -36t36 -88t-36 -88t-87 -36t-87 36t-36 88t36 88t87 36zM606 1508q198 0 310 -99t112 -244t-92.5 -215t-267.5 -140q-174 -70 -216 -108t-42 -96q0 -56 57 -102t151 -46t147 50.5t65 161.5h146q-7 -167 -103.5 -259.5t-258.5 -92.5t-258.5 84t-96.5 209
t75 181t250 128t236 115q60 45 60 129t-74 144t-210 60t-219 -99q-58 -69 -62 -198h-145q2 202 120 319.5t316 117.5z" />
    <glyph glyph-name="at" unicode="@" horiz-adv-x="1776" 
d="M838 428q148 0 221 179q39 95 39 201t-56.5 169t-146.5 63q-120 0 -207.5 -98.5t-87.5 -233.5t66.5 -207.5t171.5 -72.5zM927 -27q-213 0 -398 103.5t-288.5 282.5t-103.5 393t104.5 398.5t284.5 287t394 102.5q302 0 510 -193.5t208 -450.5q0 -187 -86.5 -322.5
t-234.5 -210.5q-113 -58 -182 -58t-99 27t-31 84q-34 -43 -93.5 -72t-123.5 -29q-144 0 -238 99.5t-94 269.5t114 316.5t314 146.5q88 0 147.5 -33t112.5 -115l26 138h108l-116 -654q-5 -32 -5 -48t14 -29t36 -13q59 0 153.5 68.5t147 176t52.5 238.5q0 254 -190 415
t-455 161q-196 0 -355.5 -89.5t-252 -252t-92.5 -352.5t93 -351.5t257.5 -253.5t336.5 -92t289.5 52t252.5 188h106q-134 -167 -248 -234q-162 -94 -375 -94z" />
    <glyph glyph-name="A" unicode="A" horiz-adv-x="1515" 
d="M762 1159l-253 -533h503zM780 1471l686 -1471h-158l-231 484h-634l-230 -484h-164l695 1471h36z" />
    <glyph glyph-name="B" unicode="B" horiz-adv-x="1176" 
d="M327 708v-564h182q161 0 236 31.5t120.5 98.5t45.5 155t-63.5 161.5t-157.5 95.5t-280 22h-83zM327 1327v-471h84q153 0 225 28.5t114 90t42 149.5t-70.5 145.5t-224.5 57.5h-170zM183 1471h290q175 0 269 -41.5t148.5 -127.5t54.5 -188q0 -211 -189 -312
q115 -39 211.5 -120.5t96.5 -259.5q0 -177 -129.5 -299.5t-347.5 -122.5h-404v1471z" />
    <glyph glyph-name="C" unicode="C" horiz-adv-x="1665" 
d="M266 731q0 -269 184.5 -449t479.5 -180t503 242l116 -88q-110 -140 -274.5 -216.5t-367.5 -76.5q-386 0 -609 257q-187 217 -187 532t226.5 535.5t567.5 220.5q206 0 372 -81.5t272 -228.5l-116 -89q-195 254 -526 254q-176 0 -326 -84.5t-232.5 -227t-82.5 -320.5z" />
    <glyph glyph-name="D" unicode="D" horiz-adv-x="1524" 
d="M320 139h170q305 0 423 38q166 54 261 194.5t95 348.5t-103 359t-287 207q-138 42 -455 42h-104v-1189zM179 0v1471h305q330 0 479 -53q214 -75 334.5 -260.5t120.5 -423.5t-95.5 -406t-248 -248t-427.5 -80h-468z" />
    <glyph glyph-name="E" unicode="E" horiz-adv-x="1098" 
d="M180 1471h843v-145h-696v-460h690v-144h-690v-577h690v-145h-837v1471z" />
    <glyph glyph-name="F" unicode="F" horiz-adv-x="993" 
d="M179 1471h737v-145h-591v-460h591v-145h-591v-721h-146v1471z" />
    <glyph glyph-name="G" unicode="G" horiz-adv-x="1786" 
d="M912 1362q-156 0 -312.5 -85t-242.5 -230.5t-86 -309.5t89 -313.5t246 -235t364 -85.5t364 128t186 332h-469v142h634q-2 -341 -202.5 -541.5t-536.5 -200.5q-408 0 -646 278q-183 214 -183 495q0 209 105 389t288 281.5t392 101.5t374 -67.5t322 -216.5l-114 -108
q-250 246 -572 246z" />
    <glyph glyph-name="H" unicode="H" horiz-adv-x="1399" 
d="M177 1471h148v-617h748v617h148v-1471h-148v710h-748v-710h-148v1471z" />
    <glyph glyph-name="I" unicode="I" horiz-adv-x="463" 
d="M158 1471h147v-1471h-147v1471z" />
    <glyph glyph-name="J" unicode="J" horiz-adv-x="987" 
d="M660 1471h148v-993q0 -229 -35.5 -318.5t-118 -143t-186.5 -53.5t-190.5 34.5t-191.5 121.5l78 117q115 -80 178 -108q62 -28 118 -28t107.5 38t72 101t20.5 244v988z" />
    <glyph glyph-name="K" unicode="K" horiz-adv-x="1210" 
d="M179 1471h150v-552l587 552h199l-707 -660l762 -811h-195l-646 686v-686h-150v1471z" />
    <glyph glyph-name="L" unicode="L" horiz-adv-x="946" 
d="M179 1471h148v-1329h565v-142h-713v1471z" />
    <glyph glyph-name="M" unicode="M" horiz-adv-x="1882" 
d="M112 0l209 1471h24l598 -1207l592 1207h24l211 -1471h-145l-144 1052l-520 -1052h-37l-527 1060l-143 -1060h-142z" />
    <glyph glyph-name="N" unicode="N" horiz-adv-x="1515" 
d="M180 0v1471h32l978 -1126v1126h145v-1471h-33l-970 1112v-1112h-152z" />
    <glyph glyph-name="O" unicode="O" horiz-adv-x="1780" 
d="M888 1364q-164 0 -310 -85t-228 -229t-82 -321q0 -262 181.5 -442.5t437.5 -180.5q171 0 316.5 83t227 227t81.5 320t-81.5 317t-230 226t-312.5 85zM880 1508q334 0 559 -223t225 -547t-224.5 -549.5t-549.5 -225.5t-550 224t-225 542q0 212 102.5 393t279.5 283.5
t383 102.5z" />
    <glyph glyph-name="P" unicode="P" horiz-adv-x="1212" 
d="M325 1328v-500l249 -3q151 0 221 27.5t110 89t40 136.5t-40 136.5t-105.5 87.5t-214.5 26h-260zM178 1471h293q252 0 340 -22q126 -31 206 -128t80 -243t-78.5 -242t-196.5 -124t-392 -28h-105v-684h-147v1471z" />
    <glyph glyph-name="Q" unicode="Q" horiz-adv-x="1784" 
d="M1514 736q0 175 -81.5 316.5t-230 226.5t-312.5 85t-310 -84.5t-228 -229t-82 -321.5q0 -262 181 -442.5t437 -180.5q175 0 320 85l-328 416h179l263 -332q192 187 192 461zM1666 730q0 -331 -253 -570l218 -276h-181l-150 190q-180 -111 -406 -111q-327 0 -552 224
t-225 542q0 212 103 393.5t280.5 283.5t389.5 102q327 0 551.5 -223.5t224.5 -554.5z" />
    <glyph glyph-name="R" unicode="R" horiz-adv-x="1243" 
d="M334 1327v-500l253 -2q147 0 217.5 28t110 89.5t39.5 136.5t-40 135.5t-105 86.5t-216 26h-259zM187 1471h293q245 0 332 -20q131 -30 213 -128.5t82 -230.5t-56.5 -223t-161.5 -137.5t-290 -47.5l529 -684h-182l-528 684h-84v-684h-147v1471z" />
    <glyph glyph-name="S" unicode="S" horiz-adv-x="1020" 
d="M457 106q74 0 139 34.5t99 92t34 127.5q1 70 -59 154t-244 224q-184 138 -228 200q-78 104 -78 212t46 187.5t129.5 125t184.5 45.5t191.5 -51.5t191.5 -189.5l-120 -91q-83 110 -141.5 145t-137.5 35t-135.5 -54t-56.5 -118t20 -109t61 -85t217 -170t247 -240t71 -221
q0 -160 -121.5 -278t-295.5 -118q-134 0 -243 71.5t-201 239.5l125 75q132 -243 305 -243z" />
    <glyph glyph-name="T" unicode="T" horiz-adv-x="872" 
d="M33 1328v143h807v-143h-328v-1328h-150v1328h-329z" />
    <glyph glyph-name="U" unicode="U" horiz-adv-x="1341" 
d="M184 1471h147v-888q1 -158 9 -221t48 -121.5t123 -98t161 -39.5t180 47t144 203q15 56 15 230v888h147v-888q0 -197 -38.5 -318.5t-154 -211.5t-286.5 -90t-298 85t-170 225q-27 86 -27 310v888z" />
    <glyph glyph-name="V" unicode="V" horiz-adv-x="1438" 
d="M67 1471h160l487 -1137l496 1137h160l-640 -1471h-32z" />
    <glyph glyph-name="W" unicode="W" horiz-adv-x="1966" 
d="M96 1471h151l299 -1060l422 1060h30l417 -1060l305 1060h150l-422 -1471h-28l-436 1113l-445 -1113h-28z" />
    <glyph glyph-name="X" unicode="X" horiz-adv-x="1247" 
d="M101 1471h172l352 -574l355 574h170l-438 -713l467 -758h-172l-382 617l-384 -617h-172l469 758z" />
    <glyph glyph-name="Y" unicode="Y" horiz-adv-x="1212" 
d="M683 0h-145v703l-475 768h170l376 -606l370 606h170l-466 -768v-703z" />
    <glyph glyph-name="Z" unicode="Z" horiz-adv-x="983" 
d="M122 1329v142h776l-615 -1328h584v-143h-811l619 1329h-553z" />
    <glyph glyph-name="bracketleft" unicode="[" horiz-adv-x="719" 
d="M290 1508h336v-142h-196v-1627h196v-137h-336v1906z" />
    <glyph glyph-name="backslash" unicode="\" horiz-adv-x="1239" 
d="M220 1508l952 -1708h-153l-953 1708h154z" />
    <glyph glyph-name="bracketright" unicode="]" horiz-adv-x="719" 
d="M429 -398h-336v142h195v1627h-195v137h336v-1906z" />
    <glyph glyph-name="asciicircum" unicode="^" horiz-adv-x="1376" 
d="M629 1471h118l510 -1106h-133l-439 952l-436 -952h-129z" />
    <glyph glyph-name="underscore" unicode="_" horiz-adv-x="1024" 
d="M-12 -154h1048v-102h-1048v102z" />
    <glyph glyph-name="grave" unicode="`" horiz-adv-x="774" 
d="M326 1598l218 -308h-138l-295 308h215z" />
    <glyph glyph-name="a" unicode="a" horiz-adv-x="1399" 
d="M680 981q-117 0 -216 -57.5t-157.5 -161.5t-58.5 -220t59 -220.5t159 -163t214 -58.5t217 58t158.5 157t55.5 223q0 189 -124.5 316t-306.5 127zM669 1116q269 0 433 -228v200h138v-1088h-138v187q-177 -215 -437 -215q-231 0 -394.5 167t-163.5 405t165 405t397 167z
" />
    <glyph glyph-name="b" unicode="b" horiz-adv-x="1397" 
d="M725 107q117 0 216 57.5t157.5 161.5t58.5 220t-59 221t-158.5 163.5t-213.5 58.5t-217.5 -58.5t-159 -157.5t-55.5 -223q0 -189 124.5 -316t306.5 -127zM736 -28q-266 0 -432 228v-200h-139v1508h139v-607q175 215 436 215q231 0 394.5 -167t163.5 -405t-165 -405
t-397 -167z" />
    <glyph glyph-name="c" unicode="c" horiz-adv-x="1325" 
d="M708 984q-199 0 -330.5 -128t-131.5 -311q0 -119 60.5 -224t166 -163t236.5 -58q240 0 392 191l111 -73q-78 -117 -209.5 -181.5t-299.5 -64.5q-258 0 -428 164t-170 399q0 158 79.5 293.5t218.5 211.5t311 76q108 0 256 -48.5t242 -205.5l-111 -69q-144 191 -393 191z
" />
    <glyph glyph-name="d" unicode="d" horiz-adv-x="1403" 
d="M682 981q-117 0 -216 -57.5t-157.5 -161.5t-58.5 -220t59 -220.5t159 -163t214 -58.5t217 58t158.5 157t55.5 223q0 189 -124.5 316t-306.5 127zM671 1116q269 0 433 -228v620h138v-1508h-138v187q-177 -215 -437 -215q-231 0 -394.5 167t-163.5 405t165 405t397 167z
" />
    <glyph glyph-name="e" unicode="e" horiz-adv-x="1331" 
d="M664 982q-160 0 -275 -103q-84 -75 -127 -225h810q-28 112 -81.5 179t-141.5 108t-185 41zM104 534q0 214 127 376q161 206 435 206t440 -211q118 -149 120 -372h-978q4 -190 121 -311.5t289 -121.5q83 0 161.5 29t133.5 77t119 155l118 -62q-166 -327 -520 -327
q-266 0 -416 174t-150 388z" />
    <glyph glyph-name="f" unicode="f" horiz-adv-x="643" 
d="M479 1404q-48 0 -75 -16.5t-34 -38t-7 -114.5v-147h227v-120h-228v-968h-140v968h-143v120h143v170q0 117 21.5 167t73 80.5t121.5 30.5t166 -28v-137q-77 33 -125 33z" />
    <glyph glyph-name="g" unicode="g" horiz-adv-x="1378" 
d="M678 981q-116 0 -218.5 -57.5t-160.5 -159t-58 -219.5q0 -179 120 -296t312 -117t309.5 116t117.5 305q0 123 -54 219.5t-153 152.5t-215 56zM1093 207q-164 -207 -446 -207q-139 0 -271 74.5t-204 200.5t-72 277t75 281.5t207.5 206.5t279.5 76q248 0 431 -217v189h141
v-867q0 -229 -40 -335q-55 -150 -190.5 -231t-301.5 -81t-277.5 39.5t-181.5 106t-129 194.5h152q122 -212 403 -212q143 0 241.5 53.5t140.5 134.5t42 261v56z" />
    <glyph glyph-name="h" unicode="h" horiz-adv-x="1249" 
d="M704 1116q122 0 216.5 -62t139.5 -166.5t45 -327.5v-560h-140v519q0 188 -15 251q-52 217 -274 217q-127 0 -227.5 -84t-132.5 -208q-20 -80 -20 -296v-399h-140v1508h140v-615q169 223 408 223z" />
    <glyph glyph-name="i" unicode="i" horiz-adv-x="410" 
d="M135 1088h141v-1088h-141v1088zM206 1536q48 0 81.5 -34t33.5 -82t-33.5 -81.5t-81.5 -33.5t-82 33.5t-34 81.5t34 82t82 34z" />
    <glyph glyph-name="j" unicode="j" horiz-adv-x="416" 
d="M139 1088h142v-1252q0 -137 -49.5 -199.5t-127.5 -62.5t-168 34v126q56 -29 107 -29q51 1 73 39t23 133v1211zM208 1536q48 0 81.5 -34t33.5 -82t-33.5 -81.5t-81.5 -33.5t-81.5 33.5t-33.5 81.5t33.5 82t81.5 34z" />
    <glyph glyph-name="k" unicode="k" horiz-adv-x="1028" 
d="M155 1508h141v-858l503 438h206l-597 -519l632 -569h-198l-546 489v-489h-141v1508z" />
    <glyph glyph-name="l" unicode="l" horiz-adv-x="410" 
d="M135 1508h140v-1508h-140v1508z" />
    <glyph glyph-name="m" unicode="m" horiz-adv-x="1921" 
d="M155 1088h139v-188q72 104 164 160t190 56t169 -31t116 -82.5t78 -147.5q70 128 175 194.5t222 66.5t203.5 -57t128.5 -159t42 -306v-594h-143v594q0 175 -25 240.5t-85.5 105.5t-153.5 40t-177.5 -60t-123.5 -160t-39 -334v-426h-139v557q0 197 -24.5 267.5t-86 113
t-151.5 42.5t-174.5 -58.5t-125 -157.5t-40.5 -303v-461h-139v1088z" />
    <glyph glyph-name="n" unicode="n" horiz-adv-x="1249" 
d="M704 1116q122 0 216.5 -62t139.5 -167t45 -327v-560h-139v519q0 188 -16 251q-50 217 -274 217q-127 0 -227.5 -84t-132.5 -208q-20 -81 -20 -296v-399h-140v1088h140v-195q167 223 408 223z" />
    <glyph glyph-name="o" unicode="o" horiz-adv-x="1341" 
d="M670 979q-174 0 -298.5 -129t-124.5 -312q0 -118 57 -220t154 -157.5t213 -55.5t213 55.5t154 157.5t57 220q0 183 -125.5 312t-299.5 129zM104 540q0 228 158 402t408 174q252 0 410 -174t157 -402q0 -228 -158.5 -398t-408.5 -170t-408 170.5t-158 397.5z" />
    <glyph glyph-name="p" unicode="p" horiz-adv-x="1397" 
d="M718 981q-182 0 -306.5 -127t-124.5 -316q0 -124 55.5 -223t159 -157t217.5 -58t213.5 58.5t158.5 163t59 220.5t-58.5 220t-157.5 161.5t-216 57.5zM719 -28q-245 0 -422 215v-585h-139v1486h139v-200q166 228 432 228q232 0 397 -167t165 -405t-163.5 -405t-408.5 -167
z" />
    <glyph glyph-name="q" unicode="q" horiz-adv-x="1397" 
d="M679 981q-117 0 -216 -57.5t-157.5 -161.5t-58.5 -220t59 -220.5t158.5 -163t213.5 -58.5t217.5 58t159 157t55.5 223q0 189 -124.5 316t-306.5 127zM668 1116q269 0 433 -228v200h138v-1486h-138v585q-177 -215 -437 -215q-231 0 -394.5 167t-163.5 405t165 405t397 167
z" />
    <glyph glyph-name="r" unicode="r" horiz-adv-x="616" 
d="M529 1116q58 0 124 -37l-73 -118q-44 19 -74 19q-70 0 -135 -57.5t-95 -164.5t-30 -390v-368h-143v1088h143v-159q127 187 283 187z" />
    <glyph glyph-name="s" unicode="s" horiz-adv-x="795" 
d="M394 985q-68 0 -116.5 -45.5t-48.5 -101.5t40 -104t182 -122t198 -149q55 -76 55 -171q0 -134 -94 -227t-235 -93q-94 0 -179.5 41t-141.5 113l88 100q107 -121 227 -121q84 0 143 54.5t59 120.5t-39 112t-181 120q-142 73 -195 146.5t-53 183.5t84.5 192t224.5 82
t291 -147l-90 -93q-112 109 -219 109z" />
    <glyph glyph-name="t" unicode="t" horiz-adv-x="694" 
d="M278 1492h141v-404h222v-120h-222v-968h-141v968h-191v120h191v404z" />
    <glyph glyph-name="u" unicode="u" horiz-adv-x="1245" 
d="M138 1088h141v-508q0 -186 25 -271t109.5 -143t201.5 -58t198.5 56t107.5 134t26 282v508h143v-534q0 -225 -52.5 -339t-158 -178.5t-264.5 -64.5t-265.5 64.5t-159 180t-52.5 347.5v524z" />
    <glyph glyph-name="v" unicode="v" horiz-adv-x="1135" 
d="M53 1088h149l364 -792l361 792h150l-498 -1088h-25z" />
    <glyph glyph-name="w" unicode="w" horiz-adv-x="1702" 
d="M9 1088h144l333 -790l349 790h25l348 -790l339 790h146l-472 -1088h-27l-346 779l-349 -779h-26z" />
    <glyph glyph-name="x" unicode="x" horiz-adv-x="983" 
d="M32 1088h168l288 -403l288 403h168l-372 -517l419 -571h-170l-333 457l-328 -457h-167l412 571z" />
    <glyph glyph-name="y" unicode="y" horiz-adv-x="1098" 
d="M39 1088h148l374 -838l363 838h149l-649 -1486h-148l210 480z" />
    <glyph glyph-name="z" unicode="z" horiz-adv-x="870" 
d="M67 1088h799l-616 -964h596v-124h-837l616 965h-558v123z" />
    <glyph glyph-name="braceleft" unicode="{" horiz-adv-x="719" 
d="M598 1471h56v-157h-31q-105 0 -138.5 -38.5t-33.5 -167.5q0 -232 -10 -326t-55.5 -159.5t-143.5 -112.5q110 -47 159.5 -141.5t49.5 -298.5t5 -248q6 -44 22 -68t46.5 -36t129.5 -12v-157h-56q-100 0 -156 21q-127 47 -150 225q-9 66 -10 248t-31 281.5t-176 103.5v163
q124 4 161.5 79.5t41.5 145.5t5 234.5t30 268t160 141.5q39 11 125 11z" />
    <glyph glyph-name="bar" unicode="|" horiz-adv-x="1376" 
d="M616 1508h143v-1906h-143v1906z" />
    <glyph glyph-name="braceright" unicode="}" horiz-adv-x="719" 
d="M121 -451h-56v157h31q105 0 138.5 38t33.5 167q0 239 11 332q23 191 198 267q-117 56 -163 147.5t-46 307.5q0 217 -10 261t-41.5 66t-120.5 22h-31v157h56q101 0 157 -21t97 -77t51 -135t11 -261t31 -282t176 -104v-163q-191 -3 -204 -247q-2 -46 -3.5 -211.5
t-31 -269.5t-159.5 -140q-39 -11 -125 -11z" />
    <glyph glyph-name="asciitilde" unicode="~" horiz-adv-x="1241" 
d="M876 579q-95 1 -246 69t-187.5 79.5t-74.5 11.5t-91 -19t-165 -86v160q110 62 159 79t95 17q98 0 242 -68t188 -82t82 -14t81 16.5t169 94.5v-162q-112 -63 -160.5 -79.5t-91.5 -16.5z" />
    <glyph glyph-name="nonbreakingspace" unicode="&#xa0;" horiz-adv-x="573" 
 />
    <glyph glyph-name="exclamdown" unicode="&#xa1;" horiz-adv-x="604" 
d="M231 -426v1140h145v-1140h-145zM302 1110q51 0 87 -36t36 -88t-36 -88t-87 -36t-87 36t-36 88t36 88t87 36z" />
    <glyph glyph-name="cent" unicode="&#xa2;" horiz-adv-x="1135" 
d="M644 982q-171 0 -285.5 -120.5t-114.5 -325.5t133 -327l388 752q-64 21 -121 21zM103 520q0 255 150.5 425.5t393.5 170.5q90 0 181 -33l133 257l121 -60l-132 -257q72 -46 116 -94l-85 -105q-46 44 -95 76l-394 -766q75 -32 144 -32q146 0 306 128l91 -106
q-78 -69 -184 -110.5t-207 -41.5t-213 37l-152 -295l-117 64l151 301q-208 186 -208 441z" />
    <glyph glyph-name="sterling" unicode="&#xa3;" horiz-adv-x="1135" 
d="M278 248q-40 0 -62 -22t-22 -54t19.5 -54t47.5 -22q75 0 124 111q-67 41 -107 41zM99 844h254q-55 192 -63 238t-8 97q0 134 104 231.5t257 97.5q194 0 264.5 -123t81.5 -260h-136q-4 121 -59.5 185t-151.5 64t-158 -56.5t-62 -146.5t36 -183l45 -144h320v-129h-286
q37 -127 37 -249t-22 -203q62 -51 144 -101t132 -50q95 0 106 232h141q1 -117 -47 -249t-183 -132q-67 -1 -160 41t-182 119q-83 -160 -237 -160q-96 0 -152.5 50.5t-56.5 142.5t66.5 159.5t144.5 67.5t155 -39q7 67 7 106q0 141 -45 265h-286v129z" />
    <glyph glyph-name="currency" unicode="&#xa4;" horiz-adv-x="1135" 
d="M193 613q0 -155 110.5 -264t266.5 -109t265.5 110t109.5 265t-109.5 264.5t-265.5 109.5t-266.5 -110.5t-110.5 -265.5zM50 617q0 87 24 159t87 149l-120 117l90 91l120 -119q144 112 315 112q170 0 318 -106l117 113l88 -91l-116 -112q64 -79 89.5 -153t25.5 -162
q0 -167 -109 -309l116 -114l-89 -90l-116 115q-147 -115 -319 -115q-173 0 -323 115l-117 -115l-89 90l116 114q-61 82 -84.5 153.5t-23.5 157.5z" />
    <glyph glyph-name="yen" unicode="&#xa5;" horiz-adv-x="1135" 
d="M1011 736v-117h-374v-155h374v-117h-374v-347h-144v347h-370v117h370v155h-370v117h353l-414 735h167l337 -602l340 602h166l-417 -735h356z" />
    <glyph glyph-name="brokenbar" unicode="&#xa6;" horiz-adv-x="1376" 
d="M616 -398v957l143 54v-1011h-143zM616 1508h143v-767l-143 -55v822z" />
    <glyph glyph-name="section" unicode="&#xa7;" horiz-adv-x="1259" 
d="M276 628q0 -78 61 -148t259 -174q122 15 189.5 76.5t67.5 131.5t-47 122.5t-285 193.5l-14 9q-110 -17 -170.5 -75t-60.5 -136zM582 1395q-102 0 -162.5 -52t-60.5 -136t79.5 -151.5t232.5 -159.5t240.5 -170t87.5 -206q0 -101 -77.5 -186t-208.5 -110q106 -66 162 -155
t56 -181q0 -132 -102 -223t-266 -91t-272 83t-129 205h148q23 -64 67 -99q73 -58 177 -58t166.5 52.5t62.5 124.5t-50 136t-226 176t-237 160q-61 46 -100.5 117t-39.5 139t48.5 163t211.5 143q-99 71 -138.5 143t-39.5 160q0 139 101 228t269 89t266 -88.5t116 -253.5h-147
q-11 94 -72 147.5t-163 53.5z" />
    <glyph glyph-name="dieresis" unicode="&#xa8;" horiz-adv-x="756" 
d="M582 1518q48 0 82 -34t34 -82t-34 -82t-82 -34t-82 34t-34 82t34 82t82 34zM174 1518q48 0 82 -34t34 -82t-34 -82t-82 -34t-82 34t-34 82t34 82t82 34z" />
    <glyph glyph-name="copyright" unicode="&#xa9;" horiz-adv-x="1530" 
d="M779 1102q-127 0 -204 -89.5t-77 -259.5t74 -258t184 -88q222 0 258 246h136q-19 -164 -124 -261t-256 -97q-189 0 -302 121.5t-113 341.5t117.5 346.5t291.5 126.5t274 -83.5t112 -223.5h-136q-42 178 -235 178zM1442 757q0 182 -90.5 338.5t-247 247.5t-338.5 91
t-339 -91t-247.5 -248t-90.5 -339t90.5 -338.5t248 -247t338.5 -90.5t338 90.5t247.5 247.5t90.5 339zM1551 756q0 -210 -105 -391t-287.5 -286.5t-392.5 -105.5t-393 105.5t-288 287t-105 391.5t105 391.5t288 286.5t393 105t392.5 -105t287.5 -287t105 -392z" />
    <glyph glyph-name="ordfeminine" unicode="&#xaa;" horiz-adv-x="756" 
d="M365 1399q-77 0 -134.5 -69.5t-57.5 -179.5t58 -181t134 -71t133.5 68t57.5 181t-57 182.5t-134 69.5zM350 1508q118 0 200 -116v99h114v-681h-114v94q-84 -110 -202 -110t-204.5 101.5t-86.5 255.5t87.5 255.5t205.5 101.5z" />
    <glyph glyph-name="guillemotleft" unicode="&#xab;" horiz-adv-x="870" 
d="M849 1088l-224 -546l224 -542h-148l-222 542l222 546h148zM391 1088l-223 -546l223 -542h-148l-222 542l222 546h148z" />
    <glyph glyph-name="logicalnot" unicode="&#xac;" horiz-adv-x="1241" 
d="M1127 1024v-577h-137l-1 440h-874v137h1012z" />
    <glyph glyph-name="registered" unicode="&#xae;" horiz-adv-x="1530" 
d="M582 1087v-268h222q101 0 137 23q53 33 53 107t-38 106t-143 32h-231zM439 1217h377q132 0 190 -26.5t94.5 -86.5t36.5 -134t-23 -118t-90 -88q61 -30 82 -69.5t21 -135.5v-102q0 -72 32 -120l15 -24h-160q-15 56 -21 133l-7 111q-4 61 -19.5 86t-44 36t-113.5 11h-227
v-377h-143v904zM1442 758q0 182 -91 340t-247 249t-336 91t-339 -91t-249.5 -249t-90.5 -340t90.5 -339t249.5 -248t339 -91t336.5 91.5t247 248t90.5 338.5zM1551 758q0 -210 -105 -391.5t-288 -287.5t-392 -106t-392 105.5t-288.5 287.5t-105.5 391t105.5 393t288 289
t392.5 105t391.5 -104.5t287.5 -288t106 -393.5z" />
    <glyph glyph-name="overscore" unicode="&#xaf;" horiz-adv-x="1024" 
d="M-12 1727h1048v-103h-1048v103z" />
    <glyph glyph-name="degree" unicode="&#xb0;" horiz-adv-x="819" 
d="M636 1164q0 100 -65 169t-159 69t-161 -69.5t-67 -167.5t68 -168.5t160 -70.5t158 69t66 169zM755 1164q0 -144 -101 -244t-245 -100t-244 100t-100 244t102.5 244t244.5 100t242.5 -100t100.5 -244z" />
    <glyph glyph-name="plusminus" unicode="&#xb1;" horiz-adv-x="1124" 
d="M1068 161v-137h-1012v137h1012zM493 913v434h137v-434h438v-137h-438v-434h-137v434h-437v137h437z" />
    <glyph glyph-name="twosuperior" unicode="&#xb2;" horiz-adv-x="680" 
d="M346 1508q128 0 206.5 -68.5t78.5 -163.5q0 -60 -33 -116t-143 -156l-190 -172h377v-99h-636l358 325q106 96 132 137t26 87t-50 87t-130 41t-130 -46t-57 -130h-106q2 119 85.5 196.5t211.5 77.5z" />
    <glyph glyph-name="threesuperior" unicode="&#xb3;" horiz-adv-x="705" 
d="M72 1293q54 215 276 215q110 0 183.5 -61t73.5 -145t-91 -143q67 -32 102.5 -84t35.5 -110q0 -101 -84 -175.5t-216 -74.5q-261 0 -308 241h109q39 -142 192 -142q90 0 143.5 43.5t53.5 101.5q0 136 -254 145v94q102 0 152 32t50 74t-40.5 73.5t-101.5 31.5t-98 -26
t-66 -90h-112z" />
    <glyph glyph-name="acute" unicode="&#xb4;" horiz-adv-x="768" 
d="M452 1598h215l-295 -308h-138z" />
    <glyph glyph-name="mu1" unicode="&#xb5;" horiz-adv-x="1180" 
d="M288 -398h-141v1486h141v-600q0 -136 33.5 -203t108.5 -112.5t162 -45.5t156.5 43.5t107 120t37.5 210.5v587h140v-1088h-140v118q-114 -143 -302.5 -143t-302.5 140v-513z" />
    <glyph glyph-name="paragraph" unicode="&#xb6;" horiz-adv-x="1155" 
d="M483 -231v937q-75 0 -132 12t-120 63t-100 135.5t-37 188.5q0 189 116 308q97 100 299 100h513v-75h-84v-1669h-119v1669h-217v-1669h-119z" />
    <glyph glyph-name="middot" unicode="&#xb7;" horiz-adv-x="682" 
d="M602 870q48 0 82 -34t34 -82t-34 -82t-82 -34t-82 34t-34 82t34 82t82 34z" />
    <glyph glyph-name="cedilla" unicode="&#xb8;" horiz-adv-x="664" 
d="M281 -301q135 0 135 65q0 17 -17 30t-43 13t-72 -9l27 202h88l-17 -118q23 3 55 3t65 -30.5t33 -86.5t-60 -102t-159 -46t-177 30l22 69q64 -20 120 -20z" />
    <glyph glyph-name="onesuperior" unicode="&#xb9;" horiz-adv-x="680" 
d="M411 1489v-756h-110v658h-150l73 98h187z" />
    <glyph glyph-name="ordmasculine" unicode="&#xba;" horiz-adv-x="756" 
d="M378 1398q-82 0 -144 -72t-62 -179t61 -176.5t145 -69.5t144.5 69.5t60.5 176.5t-61.5 179t-143.5 72zM378 1508q132 0 227 -103t95 -255t-94 -254t-228 -102t-228.5 101.5t-94.5 254.5t95.5 255.5t227.5 102.5z" />
    <glyph glyph-name="guillemotright" unicode="&#xbb;" horiz-adv-x="870" 
d="M21 0l223 545l-223 543h148l222 -543l-222 -545h-148zM479 0l223 545l-223 543h147l223 -543l-223 -545h-147z" />
    <glyph glyph-name="onequarter" unicode="&#xbc;" horiz-adv-x="1702" 
d="M375 1489v-756h-110v658h-150l73 98h187zM388 -37l923 1545h112l-925 -1545h-110zM1443 258v248l-214 -248h214zM1554 258h105v-97h-105v-170h-111v170h-432l543 625v-528z" />
    <glyph glyph-name="onehalf" unicode="&#xbd;" horiz-adv-x="1702" 
d="M364 1489v-756h-110v658h-150l73 98h187zM277 -37l923 1545h112l-925 -1545h-110zM1280 766q128 0 206 -68t78 -164q0 -60 -33 -116t-143 -156l-190 -172h377v-99h-636l358 325q106 96 132 136t26 88q1 46 -49 87t-130 41t-131 -46q-50 -46 -57 -130h-106q2 118 86 196
t212 78z" />
    <glyph glyph-name="threequarters" unicode="&#xbe;" horiz-adv-x="1702" 
d="M97 1293q55 215 277 215q110 0 182 -60q74 -60 74 -146q0 -84 -91 -143q67 -32 103 -84t35 -110q-1 -101 -85 -175t-216 -75q-261 0 -307 241h109q39 -142 192 -142q90 0 144 44t53 101q0 136 -254 145v94q102 0 152 32t50 74q-1 42 -41 74t-101 31q-61 0 -98 -26
t-66 -90h-112zM431 -37l923 1545h112l-925 -1545h-110zM1436 258v248l-214 -248h214zM1547 258h105v-97h-105v-170h-111v170h-432l543 625v-528z" />
    <glyph glyph-name="questiondown" unicode="&#xbf;" horiz-adv-x="1210" 
d="M604 -426q-198 0 -309.5 99t-111.5 243t92.5 215t267.5 141t217 109q41 39 41 95t-56.5 102t-150.5 46t-147.5 -50.5t-65.5 -161.5h-146q7 167 104 260t259 93t258 -84t96 -210t-75 -181.5t-250 -127.5t-235 -115q-60 -44 -61 -128q0 -84 73.5 -144.5t210.5 -60.5t220 99
q58 69 61 198h145q-2 -202 -120.5 -319.5t-316.5 -117.5zM604 1110q51 0 87 -36t36 -88t-36 -88t-87 -36t-87 36t-36 88t36 88t87 36z" />
    <glyph glyph-name="Agrave" unicode="&#xc0;" horiz-adv-x="1515" 
d="M762 1159l-253 -533h503zM780 1471l686 -1471h-158l-231 484h-634l-230 -484h-164l695 1471h36zM697 1895l218 -308h-138l-295 308h215z" />
    <glyph glyph-name="Aacute" unicode="&#xc1;" horiz-adv-x="1515" 
d="M762 1159l-253 -533h503zM780 1471l686 -1471h-158l-231 484h-634l-230 -484h-164l695 1471h36zM825 1895h215l-295 -308h-138z" />
    <glyph glyph-name="Acircumflex" unicode="&#xc2;" horiz-adv-x="1515" 
d="M762 1159l-253 -533h503zM780 1471l686 -1471h-158l-231 484h-634l-230 -484h-164l695 1471h36zM691 1840h139l290 -257h-180l-176 152l-184 -152h-186z" />
    <glyph glyph-name="Atilde" unicode="&#xc3;" horiz-adv-x="1515" 
d="M762 1159l-253 -533h503zM780 1471l686 -1471h-158l-231 484h-634l-230 -484h-164l695 1471h36zM890 1604q-64 0 -134 34t-92 41q-20 6 -52 6q-32 -1 -64 -13t-91 -56l-66 102q91 97 225 97q64 1 151 -39t139 -40t148 53l70 -97q-72 -52 -122 -70q-48 -18 -112 -18z" />
    <glyph glyph-name="Adieresis" unicode="&#xc4;" horiz-adv-x="1515" 
d="M762 1159l-253 -533h503zM780 1471l686 -1471h-158l-231 484h-634l-230 -484h-164l695 1471h36zM962 1816q48 0 82 -34t34 -82t-34 -82t-82 -34t-82 34t-34 82t34 82t82 34zM554 1816q48 0 82 -34t34 -82t-34 -82t-82 -34t-82 34t-34 82t34 82t82 34z" />
    <glyph glyph-name="Aring" unicode="&#xc5;" horiz-adv-x="1515" 
d="M762 1159l-253 -533h503zM780 1471l686 -1471h-158l-231 484h-634l-230 -484h-164l695 1471h36zM756 1888q-46 0 -78 -32t-32 -78t32 -78t78 -32t77 32q32 32 32 78t-32 78q-31 32 -77 32zM757 1989q89 -1 151 -63t62 -150t-62 -152q-62 -62 -150 -62t-152 62
q-62 62 -62 152q0 88 62 150t151 63z" />
    <glyph glyph-name="AE" unicode="&#xc6;" horiz-adv-x="2032" 
d="M1019 620v681l-441 -681h441zM1861 1471v-151h-693v-452h693v-145h-693v-579h693v-144h-842v482h-535l-312 -482h-171l950 1471h910z" />
    <glyph glyph-name="Ccedilla" unicode="&#xc7;" horiz-adv-x="1665" 
d="M266 731q0 -269 184 -449t480 -180q295 0 503 242l116 -88q-111 -140 -275 -216t-367 -77h-13l-12 -81q23 3 55 3q32 -1 65 -31t33 -86t-60 -102t-159 -46t-177 30l22 69q64 -20 120 -20q135 0 135 65q0 17 -16 30t-44 13q-26 0 -72 -9l23 170q-315 30 -506 249
q-190 220 -190 535q1 316 227 536t567 220q206 0 372 -82t272 -228l-116 -89q-195 254 -526 254q-176 -1 -326 -85q-151 -84 -233 -226t-82 -321z" />
    <glyph glyph-name="Egrave" unicode="&#xc8;" horiz-adv-x="1098" 
d="M180 1471h843v-145h-696v-460h690v-144h-690v-577h690v-145h-837v1471zM549 1895l218 -308h-138l-295 308h215z" />
    <glyph glyph-name="Eacute" unicode="&#xc9;" horiz-adv-x="1098" 
d="M180 1471h843v-145h-696v-460h690v-144h-690v-577h690v-145h-837v1471zM677 1895h215l-295 -308h-138z" />
    <glyph glyph-name="Ecircumflex" unicode="&#xca;" horiz-adv-x="1098" 
d="M180 1471h843v-145h-696v-460h690v-144h-690v-577h690v-145h-837v1471zM543 1840h139l290 -257h-180l-176 152l-184 -152h-186z" />
    <glyph glyph-name="Edieresis" unicode="&#xcb;" horiz-adv-x="1098" 
d="M180 1471h843v-145h-696v-460h690v-144h-690v-577h690v-145h-837v1471zM814 1816q48 0 82 -34t34 -82t-34 -82t-82 -34t-82 34t-34 82t34 82t82 34zM406 1816q48 0 82 -34t34 -82t-34 -82t-82 -34t-82 34t-34 82t34 82t82 34z" />
    <glyph glyph-name="Igrave" unicode="&#xcc;" horiz-adv-x="463" 
d="M158 1471h147v-1471h-147v1471zM171 1895l218 -308h-138l-295 308h215z" />
    <glyph glyph-name="Iacute" unicode="&#xcd;" horiz-adv-x="463" 
d="M158 1471h147v-1471h-147v1471zM299 1895h215l-295 -308h-138z" />
    <glyph glyph-name="Icircumflex" unicode="&#xce;" horiz-adv-x="463" 
d="M158 1471h147v-1471h-147v1471zM165 1840h139l290 -257h-180l-176 152l-184 -152h-186z" />
    <glyph glyph-name="Idieresis" unicode="&#xcf;" horiz-adv-x="463" 
d="M158 1471h147v-1471h-147v1471zM436 1816q48 0 82 -34t34 -82t-34 -82t-82 -34t-82 34t-34 82t34 82t82 34zM28 1816q48 0 82 -34t34 -82t-34 -82t-82 -34t-82 34t-34 82t34 82t82 34z" />
    <glyph glyph-name="Eth" unicode="&#xd0;" horiz-adv-x="1618" 
d="M354 667v-528h230q305 0 423 38q166 54 261.5 194.5t95.5 348.5t-103.5 359t-287.5 207q-138 42 -455 42h-164v-524h387v-137h-387zM213 667h-179v137h179v667h366q329 0 479 -53q213 -75 333.5 -260.5t120.5 -423.5t-95.5 -406t-248 -248t-426.5 -80h-529v667z" />
    <glyph glyph-name="Ntilde" unicode="&#xd1;" horiz-adv-x="1515" 
d="M180 0v1471h32l978 -1126v1126h145v-1471h-33l-970 1112v-1112h-152zM890 1604q-64 0 -134 34t-92 41q-20 6 -52 6q-32 -1 -64 -13t-91 -56l-66 102q91 97 225 97q64 1 151 -39t139 -40t148 53l70 -97q-72 -52 -122 -70q-48 -18 -112 -18z" />
    <glyph glyph-name="Ograve" unicode="&#xd2;" horiz-adv-x="1780" 
d="M888 1364q-164 0 -310 -85t-228 -229t-82 -321q0 -263 182 -443t437 -180q171 0 317 83t226 227q82 144 82 320t-82 316q-82 142 -229 227q-149 85 -313 85zM880 1508q334 0 559 -223t225 -547t-224 -550q-224 -225 -550 -225q-325 0 -550 224t-225 542q1 212 103 393
q102 182 279 284t383 102zM829 1895l218 -308h-138l-295 308h215z" />
    <glyph glyph-name="Oacute" unicode="&#xd3;" horiz-adv-x="1780" 
d="M888 1364q-164 0 -310 -85t-228 -229t-82 -321q0 -263 182 -443t437 -180q171 0 317 83t226 227q82 144 82 320t-82 316q-82 142 -229 227q-149 85 -313 85zM880 1508q334 0 559 -223t225 -547t-224 -550q-224 -225 -550 -225q-325 0 -550 224t-225 542q1 212 103 393
q102 182 279 284t383 102zM958 1895h215l-295 -308h-138z" />
    <glyph glyph-name="Ocircumflex" unicode="&#xd4;" horiz-adv-x="1780" 
d="M888 1364q-164 0 -310 -85t-228 -229t-82 -321q0 -263 182 -443t437 -180q171 0 317 83t226 227q82 144 82 320t-82 316q-82 142 -229 227q-149 85 -313 85zM880 1508q334 0 559 -223t225 -547t-224 -550q-224 -225 -550 -225q-325 0 -550 224t-225 542q1 212 103 393
q102 182 279 284t383 102zM824 1840h139l290 -257h-180l-176 152l-184 -152h-186z" />
    <glyph glyph-name="Otilde" unicode="&#xd5;" horiz-adv-x="1780" 
d="M888 1364q-164 0 -310 -85t-228 -229t-82 -321q0 -263 182 -443t437 -180q171 0 317 83t226 227q82 144 82 320t-82 316q-82 142 -229 227q-149 85 -313 85zM880 1508q334 0 559 -223t225 -547t-224 -550q-224 -225 -550 -225q-325 0 -550 224t-225 542q1 212 103 393
q102 182 279 284t383 102zM1022 1604q-64 0 -134 34t-92 41q-20 6 -52 6q-32 -1 -64 -13t-91 -56l-66 102q91 97 225 97q64 1 151 -39t139 -40t148 53l70 -97q-72 -52 -122 -70q-48 -18 -112 -18z" />
    <glyph glyph-name="Odieresis" unicode="&#xd6;" horiz-adv-x="1780" 
d="M888 1364q-164 0 -310 -85t-228 -229t-82 -321q0 -263 182 -443t437 -180q171 0 317 83t226 227q82 144 82 320t-82 316q-82 142 -229 227q-149 85 -313 85zM880 1508q334 0 559 -223t225 -547t-224 -550q-224 -225 -550 -225q-325 0 -550 224t-225 542q1 212 103 393
q102 182 279 284t383 102zM1094 1816q48 0 82 -34t34 -82t-34 -82t-82 -34t-82 34t-34 82t34 82t82 34zM686 1816q48 0 82 -34t34 -82t-34 -82t-82 -34t-82 34t-34 82t34 82t82 34z" />
    <glyph glyph-name="multiply" unicode="&#xd7;" horiz-adv-x="1241" 
d="M712 735l332 -331l-92 -92l-331 331l-332 -331l-92 92l331 331l-331 332l92 92l332 -332l331 332l92 -92z" />
    <glyph glyph-name="Oslash" unicode="&#xd8;" horiz-adv-x="1778" 
d="M880 106q177 0 322.5 83t227 227t81.5 320q0 244 -155 417l-805 -949q152 -98 329 -98zM904 1364q-182 0 -327.5 -85t-227.5 -229t-82 -322q0 -255 177 -437l811 954q-169 119 -351 119zM1663 734q0 -321 -224.5 -546t-547.5 -225q-245 0 -437 128l-164 -194l-107 87
l165 194q-234 227 -234 551q0 212 103 393.5t281 283.5t391 102q257 0 467 -148l144 174l105 -87l-151 -178q209 -214 209 -535z" />
    <glyph glyph-name="Ugrave" unicode="&#xd9;" horiz-adv-x="1341" 
d="M184 1471h147v-888q1 -158 9 -221q8 -64 48 -122t123 -98t161 -39q78 0 146 31q136 63 178 219q15 56 15 230v888h147v-888q0 -197 -38 -319t-154 -211q-116 -90 -287 -90t-298 85t-170 225q-27 86 -27 310v888zM610 1895l218 -308h-138l-295 308h215z" />
    <glyph glyph-name="Uacute" unicode="&#xda;" horiz-adv-x="1341" 
d="M184 1471h147v-888q1 -158 9 -221q8 -64 48 -122t123 -98t161 -39q78 0 146 31q136 63 178 219q15 56 15 230v888h147v-888q0 -197 -38 -319t-154 -211q-116 -90 -287 -90t-298 85t-170 225q-27 86 -27 310v888zM739 1895h215l-295 -308h-138z" />
    <glyph glyph-name="Ucircumflex" unicode="&#xdb;" horiz-adv-x="1341" 
d="M184 1471h147v-888q1 -158 9 -221q8 -64 48 -122t123 -98t161 -39q78 0 146 31q136 63 178 219q15 56 15 230v888h147v-888q0 -197 -38 -319t-154 -211q-116 -90 -287 -90t-298 85t-170 225q-27 86 -27 310v888zM605 1840h139l290 -257h-180l-176 152l-184 -152h-186z
" />
    <glyph glyph-name="Udieresis" unicode="&#xdc;" horiz-adv-x="1341" 
d="M184 1471h147v-888q1 -158 9 -221q8 -64 48 -122t123 -98t161 -39q78 0 146 31q136 63 178 219q15 56 15 230v888h147v-888q0 -197 -38 -319t-154 -211q-116 -90 -287 -90t-298 85t-170 225q-27 86 -27 310v888zM875 1816q48 0 82 -34t34 -82t-34 -82t-82 -34t-82 34
t-34 82t34 82t82 34zM467 1816q48 0 82 -34t34 -82t-34 -82t-82 -34t-82 34t-34 82t34 82t82 34z" />
    <glyph glyph-name="Yacute" unicode="&#xdd;" horiz-adv-x="1212" 
d="M683 0h-145v703l-475 768h170l376 -606l370 606h170l-466 -768v-703zM674 1895h215l-295 -308h-138z" />
    <glyph glyph-name="Thorn" unicode="&#xde;" horiz-adv-x="1212" 
d="M325 984v-500l249 -3q151 0 221 28t110 88.5t40 136.5t-40 137t-105.5 87t-214.5 26h-260zM178 1471h147v-344h146q251 0 339 -22q126 -31 206.5 -127.5t80.5 -242.5t-78.5 -241.5t-196.5 -124.5t-392 -29h-105v-340h-147v1471z" />
    <glyph glyph-name="germandbls" unicode="&#xdf;" horiz-adv-x="1135" 
d="M162 0v995q0 226 43.5 322t143 157.5t234.5 61.5q177 0 285.5 -103t108.5 -259q0 -99 -50 -176t-139 -123q-49 -25 -137 -37q97 -15 149 -42q108 -57 169 -157t61 -231q0 -192 -117 -314t-300 -122q-123 0 -208 49v133q105 -49 188 -49q128 0 212.5 85.5t84.5 229.5
t-101.5 238.5t-293.5 100.5v157h32q139 0 223 73.5t84 175.5t-70 169t-166 67t-167.5 -46.5t-99.5 -116.5t-28 -256v-982h-141z" />
    <glyph glyph-name="agrave" unicode="&#xe0;" horiz-adv-x="1399" 
d="M680 981q-117 1 -216 -57q-100 -58 -158 -162t-58 -220t59 -220q59 -106 159 -164t214 -58t217 58t159 157t55 223q-1 189 -125 316t-306 127zM669 1116q269 0 433 -228v200h138v-1088h-138v187q-177 -215 -437 -215q-231 0 -395 168t-163 404q0 238 165 405t397 167z
M639 1598l218 -308h-138l-295 308h215z" />
    <glyph glyph-name="aacute" unicode="&#xe1;" horiz-adv-x="1399" 
d="M680 981q-117 1 -216 -57q-100 -58 -158 -162t-58 -220t59 -220q59 -106 159 -164t214 -58t217 58t159 157t55 223q-1 189 -125 316t-306 127zM669 1116q269 0 433 -228v200h138v-1088h-138v187q-177 -215 -437 -215q-231 0 -395 168t-163 404q0 238 165 405t397 167z
M767 1598h215l-295 -308h-138z" />
    <glyph glyph-name="acircumflex" unicode="&#xe2;" horiz-adv-x="1399" 
d="M680 981q-117 1 -216 -57q-100 -58 -158 -162t-58 -220t59 -220q59 -106 159 -164t214 -58t217 58t159 157t55 223q-1 189 -125 316t-306 127zM669 1116q269 0 433 -228v200h138v-1088h-138v187q-177 -215 -437 -215q-231 0 -395 168t-163 404q0 238 165 405t397 167z
M633 1542h139l290 -257h-180l-176 152l-184 -152h-186z" />
    <glyph glyph-name="atilde" unicode="&#xe3;" horiz-adv-x="1399" 
d="M680 981q-117 1 -216 -57q-100 -58 -158 -162t-58 -220t59 -220q59 -106 159 -164t214 -58t217 58t159 157t55 223q-1 189 -125 316t-306 127zM669 1116q269 0 433 -228v200h138v-1088h-138v187q-177 -215 -437 -215q-231 0 -395 168t-163 404q0 238 165 405t397 167z
M832 1307q-64 1 -134 35t-92 40q-20 6 -52 6t-64 -12t-91 -57l-66 102q91 97 225 97q64 0 151 -40t139 -39q52 0 148 53l70 -97q-72 -52 -122 -70q-48 -18 -112 -18z" />
    <glyph glyph-name="adieresis" unicode="&#xe4;" horiz-adv-x="1399" 
d="M680 981q-117 1 -216 -57q-100 -58 -158 -162t-58 -220t59 -220q59 -106 159 -164t214 -58t217 58t159 157t55 223q-1 189 -125 316t-306 127zM669 1116q269 0 433 -228v200h138v-1088h-138v187q-177 -215 -437 -215q-231 0 -395 168t-163 404q0 238 165 405t397 167z
M904 1518q48 0 82 -34t34 -82t-34 -82t-82 -34t-82 34t-34 82t34 82t82 34zM496 1518q48 0 82 -34t34 -82t-34 -82t-82 -34t-82 34t-34 82t34 82t82 34z" />
    <glyph glyph-name="aring" unicode="&#xe5;" horiz-adv-x="1399" 
d="M680 981q-117 1 -216 -57q-100 -58 -158 -162t-58 -220t59 -220q59 -106 159 -164t214 -58t217 58t159 157t55 223q-1 189 -125 316t-306 127zM669 1116q269 0 433 -228v200h138v-1088h-138v187q-177 -215 -437 -215q-231 0 -395 168t-163 404q0 238 165 405t397 167z
M698 1590q-46 0 -78 -32t-32 -78t32 -78t78 -32t77 32q32 32 32 78t-32 78q-31 32 -77 32zM699 1691q89 -1 151 -63t62 -150t-62 -152q-62 -62 -150 -62t-152 62q-62 62 -62 152q0 88 62 150t151 63z" />
    <glyph glyph-name="ae" unicode="&#xe6;" horiz-adv-x="2370" 
d="M690 981q-118 0 -217 -57t-154.5 -157.5t-55.5 -222.5q0 -188 124 -313.5t305 -125.5t304.5 124.5t123.5 312.5q0 265 -156 352t-274 87zM1689 982q-94 0 -229 -64t-183 -267h816q-28 114 -81 181t-141 108.5t-182 41.5zM1696 100q255 0 397 257l120 -60
q-74 -155 -213.5 -240t-303.5 -85t-268 59t-183 163v-194h-128v201q-89 -111 -173 -159q-120 -70 -263 -70q-231 0 -396 167.5t-165 408.5q0 156 74 285.5t205 206t275 76.5t249 -60t194 -166v198h128v-197q106 127 205 176t232 49q246 0 406.5 -164.5t159.5 -421.5h-979
q4 -116 62 -219t153.5 -157t211.5 -54z" />
    <glyph glyph-name="ccedilla" unicode="&#xe7;" horiz-adv-x="1325" 
d="M612 -301q135 0 135 65q-1 17 -17 30t-42 13t-73 -9l24 177q-215 18 -364 161q-170 164 -170 399q-1 157 79 293t219 212t311 76q108 0 208 -33q196 -64 290 -221l-111 -69q-144 191 -393 191q-198 0 -330 -128t-132 -311q0 -119 60 -224t166 -163t237 -58q240 0 392 191
l111 -73q-78 -117 -205 -179t-281 -67l-13 -90q23 3 55 3q32 -1 65 -31t33 -86t-60 -102t-159 -46t-177 30l22 69q64 -20 120 -20z" />
    <glyph glyph-name="egrave" unicode="&#xe8;" horiz-adv-x="1331" 
d="M664 982q-160 0 -275 -103q-84 -75 -127 -225h810q-28 112 -82 179t-141 108q-88 41 -185 41zM104 534q0 214 127 376q161 206 435 206t440 -211q118 -149 120 -372h-978q4 -189 121 -311t289 -122q84 0 162 29t133 77t119 155l118 -62q-166 -327 -520 -327
q-266 0 -416 174t-150 388zM605 1598l218 -308h-138l-295 308h215z" />
    <glyph glyph-name="eacute" unicode="&#xe9;" horiz-adv-x="1331" 
d="M664 982q-160 0 -275 -103q-84 -75 -127 -225h810q-28 112 -82 179t-141 108q-88 41 -185 41zM104 534q0 214 127 376q161 206 435 206t440 -211q118 -149 120 -372h-978q4 -189 121 -311t289 -122q84 0 162 29t133 77t119 155l118 -62q-166 -327 -520 -327
q-266 0 -416 174t-150 388zM734 1598h215l-295 -308h-138z" />
    <glyph glyph-name="ecircumflex" unicode="&#xea;" horiz-adv-x="1331" 
d="M664 982q-160 0 -275 -103q-84 -75 -127 -225h810q-28 112 -82 179t-141 108q-88 41 -185 41zM104 534q0 214 127 376q161 206 435 206t440 -211q118 -149 120 -372h-978q4 -189 121 -311t289 -122q84 0 162 29t133 77t119 155l118 -62q-166 -327 -520 -327
q-266 0 -416 174t-150 388zM600 1542h139l290 -257h-180l-176 152l-184 -152h-186z" />
    <glyph glyph-name="edieresis" unicode="&#xeb;" horiz-adv-x="1331" 
d="M664 982q-160 0 -275 -103q-84 -75 -127 -225h810q-28 112 -82 179t-141 108q-88 41 -185 41zM104 534q0 214 127 376q161 206 435 206t440 -211q118 -149 120 -372h-978q4 -189 121 -311t289 -122q84 0 162 29t133 77t119 155l118 -62q-166 -327 -520 -327
q-266 0 -416 174t-150 388zM870 1518q48 0 82 -34t34 -82t-34 -82t-82 -34t-82 34t-34 82t34 82t82 34zM462 1518q48 0 82 -34t34 -82t-34 -82t-82 -34t-82 34t-34 82t34 82t82 34z" />
    <glyph glyph-name="igrave" unicode="&#xec;" horiz-adv-x="410" 
d="M135 1088h141v-1088h-141v1088zM144 1598l218 -308h-138l-295 308h215z" />
    <glyph glyph-name="iacute" unicode="&#xed;" horiz-adv-x="410" 
d="M135 1088h141v-1088h-141v1088zM273 1598h215l-295 -308h-138z" />
    <glyph glyph-name="icircumflex" unicode="&#xee;" horiz-adv-x="410" 
d="M135 1088h141v-1088h-141v1088zM139 1542h139l290 -257h-180l-176 152l-184 -152h-186z" />
    <glyph glyph-name="idieresis" unicode="&#xef;" horiz-adv-x="410" 
d="M135 1088h141v-1088h-141v1088zM409 1518q48 0 82 -34t34 -82t-34 -82t-82 -34t-82 34t-34 82t34 82t82 34zM1 1518q48 0 82 -34t34 -82t-34 -82t-82 -34t-82 34t-34 82t34 82t82 34z" />
    <glyph glyph-name="eth" unicode="&#xf0;" horiz-adv-x="1341" 
d="M680 982q-156 0 -281 -98q-153 -121 -153 -322t124.5 -328.5t300.5 -127.5q114 0 213.5 57.5t155 158.5t55.5 226t-53.5 225t-150 154.5t-211.5 54.5zM1239 570q0 -170 -74.5 -307.5t-206.5 -214t-292 -76.5q-232 0 -396.5 167t-164.5 407t162.5 405t385.5 165
q116 0 251 -65q-94 127 -213 235l-218 -90l-52 106l175 73q-96 80 -166 133h197q52 -37 102 -78l164 68l52 -107l-117 -47q217 -209 314 -406.5t97 -367.5z" />
    <glyph glyph-name="ntilde" unicode="&#xf1;" horiz-adv-x="1249" 
d="M704 1116q122 0 216 -62t140 -167q45 -105 45 -327v-560h-139v519q0 188 -16 251q-50 217 -274 217q-128 0 -228 -84t-132 -208q-20 -81 -20 -296v-399h-140v1088h140v-195q167 223 408 223zM756 1307q-64 1 -134 35t-91 40t-53 6t-62 -12q-32 -12 -92 -57l-66 102
q91 97 225 97q64 0 151 -40t139 -39q52 0 148 53l70 -97q-71 -52 -121 -70t-114 -18z" />
    <glyph glyph-name="ograve" unicode="&#xf2;" horiz-adv-x="1341" 
d="M670 979q-174 0 -298 -129q-125 -129 -125 -312q0 -118 57 -220t154 -158t213 -55q116 -1 213 55t154 158t57 220q1 183 -125 312t-300 129zM104 540q0 228 158 402t408 174q252 0 410 -174t157 -402t-159 -398t-408 -170t-408 170t-158 398zM610 1598l218 -308h-138
l-295 308h215z" />
    <glyph glyph-name="oacute" unicode="&#xf3;" horiz-adv-x="1341" 
d="M670 979q-174 0 -298 -129q-125 -129 -125 -312q0 -118 57 -220t154 -158t213 -55q116 -1 213 55t154 158t57 220q1 183 -125 312t-300 129zM104 540q0 228 158 402t408 174q252 0 410 -174t157 -402t-159 -398t-408 -170t-408 170t-158 398zM739 1598h215l-295 -308
h-138z" />
    <glyph glyph-name="ocircumflex" unicode="&#xf4;" horiz-adv-x="1341" 
d="M670 979q-174 0 -298 -129q-125 -129 -125 -312q0 -118 57 -220t154 -158t213 -55q116 -1 213 55t154 158t57 220q1 183 -125 312t-300 129zM104 540q0 228 158 402t408 174q252 0 410 -174t157 -402t-159 -398t-408 -170t-408 170t-158 398zM605 1542h139l290 -257h-180
l-176 152l-184 -152h-186z" />
    <glyph glyph-name="otilde" unicode="&#xf5;" horiz-adv-x="1341" 
d="M670 979q-174 0 -298 -129q-125 -129 -125 -312q0 -118 57 -220t154 -158t213 -55q116 -1 213 55t154 158t57 220q1 183 -125 312t-300 129zM104 540q0 228 158 402t408 174q252 0 410 -174t157 -402t-159 -398t-408 -170t-408 170t-158 398zM802 1307q-64 1 -134 35
t-91 40t-53 6t-62 -12q-32 -12 -92 -57l-66 102q91 97 225 97q64 0 151 -40t139 -39q52 0 148 53l70 -97q-71 -52 -121 -70t-114 -18z" />
    <glyph glyph-name="odieresis" unicode="&#xf6;" horiz-adv-x="1341" 
d="M670 979q-174 0 -298 -129q-125 -129 -125 -312q0 -118 57 -220t154 -158t213 -55q116 -1 213 55t154 158t57 220q1 183 -125 312t-300 129zM104 540q0 228 158 402t408 174q252 0 410 -174t157 -402t-159 -398t-408 -170t-408 170t-158 398zM875 1518q48 0 82 -34
t34 -82t-34 -82t-82 -34t-82 34t-34 82t34 82t82 34zM467 1518q48 0 82 -34t34 -82t-34 -82t-82 -34t-82 34t-34 82t34 82t82 34z" />
    <glyph glyph-name="divide" unicode="&#xf7;" horiz-adv-x="1124" 
d="M461 466h201v-205h-201v205zM56 804h1012v-137h-1012v137zM461 1207h201v-202h-201v202z" />
    <glyph glyph-name="oslash" unicode="&#xf8;" horiz-adv-x="1337" 
d="M673 105q111 0 208.5 55.5t154.5 157.5t57 232t-86 252l-548 -644q103 -53 214 -53zM684 979q-126 0 -224.5 -58.5t-156.5 -161.5t-58 -205q0 -200 122 -325l560 658q-117 92 -243 92zM1235 532q0 -220 -158.5 -390t-407.5 -170q-164 0 -299 82l-116 -137l-89 74l114 134
q-177 171 -177 407t158 410t408 174q201 0 351 -120l116 137l92 -74l-125 -146q133 -161 133 -381z" />
    <glyph glyph-name="ugrave" unicode="&#xf9;" horiz-adv-x="1245" 
d="M138 1088h141v-508q0 -186 25 -271q26 -85 110 -143t201 -58t199 56t107 134q26 78 26 282v508h143v-534q0 -225 -52 -339q-52 -115 -158 -179t-265 -64t-265 64t-160 180q-52 116 -52 348v524zM561 1598l218 -308h-138l-295 308h215z" />
    <glyph glyph-name="uacute" unicode="&#xfa;" horiz-adv-x="1245" 
d="M138 1088h141v-508q0 -186 25 -271q26 -85 110 -143t201 -58t199 56t107 134q26 78 26 282v508h143v-534q0 -225 -52 -339q-52 -115 -158 -179t-265 -64t-265 64t-160 180q-52 116 -52 348v524zM690 1598h215l-295 -308h-138z" />
    <glyph glyph-name="ucircumflex" unicode="&#xfb;" horiz-adv-x="1245" 
d="M138 1088h141v-508q0 -186 25 -271q26 -85 110 -143t201 -58t199 56t107 134q26 78 26 282v508h143v-534q0 -225 -52 -339q-52 -115 -158 -179t-265 -64t-265 64t-160 180q-52 116 -52 348v524zM556 1542h139l290 -257h-180l-176 152l-184 -152h-186z" />
    <glyph glyph-name="udieresis" unicode="&#xfc;" horiz-adv-x="1245" 
d="M138 1088h141v-508q0 -186 25 -271q26 -85 110 -143t201 -58t199 56t107 134q26 78 26 282v508h143v-534q0 -225 -52 -339q-52 -115 -158 -179t-265 -64t-265 64t-160 180q-52 116 -52 348v524zM826 1518q48 0 82 -34t34 -82t-34 -82t-82 -34t-82 34t-34 82t34 82t82 34z
M418 1518q48 0 82 -34t34 -82t-34 -82t-82 -34t-82 34t-34 82t34 82t82 34z" />
    <glyph glyph-name="yacute" unicode="&#xfd;" horiz-adv-x="1098" 
d="M39 1088h148l374 -838l363 838h149l-649 -1486h-148l210 480zM617 1598h215l-295 -308h-138z" />
    <glyph glyph-name="thorn" unicode="&#xfe;" horiz-adv-x="1397" 
d="M718 981q-182 0 -306.5 -127t-124.5 -316q0 -124 55.5 -223t159 -157t217.5 -58t213.5 58.5t158.5 163t59 220.5t-58.5 220t-157.5 161.5t-216 57.5zM719 -28q-245 0 -422 215v-585h-139v1906h139v-620q166 228 432 228q232 0 397 -167t165 -405t-163.5 -405t-408.5 -167
z" />
    <glyph glyph-name="ydieresis" unicode="&#xff;" horiz-adv-x="1098" 
d="M39 1088h148l374 -838l363 838h149l-649 -1486h-148l210 480zM763 1518q48 0 82 -34t34 -82t-34 -82t-82 -34t-82 34t-34 82t34 82t82 34zM355 1518q48 0 82 -34t34 -82t-34 -82t-82 -34t-82 34t-34 82t34 82t82 34z" />
    <glyph glyph-name="Amacron" unicode="&#x100;" horiz-adv-x="1515" 
d="M762 1159l-253 -533h503zM780 1471l686 -1471h-158l-231 484h-634l-230 -484h-164l695 1471h36zM412 1776h690v-119h-690v119z" />
    <glyph glyph-name="amacron" unicode="&#x101;" horiz-adv-x="1399" 
d="M680 981q-117 1 -216 -57q-100 -58 -158 -162t-58 -220t59 -220q59 -106 159 -164t214 -58t217 58t159 157t55 223q-1 189 -125 316t-306 127zM669 1116q269 0 433 -228v200h138v-1088h-138v187q-177 -215 -437 -215q-231 0 -395 168t-163 404q0 238 165 405t397 167z
M355 1479h690v-119h-690v119z" />
    <glyph glyph-name="Abreve" unicode="&#x102;" horiz-adv-x="1515" 
d="M762 1159l-253 -533h503zM780 1471l686 -1471h-158l-231 484h-634l-230 -484h-164l695 1471h36zM768 1611q-148 -1 -240 59q-93 60 -118 152h132q68 -104 227 -104q80 0 129 23t93 81h128q-23 -90 -113 -150t-238 -61z" />
    <glyph glyph-name="abreve" unicode="&#x103;" horiz-adv-x="1399" 
d="M680 981q-117 1 -216 -57q-100 -58 -158 -162t-58 -220t59 -220q59 -106 159 -164t214 -58t217 58t159 157t55 223q-1 189 -125 316t-306 127zM669 1116q269 0 433 -228v200h138v-1088h-138v187q-177 -215 -437 -215q-231 0 -395 168t-163 404q0 238 165 405t397 167z
M669 1421q80 0 129 23t93 81h128q-23 -91 -113 -151t-238 -60t-240 60q-93 60 -118 151h132q68 -104 227 -104z" />
    <glyph glyph-name="Aogonek" unicode="&#x104;" horiz-adv-x="1515" 
d="M762 1159l-253 -533h503zM1304 -193q0 -46 38 -78t87 -32q50 0 90 5l-9 -85q-42 -10 -85 -10q-111 0 -169 53t-59 127q0 130 119 213h-8l-231 484h-634l-230 -484h-164l695 1471h36l686 -1471h-41q-121 -103 -121 -193z" />
    <glyph glyph-name="aogonek" unicode="&#x105;" horiz-adv-x="1399" 
d="M680 981q-117 1 -216 -57q-100 -58 -158 -162t-58 -220t59 -220q59 -106 159 -164t214 -58t217 58t159 157t55 223q-1 189 -125 316t-306 127zM669 1116q269 0 433 -228v200h138v-1088h-16q-121 -103 -121 -193q-1 -46 37 -78t88 -32t90 5l-9 -85q-42 -10 -85 -10
q-112 0 -170 53t-58 127q0 130 119 213h-13v187q-177 -215 -437 -215q-231 0 -395 168t-163 404q0 238 165 405t397 167z" />
    <glyph glyph-name="Cacute" unicode="&#x106;" horiz-adv-x="1665" 
d="M266 731q0 -269 184 -449t480 -180q295 0 503 242l116 -88q-111 -140 -275 -216t-367 -77q-386 0 -609 257q-187 217 -187 532q1 316 227 536t567 220q206 0 372 -82t272 -228l-116 -89q-195 254 -526 254q-176 -1 -326 -85q-151 -84 -233 -226t-82 -321zM985 1891h215
l-295 -308h-138z" />
    <glyph glyph-name="cacute" unicode="&#x107;" horiz-adv-x="1325" 
d="M708 984q-198 0 -330 -128t-132 -311q0 -119 60 -224t166 -163t237 -58q240 0 392 191l111 -73q-78 -118 -210 -182t-299 -64q-258 0 -428 164t-170 399q-1 157 79 293t219 212t311 76q108 0 208 -33q196 -64 290 -221l-111 -69q-144 191 -393 191zM767 1598h215
l-295 -308h-138z" />
    <glyph glyph-name="Ccircumflex" unicode="&#x108;" horiz-adv-x="1665" 
d="M266 731q0 -269 184 -449t480 -180q295 0 503 242l116 -88q-111 -140 -275 -216t-367 -77q-386 0 -609 257q-187 217 -187 532q1 316 227 536t567 220q206 0 372 -82t272 -228l-116 -89q-195 254 -526 254q-176 -1 -326 -85q-151 -84 -233 -226t-82 -321zM806 1840h139
l290 -257h-180l-176 152l-184 -152h-186z" />
    <glyph glyph-name="ccircumflex" unicode="&#x109;" horiz-adv-x="1325" 
d="M708 984q-198 0 -330 -128t-132 -311q0 -119 60 -224t166 -163t237 -58q240 0 392 191l111 -73q-78 -118 -210 -182t-299 -64q-258 0 -428 164t-170 399q-1 157 79 293t219 212t311 76q108 0 208 -33q196 -64 290 -221l-111 -69q-144 191 -393 191zM598 1542h139
l290 -257h-180l-176 152l-184 -152h-186z" />
    <glyph glyph-name="Cdot" unicode="&#x10a;" horiz-adv-x="1665" 
d="M266 731q0 -269 184 -449t480 -180q295 0 503 242l116 -88q-111 -140 -275 -216t-367 -77q-386 0 -609 257q-187 217 -187 532q1 316 227 536t567 220q206 0 372 -82t272 -228l-116 -89q-195 254 -526 254q-176 -1 -326 -85q-151 -84 -233 -226t-82 -321zM878 1816
q48 0 82 -34t34 -82t-34 -82t-82 -34t-82 34t-34 82t34 82t82 34z" />
    <glyph glyph-name="cdot" unicode="&#x10b;" horiz-adv-x="1325" 
d="M708 984q-198 0 -330 -128t-132 -311q0 -119 60 -224t166 -163t237 -58q240 0 392 191l111 -73q-78 -118 -210 -182t-299 -64q-258 0 -428 164t-170 399q-1 157 79 293t219 212t311 76q108 0 208 -33q196 -64 290 -221l-111 -69q-144 191 -393 191zM683 1518q48 0 82 -34
t34 -82t-34 -82t-82 -34t-82 34t-34 82t34 82t82 34z" />
    <glyph glyph-name="Ccaron" unicode="&#x10c;" horiz-adv-x="1665" 
d="M266 731q0 -269 184 -449t480 -180q295 0 503 242l116 -88q-111 -140 -275 -216t-367 -77q-386 0 -609 257q-187 217 -187 532q1 316 227 536t567 220q206 0 372 -82t272 -228l-116 -89q-195 254 -526 254q-176 -1 -326 -85q-151 -84 -233 -226t-82 -321zM971 1578h-139
l-290 257h180l177 -152l183 152h186z" />
    <glyph glyph-name="ccaron" unicode="&#x10d;" horiz-adv-x="1325" 
d="M708 984q-198 0 -330 -128t-132 -311q0 -119 60 -224t166 -163t237 -58q240 0 392 191l111 -73q-78 -118 -210 -182t-299 -64q-258 0 -428 164t-170 399q-1 157 79 293t219 212t311 76q108 0 208 -33q196 -64 290 -221l-111 -69q-144 191 -393 191zM777 1285h-139
l-290 257h180l177 -152l183 152h186z" />
    <glyph glyph-name="Dcaron" unicode="&#x10e;" horiz-adv-x="1524" 
d="M320 139h170q305 0 423 38q166 55 261 195t95 348t-103 359t-287 207q-138 42 -455 42h-104v-1189zM179 0v1471h305q330 0 479 -53q215 -75 335 -260q120 -186 120 -424t-96 -406t-248 -248t-427 -80h-468zM731 1578h-139l-290 257h180l177 -152l183 152h186z" />
    <glyph glyph-name="dcaron" unicode="&#x10f;" horiz-adv-x="1403" 
d="M1317 1274v234h154v-146q0 -106 -14 -169t-59 -152l-65 38q53 104 59 195h-75zM676 981q-180 0 -303 -131.5t-123 -308.5t125 -309t299 -132t306.5 117t132.5 319t-128.5 323.5t-308.5 121.5zM1242 1508v-1508h-138v187q-177 -215 -429 -215t-409 174t-157 402t163.5 398
t398.5 170q268 0 433 -228v620h138z" />
    <glyph glyph-name="Dslash" unicode="&#x110;" horiz-adv-x="1618" 
d="M354 667v-528h230q305 0 423 38q166 54 261.5 194.5t95.5 348.5t-103.5 359t-287.5 207q-138 42 -455 42h-164v-524h387v-137h-387zM213 667h-179v137h179v667h366q329 0 479 -53q213 -75 333.5 -260.5t120.5 -423.5t-95.5 -406t-248 -248t-426.5 -80h-529v667z" />
    <glyph glyph-name="dmacron" unicode="&#x111;" horiz-adv-x="1403" 
d="M682 981q-117 0 -216 -57.5t-157.5 -161.5t-58.5 -220t59 -220.5t159 -163t214 -58.5t217 58t158.5 157t55.5 223q0 189 -124.5 316t-306.5 127zM671 1116q269 0 433 -228v328h-306v115h306v177h138v-177h160v-115h-160v-1216h-138v187q-177 -215 -437 -215
q-231 0 -394.5 167t-163.5 405t165 405t397 167z" />
    <glyph glyph-name="Emacron" unicode="&#x112;" horiz-adv-x="1098" 
d="M180 1471h843v-145h-696v-460h690v-144h-690v-577h690v-145h-837v1471zM252 1776h690v-119h-690v119z" />
    <glyph glyph-name="emacron" unicode="&#x113;" horiz-adv-x="1331" 
d="M664 982q-160 0 -275 -103q-84 -75 -127 -225h810q-28 112 -82 179t-141 108q-88 41 -185 41zM104 534q0 214 127 376q161 206 435 206t440 -211q118 -149 120 -372h-978q4 -189 121 -311t289 -122q84 0 162 29t133 77t119 155l118 -62q-166 -327 -520 -327
q-266 0 -416 174t-150 388zM320 1479h690v-119h-690v119z" />
    <glyph glyph-name="Ebreve" unicode="&#x114;" horiz-adv-x="1098" 
d="M180 1471h843v-145h-696v-460h690v-144h-690v-577h690v-145h-837v1471zM554 1719q80 0 129 23t93 81h128q-22 -91 -112 -151t-238 -60t-241 60t-118 151h132q68 -104 227 -104z" />
    <glyph glyph-name="ebreve" unicode="&#x115;" horiz-adv-x="1331" 
d="M664 982q-160 0 -275 -103q-84 -75 -127 -225h810q-28 112 -82 179t-141 108q-88 41 -185 41zM104 534q0 214 127 376q161 206 435 206t440 -211q118 -149 120 -372h-978q4 -189 121 -311t289 -122q84 0 162 29t133 77t119 155l118 -62q-166 -327 -520 -327
q-266 0 -416 174t-150 388zM670 1421q80 0 129 23t93 81h128q-22 -91 -112 -151t-238 -60t-241 60t-118 151h132q68 -104 227 -104z" />
    <glyph glyph-name="Edot" unicode="&#x116;" horiz-adv-x="1098" 
d="M180 1471h843v-145h-696v-460h690v-144h-690v-577h690v-145h-837v1471zM602 1816q48 0 82 -34t34 -82t-34 -82t-82 -34t-82 34t-34 82t34 82t82 34z" />
    <glyph glyph-name="edot" unicode="&#x117;" horiz-adv-x="1331" 
d="M664 982q-160 0 -275 -103q-84 -75 -127 -225h810q-28 112 -82 179t-141 108q-88 41 -185 41zM104 534q0 214 127 376q161 206 435 206t440 -211q118 -149 120 -372h-978q4 -189 121 -311t289 -122q84 0 162 29t133 77t119 155l118 -62q-166 -327 -520 -327
q-266 0 -416 174t-150 388zM665 1518q48 0 82 -34t34 -82t-34 -82t-82 -34t-82 34t-34 82t34 82t82 34z" />
    <glyph glyph-name="Eogonek" unicode="&#x118;" horiz-adv-x="1098" 
d="M180 1471h843v-145h-696v-460h690v-144h-690v-577h690v-145h-92q-121 -103 -121 -193q0 -46 38 -78t87 -32q50 0 90 5l-9 -85q-42 -10 -85 -10q-111 0 -169 53t-59 127q0 130 119 213h-636v1471z" />
    <glyph glyph-name="eogonek" unicode="&#x119;" horiz-adv-x="1331" 
d="M664 982q-160 0 -275 -103q-84 -75 -127 -225h810q-28 112 -82 179t-141 108q-88 41 -185 41zM802 -303q50 0 90 5l-9 -85q-42 -10 -85 -10q-112 0 -170 53t-58 127q0 109 84 185q-254 5 -402 177q-148 171 -148 385t127 376q161 206 435 206t440 -211q118 -149 120 -372
h-978q4 -189 121 -311t289 -122q84 0 162 29t133 77t119 155l118 -62q-141 -277 -415 -319q-98 -92 -98 -173q-1 -46 37 -78t88 -32z" />
    <glyph glyph-name="Ecaron" unicode="&#x11a;" horiz-adv-x="1098" 
d="M180 1471h843v-145h-696v-460h690v-144h-690v-577h690v-145h-837v1471zM675 1583h-139l-290 257h180l177 -152l183 152h186z" />
    <glyph glyph-name="ecaron" unicode="&#x11b;" horiz-adv-x="1331" 
d="M664 982q-160 0 -275 -103q-84 -75 -127 -225h810q-28 112 -82 179t-141 108q-88 41 -185 41zM104 534q0 214 127 376q161 206 435 206t440 -211q118 -149 120 -372h-978q4 -189 121 -311t289 -122q84 0 162 29t133 77t119 155l118 -62q-166 -327 -520 -327
q-266 0 -416 174t-150 388zM732 1285h-139l-290 257h180l177 -152l183 152h186z" />
    <glyph glyph-name="Gcircumflex" unicode="&#x11c;" horiz-adv-x="1786" 
d="M912 1362q-156 0 -312 -85t-243 -231q-86 -146 -86 -309t89 -313t246 -236t364 -85q207 0 364 128t186 332h-469v142h634q-3 -341 -203 -541t-536 -201q-408 0 -646 278q-183 214 -183 495q0 209 105 389q105 179 288 281t392 102t374 -68t322 -216l-114 -108
q-250 246 -572 246zM835 1840h139l290 -257h-180l-176 152l-184 -152h-186z" />
    <glyph glyph-name="gcircumflex" unicode="&#x11d;" horiz-adv-x="1378" 
d="M678 981q-116 1 -219 -57q-102 -58 -160 -160t-58 -219q0 -179 120 -296t312 -117q191 0 309 116t118 305q0 123 -54 219t-153 153q-99 56 -215 56zM1093 207q-164 -207 -446 -207q-139 0 -271 74t-204 201q-72 126 -72 277q0 152 75 282t207 206t280 76q248 0 431 -217
v189h141v-867q0 -229 -40 -335q-55 -150 -191 -231q-135 -81 -301 -81t-278 40t-181 106q-70 66 -129 194h152q122 -212 403 -212q143 0 241 54t141 134q42 81 42 261v56zM600 1542h139l290 -257h-180l-176 152l-184 -152h-186z" />
    <glyph glyph-name="Gbreve" unicode="&#x11e;" horiz-adv-x="1786" 
d="M912 1362q-156 0 -312 -85t-243 -231q-86 -146 -86 -309t89 -313t246 -236t364 -85q207 0 364 128t186 332h-469v142h634q-3 -341 -203 -541t-536 -201q-408 0 -646 278q-183 214 -183 495q0 209 105 389q105 179 288 281t392 102t374 -68t322 -216l-114 -108
q-250 246 -572 246zM896 1607q-148 -1 -240 59q-93 60 -118 152h132q68 -104 227 -104q80 0 129 23t93 81h128q-23 -90 -113 -150t-238 -61z" />
    <glyph glyph-name="gbreve" unicode="&#x11f;" horiz-adv-x="1378" 
d="M678 981q-116 1 -219 -57q-102 -58 -160 -160t-58 -219q0 -179 120 -296t312 -117q191 0 309 116t118 305q0 123 -54 219t-153 153q-99 56 -215 56zM1093 207q-164 -207 -446 -207q-139 0 -271 74t-204 201q-72 126 -72 277q0 152 75 282t207 206t280 76q248 0 431 -217
v189h141v-867q0 -229 -40 -335q-55 -150 -191 -231q-135 -81 -301 -81t-278 40t-181 106q-70 66 -129 194h152q122 -212 403 -212q143 0 241 54t141 134q42 81 42 261v56zM694 1314q-148 0 -241 60t-118 151h132q68 -104 227 -104q80 0 129 23t93 81h128q-22 -91 -112 -151
t-238 -60z" />
    <glyph glyph-name="Gdot" unicode="&#x120;" horiz-adv-x="1786" 
d="M912 1362q-156 0 -312 -85t-243 -231q-86 -146 -86 -309t89 -313t246 -236t364 -85q207 0 364 128t186 332h-469v142h634q-3 -341 -203 -541t-536 -201q-408 0 -646 278q-183 214 -183 495q0 209 105 389q105 179 288 281t392 102t374 -68t322 -216l-114 -108
q-250 246 -572 246zM913 1816q48 0 82 -34t34 -82t-34 -82t-82 -34t-82 34t-34 82t34 82t82 34z" />
    <glyph glyph-name="gdot" unicode="&#x121;" horiz-adv-x="1378" 
d="M678 981q-116 1 -219 -57q-102 -58 -160 -160t-58 -219q0 -179 120 -296t312 -117q191 0 309 116t118 305q0 123 -54 219t-153 153q-99 56 -215 56zM1093 207q-164 -207 -446 -207q-139 0 -271 74t-204 201q-72 126 -72 277q0 152 75 282t207 206t280 76q248 0 431 -217
v189h141v-867q0 -229 -40 -335q-55 -150 -191 -231q-135 -81 -301 -81t-278 40t-181 106q-70 66 -129 194h152q122 -212 403 -212q143 0 241 54t141 134q42 81 42 261v56zM692 1518q48 0 82 -34t34 -82t-34 -82t-82 -34t-82 34t-34 82t34 82t82 34z" />
    <glyph glyph-name="Gcedilla" unicode="&#x122;" horiz-adv-x="1786" 
d="M1484 1116q-250 246 -572 246q-156 0 -312 -85t-243 -231q-86 -146 -86 -309t89 -313t246 -236t364 -85q207 0 364 128t186 332h-469v142h634q-2 -341 -201 -540t-529 -202l-12 -81q23 3 55 3q32 -1 65 -31t33 -86t-60 -102t-159 -46t-177 30l22 69q64 -20 120 -20
q135 0 135 65q-1 17 -17 30t-42 13t-73 -9l22 168q-353 25 -567 275q-183 214 -183 495q0 209 105 389q105 179 288 281t392 102t374 -68t322 -216z" />
    <glyph glyph-name="gcedilla" unicode="&#x123;" horiz-adv-x="1378" 
d="M678 981q-116 1 -219 -57q-102 -58 -160 -160t-58 -219q0 -179 120 -296t312 -117q191 0 309 116t118 305q0 123 -54 219t-153 153q-99 56 -215 56zM1093 207q-164 -207 -446 -207q-139 0 -271 74t-204 201q-72 126 -72 277q0 152 75 282t207 206t280 76q248 0 431 -217
v189h141v-867q0 -229 -40 -335q-55 -150 -191 -231q-135 -81 -301 -81t-278 40t-181 106q-70 66 -129 194h152q122 -212 403 -212q143 0 241 54t141 134q42 81 42 261v56zM775 1544v-275h-181v172q0 129 18 203t67 174l78 -44q-38 -76 -51 -119t-20 -111h89z" />
    <glyph glyph-name="Hcircumflex" unicode="&#x124;" horiz-adv-x="1399" 
d="M177 1471h148v-617h748v617h148v-1471h-148v710h-748v-710h-148v1471zM633 1840h139l290 -257h-180l-176 152l-184 -152h-186z" />
    <glyph glyph-name="hcircumflex" unicode="&#x125;" horiz-adv-x="1249" 
d="M704 1116q122 0 216 -62t140 -166q45 -104 45 -328v-560h-140v519q0 188 -15 251q-52 217 -274 217q-128 0 -228 -84t-132 -208q-20 -80 -20 -296v-399h-140v1508h140v-615q169 223 408 223zM558 1840h139l290 -257h-180l-176 152l-184 -152h-186z" />
    <glyph glyph-name="Hbar" unicode="&#x126;" horiz-adv-x="1399" 
d="M326 1101v-247h747v247h-747zM326 1239h747v232h148v-232h133v-138h-133v-1101h-148v710h-747v-710h-148v1101h-133v138h133v232h148v-232z" />
    <glyph glyph-name="hbar" unicode="&#x127;" horiz-adv-x="1249" 
d="M296 1356h374v-116h-374v-347q169 223 407 223q142 0 241 -78.5t130 -184t31 -293.5v-560h-140v519q0 189 -20.5 274t-88.5 139.5t-172 54.5t-180 -44t-126.5 -118t-66 -152.5t-15.5 -273.5v-399h-140v1240h-152v116h152v152h140v-152z" />
    <glyph glyph-name="Itilde" unicode="&#x128;" horiz-adv-x="463" 
d="M158 1471h147v-1471h-147v1471zM364 1605q-64 1 -134 35t-92 40q-20 6 -52 6t-64 -12t-91 -57l-66 102q91 97 225 97q64 0 151 -40t139 -39q52 0 148 53l70 -97q-72 -52 -122 -70q-48 -18 -112 -18z" />
    <glyph glyph-name="itilde" unicode="&#x129;" horiz-adv-x="410" 
d="M135 1088h141v-1088h-141v1088zM336 1307q-64 1 -134 35t-91 40t-53 6t-62 -12q-32 -12 -92 -57l-66 102q91 97 225 97q64 0 151 -40t139 -39q52 0 148 53l70 -97q-71 -52 -121 -70t-114 -18z" />
    <glyph glyph-name="Imacron" unicode="&#x12a;" horiz-adv-x="463" 
d="M158 1471h147v-1471h-147v1471zM-113 1776h690v-119h-690v119z" />
    <glyph glyph-name="imacron" unicode="&#x12b;" horiz-adv-x="410" 
d="M135 1088h141v-1088h-141v1088zM-140 1479h690v-119h-690v119z" />
    <glyph glyph-name="Ibreve" unicode="&#x12c;" horiz-adv-x="463" 
d="M158 1471h147v-1471h-147v1471zM236 1719q80 0 129 23t93 81h128q-22 -91 -112 -151t-238 -60t-241 60t-118 151h132q68 -104 227 -104z" />
    <glyph glyph-name="ibreve" unicode="&#x12d;" horiz-adv-x="410" 
d="M135 1088h141v-1088h-141v1088zM210 1421q80 0 129 23t93 81h128q-22 -91 -112 -151t-238 -60t-241 60t-118 151h132q68 -104 227 -104z" />
    <glyph glyph-name="Iogonek" unicode="&#x12e;" horiz-adv-x="463" 
d="M158 1471h147v-1471q-121 -103 -121 -193q0 -46 38 -78t87 -32q50 0 90 5l-9 -85q-42 -10 -85 -10q-111 0 -169 53t-59 127q0 130 119 213h-38v1471z" />
    <glyph glyph-name="iogonek" unicode="&#x12f;" horiz-adv-x="410" 
d="M135 1088h141v-1088q-121 -103 -121 -193q-1 -46 37 -78t88 -32t90 5l-9 -85q-42 -10 -85 -10q-112 0 -170 53t-58 127q0 130 119 213h-32v1088zM206 1536q48 0 81 -34q34 -34 34 -82t-34 -81q-33 -34 -81 -34t-82 34q-34 33 -34 81t34 82t82 34z" />
    <glyph glyph-name="Idotaccent" unicode="&#x130;" horiz-adv-x="463" 
d="M158 1471h147v-1471h-147v1471zM232 1811q48 0 82 -34t34 -82t-34 -82t-82 -34t-82 34t-34 82t34 82t82 34z" />
    <glyph glyph-name="dotlessi" unicode="&#x131;" horiz-adv-x="410" 
d="M135 1088h141v-1088h-141v1088z" />
    <glyph glyph-name="IJ" unicode="&#x132;" horiz-adv-x="1450" 
d="M1124 1471h147v-993q0 -196 -25.5 -292.5t-113.5 -159.5t-216 -63q-183 0 -367 156l79 117q189 -136 288 -136q73 0 127 48t67.5 115.5t13.5 219.5v988zM158 1471h147v-1471h-147v1471z" />
    <glyph glyph-name="ij" unicode="&#x133;" horiz-adv-x="825" 
d="M549 1088h142v-1252q0 -262 -185 -262q-74 0 -160 34v126q54 -29 97 -29t67.5 21t31.5 48.5t7 102.5v1211zM135 1088h141v-1088h-141v1088zM618 1536q47 0 81 -33t34 -81t-34 -82.5t-81 -34.5t-81 34.5t-34 82.5t34 81t81 33zM206 1536q47 0 81 -34t34 -82t-33.5 -81.5
t-81.5 -33.5t-82 34.5t-34 82.5t34.5 81t81.5 33z" />
    <glyph glyph-name="Jcircumflex" unicode="&#x134;" horiz-adv-x="987" 
d="M660 1471h148v-993q0 -228 -36 -318t-118 -144t-186 -53t-190 35t-192 121l78 117q115 -80 178 -108q62 -28 118 -28t108 38t72 101t20 244v988zM559 1840h139l290 -257h-180l-176 152l-184 -152h-186z" />
    <glyph glyph-name="jcircumflex" unicode="&#x135;" horiz-adv-x="416" 
d="M139 1088h142v-1252q0 -262 -185 -262q-74 0 -160 34v126q54 -29 97 -29t67.5 21t31.5 48.5t7 102.5v1211zM142 1542h139l290 -257h-180l-176 152l-184 -152h-186z" />
    <glyph glyph-name="Kcedilla" unicode="&#x136;" horiz-adv-x="1210" 
d="M179 1471h150v-552l587 552h199l-707 -660l762 -811h-195l-646 686v-686h-150v1471zM589 -112q157 0 157 -110q0 -70 -62 -114t-146 -44t-167 22l22 71q68 -14 104 -14q130 0 130 65q0 43 -73 43q-27 0 -72 -13l12 79q46 15 95 15z" />
    <glyph glyph-name="kcedilla" unicode="&#x137;" horiz-adv-x="1028" 
d="M155 1508h141v-858l503 438h206l-597 -519l632 -569h-198l-546 489v-489h-141v1508zM514 -112q157 0 157 -110q-1 -70 -63 -114t-146 -44t-166 22l22 71q68 -14 104 -14q130 0 130 65q0 43 -73 43q-27 0 -72 -13l12 79q46 15 95 15z" />
    <glyph glyph-name="kgreenlandic" unicode="&#x138;" horiz-adv-x="1028" 
d="M155 1088h141v-438l503 438h206l-597 -519l632 -569h-198l-546 489v-489h-141v1088z" />
    <glyph glyph-name="Lacute" unicode="&#x139;" horiz-adv-x="946" 
d="M179 1471h148v-1329h565v-142h-713v1471zM547 1896h215l-295 -308h-138z" />
    <glyph glyph-name="lacute" unicode="&#x13a;" horiz-adv-x="410" 
d="M135 1508h140v-1508h-140v1508zM297 1895h215l-295 -308h-138z" />
    <glyph glyph-name="Lcedilla" unicode="&#x13b;" horiz-adv-x="946" 
d="M179 1471h148v-1329h565v-142h-713v1471zM503 -112q157 0 157 -110q0 -70 -62 -114t-146 -44t-167 22l22 71q68 -14 104 -14q130 0 130 65q0 43 -73 43q-27 0 -72 -13l12 79q46 15 95 15z" />
    <glyph glyph-name="lcedilla" unicode="&#x13c;" horiz-adv-x="410" 
d="M135 1508h140v-1508h-140v1508zM201 -112q157 0 157 -110q0 -70 -62 -114t-146 -44t-167 22l22 71q68 -14 104 -14q130 0 130 65q0 43 -73 43q-27 0 -72 -13l12 79q46 15 95 15z" />
    <glyph glyph-name="Lcaron" unicode="&#x13d;" horiz-adv-x="946" 
d="M179 1471h148v-1329h565v-142h-713v1471zM463 1196v275h181v-172q0 -129 -18 -203t-68 -174l-77 44q38 76 51 119t19 111h-88z" />
    <glyph glyph-name="lcaron" unicode="&#x13e;" horiz-adv-x="422" 
d="M349 1274v234h153v-146q0 -106 -13.5 -169t-58.5 -152l-66 38q53 104 60 195h-75zM134 1508h140v-1508h-140v1508z" />
    <glyph glyph-name="Ldot" unicode="&#x13f;" horiz-adv-x="946" 
d="M179 1471h148v-1329h565v-142h-713v1471zM612 870q48 0 82 -34t34 -82t-34 -82t-82 -34t-82 34t-34 82t34 82t82 34z" />
    <glyph glyph-name="ldot" unicode="&#x140;" horiz-adv-x="540" 
d="M135 1508h140v-1508h-140v1508zM472 870q48 0 82 -34t34 -82t-34 -82t-82 -34t-82 34t-34 82t34 82t82 34z" />
    <glyph glyph-name="Lslash" unicode="&#x141;" horiz-adv-x="1059" 
d="M438 142h566v-142h-713v559l-202 -168v175l202 168v737h147v-614l266 221v-174l-266 -222v-540z" />
    <glyph glyph-name="lslash" unicode="&#x142;" horiz-adv-x="614" 
d="M377 0h-140v741l-184 -119v140l184 119v627h140v-537l200 129v-140l-200 -129v-831z" />
    <glyph glyph-name="Nacute" unicode="&#x143;" horiz-adv-x="1515" 
d="M180 0v1471h32l978 -1126v1126h145v-1471h-33l-970 1112v-1112h-152zM860 1895h215l-295 -308h-138z" />
    <glyph glyph-name="nacute" unicode="&#x144;" horiz-adv-x="1249" 
d="M704 1116q122 0 216 -62t140 -167q45 -105 45 -327v-560h-139v519q0 188 -16 251q-50 217 -274 217q-128 0 -228 -84t-132 -208q-20 -81 -20 -296v-399h-140v1088h140v-195q167 223 408 223zM667 1598h215l-295 -308h-138z" />
    <glyph glyph-name="Ncedilla" unicode="&#x145;" horiz-adv-x="1515" 
d="M180 0v1471h32l978 -1126v1126h145v-1471h-33l-970 1112v-1112h-152zM753 -112q157 0 157 -110q0 -70 -62 -114t-146 -44t-167 22l22 71q68 -14 104 -14q130 0 130 65q0 43 -73 43q-27 0 -72 -13l12 79q46 15 95 15z" />
    <glyph glyph-name="ncedilla" unicode="&#x146;" horiz-adv-x="1249" 
d="M704 1116q122 0 216 -62t140 -167q45 -105 45 -327v-560h-139v519q0 188 -16 251q-50 217 -274 217q-128 0 -228 -84t-132 -208q-20 -81 -20 -296v-399h-140v1088h140v-195q167 223 408 223zM621 -112q157 0 157 -110q0 -70 -62 -114t-146 -44t-167 22l22 71
q68 -14 104 -14q130 0 130 65q0 43 -73 43q-27 0 -72 -13l12 79q46 15 95 15z" />
    <glyph glyph-name="Ncaron" unicode="&#x147;" horiz-adv-x="1515" 
d="M180 0v1471h32l978 -1126v1126h145v-1471h-33l-970 1112v-1112h-152zM830 1582h-139l-290 257h180l177 -152l183 152h186z" />
    <glyph glyph-name="ncaron" unicode="&#x148;" horiz-adv-x="1249" 
d="M704 1116q122 0 216 -62t140 -167q45 -105 45 -327v-560h-139v519q0 188 -16 251q-50 217 -274 217q-128 0 -228 -84t-132 -208q-20 -81 -20 -296v-399h-140v1088h140v-195q167 223 408 223zM755 1285h-139l-290 257h180l177 -152l183 152h186z" />
    <glyph glyph-name="napostrophe" unicode="&#x149;" horiz-adv-x="1254" 
d="M709 1116q123 0 217 -62t139 -167t45 -327v-560h-139v519q0 188 -16 251q-50 217 -274 217q-127 0 -227 -84t-133 -208q-20 -81 -20 -296v-399h-140v1088h140v-195q167 223 408 223zM-69 1233v275h181v-172q0 -128 -18 -202t-68 -175l-77 44q38 76 51 119t19 111h-88z
" />
    <glyph glyph-name="Eng" unicode="&#x14a;" horiz-adv-x="1591" 
d="M896 102q185 0 305.5 184t120.5 456t-155.5 449.5t-382.5 177.5q-136 0 -257.5 -70.5t-200.5 -179.5v-1119h-148v1471h148v-178q197 215 486 215t476.5 -225t187.5 -559t-167 -547.5t-418 -213.5q-219 0 -362 188l105 91q103 -140 262 -140z" />
    <glyph glyph-name="eng" unicode="&#x14b;" horiz-adv-x="1249" 
d="M1105 560v-724q0 -262 -187 -262q-72 0 -157 34v126q53 -29 97 -29t68.5 21t32 48.5t7.5 102.5v642q0 189 -21 274t-89 139.5t-172 54.5t-180 -44t-126.5 -118t-66 -152.5t-15.5 -273.5v-399h-140v1088h140v-195q168 223 407 223q141 0 239.5 -77.5t130.5 -183.5t32 -295
z" />
    <glyph glyph-name="Omacron" unicode="&#x14c;" horiz-adv-x="1780" 
d="M888 1364q-164 0 -310 -85t-228 -229t-82 -321q0 -263 182 -443t437 -180q171 0 317 83t226 227q82 144 82 320t-82 316q-82 142 -229 227q-149 85 -313 85zM880 1508q334 0 559 -223t225 -547t-224 -550q-224 -225 -550 -225q-325 0 -550 224t-225 542q1 212 103 393
q102 182 279 284t383 102zM545 1777h690v-119h-690v119z" />
    <glyph glyph-name="omacron" unicode="&#x14d;" horiz-adv-x="1341" 
d="M670 979q-174 0 -298 -129q-125 -129 -125 -312q0 -118 57 -220t154 -158t213 -55q116 -1 213 55t154 158t57 220q1 183 -125 312t-300 129zM104 540q0 228 158 402t408 174q252 0 410 -174t157 -402t-159 -398t-408 -170t-408 170t-158 398zM326 1479h690v-119h-690v119
z" />
    <glyph glyph-name="Obreve" unicode="&#x14e;" horiz-adv-x="1780" 
d="M888 1364q-164 0 -310 -85t-228 -229t-82 -321q0 -263 182 -443t437 -180q171 0 317 83t226 227q82 144 82 320t-82 316q-82 142 -229 227q-149 85 -313 85zM880 1508q334 0 559 -223t225 -547t-224 -550q-224 -225 -550 -225q-325 0 -550 224t-225 542q1 212 103 393
q102 182 279 284t383 102zM894 1719q80 0 129 23t93 81h128q-22 -91 -112 -151t-238 -60t-241 60t-118 151h132q68 -104 227 -104z" />
    <glyph glyph-name="obreve" unicode="&#x14f;" horiz-adv-x="1341" 
d="M670 979q-174 0 -298 -129q-125 -129 -125 -312q0 -118 57 -220t154 -158t213 -55q116 -1 213 55t154 158t57 220q1 183 -125 312t-300 129zM104 540q0 228 158 402t408 174q252 0 410 -174t157 -402t-159 -398t-408 -170t-408 170t-158 398zM674 1314q-148 0 -240 60
q-93 60 -118 151h132q68 -104 227 -104q80 0 129 23t93 81h128q-23 -91 -113 -151t-238 -60z" />
    <glyph glyph-name="Odblacute" unicode="&#x150;" horiz-adv-x="1780" 
d="M888 1364q-164 0 -310 -85t-228 -229t-82 -321q0 -263 182 -443t437 -180q171 0 317 83t226 227q82 144 82 320t-82 316q-82 142 -229 227q-149 85 -313 85zM880 1508q334 0 559 -223t225 -547t-224 -550q-224 -225 -550 -225q-325 0 -550 224t-225 542q1 212 103 393
q102 182 279 284t383 102zM1166 1896h215l-295 -308h-138zM850 1896h215l-295 -308h-138z" />
    <glyph glyph-name="odblacute" unicode="&#x151;" horiz-adv-x="1341" 
d="M670 979q-174 0 -298 -129q-125 -129 -125 -312q0 -118 57 -220t154 -158t213 -55q116 -1 213 55t154 158t57 220q1 183 -125 312t-300 129zM104 540q0 228 158 402t408 174q252 0 410 -174t157 -402t-159 -398t-408 -170t-408 170t-158 398zM964 1598h215l-295 -308
h-138zM648 1598h215l-295 -308h-138z" />
    <glyph glyph-name="OE" unicode="&#x152;" horiz-adv-x="2445" 
d="M891 1366q-247 0 -432.5 -187t-185.5 -445t182.5 -443t442.5 -185t441 184.5t181 446.5q0 171 -83 314t-233 229t-313 86zM1522 1471h838v-145h-689v-457h689v-145h-689v-579h689v-145h-838v285q-99 -126 -235.5 -224t-392.5 -98q-369 0 -598 273q-182 217 -182 492
q0 208 102.5 390t288 286t387.5 104t364 -92t266 -230v285z" />
    <glyph glyph-name="oe" unicode="&#x153;" horiz-adv-x="2329" 
d="M1652 980q-152 0 -269 -100q-91 -77 -132 -229h810q-41 158 -149 243.5t-260 85.5zM672 981q-111 0 -209 -57.5t-155 -161.5t-57 -221t56.5 -219t159.5 -161.5t213 -59.5t210.5 58.5t154.5 157t54 220.5q0 188 -124 316t-303 128zM677 -28q-235 0 -400 168t-165 424
t206 423q159 129 341 129t318 -88q99 -63 189 -200q84 133 178 196q136 92 313 92q233 0 395.5 -161.5t162.5 -387.5l-1 -36h-976q14 -223 139.5 -326.5t270.5 -103.5q291 0 413 260l119 -61q-94 -173 -221.5 -250.5t-304.5 -77.5q-98 0 -188.5 30.5t-154.5 80.5t-145 164
q-183 -275 -489 -275z" />
    <glyph glyph-name="Racute" unicode="&#x154;" horiz-adv-x="1243" 
d="M334 1327v-500l253 -2q147 0 217 28q70 27 110 89t40 137t-40 135t-105 87q-65 26 -216 26h-259zM187 1471h293q245 0 332 -20q131 -31 213 -129t82 -230q-1 -132 -57 -223t-161 -137t-290 -48l529 -684h-182l-528 684h-84v-684h-147v1471zM725 1895h215l-295 -308h-138z
" />
    <glyph glyph-name="racute" unicode="&#x155;" horiz-adv-x="616" 
d="M529 1116q58 0 124 -37l-73 -118q-44 19 -74 19q-70 0 -135 -58t-95 -164q-30 -107 -30 -390v-368h-143v1088h143v-159q127 187 283 187zM422 1598h215l-295 -308h-138z" />
    <glyph glyph-name="Rcedilla" unicode="&#x156;" horiz-adv-x="1243" 
d="M334 1327v-500l253 -2q147 0 217 28q70 27 110 89t40 137t-40 135t-105 87q-65 26 -216 26h-259zM187 1471h293q245 0 332 -20q131 -31 213 -129t82 -230q-1 -132 -57 -223t-161 -137t-290 -48l529 -684h-182l-528 684h-84v-684h-147v1471zM599 -112q157 0 157 -110
q0 -70 -62 -114t-146 -44t-167 22l22 71q68 -14 104 -14q130 0 130 65q0 43 -73 43q-27 0 -72 -13l12 79q46 15 95 15z" />
    <glyph glyph-name="rcedilla" unicode="&#x157;" horiz-adv-x="616" 
d="M529 1116q58 0 124 -37l-73 -118q-44 19 -74 19q-70 0 -135 -58t-95 -164q-30 -107 -30 -390v-368h-143v1088h143v-159q127 187 283 187zM291 -112q157 0 157 -110q0 -70 -62 -114t-146 -44t-167 22l22 71q68 -14 104 -14q130 0 130 65q0 43 -73 43q-27 0 -72 -13l12 79
q46 15 95 15z" />
    <glyph glyph-name="Rcaron" unicode="&#x158;" horiz-adv-x="1243" 
d="M334 1327v-500l253 -2q147 0 217 28q70 27 110 89t40 137t-40 135t-105 87q-65 26 -216 26h-259zM187 1471h293q245 0 332 -20q131 -31 213 -129t82 -230q-1 -132 -57 -223t-161 -137t-290 -48l529 -684h-182l-528 684h-84v-684h-147v1471zM653 1582h-139l-290 257h180
l177 -152l183 152h186z" />
    <glyph glyph-name="rcaron" unicode="&#x159;" horiz-adv-x="616" 
d="M529 1116q58 0 124 -37l-73 -118q-44 19 -74 19q-70 0 -135 -58t-95 -164q-30 -107 -30 -390v-368h-143v1088h143v-159q127 187 283 187zM398 1285h-139l-290 257h180l177 -152l183 152h186z" />
    <glyph glyph-name="Sacute" unicode="&#x15a;" horiz-adv-x="1020" 
d="M457 106q74 0 139 34t99 93q34 57 34 127q1 70 -59 154t-244 224q-184 138 -228 200q-78 104 -78 212t46 188q46 78 130 124t184 46q102 0 192 -52t191 -189l-120 -91q-83 110 -141 145t-138 35t-136 -54t-56 -118t20 -108q20 -46 61 -86t217 -170t247 -240t71 -221
q0 -160 -122 -278t-295 -118q-134 -1 -243 71t-201 240l125 75q132 -243 305 -243zM552 1895h215l-295 -308h-138z" />
    <glyph glyph-name="sacute" unicode="&#x15b;" horiz-adv-x="795" 
d="M394 985q-68 0 -116 -45q-48 -46 -49 -102q0 -56 40 -104t182 -122t198 -149q55 -76 55 -171q0 -134 -94 -227t-235 -93q-93 0 -179 41t-142 113l88 100q107 -121 227 -121q84 0 143 54q59 55 59 121t-39 112t-181 120q-142 73 -195 147q-53 73 -53 183q1 110 85 192
t224 82t291 -147l-90 -93q-112 109 -219 109zM402 1598h215l-295 -308h-138z" />
    <glyph glyph-name="Scircumflex" unicode="&#x15c;" horiz-adv-x="1020" 
d="M457 106q74 0 139 34t99 93q34 57 34 127q1 70 -59 154t-244 224q-184 138 -228 200q-78 104 -78 212t46 188q46 78 130 124t184 46q102 0 192 -52t191 -189l-120 -91q-83 110 -141 145t-138 35t-136 -54t-56 -118t20 -108q20 -46 61 -86t217 -170t247 -240t71 -221
q0 -160 -122 -278t-295 -118q-134 -1 -243 71t-201 240l125 75q132 -243 305 -243zM444 1840h139l290 -257h-180l-176 152l-184 -152h-186z" />
    <glyph glyph-name="scircumflex" unicode="&#x15d;" horiz-adv-x="795" 
d="M394 985q-68 0 -116 -45q-48 -46 -49 -102q0 -56 40 -104t182 -122t198 -149q55 -76 55 -171q0 -134 -94 -227t-235 -93q-93 0 -179 41t-142 113l88 100q107 -121 227 -121q84 0 143 54q59 55 59 121t-39 112t-181 120q-142 73 -195 147q-53 73 -53 183q1 110 85 192
t224 82t291 -147l-90 -93q-112 109 -219 109zM332 1542h139l290 -257h-180l-176 152l-184 -152h-186z" />
    <glyph glyph-name="Scedilla" unicode="&#x15e;" horiz-adv-x="1020" 
d="M399 -301q135 0 135 65q0 17 -16 30t-44 13q-26 0 -72 -9l22 167q-107 10 -206 76q-99 65 -191 233l125 75q132 -243 305 -243q74 0 139 34t99 93q34 57 34 127q1 70 -59 154t-244 224q-184 138 -228 200q-78 104 -78 212t46 188q46 78 130 124t184 46q102 0 192 -52
t191 -189l-120 -91q-83 110 -141 145t-138 35t-136 -54t-56 -118t20 -108q20 -46 61 -86t217 -170t247 -240t71 -221q0 -160 -114 -271t-262 -123l-12 -83q23 3 55 3q32 -1 65 -31t33 -86t-60 -102t-159 -46t-177 30l22 69q64 -20 120 -20z" />
    <glyph glyph-name="scedilla" unicode="&#x15f;" horiz-adv-x="795" 
d="M310 -301q135 0 135 65q-1 17 -17 30t-42 13t-73 -9l23 176q-73 7 -149 43q-77 37 -133 109l88 100q107 -121 227 -121q84 0 143 54q59 55 59 121t-39 112t-181 120q-142 73 -195 147q-53 73 -53 183q1 110 85 192t224 82t291 -147l-90 -93q-112 109 -219 109
q-68 0 -116 -45q-48 -46 -49 -102q0 -56 40 -104t182 -122t198 -149q55 -76 55 -171q0 -134 -86 -219t-194 -98l-13 -93q23 3 55 3q32 -1 65 -31t33 -86t-60 -102t-159 -46t-177 30l22 69q64 -20 120 -20z" />
    <glyph glyph-name="Scaron" unicode="&#x160;" horiz-adv-x="1020" 
d="M457 106q74 0 139 34t99 93q34 57 34 127q1 70 -59 154t-244 224q-184 138 -228 200q-78 104 -78 212t46 188q46 78 130 124t184 46q102 0 192 -52t191 -189l-120 -91q-83 110 -141 145t-138 35t-136 -54t-56 -118t20 -108q20 -46 61 -86t217 -170t247 -240t71 -221
q0 -160 -122 -278t-295 -118q-134 -1 -243 71t-201 240l125 75q132 -243 305 -243zM576 1583h-139l-290 257h180l177 -152l183 152h186z" />
    <glyph glyph-name="scaron" unicode="&#x161;" horiz-adv-x="795" 
d="M394 985q-68 0 -116 -45q-48 -46 -49 -102q0 -56 40 -104t182 -122t198 -149q55 -76 55 -171q0 -134 -94 -227t-235 -93q-93 0 -179 41t-142 113l88 100q107 -121 227 -121q84 0 143 54q59 55 59 121t-39 112t-181 120q-142 73 -195 147q-53 73 -53 183q1 110 85 192
t224 82t291 -147l-90 -93q-112 109 -219 109zM463 1285h-139l-290 257h180l177 -152l183 152h186z" />
    <glyph glyph-name="Tcedilla" unicode="&#x162;" horiz-adv-x="872" 
d="M358 -275v154h157v-51q0 -167 -44 -255l-65 27q32 72 35 125h-83zM33 1328v143h807v-143h-328v-1328h-150v1328h-329z" />
    <glyph glyph-name="tcedilla" unicode="&#x163;" horiz-adv-x="694" 
d="M269 -275v154h156v-51q0 -167 -43 -255l-65 27q32 72 34 125h-82zM278 1492h141v-404h222v-120h-222v-968h-141v968h-191v120h191v404z" />
    <glyph glyph-name="Tcaron" unicode="&#x164;" horiz-adv-x="872" 
d="M33 1328v143h807v-143h-328v-1328h-150v1328h-329zM520 1578h-139l-290 257h180l177 -152l183 152h186z" />
    <glyph glyph-name="tcaron" unicode="&#x165;" horiz-adv-x="694" 
d="M278 1492h141v-404h222v-120h-222v-968h-141v968h-191v120h191v404zM521 1344v164h138v-103q0 -85 -11 -129.5t-56 -112.5l-59 26q53 83 56 155h-68z" />
    <glyph glyph-name="Tbar" unicode="&#x166;" horiz-adv-x="872" 
d="M512 777h280v-138h-280v-639h-150v639h-281v138h281v551h-329v143h807v-143h-328v-551z" />
    <glyph glyph-name="tbar" unicode="&#x167;" horiz-adv-x="694" 
d="M419 607h246v-116h-246v-491h-140v491h-216v116h216v361h-192v120h192v404h140v-404h222v-120h-222v-361z" />
    <glyph glyph-name="Utilde" unicode="&#x168;" horiz-adv-x="1341" 
d="M184 1471h147v-888q1 -158 9 -221q8 -64 48 -122t123 -98t161 -39q78 0 146 31q136 63 178 219q15 56 15 230v888h147v-888q0 -197 -38 -319t-154 -211q-116 -90 -287 -90t-298 85t-170 225q-27 86 -27 310v888zM810 1604q-64 0 -134 34t-91 41q-21 6 -53 6
q-32 -1 -62 -13q-32 -12 -92 -56l-66 102q91 97 225 97q64 1 151 -39t139 -40t148 53l70 -97q-71 -52 -121 -70t-114 -18z" />
    <glyph glyph-name="utilde" unicode="&#x169;" horiz-adv-x="1245" 
d="M138 1088h141v-508q0 -186 25 -271q26 -85 110 -143t201 -58t199 56t107 134q26 78 26 282v508h143v-534q0 -225 -52 -339q-52 -115 -158 -179t-265 -64t-265 64t-160 180q-52 116 -52 348v524zM754 1307q-64 1 -134 35t-91 40t-53 6t-62 -12q-32 -12 -92 -57l-66 102
q91 97 225 97q64 0 151 -40t139 -39q52 0 148 53l70 -97q-71 -52 -121 -70t-114 -18z" />
    <glyph glyph-name="Umacron" unicode="&#x16a;" horiz-adv-x="1341" 
d="M184 1471h147v-888q1 -158 9 -221q8 -64 48 -122t123 -98t161 -39q78 0 146 31q136 63 178 219q15 56 15 230v888h147v-888q0 -197 -38 -319t-154 -211q-116 -90 -287 -90t-298 85t-170 225q-27 86 -27 310v888zM325 1777h690v-119h-690v119z" />
    <glyph glyph-name="umacron" unicode="&#x16b;" horiz-adv-x="1245" 
d="M138 1088h141v-508q0 -186 25 -271q26 -85 110 -143t201 -58t199 56t107 134q26 78 26 282v508h143v-534q0 -225 -52 -339q-52 -115 -158 -179t-265 -64t-265 64t-160 180q-52 116 -52 348v524zM277 1479h690v-119h-690v119z" />
    <glyph glyph-name="Ubreve" unicode="&#x16c;" horiz-adv-x="1341" 
d="M184 1471h147v-888q1 -158 9 -221q8 -64 48 -122t123 -98t161 -39q78 0 146 31q136 63 178 219q15 56 15 230v888h147v-888q0 -197 -38 -319t-154 -211q-116 -90 -287 -90t-298 85t-170 225q-27 86 -27 310v888zM674 1612q-148 0 -240 60q-93 60 -118 151h132
q68 -104 227 -104q80 0 129 23t93 81h128q-23 -91 -113 -151t-238 -60z" />
    <glyph glyph-name="ubreve" unicode="&#x16d;" horiz-adv-x="1245" 
d="M138 1088h141v-508q0 -186 25 -271q26 -85 110 -143t201 -58t199 56t107 134q26 78 26 282v508h143v-534q0 -225 -52 -339q-52 -115 -158 -179t-265 -64t-265 64t-160 180q-52 116 -52 348v524zM626 1314q-148 0 -240 60q-93 60 -118 151h132q68 -104 227 -104
q80 0 129 23t93 81h128q-23 -91 -113 -151t-238 -60z" />
    <glyph glyph-name="Uring" unicode="&#x16e;" horiz-adv-x="1341" 
d="M184 1471h147v-888q1 -158 9 -221q8 -64 48 -122t123 -98t161 -39q78 0 146 31q136 63 178 219q15 56 15 230v888h147v-888q0 -197 -38 -319t-154 -211q-116 -90 -287 -90t-298 85t-170 225q-27 86 -27 310v888zM632 1888q-46 0 -78 -32t-32 -78t32 -78t78 -32t77 32
q32 32 32 78t-32 78q-31 32 -77 32zM633 1989q89 -1 151 -63t62 -150t-62 -152q-62 -62 -150 -62t-152 62q-62 62 -62 152q0 88 62 150t151 63z" />
    <glyph glyph-name="uring" unicode="&#x16f;" horiz-adv-x="1245" 
d="M138 1088h141v-508q0 -186 25 -271q26 -85 110 -143t201 -58t199 56t107 134q26 78 26 282v508h143v-534q0 -225 -52 -339q-52 -115 -158 -179t-265 -64t-265 64t-160 180q-52 116 -52 348v524zM582 1590q-46 0 -77 -32q-32 -32 -32 -78t32 -78q31 -32 77 -32t78 32
t32 78t-32 78t-78 32zM584 1691q88 -1 150 -63t63 -150q0 -88 -62 -152q-63 -62 -151 -62t-150 62t-63 152q1 88 63 150t150 63z" />
    <glyph glyph-name="Udblacute" unicode="&#x170;" horiz-adv-x="1341" 
d="M184 1471h147v-888q1 -158 9 -221q8 -64 48 -122t123 -98t161 -39q78 0 146 31q136 63 178 219q15 56 15 230v888h147v-888q0 -197 -38 -319t-154 -211q-116 -90 -287 -90t-298 85t-170 225q-27 86 -27 310v888zM964 1896h215l-295 -308h-138zM648 1896h215l-295 -308
h-138z" />
    <glyph glyph-name="udblacute" unicode="&#x171;" horiz-adv-x="1245" 
d="M138 1088h141v-508q0 -186 25 -271q26 -85 110 -143t201 -58t199 56t107 134q26 78 26 282v508h143v-534q0 -225 -52 -339q-52 -115 -158 -179t-265 -64t-265 64t-160 180q-52 116 -52 348v524zM915 1598h215l-295 -308h-138zM599 1598h215l-295 -308h-138z" />
    <glyph glyph-name="Uogonek" unicode="&#x172;" horiz-adv-x="1341" 
d="M184 1471h147v-888q1 -158 9 -221q8 -64 48 -122t123 -98t161 -39q78 0 146 31q136 63 178 219q15 56 15 230v888h147v-888q0 -197 -38 -319t-142 -202q-103 -81 -225 -95q-85 -85 -85 -160q0 -46 38 -78t87 -32q50 0 90 5l-9 -85q-42 -10 -85 -10q-111 0 -169 53
t-59 142q0 89 76 163q-147 10 -265 89t-161 219q-27 86 -27 310v888z" />
    <glyph glyph-name="uogonek" unicode="&#x173;" horiz-adv-x="1245" 
d="M138 1088h141v-508q0 -186 25 -271q26 -85 110 -143t201 -58t199 56t107 134q26 78 26 282v508h143v-534q0 -225 -52 -339q-99 -215 -356 -240q-93 -89 -93 -168q-1 -46 37 -78t88 -32t90 5l-9 -85q-42 -10 -85 -10q-112 0 -170 53t-58 127q0 110 85 187
q-275 18 -377 242q-52 116 -52 348v524z" />
    <glyph glyph-name="Wcircumflex" unicode="&#x174;" horiz-adv-x="1966" 
d="M96 1471h151l299 -1060l422 1060h30l417 -1060l305 1060h150l-422 -1471h-28l-436 1113l-445 -1113h-28zM917 1840h139l290 -257h-180l-176 152l-184 -152h-186z" />
    <glyph glyph-name="wcircumflex" unicode="&#x175;" horiz-adv-x="1702" 
d="M9 1088h144l333 -790l349 790h25l348 -790l339 790h146l-472 -1088h-27l-346 779l-349 -779h-26zM785 1542h139l290 -257h-180l-176 152l-184 -152h-186z" />
    <glyph glyph-name="Ycircumflex" unicode="&#x176;" horiz-adv-x="1212" 
d="M683 0h-145v703l-475 768h170l376 -606l370 606h170l-466 -768v-703zM540 1840h139l290 -257h-180l-176 152l-184 -152h-186z" />
    <glyph glyph-name="ycircumflex" unicode="&#x177;" horiz-adv-x="1098" 
d="M39 1088h148l374 -838l363 838h149l-649 -1486h-148l210 480zM483 1542h139l290 -257h-180l-176 152l-184 -152h-186z" />
    <glyph glyph-name="Ydieresis" unicode="&#x178;" horiz-adv-x="1212" 
d="M683 0h-145v703l-475 768h170l376 -606l370 606h170l-466 -768v-703zM810 1816q48 0 82 -34t34 -82t-34 -82t-82 -34t-82 34t-34 82t34 82t82 34zM402 1816q48 0 82 -34t34 -82t-34 -82t-82 -34t-82 34t-34 82t34 82t82 34z" />
    <glyph glyph-name="Zacute" unicode="&#x179;" horiz-adv-x="983" 
d="M122 1329v142h776l-615 -1328h584v-143h-811l619 1329h-553zM527 1895h215l-295 -308h-138z" />
    <glyph glyph-name="zacute" unicode="&#x17a;" horiz-adv-x="870" 
d="M67 1088h799l-616 -964h596v-124h-837l616 965h-558v123zM532 1598h215l-295 -308h-138z" />
    <glyph glyph-name="Zdot" unicode="&#x17b;" horiz-adv-x="983" 
d="M122 1329v142h776l-615 -1328h584v-143h-811l619 1329h-553zM453 1815q48 0 82 -34t34 -82t-34 -82t-82 -34t-82 34t-34 82t34 82t82 34z" />
    <glyph glyph-name="zdot" unicode="&#x17c;" horiz-adv-x="870" 
d="M67 1088h799l-616 -964h596v-124h-837l616 965h-558v123zM403 1518q48 0 82 -34t34 -82t-34 -82t-82 -34t-82 34t-34 82t34 82t82 34z" />
    <glyph glyph-name="Zcaron" unicode="&#x17d;" horiz-adv-x="983" 
d="M122 1329v142h776l-615 -1328h584v-143h-811l619 1329h-553zM558 1583h-139l-290 257h180l177 -152l183 152h186z" />
    <glyph glyph-name="zcaron" unicode="&#x17e;" horiz-adv-x="870" 
d="M67 1088h799l-616 -964h596v-124h-837l616 965h-558v123zM501 1285h-139l-290 257h180l177 -152l183 152h186z" />
    <glyph glyph-name="longs" unicode="&#x17f;" horiz-adv-x="410" 
d="M392 1404q-51 0 -80.5 -20t-33 -50.5t-3.5 -98.5v-1235h-140v1198q0 151 13.5 204.5t67.5 93.5t132 40t169 -28v-137q-74 33 -125 33z" />
    <glyph glyph-name="florin" unicode="&#x192;" horiz-adv-x="1135" 
d="M176 -426q-70 0 -144 49l18 124q54 -45 118 -45t115.5 73t83.5 296l101 689h-141l17 122h141l49 319q28 184 65 239q65 96 157 96t186 -65l-18 -133q-76 73 -132 73t-82.5 -45.5t-46.5 -189.5l-42 -294h231l-17 -122h-233l-107 -710q-29 -196 -74 -291t-110 -140
t-135 -45z" />
    <glyph glyph-name="Aringacute" unicode="&#x1fa;" horiz-adv-x="1515" 
d="M762 1159l-253 -533h503zM760 1721q-46 -1 -77 -33q-32 -32 -32 -77t32 -77q31 -32 77 -33q46 1 78 33t32 77t-32 77t-78 33zM762 1822q88 0 150 -62t63 -152q0 -88 -53 -141t-109 -66l653 -1401h-158l-231 484h-634l-230 -484h-164l662 1401q-56 13 -109 66t-53 141
q1 88 63 152q62 62 150 62zM800 2170h215l-295 -308h-138z" />
    <glyph glyph-name="aringacute" unicode="&#x1fb;" horiz-adv-x="1399" 
d="M680 981q-117 1 -216 -57q-100 -58 -158 -162t-58 -220t59 -220q59 -106 159 -164t214 -58t217 58t159 157t55 223q-1 189 -125 316t-306 127zM669 1116q269 0 433 -228v200h138v-1088h-138v187q-177 -215 -437 -215q-231 0 -395 168t-163 404q0 238 165 405t397 167z
M700 1549q-46 -1 -78 -33t-32 -77t32 -77t78 -33q46 1 77 33q32 32 32 77t-32 77q-31 32 -77 33zM701 1650q89 0 151 -62t62 -152q0 -88 -62 -150t-150 -63q-88 1 -152 63q-62 62 -62 150t62 152q62 62 151 62zM745 1998h215l-295 -308h-138z" />
    <glyph glyph-name="AEacute" unicode="&#x1fc;" horiz-adv-x="2032" 
d="M1019 620v681l-441 -681h441zM1861 1471v-151h-693v-452h693v-145h-693v-579h693v-144h-842v482h-535l-312 -482h-171l950 1471h910zM1299 1895h215l-295 -308h-138z" />
    <glyph glyph-name="aeacute" unicode="&#x1fd;" horiz-adv-x="2370" 
d="M690 981q-118 0 -216 -57q-100 -58 -156 -158t-55 -222q0 -188 124 -314t305 -125q180 1 304 125t124 312q0 265 -210 382q-102 57 -220 57zM1689 982q-93 0 -183 -42q-180 -86 -229 -289h816q-28 114 -81 181q-53 66 -141 108t-182 42zM1696 100q255 0 397 257l120 -60
q-74 -155 -213 -240q-140 -85 -304 -85t-268 59t-183 163v-194h-128v201q-89 -111 -173 -159q-120 -70 -263 -70q-231 0 -396 168t-165 408q0 156 74 286t205 206t275 76t249 -60t194 -166v198h128v-197q106 127 205 176t232 49q246 0 406 -164t160 -422h-979
q4 -116 62 -219q57 -103 153 -157t212 -54zM1252 1598h215l-295 -308h-138z" />
    <glyph glyph-name="Oslashacute" unicode="&#x1fe;" horiz-adv-x="1778" 
d="M880 106q176 0 322 83t228 227t81 320q0 244 -155 417l-805 -949q152 -98 329 -98zM904 1364q-182 0 -327 -85q-146 -85 -228 -229t-82 -322q0 -255 177 -437l811 954q-169 119 -351 119zM1663 734q-1 -321 -225 -546t-547 -225q-245 0 -437 128l-164 -194l-107 87
l165 194q-234 227 -234 551q0 211 103 393t281 284t391 102q257 0 467 -148l144 174l105 -87l-151 -178q209 -214 209 -535zM957 1896h215l-295 -308h-138z" />
    <glyph glyph-name="oslashacute" unicode="&#x1ff;" horiz-adv-x="1337" 
d="M673 105q111 -1 209 55t154 158q57 102 57 232t-86 252l-548 -644q103 -53 214 -53zM684 979q-126 -1 -224 -59t-157 -162q-58 -104 -58 -204q0 -200 122 -325l560 658q-117 92 -243 92zM1235 532q-1 -220 -159 -390t-407 -170q-164 0 -299 82l-116 -137l-89 74l114 134
q-177 171 -177 407t158 410t408 174q201 0 351 -120l116 137l92 -74l-125 -146q133 -161 133 -381zM730 1598h215l-295 -308h-138z" />
    <glyph glyph-name="circumflex" unicode="&#x2c6;" horiz-adv-x="1028" 
d="M448 1542h139l290 -257h-180l-176 152l-184 -152h-186z" />
    <glyph glyph-name="caron" unicode="&#x2c7;" horiz-adv-x="1028" 
d="M580 1285h-139l-290 257h180l177 -152l183 152h186z" />
    <glyph glyph-name="macron" unicode="&#x2c9;" horiz-adv-x="993" 
d="M152 1479h690v-119h-690v119z" />
    <glyph glyph-name="breve" unicode="&#x2d8;" horiz-adv-x="928" 
d="M469 1421q80 0 129 23t93 81h128q-22 -90 -112.5 -150.5t-238.5 -60.5t-240.5 59.5t-117.5 151.5h132q68 -104 227 -104z" />
    <glyph glyph-name="dotaccent" unicode="&#x2d9;" horiz-adv-x="455" 
d="M228 1518q48 0 82 -34t34 -82t-34 -82t-82 -34t-82 34t-34 82t34 82t82 34z" />
    <glyph glyph-name="ring" unicode="&#x2da;" horiz-adv-x="680" 
d="M338 1590q-46 0 -77.5 -32.5t-31.5 -77.5t31.5 -77.5t77.5 -32.5t78 32.5t32 77.5t-32 77.5t-78 32.5zM340 1691q88 0 150.5 -62.5t62.5 -150.5t-62.5 -151t-150.5 -63t-150.5 63t-62.5 151t62.5 150.5t150.5 62.5z" />
    <glyph glyph-name="ogonek" unicode="&#x2db;" horiz-adv-x="618" 
d="M297 -193q0 -46 37.5 -78t87.5 -32t90 5l-9 -85q-42 -10 -85 -10q-111 0 -169.5 53t-58.5 127q0 130 119 213h109q-121 -103 -121 -193z" />
    <glyph glyph-name="tilde" unicode="&#x2dc;" horiz-adv-x="899" 
d="M582 1307q-64 1 -134 35t-92 40q-20 6 -52 6t-63.5 -12.5t-91.5 -56.5l-66 102q91 97 225 97q64 0 151 -40t139 -39q52 0 148 53l70 -97q-72 -52 -121 -70t-113 -18z" />
    <glyph glyph-name="hungarumlaut" unicode="&#x2dd;" horiz-adv-x="1130" 
d="M791 1598h215l-295 -308h-138zM475 1598h215l-295 -308h-138z" />
    <glyph glyph-name="tonos" unicode="&#x384;" horiz-adv-x="774" 
d="M474 1598l-28 -338h-118l-29 338h175z" />
    <glyph glyph-name="dieresistonos" unicode="&#x385;" horiz-adv-x="774" 
d="M141 1291q-37 0 -63 26t-26 63t26 63t63 26t63 -25.5t26 -63.5t-26 -63.5t-63 -25.5zM633 1291q-37 0 -63 25.5t-26 63.5t26 63.5t63 25.5t62.5 -26t25.5 -63t-25.5 -63t-62.5 -26zM474 1598l-28 -338h-118l-29 338h175z" />
    <glyph glyph-name="Alphatonos" unicode="&#x386;" horiz-adv-x="1515" 
d="M762 1159l-253 -533h503zM780 1471l686 -1471h-158l-231 484h-634l-230 -484h-164l695 1471h36zM424 1508l-28 -338h-118l-29 338h175z" />
    <glyph glyph-name="anoteleia" unicode="&#x387;" horiz-adv-x="567" 
d="M433 992q0 -52 -35.5 -88t-87.5 -36t-87.5 36t-35.5 88t35.5 88t87.5 36t87.5 -36t35.5 -88z" />
    <glyph glyph-name="Epsilontonos" unicode="&#x388;" horiz-adv-x="1188" 
d="M270 1471h843v-145h-696v-460h690v-144h-690v-577h690v-145h-837v1471zM75 1508l-28 -338h-118l-29 338h175z" />
    <glyph glyph-name="Etatonos" unicode="&#x389;" horiz-adv-x="1489" 
d="M267 1471h148v-617h748v617h148v-1471h-148v710h-748v-710h-148v1471zM75 1508l-28 -338h-118l-29 338h175z" />
    <glyph glyph-name="Iotatonos" unicode="&#x38a;" horiz-adv-x="553" 
d="M248 1471h147v-1471h-147v1471zM75 1508l-28 -338h-118l-29 338h175z" />
    <glyph glyph-name="Omicrontonos" unicode="&#x38c;" horiz-adv-x="1780" 
d="M888 1364q-164 0 -310 -85t-228 -229t-82 -321q0 -263 182 -443t437 -180q171 0 317 83t226 227q82 144 82 320t-82 316q-82 142 -229 227q-149 85 -313 85zM880 1508q334 0 559 -223t225 -547t-224 -550q-224 -225 -550 -225q-325 0 -550 224t-225 542q1 212 103 393
q102 182 279 284t383 102zM75 1508l-28 -338h-118l-29 338h175z" />
    <glyph glyph-name="Upsilontonos" unicode="&#x38e;" horiz-adv-x="1322" 
d="M793 0h-145v703l-475 768h170l376 -606l370 606h170l-466 -768v-703zM75 1508l-28 -338h-118l-29 338h175z" />
    <glyph glyph-name="Omegatonos" unicode="&#x38f;" horiz-adv-x="1713" 
d="M1536 138v-138h-561v196q298 194 377 333t79 292q0 248 -159 395t-415 147q-255 1 -415 -147t-160 -395q0 -153 75 -289t381 -336v-196h-561v138h433q-292 181 -386 338t-94 347q0 305 205 495t522 189q317 1 521 -189t205 -495q-1 -190 -95 -347t-385 -338h433zM75 1508
l-28 -338h-118l-29 338h175z" />
    <glyph glyph-name="iotadieresistonos" unicode="&#x390;" horiz-adv-x="410" 
d="M135 1088h141v-1088h-141v1088zM-40 1291q-37 0 -63 26t-26 63t26 63t63 26q37 1 63 -25t26 -64t-26 -63q-26 -26 -63 -26zM452 1291q-37 0 -63 26q-26 25 -26 63t26 64t63 25q36 0 62 -26t26 -63t-26 -63t-62 -26zM293 1598l-28 -338h-118l-29 338h175z" />
    <glyph glyph-name="Alpha" unicode="&#x391;" horiz-adv-x="1515" 
d="M762 1159l-253 -533h503zM780 1471l686 -1471h-158l-231 484h-634l-230 -484h-164l695 1471h36z" />
    <glyph glyph-name="Beta" unicode="&#x392;" horiz-adv-x="1176" 
d="M327 708v-564h182q161 0 236 32t121 98q46 67 45 155q0 88 -64 161q-63 74 -157 96t-280 22h-83zM327 1327v-471h84q153 0 225 28t114 90t42 150t-70 146t-225 57h-170zM183 1471h290q175 1 269 -41t148 -128t55 -188q0 -211 -189 -312q115 -40 177 -92
q131 -111 131 -288q0 -178 -130 -300t-347 -122h-404v1471z" />
    <glyph glyph-name="Gamma" unicode="&#x393;" horiz-adv-x="946" 
d="M914 1326h-591v-1326h-146v1471h737v-145z" />
    <glyph glyph-name="uni0394" unicode="&#x394;" horiz-adv-x="1515" 
d="M1239 145l-477 1014l-481 -1014h958zM1466 0h-1417l695 1471h36z" />
    <glyph glyph-name="Epsilon" unicode="&#x395;" horiz-adv-x="1098" 
d="M180 1471h843v-145h-696v-460h690v-144h-690v-577h690v-145h-837v1471z" />
    <glyph glyph-name="Zeta" unicode="&#x396;" horiz-adv-x="983" 
d="M122 1329v142h776l-615 -1328h584v-143h-811l619 1329h-553z" />
    <glyph glyph-name="Eta" unicode="&#x397;" horiz-adv-x="1399" 
d="M177 1471h148v-617h748v617h148v-1471h-148v710h-748v-710h-148v1471z" />
    <glyph glyph-name="Theta" unicode="&#x398;" horiz-adv-x="1780" 
d="M1258 672h-737v144h737v-144zM881 1364q-242 0 -427.5 -180t-185.5 -448t179 -449t440 -181t443 179t182 461t-194.5 450t-436.5 168zM892 -37q-326 0 -551.5 221.5t-225.5 545.5t223 551t549 227t551.5 -220.5t225.5 -548.5t-223 -552t-549 -224z" />
    <glyph glyph-name="Iota" unicode="&#x399;" horiz-adv-x="463" 
d="M158 1471h147v-1471h-147v1471z" />
    <glyph glyph-name="Kappa" unicode="&#x39a;" horiz-adv-x="1210" 
d="M179 1471h150v-552l587 552h199l-707 -660l762 -811h-195l-646 686v-686h-150v1471z" />
    <glyph glyph-name="Lambda" unicode="&#x39b;" horiz-adv-x="1438" 
d="M1370 0h-160l-487 1137l-496 -1137h-160l640 1471h32z" />
    <glyph glyph-name="Mu" unicode="&#x39c;" horiz-adv-x="1882" 
d="M112 0l209 1471h24l598 -1207l592 1207h24l211 -1471h-145l-144 1052l-520 -1052h-37l-527 1060l-143 -1060h-142z" />
    <glyph glyph-name="Nu" unicode="&#x39d;" horiz-adv-x="1515" 
d="M180 0v1471h32l978 -1126v1126h145v-1471h-33l-970 1112v-1112h-152z" />
    <glyph glyph-name="Xi" unicode="&#x39e;" horiz-adv-x="1087" 
d="M972 0h-857v145h857v-145zM972 722h-857v144h857v-144zM972 1326h-857v145h857v-145z" />
    <glyph glyph-name="Omicron" unicode="&#x39f;" horiz-adv-x="1780" 
d="M888 1364q-164 0 -310 -85t-228 -229t-82 -321q0 -263 182 -443t437 -180q171 0 317 83t226 227q82 144 82 320t-82 316q-82 142 -229 227q-149 85 -313 85zM880 1508q334 0 559 -223t225 -547t-224 -550q-224 -225 -550 -225q-325 0 -550 224t-225 542q1 212 103 393
q102 182 279 284t383 102z" />
    <glyph glyph-name="Pi" unicode="&#x3a0;" horiz-adv-x="1399" 
d="M1221 0h-148v1331h-748v-1331h-148v1471h1044v-1471z" />
    <glyph glyph-name="Rho" unicode="&#x3a1;" horiz-adv-x="1212" 
d="M325 1328v-500l249 -3q151 -1 221 27t110 90t40 136t-40 136q-39 62 -105 88t-215 26h-260zM178 1471h293q252 0 340 -22q126 -31 206 -127t80 -244q0 -146 -78 -242q-79 -96 -197 -124t-392 -28h-105v-684h-147v1471z" />
    <glyph glyph-name="Sigma" unicode="&#x3a3;" horiz-adv-x="1027" 
d="M927 0h-861l411 734l-405 737h840v-142h-600l330 -596l-333 -590h618v-143z" />
    <glyph glyph-name="Tau" unicode="&#x3a4;" horiz-adv-x="872" 
d="M33 1328v143h807v-143h-328v-1328h-150v1328h-329z" />
    <glyph glyph-name="Upsilon" unicode="&#x3a5;" horiz-adv-x="1212" 
d="M683 0h-145v703l-475 768h170l376 -606l370 606h170l-466 -768v-703z" />
    <glyph glyph-name="Phi" unicode="&#x3a6;" horiz-adv-x="1760" 
d="M252 758q0 -218 146.5 -338.5t407.5 -137.5v927q-237 -15 -395.5 -124t-158.5 -327zM1508 734q0 218 -146.5 338t-407.5 137v-927q237 15 395.5 124.5t158.5 327.5zM954 0h-148v145q-324 21 -515 180t-191 419t193 421t513 180v126h148v-126q324 -21 515 -180t191 -419
t-193 -421t-513 -180v-145z" />
    <glyph glyph-name="Chi" unicode="&#x3a7;" horiz-adv-x="1247" 
d="M101 1471h172l352 -574l355 574h170l-438 -713l467 -758h-172l-382 617l-384 -617h-172l469 758z" />
    <glyph glyph-name="Psi" unicode="&#x3a8;" horiz-adv-x="1620" 
d="M1480 964q0 -206 -59.5 -325.5t-198.5 -194.5t-338 -85v-359h-148v359q-370 20 -483 193t-113 423v496h151v-448q0 -182 28.5 -277.5t135.5 -163t281 -81.5v970h148v-970q182 14 286.5 84t131.5 160.5t27 277.5v448h151v-507z" />
    <glyph glyph-name="Omega" unicode="&#x3a9;" horiz-adv-x="1713" 
d="M1536 138v-138h-561v196q298 194 377 333t79 292q0 248 -159 395t-415 147t-415.5 -147.5t-159.5 -394.5q0 -152 75 -288.5t381 -336.5v-196h-561v138h433q-291 181 -385.5 338t-94.5 347q0 305 205 494.5t522 189.5t521.5 -189.5t204.5 -494.5q0 -190 -94.5 -347
t-385.5 -338h433z" />
    <glyph glyph-name="Iotadieresis" unicode="&#x3aa;" horiz-adv-x="463" 
d="M158 1471h147v-1471h-147v1471zM436 1816q48 0 82 -34t34 -82t-34 -82t-82 -34t-82 34t-34 82t34 82t82 34zM28 1816q48 0 82 -34t34 -82t-34 -82t-82 -34t-82 34t-34 82t34 82t82 34z" />
    <glyph glyph-name="Upsilondieresis" unicode="&#x3ab;" horiz-adv-x="1212" 
d="M683 0h-145v703l-475 768h170l376 -606l370 606h170l-466 -768v-703zM810 1816q48 0 82 -34t34 -82t-34 -82t-82 -34t-82 34t-34 82t34 82t82 34zM402 1816q48 0 82 -34t34 -82t-34 -82t-82 -34t-82 34t-34 82t34 82t82 34z" />
    <glyph glyph-name="alphatonos" unicode="&#x3ac;" horiz-adv-x="1399" 
d="M680 981q-117 1 -216 -57q-100 -58 -158 -162t-58 -220t59 -220q59 -106 159 -164t214 -58t217 58t159 157t55 223q-1 189 -125 316t-306 127zM669 1116q269 0 433 -228v200h138v-1088h-138v187q-177 -215 -437 -215q-231 0 -395 168t-163 404q0 238 165 405t397 167z
M787 1598l-28 -338h-118l-29 338h175z" />
    <glyph glyph-name="epsilontonos" unicode="&#x3ad;" horiz-adv-x="866" 
d="M468 -29q-160 0 -262 93t-103 246q0 205 196 287q-150 61 -150 231q-1 130 91 210t243 80t298 -123l-79 -97q-114 88 -214 88t-152 -48t-52 -128t53 -130t134 -50h73v-120h-86q-88 0 -146 -57t-59 -149q0 -92 62 -146q62 -56 165 -56q158 0 259 114l88 -100
q-136 -145 -359 -145zM520 1598l-28 -338h-118l-29 338h175z" />
    <glyph glyph-name="etatonos" unicode="&#x3ae;" horiz-adv-x="1249" 
d="M1105 -398h-139v917q0 163 -16 254t-86 153t-194 61q-124 1 -222 -83t-126 -184q-26 -100 -26 -321v-399h-140v1088h140v-195q167 223 408 223q117 0 211 -58t142 -164q48 -105 48 -334v-958zM712 1598l-28 -338h-118l-29 338h175z" />
    <glyph glyph-name="iotatonos" unicode="&#x3af;" horiz-adv-x="410" 
d="M135 1088h141v-1088h-141v1088zM292 1598l-28 -338h-118l-29 338h175z" />
    <glyph glyph-name="upsilondieresistonos" unicode="&#x3b0;" horiz-adv-x="1219" 
d="M135 1088h141v-508q0 -162 18 -250t103 -155t215 -67q176 0 268 118t92 318q0 273 -254 445l77 128q320 -188 320 -599q0 -240 -136 -393q-137 -153 -359 -153t-354 125t-131 467v524zM364 1291q-37 0 -63 26t-26 63t26 63t63 26q37 1 63 -25t26 -64t-26 -63
q-26 -26 -63 -26zM856 1291q-37 0 -63 26q-26 25 -26 63t26 64t63 25q36 0 62 -26t26 -63t-26 -63t-62 -26zM697 1598l-28 -338h-118l-29 338h175z" />
    <glyph glyph-name="alpha" unicode="&#x3b1;" horiz-adv-x="1399" 
d="M680 981q-117 1 -216 -57q-100 -58 -158 -162t-58 -220t59 -220q59 -106 159 -164t214 -58t217 58t159 157t55 223q-1 189 -125 316t-306 127zM669 1116q269 0 433 -228v200h138v-1088h-138v187q-177 -215 -437 -215q-231 0 -395 168t-163 404q0 238 165 405t397 167z
" />
    <glyph glyph-name="beta" unicode="&#x3b2;" horiz-adv-x="1221" 
d="M435 805v117q339 9 339 275q0 92 -57 149.5t-169 57.5t-181.5 -72t-69.5 -258l1 -613q0 -162 98 -259t240 -97t240.5 100.5t98.5 246.5t-99.5 249.5t-370.5 103.5h-70zM297 -398h-141v1505q0 230 119 329.5t283 99.5t261.5 -88.5t97.5 -236.5q0 -231 -219 -311
q192 -19 306 -137t114 -314t-139 -336.5t-349 -140.5t-333 192v-562z" />
    <glyph glyph-name="gamma" unicode="&#x3b3;" horiz-adv-x="1135" 
d="M635 -398h-138v522l-444 964h149l364 -792l361 792h150l-442 -966v-520z" />
    <glyph glyph-name="delta" unicode="&#x3b4;" horiz-adv-x="1171" 
d="M586 806q-142 0 -240.5 -104t-98.5 -250t97.5 -246.5t241.5 -100.5t241.5 100.5t97.5 246.5t-98.5 250t-240.5 104zM280 1196q0 151 116.5 245.5t288.5 94.5q126 0 238 -28l-36 -125q-85 22 -201 22t-189.5 -56.5t-73.5 -142.5t49 -143t258 -141q337 -135 337 -466
q0 -204 -138.5 -344t-342.5 -140t-343 139.5t-139 344.5q0 330 341 450q-165 111 -165 290z" />
    <glyph glyph-name="epsilon" unicode="&#x3b5;" horiz-adv-x="866" 
d="M468 -29q-160 0 -262.5 93t-102.5 246q0 205 196 287q-150 61 -150 231q0 129 91.5 209.5t242.5 80.5t298 -123l-79 -97q-114 88 -214 88t-152 -48t-52 -128t53 -130t134 -50h73v-120h-86q-88 0 -146.5 -57t-58.5 -149t62 -147t165 -55q158 0 259 114l88 -100
q-136 -145 -359 -145z" />
    <glyph glyph-name="zeta" unicode="&#x3b6;" horiz-adv-x="953" 
d="M543 -296q247 0 247 158q0 59 -55 94t-207 64q-410 79 -410 485q0 211 146 419t472 461h-503v123h675v-123q-360 -303 -503.5 -495.5t-143.5 -361.5t71.5 -258.5t280.5 -132.5t264.5 -108.5t54.5 -160.5q0 -138 -105.5 -216t-273.5 -78q-87 0 -165 20l36 126
q63 -16 119 -16z" />
    <glyph glyph-name="eta" unicode="&#x3b7;" horiz-adv-x="1249" 
d="M1105 -398h-139v917q0 163 -16 254t-86 152.5t-194 61.5t-222.5 -83.5t-125 -183t-26.5 -321.5v-399h-140v1088h140v-195q167 223 408 223q117 0 211 -58.5t142 -163.5t48 -334v-958z" />
    <glyph glyph-name="theta" unicode="&#x3b8;" horiz-adv-x="1341" 
d="M671 100q194 0 303 155.5t120 437.5h-846q11 -280 120 -436.5t303 -156.5zM671 1408q-189 0 -299 -158t-124 -434h845q-13 274 -123 433t-299 159zM671 -28q-269 0 -418 209t-149 569t149.5 573t417.5 213t417 -213t149 -572t-148.5 -569t-417.5 -210z" />
    <glyph glyph-name="iota" unicode="&#x3b9;" horiz-adv-x="410" 
d="M135 1088h141v-1088h-141v1088z" />
    <glyph glyph-name="kappa" unicode="&#x3ba;" horiz-adv-x="1028" 
d="M296 0h-141v1089h141v-439l503 438h206l-597 -519l632 -569h-198l-546 489v-489z" />
    <glyph glyph-name="lambda" unicode="&#x3bb;" horiz-adv-x="1098" 
d="M1073 0h-149l-363 838l-374 -838h-148l447 1006l-220 502h148z" />
    <glyph glyph-name="mu" unicode="&#x3bc;" horiz-adv-x="1249" 
d="M1093 1h-140v195q-168 -223 -408 -223q-174 0 -261 116v-487h-140v1487h140v-519q0 -163 16 -254t85.5 -152.5t193.5 -61.5t222.5 83.5t125 183t26.5 321.5v399h140v-1088z" />
    <glyph glyph-name="nu" unicode="&#x3bd;" horiz-adv-x="1135" 
d="M53 1088h149l364 -792l361 792h150l-498 -1088h-25z" />
    <glyph glyph-name="xi" unicode="&#x3be;" horiz-adv-x="953" 
d="M543 -296q247 0 247 158q0 51 -44.5 86.5t-236.5 71.5q-391 74 -391 455q0 145 83.5 255t227.5 155q-229 113 -229 311q0 159 121.5 249.5t294.5 90.5t298 -37l-33 -134q-115 40 -252 40t-211.5 -63.5t-74.5 -170.5t113.5 -174t264.5 -67h119v-122h-202q-147 0 -262 -79
t-115 -231t68.5 -234t258.5 -124t267 -94t77 -184t-105.5 -210t-273.5 -78q-87 0 -165 20l36 126q63 -16 119 -16z" />
    <glyph glyph-name="omicron" unicode="&#x3bf;" horiz-adv-x="1341" 
d="M670 979q-174 0 -298 -129q-125 -129 -125 -312q0 -118 57 -220t154 -158t213 -55q116 -1 213 55t154 158t57 220q1 183 -125 312t-300 129zM104 540q0 228 158 402t408 174q252 0 410 -174t157 -402t-159 -398t-408 -170t-408 170t-158 398z" />
    <glyph glyph-name="pi" unicode="&#x3c0;" horiz-adv-x="1373" 
d="M1323 965h-221v-965h-141v965h-549v-965h-141v965h-221v123h1273v-123z" />
    <glyph glyph-name="rho" unicode="&#x3c1;" horiz-adv-x="1372" 
d="M702 979q-178 0 -301 -130t-123 -310t120 -307t308 -127t304 129t116 307t-123 308t-301 130zM275 -398h-140v909q0 266 162.5 435.5t404.5 169.5t404 -169.5t162 -407.5t-163 -402.5t-403 -164.5q-268 0 -427 233v-603z" />
    <glyph glyph-name="sigma1" unicode="&#x3c2;" horiz-adv-x="1185" 
d="M657 984q-177 0 -294.5 -123t-117.5 -301t92 -272.5t321 -137.5t313.5 -95.5t84.5 -188.5t-105.5 -214t-273.5 -78q-87 0 -165 20l36 126q63 -16 119 -16q247 0 247 158q0 59 -54 94t-237 64q-519 83 -519 515q0 253 160 417t399 164q316 0 468 -254l-111 -69
q-144 191 -363 191z" />
    <glyph glyph-name="sigma" unicode="&#x3c3;" horiz-adv-x="1468" 
d="M672 979q-176 0 -300.5 -128.5t-124.5 -310.5t120.5 -308.5t310.5 -126.5t303.5 132.5t113.5 306.5t-123.5 304.5t-299.5 130.5zM1428 965h-371q180 -175 180 -419t-163.5 -409t-403.5 -165t-403 164t-163 402t162 408t405 170q98 0 184 -28h573v-123z" />
    <glyph glyph-name="tau" unicode="&#x3c4;" horiz-adv-x="823" 
d="M773 965h-291v-965h-141v965h-291v123h723v-123z" />
    <glyph glyph-name="upsilon" unicode="&#x3c5;" horiz-adv-x="1219" 
d="M135 1088h141v-508q0 -163 18 -250.5t103 -154.5t215 -67q177 0 268.5 118t91.5 318q0 273 -254 445l77 128q320 -188 320 -599q0 -240 -136.5 -393t-358.5 -153t-353.5 125t-131.5 467v524z" />
    <glyph glyph-name="phi" unicode="&#x3c6;" horiz-adv-x="1568" 
d="M1320 538q0 201 -125.5 318t-340.5 123v-866q466 43 466 425zM854 -398h-141v373q-280 18 -444.5 167.5t-164.5 398.5q0 195 113.5 338t309.5 210l45 -133q-325 -116 -325 -418q0 -386 466 -425v1000q39 3 71 3q315 0 497.5 -153.5t182.5 -411.5t-164.5 -408t-445.5 -169
v-372z" />
    <glyph glyph-name="chi" unicode="&#x3c7;" horiz-adv-x="983" 
d="M944 1088l-377 -700l424 -786h-160l-343 638l-344 -638h-151l419 780l-380 706h158l301 -559l300 559h153z" />
    <glyph glyph-name="psi" unicode="&#x3c8;" horiz-adv-x="1507" 
d="M1372 554q0 -326 -166 -449.5t-382 -130.5v-372h-140v372q-340 20 -444.5 185t-104.5 405v524h139v-478q0 -174 26.5 -265.5t125 -156t258.5 -77.5v977h140v-978q165 13 261.5 79.5t121.5 152.5t25 268v478h140v-534z" />
    <glyph glyph-name="omega" unicode="&#x3c9;" horiz-adv-x="1756" 
d="M568 -28q-216 0 -340 139.5t-124 392.5t167 425.5t428 186.5l11 -135q-212 -16 -337.5 -150t-125.5 -330t82.5 -298.5t227.5 -102.5q116 0 183 100t67 288v134h142v-134q0 -188 67 -288t195 -100t213 100t85 300t-125.5 333t-337.5 148l11 135q260 -13 427.5 -186.5
t167.5 -425.5t-124 -392t-340 -140q-112 0 -196.5 62t-113.5 165q-29 -103 -113.5 -165t-196.5 -62z" />
    <glyph glyph-name="iotadieresis" unicode="&#x3ca;" horiz-adv-x="410" 
d="M135 1088h141v-1088h-141v1088zM409 1518q48 0 82 -34t34 -82t-34 -82t-82 -34t-82 34t-34 82t34 82t82 34zM1 1518q48 0 82 -34t34 -82t-34 -82t-82 -34t-82 34t-34 82t34 82t82 34z" />
    <glyph glyph-name="upsilondieresis" unicode="&#x3cb;" horiz-adv-x="1219" 
d="M135 1088h141v-508q0 -162 18 -250t103 -155t215 -67q176 0 268 118t92 318q0 273 -254 445l77 128q320 -188 320 -599q0 -240 -136 -393q-137 -153 -359 -153t-354 125t-131 467v524zM814 1518q48 0 82 -34t34 -82t-34 -82t-82 -34t-82 34t-34 82t34 82t82 34zM406 1518
q48 0 82 -34t34 -82t-34 -82t-82 -34t-82 34t-34 82t34 82t82 34z" />
    <glyph glyph-name="omicrontonos" unicode="&#x3cc;" horiz-adv-x="1341" 
d="M670 979q-174 0 -298 -129q-125 -129 -125 -312q0 -118 57 -220t154 -158t213 -55q116 -1 213 55t154 158t57 220q1 183 -125 312t-300 129zM104 540q0 228 158 402t408 174q252 0 410 -174t157 -402t-159 -398t-408 -170t-408 170t-158 398zM758 1598l-28 -338h-118
l-29 338h175z" />
    <glyph glyph-name="upsilontonos" unicode="&#x3cd;" horiz-adv-x="1219" 
d="M135 1088h141v-508q0 -162 18 -250t103 -155t215 -67q176 0 268 118t92 318q0 273 -254 445l77 128q320 -188 320 -599q0 -240 -136 -393q-137 -153 -359 -153t-354 125t-131 467v524zM697 1598l-28 -338h-118l-29 338h175z" />
    <glyph glyph-name="omegatonos" unicode="&#x3ce;" horiz-adv-x="1756" 
d="M568 -28q-216 0 -340 140t-124 392q0 254 167 426t428 186l11 -135q-212 -16 -338 -150t-125 -330q1 -197 83 -299t227 -102q116 0 183 100t67 288v134h142v-134q0 -188 67 -288t195 -100t213 100t85 300q1 200 -125 333t-338 148l11 135q259 -12 427 -186t168 -426
t-124 -392t-340 -140q-112 0 -196 62t-114 165q-30 -103 -114 -165t-196 -62zM965 1598l-28 -338h-118l-29 338h175z" />
    <glyph glyph-name="afii10023" unicode="&#x401;" horiz-adv-x="1098" 
d="M180 1471h843v-145h-696v-460h690v-144h-690v-577h690v-145h-837v1471zM814 1816q48 0 82 -34t34 -82t-34 -82t-82 -34t-82 34t-34 82t34 82t82 34zM406 1816q48 0 82 -34t34 -82t-34 -82t-82 -34t-82 34t-34 82t34 82t82 34z" />
    <glyph glyph-name="afii10051" unicode="&#x402;" horiz-adv-x="1374" 
d="M511 1328v-474h135q236 0 354 -35.5t188.5 -146.5t70.5 -297t-89.5 -297.5t-245.5 -111.5t-254 98l91 102q65 -61 152 -61t140.5 77.5t53.5 211.5t-44 201.5t-125 91.5t-248 24h-179v-711h-150v1328h-329v143h807v-143h-328z" />
    <glyph glyph-name="afii10052" unicode="&#x403;" horiz-adv-x="946" 
d="M323 0h-146v1471h737v-145h-591v-1326zM709 1895h215l-295 -308h-138z" />
    <glyph glyph-name="afii10053" unicode="&#x404;" horiz-adv-x="1665" 
d="M921 102q310 0 516 242l117 -88q-231 -293 -643 -293q-363 0 -579 227q-216 226 -216 552t228 546t565 220q205 0 375 -83t270 -227l-117 -89q-194 254 -526 254q-229 -1 -419 -149t-209 -400h689v-145h-695q39 -291 223 -429t421 -138z" />
    <glyph glyph-name="afii10054" unicode="&#x405;" horiz-adv-x="1020" 
d="M457 106q74 0 139 34t99 93q34 57 34 127q1 70 -59 154t-244 224q-184 138 -228 200q-78 104 -78 212t46 188q46 78 130 124t184 46q102 0 192 -52t191 -189l-120 -91q-83 110 -141 145t-138 35t-136 -54t-56 -118t20 -108q20 -46 61 -86t217 -170t247 -240t71 -221
q0 -160 -122 -278t-295 -118q-134 -1 -243 71t-201 240l125 75q132 -243 305 -243z" />
    <glyph glyph-name="afii10055" unicode="&#x406;" horiz-adv-x="463" 
d="M158 1471h147v-1471h-147v1471z" />
    <glyph glyph-name="afii10056" unicode="&#x407;" horiz-adv-x="463" 
d="M158 1471h147v-1471h-147v1471zM436 1816q48 0 82 -34t34 -82t-34 -82t-82 -34t-82 34t-34 82t34 82t82 34zM28 1816q48 0 82 -34t34 -82t-34 -82t-82 -34t-82 34t-34 82t34 82t82 34z" />
    <glyph glyph-name="afii10057" unicode="&#x408;" horiz-adv-x="987" 
d="M660 1471h148v-993q0 -228 -36 -318t-118 -144t-186 -53t-190 35t-192 121l78 117q115 -80 178 -108q62 -28 118 -28t108 38t72 101t20 244v988z" />
    <glyph glyph-name="afii10058" unicode="&#x409;" horiz-adv-x="2181" 
d="M1473 142q185 0 265.5 21t126 88.5t45.5 167.5t-48.5 168t-130 88.5t-290.5 20.5h-301l260 -554h73zM1422 840q238 0 368.5 -36.5t203.5 -137t73 -250.5t-75.5 -251t-193 -133t-332.5 -32h-158l-546 1159l-551 -1159h-162l695 1471h36l307 -631h335z" />
    <glyph glyph-name="afii10059" unicode="&#x40a;" horiz-adv-x="2136" 
d="M1221 142h156q212 0 300 16.5t138.5 84t50.5 183.5t-53 183.5t-139 84.5t-329 17h-124v-569zM325 855h748v616h148v-616h105q213 0 318.5 -10t241.5 -84t136 -321q0 -169 -71.5 -271t-189.5 -135.5t-395 -33.5h-293v711h-748v-711h-148v1471h148v-616z" />
    <glyph glyph-name="afii10060" unicode="&#x40b;" horiz-adv-x="1391" 
d="M512 0h-150v1328h-329v143h807v-143h-328v-474h307q314 0 377.5 -138.5t63.5 -346.5v-369h-150v377q0 157 -37 245.5t-250 88.5h-311v-711z" />
    <glyph glyph-name="afii10061" unicode="&#x40c;" horiz-adv-x="1210" 
d="M179 1471h150v-552l587 552h199l-707 -660l762 -811h-195l-646 686v-686h-150v1471zM772 1895h215l-295 -308h-138z" />
    <glyph glyph-name="afii10062" unicode="&#x40e;" horiz-adv-x="1323" 
d="M411 -37q-80 1 -151 33t-180 153l107 88q111 -109 148 -124t85 -15t90 31t94 155l-537 1183h166l445 -999l407 1003h161l-558 -1322q-78 -186 -277 -186zM666 1612q-148 0 -241 60t-118 151h132q68 -104 227 -104q80 0 129 23t93 81h128q-22 -91 -112 -151t-238 -60z" />
    <glyph glyph-name="afii10145" unicode="&#x40f;" horiz-adv-x="1329" 
d="M598 0h-421v1471h148v-1332h679v1332h148v-1471h-417v-220h-137v220z" />
    <glyph glyph-name="afii10017" unicode="&#x410;" horiz-adv-x="1515" 
d="M762 1159l-253 -533h503zM780 1471l686 -1471h-158l-231 484h-634l-230 -484h-164l695 1471h36z" />
    <glyph glyph-name="afii10018" unicode="&#x411;" horiz-adv-x="1173" 
d="M323 708v-564h181q161 0 236 31.5t119.5 97t44.5 157.5t-63 162.5t-157 93t-279 22.5h-82zM178 0v1471h737v-145h-592v-470h69q275 0 399.5 -48.5t196 -153t71.5 -232.5q0 -168 -126 -295t-351 -127h-404z" />
    <glyph glyph-name="afii10019" unicode="&#x412;" horiz-adv-x="1176" 
d="M327 708v-564h182q161 0 236 32t121 98q46 67 45 155q0 88 -64 161q-63 74 -157 96t-280 22h-83zM327 1327v-471h84q153 0 225 28t114 90t42 150t-70 146t-225 57h-170zM183 1471h290q175 1 269 -41t148 -128t55 -188q0 -211 -189 -312q115 -40 177 -92
q131 -111 131 -288q0 -178 -130 -300t-347 -122h-404v1471z" />
    <glyph glyph-name="afii10020" unicode="&#x413;" horiz-adv-x="946" 
d="M323 0h-146v1471h737v-145h-591v-1326z" />
    <glyph glyph-name="afii10021" unicode="&#x414;" horiz-adv-x="1532" 
d="M316 137h897l-460 1030zM175 -220h-145v357h120l577 1334h51l609 -1334h115v-357h-145v220h-1182v-220z" />
    <glyph glyph-name="afii10022" unicode="&#x415;" horiz-adv-x="1098" 
d="M180 1471h843v-145h-696v-460h690v-144h-690v-577h690v-145h-837v1471z" />
    <glyph glyph-name="afii10024" unicode="&#x416;" horiz-adv-x="1915" 
d="M1031 0h-149v683l-45 41l-602 -724h-195l702 815l-646 656h198l588 -622v622h149v-622l589 622h199l-646 -656l701 -815h-195l-603 724l-45 -41v-683z" />
    <glyph glyph-name="afii10025" unicode="&#x417;" horiz-adv-x="1190" 
d="M592 1508q181 0 299 -104.5t118 -270.5q0 -235 -221 -337q291 -90 291 -390q0 -200 -130 -322t-356 -122q-158 0 -274.5 65.5t-219.5 229.5l114 67q102 -150 191 -192.5t185 -42.5q140 0 238 81t98 242t-94.5 219.5t-149.5 68.5t-181 10h-25v129h49q327 0 327 265
q0 123 -74.5 195.5t-188.5 72.5q-148 0 -278 -134l-101 90q155 180 383 180z" />
    <glyph glyph-name="afii10026" unicode="&#x418;" horiz-adv-x="1515" 
d="M1335 0h-153v1127l-969 -1127h-33v1471h147v-1147l975 1147h33v-1471z" />
    <glyph glyph-name="afii10027" unicode="&#x419;" horiz-adv-x="1515" 
d="M1335 0h-153v1127l-969 -1127h-33v1471h147v-1147l975 1147h33v-1471zM762 1612q-148 0 -241 60t-118 151h132q68 -104 227 -104q80 0 129 23t93 81h128q-22 -91 -112 -151t-238 -60z" />
    <glyph glyph-name="afii10028" unicode="&#x41a;" horiz-adv-x="1210" 
d="M179 1471h150v-552l587 552h199l-707 -660l762 -811h-195l-646 686v-686h-150v1471z" />
    <glyph glyph-name="afii10029" unicode="&#x41b;" horiz-adv-x="1438" 
d="M1370 0h-160l-487 1137l-496 -1137h-160l640 1471h32z" />
    <glyph glyph-name="afii10030" unicode="&#x41c;" horiz-adv-x="1882" 
d="M112 0l209 1471h24l598 -1207l592 1207h24l211 -1471h-145l-144 1052l-520 -1052h-37l-527 1060l-143 -1060h-142z" />
    <glyph glyph-name="afii10031" unicode="&#x41d;" horiz-adv-x="1399" 
d="M177 1471h148v-617h748v617h148v-1471h-148v710h-748v-710h-148v1471z" />
    <glyph glyph-name="afii10032" unicode="&#x41e;" horiz-adv-x="1780" 
d="M888 1364q-164 0 -310 -85t-228 -229t-82 -321q0 -263 182 -443t437 -180q171 0 317 83t226 227q82 144 82 320t-82 316q-82 142 -229 227q-149 85 -313 85zM880 1508q334 0 559 -223t225 -547t-224 -550q-224 -225 -550 -225q-325 0 -550 224t-225 542q1 212 103 393
q102 182 279 284t383 102z" />
    <glyph glyph-name="afii10033" unicode="&#x41f;" horiz-adv-x="1399" 
d="M177 1471h1044v-1471h-148v1331h-748v-1331h-148v1471z" />
    <glyph glyph-name="afii10034" unicode="&#x420;" horiz-adv-x="1212" 
d="M325 1328v-500l249 -3q151 -1 221 27t110 90t40 136t-40 136q-39 62 -105 88t-215 26h-260zM178 1471h293q252 0 340 -22q126 -31 206 -127t80 -244q0 -146 -78 -242q-79 -96 -197 -124t-392 -28h-105v-684h-147v1471z" />
    <glyph glyph-name="afii10035" unicode="&#x421;" horiz-adv-x="1665" 
d="M266 731q0 -269 184 -449t480 -180q295 0 503 242l116 -88q-111 -140 -275 -216t-367 -77q-386 0 -609 257q-187 217 -187 532q1 316 227 536t567 220q206 0 372 -82t272 -228l-116 -89q-195 254 -526 254q-176 -1 -326 -85q-151 -84 -233 -226t-82 -321z" />
    <glyph glyph-name="afii10036" unicode="&#x422;" horiz-adv-x="872" 
d="M33 1328v143h807v-143h-328v-1328h-150v1328h-329z" />
    <glyph glyph-name="afii10037" unicode="&#x423;" horiz-adv-x="1323" 
d="M411 -37q-80 0 -151 32.5t-180 153.5l107 88q111 -109 148 -124t85 -15t90.5 31t93.5 155l-537 1183h166l445 -999l407 1003h161l-558 -1322q-78 -186 -277 -186z" />
    <glyph glyph-name="afii10038" unicode="&#x424;" horiz-adv-x="1784" 
d="M818 1141h-165q-181 0 -283.5 -76.5t-102.5 -208.5t81 -213t242 -81l74 1h154v578zM965 1141v-578h155l79 -1q154 0 235.5 81t81.5 209t-96 208.5t-290 80.5h-165zM818 1471h147v-188h113q332 0 461 -129.5t129 -302.5t-113.5 -301.5t-430.5 -128.5h-159v-421h-147v421
h-158q-168 0 -278 32.5t-188.5 139t-78.5 250.5q0 180 128 310t463 130h112v188z" />
    <glyph glyph-name="afii10039" unicode="&#x425;" horiz-adv-x="1247" 
d="M101 1471h172l352 -574l355 574h170l-438 -713l467 -758h-172l-382 617l-384 -617h-172l469 758z" />
    <glyph glyph-name="afii10040" unicode="&#x426;" horiz-adv-x="1450" 
d="M1268 0h-1090v1471h148v-1333h679v1333h148v-1333h252v-358h-137v220z" />
    <glyph glyph-name="afii10041" unicode="&#x427;" horiz-adv-x="1104" 
d="M780 836v635h147v-1471h-147v693h-106q-220 0 -321.5 18t-181.5 78.5t-109.5 148t-29.5 241.5v292h144v-301q0 -185 74.5 -259.5t248.5 -74.5l104 1l45 -1h132z" />
    <glyph glyph-name="afii10042" unicode="&#x428;" horiz-adv-x="2064" 
d="M325 139h628v1332h148v-1332h638v1332h148v-1471h-1710v1471h148v-1332z" />
    <glyph glyph-name="afii10043" unicode="&#x429;" horiz-adv-x="2183" 
d="M1887 139h252v-359h-138v220h-1824v1471h148v-1332h628v1332h148v-1332h638v1332h148v-1332z" />
    <glyph glyph-name="afii10044" unicode="&#x42a;" horiz-adv-x="1401" 
d="M485 142h157q248 0 323.5 23.5t120 87.5t44.5 169t-56 174t-142.5 84.5t-322.5 15.5h-124v-554zM338 1333h-306v138h453v-631h105q290 0 416 -28t203 -128.5t77 -258.5t-75 -260t-191.5 -133.5t-388.5 -31.5h-293v1333z" />
    <glyph glyph-name="afii10045" unicode="&#x42b;" horiz-adv-x="1624" 
d="M1299 1471h147v-1471h-147v1471zM325 142h157q248 0 323.5 23.5t120 87.5t44.5 169t-56 174t-142.5 84.5t-322.5 15.5h-124v-554zM178 1471h147v-631h106q289 0 415 -28t203 -128t77 -258t-75 -260.5t-191 -134t-389 -31.5h-293v1471z" />
    <glyph glyph-name="afii10046" unicode="&#x42c;" horiz-adv-x="1241" 
d="M325 142h157q248 0 323.5 23.5t120 87.5t44.5 169t-56 174t-142.5 84.5t-322.5 15.5h-124v-554zM178 1471h147v-631h106q289 0 415 -28t203 -128t77 -258t-75 -260.5t-191 -134t-389 -31.5h-293v1471z" />
    <glyph glyph-name="afii10047" unicode="&#x42d;" horiz-adv-x="1665" 
d="M693 669v145h689q-19 252 -208.5 400.5t-419.5 148.5q-332 0 -526 -254l-117 89q100 144 269.5 227t375.5 83q338 0 565.5 -220t227.5 -546t-215.5 -552.5t-579.5 -226.5q-412 0 -643 293l117 88q206 -242 516 -242q237 0 420.5 138.5t223.5 428.5h-695z" />
    <glyph glyph-name="afii10048" unicode="&#x42e;" horiz-adv-x="2243" 
d="M1976 736q0 272 -188 450.5t-436 178.5t-434 -180.5t-186 -452.5t185 -449t439 -177t437 179t183 451zM324 814h258q56 354 280.5 524t480.5 170q333 0 559 -223t226 -547t-224 -549.5t-536 -225.5t-532.5 191.5t-253.5 522.5h-258v-677h-147v1471h147v-657z" />
    <glyph glyph-name="afii10049" unicode="&#x42f;" horiz-adv-x="1196" 
d="M866 1327h-259q-151 0 -216 -26q-65 -27 -105 -87t-40 -135t40 -137t110 -89q70 -28 217 -28l253 2v500zM1013 1471v-1471h-147v684h-84l-528 -684h-182l529 684q-185 2 -290 48t-161 137t-57 223q0 132 82 230t213 129q87 20 332 20h293z" />
    <glyph glyph-name="afii10065" unicode="&#x430;" horiz-adv-x="1399" 
d="M680 981q-117 1 -216 -57q-100 -58 -158 -162t-58 -220t59 -220q59 -106 159 -164t214 -58t217 58t159 157t55 223q-1 189 -125 316t-306 127zM669 1116q269 0 433 -228v200h138v-1088h-138v187q-177 -215 -437 -215q-231 0 -395 168t-163 404q0 238 165 405t397 167z
" />
    <glyph glyph-name="afii10066" unicode="&#x431;" horiz-adv-x="1370" 
d="M1124 538q0 180 -126 310.5t-298 130.5t-298.5 -130.5t-126.5 -310.5t121.5 -306.5t303.5 -126.5t303 126.5t121 306.5zM699 1116q242 0 404.5 -170t162.5 -404t-162 -402t-408 -168t-419 186t-173 586q0 279 63.5 422.5t145.5 206.5t212 99t487 45q110 3 185 14v-134
q-99 -17 -309 -23t-305.5 -24t-166.5 -67.5t-119.5 -150t-60.5 -224.5l-14 -153q57 187 187.5 274t289.5 87z" />
    <glyph glyph-name="afii10067" unicode="&#x432;" horiz-adv-x="958" 
d="M297 499v-381h150q106 0 151.5 13.5t78 58.5t32.5 124t-56 132t-148 53h-208zM297 967v-340h91q124 0 162 10t71.5 49.5t33.5 105.5t-35 112.5t-73.5 54.5t-158.5 8h-91zM472 0h-316v1088h311q178 0 256.5 -82t78.5 -192q0 -166 -146 -225q212 -75 212 -289
q0 -300 -396 -300z" />
    <glyph glyph-name="afii10068" unicode="&#x433;" horiz-adv-x="739" 
d="M295 965v-965h-139v1088h550v-123h-411z" />
    <glyph glyph-name="afii10069" unicode="&#x434;" horiz-adv-x="1239" 
d="M619 872l-318 -753h623zM1206 119v-258h-135v139h-900v-145h-138v264h132l420 969h73l417 -969h131z" />
    <glyph glyph-name="afii10070" unicode="&#x435;" horiz-adv-x="1331" 
d="M664 982q-160 0 -275 -103q-84 -75 -127 -225h810q-28 112 -82 179t-141 108q-88 41 -185 41zM104 534q0 214 127 376q161 206 435 206t440 -211q118 -149 120 -372h-978q4 -189 121 -311t289 -122q84 0 162 29t133 77t119 155l118 -62q-166 -327 -520 -327
q-266 0 -416 174t-150 388z" />
    <glyph glyph-name="afii10072" unicode="&#x436;" horiz-adv-x="1575" 
d="M714 1088h142v-481l520 481h171l-514 -485l553 -603h-179l-471 526l-80 -67v-459h-142v459l-78 67l-469 -526h-179l547 603l-506 485h171l514 -481v481z" />
    <glyph glyph-name="afii10073" unicode="&#x437;" horiz-adv-x="866" 
d="M338 630h73q70 0 128.5 46t58.5 126t-47 132t-152 52t-219 -88l-79 97q147 123 297 123t242.5 -81t92.5 -209q0 -170 -150 -231q196 -82 196 -287q0 -130 -91.5 -234.5t-273.5 -104.5q-223 0 -359 145l88 100q101 -114 259 -114q106 0 166.5 57t60.5 149t-61 147t-144 55
h-86v120z" />
    <glyph glyph-name="afii10074" unicode="&#x438;" horiz-adv-x="1262" 
d="M296 1088v-805l799 805h11v-1088h-140v798l-793 -798h-17v1088h140z" />
    <glyph glyph-name="afii10075" unicode="&#x439;" horiz-adv-x="1262" 
d="M296 1088v-805l799 805h11v-1088h-140v798l-793 -798h-17v1088h140zM636 1421q80 0 129 23t93 81h128q-22 -91 -112 -151t-238 -60t-241 60t-118 151h132q68 -104 227 -104z" />
    <glyph glyph-name="afii10076" unicode="&#x43a;" horiz-adv-x="1028" 
d="M156 1088h141v-458l503 458h195l-551 -498l595 -590h-198l-500 503l-44 -39v-464h-141v1088z" />
    <glyph glyph-name="afii10077" unicode="&#x43b;" horiz-adv-x="1135" 
d="M1077 0h-149l-364 792l-361 -792h-150l498 1088h25z" />
    <glyph glyph-name="afii10078" unicode="&#x43c;" horiz-adv-x="1800" 
d="M1337 1088h40l369 -1088h-146l-269 801l-418 -801h-26l-419 801l-268 -801h-146l371 1088h38l438 -851z" />
    <glyph glyph-name="afii10079" unicode="&#x43d;" horiz-adv-x="1225" 
d="M929 524h-632v-524h-141v1088h141v-432h632v432h140v-1088h-140v524z" />
    <glyph glyph-name="afii10080" unicode="&#x43e;" horiz-adv-x="1341" 
d="M670 979q-174 0 -298 -129q-125 -129 -125 -312q0 -118 57 -220t154 -158t213 -55q116 -1 213 55t154 158t57 220q1 183 -125 312t-300 129zM104 540q0 228 158 402t408 174q252 0 410 -174t157 -402t-159 -398t-408 -170t-408 170t-158 398z" />
    <glyph glyph-name="afii10081" unicode="&#x43f;" horiz-adv-x="1225" 
d="M156 1088h913v-1088h-140v956h-633v-956h-140v1088z" />
    <glyph glyph-name="afii10082" unicode="&#x440;" horiz-adv-x="1397" 
d="M718 981q-182 0 -306 -127t-125 -316q-1 -124 55 -223t160 -157t217 -58t213 58t159 164q59 104 59 220t-58 220t-158 162q-99 58 -216 57zM719 -28q-245 0 -422 215v-585h-139v1486h139v-200q166 228 432 228q232 0 397 -167t165 -405q1 -238 -163 -404
q-164 -168 -409 -168z" />
    <glyph glyph-name="afii10083" unicode="&#x441;" horiz-adv-x="1325" 
d="M708 984q-198 0 -330 -128t-132 -311q0 -119 60 -224t166 -163t237 -58q240 0 392 191l111 -73q-78 -118 -210 -182t-299 -64q-258 0 -428 164t-170 399q-1 157 79 293t219 212t311 76q108 0 208 -33q196 -64 290 -221l-111 -69q-144 191 -393 191z" />
    <glyph glyph-name="afii10084" unicode="&#x442;" horiz-adv-x="784" 
d="M34 1088h716v-121h-288v-967h-141v967h-287v121z" />
    <glyph glyph-name="afii10085" unicode="&#x443;" horiz-adv-x="1098" 
d="M39 1088h148l374 -838l363 838h149l-649 -1486h-148l210 480z" />
    <glyph glyph-name="afii10086" unicode="&#x444;" horiz-adv-x="2216" 
d="M245 547q0 -186 117.5 -316t314.5 -130q68 0 146 34.5t125.5 87t71.5 121.5t24 202q0 212 -110 324.5t-276 112.5t-289.5 -125t-123.5 -311zM1174 518q0 -195 111 -306t255 -111q196 0 314 130t118 316t-124 311t-290 125t-275 -111.5t-109 -353.5zM1039 1508h139v-584
q130 186 372 186t402.5 -161t160.5 -411t-162 -410.5t-403 -160.5t-370 196v-561h-139v561q-127 -197 -384 -197q-226 0 -388.5 160t-162.5 411t160.5 412t404.5 161t370 -186v584z" />
    <glyph glyph-name="afii10087" unicode="&#x445;" horiz-adv-x="983" 
d="M32 1088h168l288 -403l288 403h168l-372 -517l419 -571h-170l-333 457l-328 -457h-167l412 571z" />
    <glyph glyph-name="afii10088" unicode="&#x446;" horiz-adv-x="1337" 
d="M1173 0h-1017v1088h141v-956h632v956h141v-956h235v-304h-132v172z" />
    <glyph glyph-name="afii10089" unicode="&#x447;" horiz-adv-x="938" 
d="M643 491h-246q-167 0 -247.5 86t-80.5 239v272h137v-197q0 -190 54 -235.5t178 -45.5h205v478h139v-1088h-139v491z" />
    <glyph glyph-name="afii10090" unicode="&#x448;" horiz-adv-x="1937" 
d="M1782 0h-1626v1088h141v-956h599v956h143v-956h600v956h143v-1088z" />
    <glyph glyph-name="afii10091" unicode="&#x449;" horiz-adv-x="2050" 
d="M1885 0h-1729v1088h141v-956h600v956h142v-956h600v956h143v-956h236v-304h-133v172z" />
    <glyph glyph-name="afii10092" unicode="&#x44a;" horiz-adv-x="1063" 
d="M393 539v-421h161q288 0 288 208q0 71 -38.5 124.5t-101 71t-190.5 17.5h-119zM393 657h134q159 0 249 -25t155 -110.5t65 -207.5t-94.5 -218t-284.5 -96h-362v960h-200v128h338v-431z" />
    <glyph glyph-name="afii10093" unicode="&#x44b;" horiz-adv-x="1374" 
d="M1090 1088h141v-1088h-141v1088zM300 529v-411h161q284 0 284 200q0 57 -30.5 112t-89 77t-206.5 22h-119zM295 657h133q159 0 249 -25t155 -110.5t65 -207.5t-94 -218t-285 -96h-362v1088h139v-431z" />
    <glyph glyph-name="afii10094" unicode="&#x44c;" horiz-adv-x="965" 
d="M300 529v-411h161q284 0 284 200q0 57 -30.5 112t-89 77t-206.5 22h-119zM295 657h133q159 0 249 -25t155 -110.5t65 -207.5t-94 -218t-285 -96h-362v1088h139v-431z" />
    <glyph glyph-name="afii10095" unicode="&#x44d;" horiz-adv-x="1315" 
d="M584 503v120h484q-34 159 -160 260t-300 101q-249 0 -393 -191l-111 69q68 122 206 188t292 66q264 0 436 -169t173 -405t-167 -404q-168 -166 -431 -166q-153 0 -292 61t-217 185l111 73q152 -191 392 -191q181 0 311 110t150 293h-484z" />
    <glyph glyph-name="afii10096" unicode="&#x44e;" horiz-adv-x="1712" 
d="M1466 538q0 180 -126 310.5t-298 130.5t-298.5 -130.5t-126.5 -310.5t120.5 -306.5t302.5 -126.5t304 126.5t122 306.5zM298 0h-141v1088h141v-457h182q37 218 194.5 351.5t383.5 133.5t388 -170t162 -404t-162 -402t-391 -168t-390.5 141.5t-184.5 379.5h-182v-493z" />
    <glyph glyph-name="afii10097" unicode="&#x44f;" horiz-adv-x="911" 
d="M615 967h-92q-134 0 -207 -27t-73 -160q0 -67 35 -110.5t78 -53.5t167 -10h92v361zM615 487h-100l-310 -487h-151l327 501q-122 15 -198 92t-76 207t87.5 209t229.5 79h331v-1088h-140v487z" />
    <glyph glyph-name="afii10071" unicode="&#x451;" horiz-adv-x="1329" 
d="M664 982q-160 0 -275 -103q-84 -75 -127 -225h810q-28 112 -82 179t-141 108q-88 41 -185 41zM104 534q0 214 127 376q161 206 435 206t440 -211q118 -149 120 -372h-978q4 -189 121 -311t289 -122q84 0 162 29t133 77t119 155l118 -62q-166 -327 -520 -327
q-266 0 -416 174t-150 388zM870 1518q48 0 82 -34t34 -82t-34 -82t-82 -34t-82 34t-34 82t34 82t82 34zM462 1518q48 0 82 -34t34 -82t-34 -82t-82 -34t-82 34t-34 82t34 82t82 34z" />
    <glyph glyph-name="afii10099" unicode="&#x452;" horiz-adv-x="1284" 
d="M329 1508v-136h480v-120h-480v-359q170 223 408 223q142 0 241 -78.5t130 -184t31 -293.5v-560l2 -164q0 -262 -186 -262q-73 0 -159 34v126q54 -29 102 -29t73 32t26.5 73t1.5 190v519q0 189 -20.5 274t-89 139.5t-172.5 54.5t-179.5 -44t-126 -118t-66.5 -153t-16 -273
v-399h-139v1252h-155v120h155v136h139z" />
    <glyph glyph-name="afii10100" unicode="&#x453;" horiz-adv-x="739" 
d="M295 965v-965h-139v1088h550v-123h-411zM523 1598h215l-295 -308h-138z" />
    <glyph glyph-name="afii10101" unicode="&#x454;" horiz-adv-x="1315" 
d="M708 100q240 0 392 191l111 -73q-78 -124 -217 -185t-292 -61q-263 0 -430.5 167t-167.5 403t172.5 405t436.5 169q153 0 291.5 -66.5t206.5 -187.5l-111 -69q-144 191 -393 191q-174 0 -299.5 -101t-160.5 -260h484v-120h-484q20 -183 150 -293t311 -110z" />
    <glyph glyph-name="afii10102" unicode="&#x455;" horiz-adv-x="795" 
d="M394 985q-68 0 -116 -45q-48 -46 -49 -102q0 -56 40 -104t182 -122t198 -149q55 -76 55 -171q0 -134 -94 -227t-235 -93q-93 0 -179 41t-142 113l88 100q107 -121 227 -121q84 0 143 54q59 55 59 121t-39 112t-181 120q-142 73 -195 147q-53 73 -53 183q1 110 85 192
t224 82t291 -147l-90 -93q-112 109 -219 109z" />
    <glyph glyph-name="afii10103" unicode="&#x456;" horiz-adv-x="410" 
d="M135 1088h141v-1088h-141v1088zM206 1536q48 0 81 -34q34 -34 34 -82t-34 -81q-33 -34 -81 -34t-82 34q-34 33 -34 81t34 82t82 34z" />
    <glyph glyph-name="afii10104" unicode="&#x457;" horiz-adv-x="410" 
d="M135 1088h141v-1088h-141v1088zM409 1518q48 0 82 -34t34 -82t-34 -82t-82 -34t-82 34t-34 82t34 82t82 34zM1 1518q48 0 82 -34t34 -82t-34 -82t-82 -34t-82 34t-34 82t34 82t82 34z" />
    <glyph glyph-name="afii10105" unicode="&#x458;" horiz-adv-x="416" 
d="M139 1088h142v-1252q1 -138 -49 -200t-128 -62t-168 34v126q56 -29 107 -29q51 1 73 39t23 133v1211zM208 1536q48 0 82 -34t33 -82q1 -48 -33 -81q-34 -34 -82 -34t-82 34q-34 33 -33 81q-1 48 33 82t82 34z" />
    <glyph glyph-name="afii10106" unicode="&#x459;" horiz-adv-x="1622" 
d="M1120 118q284 0 284 200q0 71 -37.5 123.5t-97 70t-191.5 17.5h-245l185 -411h102zM1087 657q160 0 250.5 -25.5t154.5 -111.5t64 -194t-70 -203.5t-242 -122.5h-315l-369 828l-366 -828h-140l498 1088h25l200 -431h310z" />
    <glyph glyph-name="afii10107" unicode="&#x45a;" horiz-adv-x="1733" 
d="M1069 524v-406h160q284 0 284 197q0 56 -30.5 110.5t-89.5 76.5t-206 22h-118zM1069 656h128q158 0 248.5 -25.5t155 -111t64.5 -207.5t-94 -217t-284 -95h-358v524h-631v-524h-142v1088h142v-432h631v432h140v-432z" />
    <glyph glyph-name="afii10108" unicode="&#x45b;" horiz-adv-x="1284" 
d="M191 1252h-155v120h155v136h139v-136h480v-120h-480v-359q170 223 408 223q142 0 241 -78.5t130 -184t31 -293.5v-560h-140v519q0 189 -20.5 274t-89 139.5t-172.5 54.5t-179.5 -44t-126 -118t-66.5 -153t-16 -273v-399h-139v1252z" />
    <glyph glyph-name="afii10109" unicode="&#x45c;" horiz-adv-x="1028" 
d="M156 1088h141v-458l503 458h195l-551 -498l595 -590h-198l-500 503l-44 -39v-464h-141v1088zM651 1598h215l-295 -308h-138z" />
    <glyph glyph-name="afii10110" unicode="&#x45e;" horiz-adv-x="1098" 
d="M39 1088h148l374 -838l363 838h149l-649 -1486h-148l210 480zM553 1421q80 0 129 23t93 81h128q-23 -91 -113 -151t-238 -60t-240 60q-93 60 -118 151h132q68 -104 227 -104z" />
    <glyph glyph-name="afii10193" unicode="&#x45f;" horiz-adv-x="1227" 
d="M541 0h-384v1088h141v-956h632v956h141v-1088h-398v-172h-132v172z" />
    <glyph glyph-name="afii10050" unicode="&#x490;" horiz-adv-x="829" 
d="M323 0h-146v1471h475v214h145v-359h-474v-1326z" />
    <glyph glyph-name="afii10098" unicode="&#x491;" horiz-adv-x="729" 
d="M295 965v-965h-139v1088h382v135h137v-258h-380z" />
    <glyph glyph-name="Wgrave" unicode="&#x1e80;" horiz-adv-x="1966" 
d="M96 1471h151l299 -1060l422 1060h30l417 -1060l305 1060h150l-422 -1471h-28l-436 1113l-445 -1113h-28zM922 1895l218 -308h-138l-295 308h215z" />
    <glyph glyph-name="wgrave" unicode="&#x1e81;" horiz-adv-x="1702" 
d="M9 1088h144l333 -790l349 790h25l348 -790l339 790h146l-472 -1088h-27l-346 779l-349 -779h-26zM790 1598l218 -308h-138l-295 308h215z" />
    <glyph glyph-name="Wacute" unicode="&#x1e82;" horiz-adv-x="1966" 
d="M96 1471h151l299 -1060l422 1060h30l417 -1060l305 1060h150l-422 -1471h-28l-436 1113l-445 -1113h-28zM1051 1895h215l-295 -308h-138z" />
    <glyph glyph-name="wacute" unicode="&#x1e83;" horiz-adv-x="1702" 
d="M9 1088h144l333 -790l349 790h25l348 -790l339 790h146l-472 -1088h-27l-346 779l-349 -779h-26zM919 1598h215l-295 -308h-138z" />
    <glyph glyph-name="Wdieresis" unicode="&#x1e84;" horiz-adv-x="1966" 
d="M96 1471h151l299 -1060l422 1060h30l417 -1060l305 1060h150l-422 -1471h-28l-436 1113l-445 -1113h-28zM1188 1816q48 0 82 -34t34 -82t-34 -82t-82 -34t-82 34t-34 82t34 82t82 34zM780 1816q48 0 82 -34t34 -82t-34 -82t-82 -34t-82 34t-34 82t34 82t82 34z" />
    <glyph glyph-name="wdieresis" unicode="&#x1e85;" horiz-adv-x="1702" 
d="M9 1088h144l333 -790l349 790h25l348 -790l339 790h146l-472 -1088h-27l-346 779l-349 -779h-26zM1057 1518q48 0 82 -34t34 -82t-34 -82t-82 -34t-82 34t-34 82t34 82t82 34zM649 1518q48 0 82 -34t34 -82t-34 -82t-82 -34t-82 34t-34 82t34 82t82 34z" />
    <glyph glyph-name="Ygrave" unicode="&#x1ef2;" horiz-adv-x="1212" 
d="M683 0h-145v703l-475 768h170l376 -606l370 606h170l-466 -768v-703zM546 1895l218 -308h-138l-295 308h215z" />
    <glyph glyph-name="ygrave" unicode="&#x1ef3;" horiz-adv-x="1098" 
d="M39 1088h148l374 -838l363 838h149l-649 -1486h-148l210 480zM488 1598l218 -308h-138l-295 308h215z" />
    <glyph glyph-name="endash" unicode="&#x2013;" horiz-adv-x="1024" 
d="M-12 637h1048v-129h-1048v129z" />
    <glyph glyph-name="emdash" unicode="&#x2014;" horiz-adv-x="2048" 
d="M-12 637h2072v-129h-2072v129z" />
    <glyph glyph-name="afii00208" unicode="&#x2015;" horiz-adv-x="1536" 
d="M-12 637h1560v-129h-1560v129z" />
    <glyph glyph-name="underscoredbl" unicode="&#x2017;" horiz-adv-x="1024" 
d="M-12 -323h1048v-103h-1048v103zM-12 -146h1048v-103h-1048v103z" />
    <glyph glyph-name="quoteleft" unicode="&#x2018;" horiz-adv-x="719" 
d="M467 1234v-275h-181v172q0 129 17.5 202.5t67.5 174.5l78 -44q-38 -76 -51 -119t-20 -111h89z" />
    <glyph glyph-name="quoteright" unicode="&#x2019;" horiz-adv-x="719" 
d="M252 1233v275h181v-172q0 -129 -17.5 -202.5t-68.5 -174.5l-77 44q38 76 51 119t19 111h-88z" />
    <glyph glyph-name="quotesinglbase" unicode="&#x201a;" horiz-adv-x="725" 
d="M255 0v275h181v-172q0 -129 -17.5 -202.5t-68.5 -174.5l-77 43q38 76 51 119.5t19 111.5h-88z" />
    <glyph glyph-name="quotereversed" unicode="&#x201b;" horiz-adv-x="719" 
d="M286 1336v172h181v-275h-89q8 -107 71 -230l-78 -44q-53 105 -69 179t-16 198z" />
    <glyph glyph-name="quotedblleft" unicode="&#x201c;" horiz-adv-x="1028" 
d="M830 1234v-275h-181v172q0 129 17 202.5t68 174.5l78 -44q-38 -76 -51 -119t-20 -111h89zM385 1234v-275h-181v172q0 129 17.5 202.5t67.5 174.5l78 -44q-38 -76 -51 -119t-20 -111h89z" />
    <glyph glyph-name="quotedblright" unicode="&#x201d;" horiz-adv-x="991" 
d="M181 1233v275h181v-172q0 -129 -17.5 -202.5t-68.5 -174.5l-77 44q38 76 51 119t19 111h-88zM626 1233v275h181v-172q0 -129 -17.5 -202.5t-68.5 -174.5l-77 44q38 76 51 119t19 111h-88z" />
    <glyph glyph-name="quotedblbase" unicode="&#x201e;" horiz-adv-x="1028" 
d="M198 0v275h181v-172q0 -129 -17.5 -202.5t-68.5 -174.5l-77 44q38 76 51 119t19 111h-88zM643 0v275h181v-172q0 -129 -17.5 -202.5t-68.5 -174.5l-77 44q38 76 51 119t19 111h-88z" />
    <glyph glyph-name="dagger" unicode="&#x2020;" horiz-adv-x="1133" 
d="M489 1508h149l-23 -457l360 21v-149l-360 26l27 -1263h-153l29 1263l-361 -26v149l361 -21z" />
    <glyph glyph-name="daggerdbl" unicode="&#x2021;" horiz-adv-x="1133" 
d="M492 1508h147l-23 -354l358 23v-148l-358 27l23 -459l-23 -452l358 20v-148l-358 28l23 -359h-147l24 359l-357 -28v148l357 -20l-24 452l24 459l-357 -27v148l357 -23z" />
    <glyph glyph-name="bullet" unicode="&#x2022;" horiz-adv-x="1241" 
d="M620 1053q127 0 217 -89.5t90 -217.5t-90 -218t-217 -90t-217 90t-90 218t90 217.5t217 89.5z" />
    <glyph glyph-name="ellipsis" unicode="&#x2026;" horiz-adv-x="2048" 
d="M1706 220q50 0 87 -36t37 -88t-37 -88t-87 -36t-86 36t-36 88t36 88t86 36zM341 220q51 0 87 -36t36 -88t-36 -88t-87 -36t-87 36t-36 88t36 88t87 36zM1024 220q51 0 87 -36t36 -88t-36 -88t-87 -36t-87 36t-36 88t36 88t87 36z" />
    <glyph glyph-name="perthousand" unicode="&#x2030;" horiz-adv-x="2404" 
d="M1996 522q-91 0 -155.5 -64t-64.5 -155t64.5 -155t155.5 -64t155 64t64 155t-64 155t-155 64zM1996 649q144 0 244.5 -101.5t100.5 -244.5t-100.5 -244.5t-244.5 -101.5t-245 101.5t-101 244.5t101 244.5t245 101.5zM1198 522q-91 0 -155 -64t-64 -155t64 -155t155 -64
t155.5 64t64.5 155t-64.5 155t-155.5 64zM1198 649q143 0 244.5 -101.5t101.5 -244.5t-101.5 -244.5t-244.5 -101.5t-244.5 101.5t-101.5 244.5t101.5 244.5t244.5 101.5zM395 1381q-91 0 -155 -64.5t-64 -155.5t64 -155t155 -64t155.5 64t64.5 155t-64.5 155.5t-155.5 64.5
zM741 1167q0 -137 -95.5 -245t-247.5 -108t-250.5 100.5t-98.5 244.5q0 96 45 174.5t128 126.5t170 48q36 0 144 -23t240 -23t231.5 14.5t258.5 59.5h118l-1072 -1638h-132l975 1492q-173 -42 -422 -42l-54 1q62 -86 62 -182z" />
    <glyph glyph-name="minute" unicode="&#x2032;" horiz-adv-x="405" 
d="M232 1045h-103l43 463h148z" />
    <glyph glyph-name="second" unicode="&#x2033;" horiz-adv-x="633" 
d="M152 1045h-104l43 463h148zM540 1045h-104l44 463h148z" />
    <glyph glyph-name="guilsinglleft" unicode="&#x2039;" horiz-adv-x="514" 
d="M445 1088l-223 -546l223 -542h-148l-222 542l222 546h148z" />
    <glyph glyph-name="guilsinglright" unicode="&#x203a;" horiz-adv-x="514" 
d="M70 0l223 545l-223 543h148l222 -543l-222 -545h-148z" />
    <glyph glyph-name="exclamdbl" unicode="&#x203c;" horiz-adv-x="1087" 
d="M784 220q50 0 87 -36t37 -88t-37 -88t-87 -36t-86 36t-36 88t36 88t86 36zM302 220q49 0 86 -35t37 -88t-36.5 -89t-86.5 -36t-86.5 37t-36.5 89t37 87t86 35zM855 1508v-1140h-144v1140h144zM373 1508v-1140h-145v1140h145z" />
    <glyph glyph-name="radicalex" unicode="&#x203e;" horiz-adv-x="1135" 
d="M-42 1869h1219v-74h-1219v74z" />
    <glyph glyph-name="fraction" unicode="&#x2044;" horiz-adv-x="340" 
d="M-347 -37l923 1545h112l-925 -1545h-110z" />
    <glyph glyph-name="fraction" unicode="&#x2215;" horiz-adv-x="340" 
d="M-347 -37l923 1545h112l-925 -1545h-110z" />
    <glyph glyph-name="nsuperior" unicode="&#x207f;" horiz-adv-x="729" 
d="M76 1256h115v-97q93 114 222 114q82 0 141 -48t79 -114.5t20 -185.5v-350h-115v326q0 106 -10 155.5t-46 80t-98 30.5t-114 -47.5t-65.5 -106.5t-13.5 -185v-253h-115v681z" />
    <glyph glyph-name="franc" unicode="&#x20a3;" horiz-adv-x="993" 
d="M325 415h281v-138h-281v-277h-146v277h-179v138h179v1056h737v-145h-591v-460h591v-145h-591v-306z" />
    <glyph glyph-name="afii08941" unicode="&#x20a4;" horiz-adv-x="1135" 
d="M278 248q-42 0 -63 -22.5t-21 -54.5t19.5 -53.5t48.5 -21.5q77 0 123 111q-65 41 -107 41zM823 965v-129h-318l31 -112h287v-129h-259q10 -68 10 -165t-22 -167q191 -151 273 -151q98 0 109 232h141q0 -166 -60.5 -273.5t-169.5 -107.5q-152 0 -342 160
q-83 -160 -240 -160q-81 0 -143.5 45.5t-62.5 143.5t66.5 164.5t146.5 66.5t153 -39q7 64 7 124t-14 127h-317v129h286l-30 112h-256v129h220q-37 128 -37 206q0 146 107 241.5t256 95.5t241.5 -102.5t102.5 -280.5h-136q-12 249 -206 249q-109 0 -167 -59t-58 -141t43 -209
h358z" />
    <glyph glyph-name="peseta" unicode="&#x20a7;" horiz-adv-x="2219" 
d="M325 1328v-500q220 -3 245 -3q168 0 238.5 33t103.5 95t33 130t-40 131.5t-108 88.5t-212 25h-260zM1172 1088v404h141v-404h380q62 28 132 28q154 0 302 -147l-90 -93q-108 109 -219 109q-61 0 -113 -42.5t-52 -100.5t38.5 -107t174.5 -119t199 -142t63 -190t-90 -215
t-240 -97q-100 0 -184 43.5t-136 110.5l88 100q107 -121 227 -121q77 0 139 50.5t62 122.5t-42 118t-174 114t-191.5 139t-59.5 163t34 156h-248v-968h-141v968h-90q-63 -221 -233.5 -252.5t-418.5 -31.5h-105v-684h-147v1471h293q242 0 350.5 -24.5t191 -119.5t84.5 -239
h75z" />
    <glyph glyph-name="Euro" unicode="&#x20ac;" horiz-adv-x="1135" 
d="M958 1507q65 0 160 -14l-37 -141q-58 12 -120 12q-199 0 -362.5 -106t-238.5 -293h639l-36 -138h-637q-7 -46 -7 -86t5 -88h591l-36 -137h-525q69 -195 235.5 -305.5t379.5 -110.5q65 0 139 17v-140q-64 -12 -150 -12q-281 0 -485.5 146t-277.5 405h-148l35 137h88
q-4 56 -4 89t4 85h-123l37 138h113q77 251 284.5 396.5t476.5 145.5z" />
    <glyph glyph-name="afii61248" unicode="&#x2105;" horiz-adv-x="1783" 
d="M1414 587q-84 0 -144.5 -73.5t-60.5 -176.5t58.5 -174.5t146.5 -71.5t147 71.5t59 174.5t-61 176.5t-145 73.5zM1414 698q140 0 231.5 -107t91.5 -251t-90.5 -250.5t-230.5 -106.5t-232 104.5t-92 250.5t91 253t231 107zM373 -37l924 1545h111l-925 -1545h-110zM392 1401
q-105 0 -167.5 -76.5t-62.5 -176.5t64.5 -175t165.5 -75q127 0 205 118l93 -56q-101 -166 -301 -166q-166 0 -254.5 111t-88.5 251t99 246t251 106q198 0 294 -172l-94 -53q-72 118 -204 118z" />
    <glyph glyph-name="afii61289" unicode="&#x2113;" horiz-adv-x="734" 
d="M532 1250q0 61 -22.5 91t-53.5 30q-42 0 -55.5 -50.5t-13.5 -194.5v-227q91 157 118 223.5t27 127.5zM417 -24q-199 0 -199 241v225l-79 -98l-98 78l177 235v455q0 222 60 300.5t169 78.5t167 -69.5t58 -165.5t-61 -230t-224 -361v-415q0 -83 13 -107.5t43 -24.5
q52 0 199 107v-162q-104 -87 -225 -87z" />
    <glyph glyph-name="afii61352" unicode="&#x2116;" horiz-adv-x="2249" 
d="M1503 102h691v-102h-691v102zM2068 634q0 90 -64 154.5t-155 64.5t-155.5 -64.5t-64.5 -155.5t64.5 -155t154.5 -64t155 65t65 155zM2194 634q0 -142 -101.5 -244.5t-244.5 -102.5t-244 101.5t-101 244.5t101.5 244.5t243.5 101.5t244 -101.5t102 -243.5zM180 0v1471h32
l978 -1126v1126h145v-1471h-33l-970 1112v-1112h-152z" />
    <glyph glyph-name="trademark" unicode="&#x2122;" horiz-adv-x="2048" 
d="M770 1513v-137h-305v-725h-150v725h-303v137h758zM1966 1513v-862h-150v710l-321 -710h-99l-311 710v-710h-149v862h243l267 -597l282 597h238z" />
    <glyph glyph-name="Ohm" unicode="&#x2126;" horiz-adv-x="1573" 
d="M1455 801q0 -414 -344 -641l364 6v-166h-575v177q90 45 144 95q92 88 147.5 220t55.5 294t-88 358t-355 196q-195 0 -318.5 -147t-123.5 -390t92 -397.5t250 -225.5v-180h-577v168l369 -8q-126 79 -236 217t-110 425q0 210 84.5 370.5t231.5 245.5t342 85q323 0 502 -236
q145 -190 145 -466z" />
    <glyph glyph-name="estimated" unicode="&#x212e;" horiz-adv-x="1229" 
d="M917 605v297q-123 121 -299 121t-297 -122v-296h596zM321 531v-371q120 -121 298 -121q254 0 395 246l72 -43q-118 -170 -231.5 -223t-235.5 -53q-232 0 -380.5 158.5t-148.5 408.5t149.5 406.5t371.5 156.5t374 -142t163 -423h-827z" />
    <glyph glyph-name="oneeighth" unicode="&#x215b;" horiz-adv-x="1702" 
d="M1544 219q0 61 -52 102.5t-126 41.5t-130.5 -41t-56.5 -109t54.5 -100.5t130.5 -32.5t128 39t52 100zM1504 572q0 47 -38 75.5t-100 28.5t-104 -29t-42 -76t44.5 -80.5t100.5 -33.5t97.5 34t41.5 81zM1655 220q0 -95 -77.5 -166.5t-219.5 -71.5t-216.5 73t-74.5 159
q0 130 151 200q-109 56 -109 160q0 81 75 141t183 60t178 -61.5t70 -152.5t-106 -147q146 -68 146 -194zM412 1489v-756h-110v658h-150l73 98h187zM284 -37l923 1545h112l-925 -1545h-110z" />
    <glyph glyph-name="threeeighths" unicode="&#x215c;" horiz-adv-x="1702" 
d="M1544 219q0 61 -52 102.5t-126 41.5t-131 -41t-57 -109t55 -100.5t131 -32.5t128 39t52 100zM1503 572q0 47 -38 75.5t-100 28.5t-103.5 -29t-41.5 -76t44.5 -80.5t100.5 -33.5t97 34t41 81zM1655 220q0 -95 -78.5 -166.5t-216.5 -71.5t-215.5 70.5t-77.5 161.5
q0 130 150 200q-108 56 -108 160q0 81 74.5 141t182.5 60t178 -61.5t70 -152.5t-105 -147q146 -68 146 -194zM333 -37l924 1545h111l-924 -1545h-111zM332 1508q109 0 185.5 -59t76.5 -145t-91 -145q138 -66 138 -192q0 -102 -85 -177t-222 -75q-255 0 -301 241h109
q34 -142 193 -142q90 0 143 44t53 100t-52.5 99.5t-201.5 46.5v94q88 0 145 29t57 75t-42 76.5t-104 30.5q-113 0 -160 -116h-112q54 215 271 215z" />
    <glyph glyph-name="fiveeighths" unicode="&#x215d;" horiz-adv-x="1702" 
d="M1544 219q0 61 -52 102.5t-126 41.5t-131 -41t-57 -109t55 -100.5t131 -32.5t128 39t52 100zM1503 572q0 47 -38 75.5t-100 28.5t-103.5 -29t-41.5 -76t44.5 -80.5t100.5 -33.5t97 34t41 81zM1654 220q0 -95 -77.5 -166.5t-219.5 -71.5t-216 73t-74 159q0 130 150 200
q-108 56 -108 160q0 81 74.5 141t180.5 60t178 -60.5t72 -152.5t-105 -148q145 -68 145 -194zM613 1489v-97h-313l-38 -172q43 10 88 10q129 0 207 -72.5t78 -178.5t-85 -185t-218 -79t-207 63.5t-83 147.5h113q28 -113 170 -113q81 0 139 49.5t58 119.5t-52 110t-136 40
t-205 -30l85 387h399zM333 -37l924 1545h111l-924 -1545h-111z" />
    <glyph glyph-name="seveneighths" unicode="&#x215e;" horiz-adv-x="1702" 
d="M1544 219q0 61 -52 102.5t-126 41.5t-131 -41t-57 -109t55 -100.5t131 -32.5t128 39t52 100zM1504 572q0 47 -38 75.5t-100 28.5t-104 -29t-42 -76t44.5 -80.5t100.5 -33.5t97.5 34t41.5 81zM1655 220q0 -95 -77.5 -166.5t-219.5 -71.5t-216.5 73t-74.5 159
q0 130 151 200q-109 56 -109 160q0 81 75 141t181 60t178 -60.5t72 -152.5t-106 -148q146 -68 146 -194zM81 1489h579l-475 -774l-91 40l388 637h-401v97zM259 -37l923 1545h111l-924 -1545h-110z" />
    <glyph glyph-name="arrowleft" unicode="&#x2190;" horiz-adv-x="2048" 
d="M1968 567v-101h-1595q102 -102 198 -309h-78q-223 253 -414 341v45q177 71 413 333h76q-81 -170 -195 -309h1595z" />
    <glyph glyph-name="arrowup" unicode="&#x2191;" horiz-adv-x="1024" 
d="M563 -429h-101v1597q-139 -114 -309 -195v77q262 236 333 413h46q87 -192 340 -415v-77q-207 96 -309 197v-1597z" />
    <glyph glyph-name="arrowright" unicode="&#x2192;" horiz-adv-x="2048" 
d="M79 466v101h1595q-114 139 -195 309h76q237 -262 413 -333v-45q-191 -88 -414 -341h-77q95 207 197 309h-1595z" />
    <glyph glyph-name="arrowdown" unicode="&#x2193;" horiz-adv-x="1024" 
d="M462 1463h101v-1598q102 102 309 197v-77q-253 -223 -340 -414h-46q-71 176 -333 413v76q170 -81 309 -195v1598z" />
    <glyph glyph-name="arrowboth" unicode="&#x2194;" horiz-adv-x="2048" 
d="M1968 540v-45q-181 -79 -406 -337h-80q69 172 194 311h-1305q125 -139 194 -311h-80q-224 258 -406 337v45q182 79 406 338h80q-69 -172 -194 -311h1305q-125 139 -194 311h80q225 -259 406 -338z" />
    <glyph glyph-name="arrowupdn" unicode="&#x2195;" horiz-adv-x="1024" 
d="M489 1463h45q79 -182 337 -407v-80q-171 69 -311 195v-1306q140 126 311 194v-79q-258 -225 -337 -407h-45q-79 182 -337 407v79q171 -68 311 -194v1306q-140 -126 -311 -195v80q258 225 337 407z" />
    <glyph glyph-name="arrowupdnbse" unicode="&#x21a8;" horiz-adv-x="1024" 
d="M154 -522h717v-98h-717v98zM489 1463h45q79 -182 337 -407v-80q-171 69 -311 195v-1306q140 126 311 194v-79q-258 -225 -337 -407h-45q-79 182 -337 407v79q171 -68 311 -194v1306q-140 -126 -311 -195v80q258 225 337 407z" />
    <glyph glyph-name="partialdiff" unicode="&#x2202;" horiz-adv-x="1012" 
d="M236 303q0 -83 51 -137t129 -54t235 116t203 568q-248 -15 -359 -69t-185 -175t-74 -249zM645 1491q94 0 211 -88.5t117 -476.5q0 -295 -87.5 -514.5t-231.5 -328t-286 -108.5t-227 92t-85 255q0 236 164 398q199 196 638 204q-4 191 -41 315t-164 124q-143 0 -227 -225
l-135 60q67 149 163.5 221t190.5 72z" />
    <glyph glyph-name="Delta" unicode="&#x2206;" horiz-adv-x="1253" 
d="M990 82l-399 967l-440 -967h839zM1226 0h-1200l628 1387z" />
    <glyph glyph-name="product" unicode="&#x220f;" horiz-adv-x="1685" 
d="M162 1536h1362v-1962h-191v1788h-978v-1788h-193v1962z" />
    <glyph glyph-name="summation" unicode="&#x2211;" 
d="M139 1536h1237v-164h-988l607 -796l-646 -841h1037v-161h-1264v187l620 808l-603 791v176z" />
    <glyph glyph-name="minus" unicode="&#x2212;" horiz-adv-x="1241" 
d="M115 804h1012v-137h-1012v137z" />
    <glyph glyph-name="periodcentered" unicode="&#x2219;" horiz-adv-x="567" 
d="M284 859q51 0 87 -35.5t36 -87.5t-36 -88.5t-87 -36.5t-87 36.5t-36 88.5t36 87.5t87 35.5z" />
    <glyph glyph-name="radical" unicode="&#x221a;" horiz-adv-x="1124" 
d="M1047 1869h74l-312 -1947l-496 1021l-198 -91l-34 64l301 151l405 -823z" />
    <glyph glyph-name="infinity" unicode="&#x221e;" 
d="M392 873q-52 0 -90.5 -41.5t-38.5 -111.5t39.5 -113.5t97.5 -43.5q101 0 218 153q-77 97 -125.5 127t-100.5 30zM1026 499q68 0 119.5 56.5t51.5 159.5t-52 159.5t-118 56.5t-116.5 -36.5t-154.5 -177.5q82 -128 142 -173t128 -45zM1036 1044q94 0 183 -78t89 -244
t-84 -250t-188 -84t-173 49t-176 183q-136 -171 -289 -171q-102 0 -174 77.5t-72 189.5t72 189.5t174 77.5q153 0 289 -171q117 146 186 189t163 43z" />
    <glyph glyph-name="orthogonal" unicode="&#x221f;" horiz-adv-x="2005" 
d="M362 1279h100v-1179h1181v-100h-1281v1279z" />
    <glyph glyph-name="intersection" unicode="&#x2229;" horiz-adv-x="1206" 
d="M239 0h-110v621l2 238q2 239 60 346.5t156 197t256 89.5q118 0 225 -68.5t165 -174t71.5 -224t13.5 -404.5v-621h-110v628q0 243 -10 348.5t-52 190t-127.5 139.5t-175.5 55t-174.5 -55t-126 -137t-52.5 -189.5t-11 -351.5v-628z" />
    <glyph glyph-name="integral" unicode="&#x222b;" horiz-adv-x="561" 
d="M208 -64q39 0 39 52t-9 129q-37 316 -37 883t70 739q25 60 71 92t94 32t86 -32.5t38 -76.5t-26.5 -73t-63.5 -29t-69 28t-49 28q-40 0 -40 -53t23 -309t23 -418q0 -161 -15 -661q-9 -305 -84 -410q-55 -77 -141 -77q-52 0 -85 34t-33 82t25 76t65 28t69 -32t49 -32z" />
    <glyph glyph-name="approxequal" unicode="&#x2248;" horiz-adv-x="1124" 
d="M818 393q-95 1 -246 69t-187.5 79.5t-74.5 11.5t-91 -19.5t-165 -85.5v160q110 62 159 79t95 17q98 0 242 -68t188 -82t82 -14t81 16.5t169 94.5v-162q-112 -63 -160.5 -79.5t-91.5 -16.5zM818 765q-95 1 -246 69t-187.5 79.5t-74.5 11.5t-91 -19t-165 -86v160
q110 63 159 79.5t95 16.5q98 0 242 -68t188 -82t82 -14t81 16.5t169 94.5v-162q-112 -63 -160.5 -79.5t-91.5 -16.5z" />
    <glyph glyph-name="notequal" unicode="&#x2260;" horiz-adv-x="1124" 
d="M1068 1024v-137h-379l-117 -303h496v-137h-549l-187 -484h-138l186 484h-324v137h377l116 303h-493v137h545l186 484h142l-187 -484h326z" />
    <glyph glyph-name="equivalence" unicode="&#x2261;" horiz-adv-x="1241" 
d="M1127 403v-137h-1012v137h1012zM115 804h1012v-137h-1012v137zM1127 1205v-137h-1012v137h1012z" />
    <glyph glyph-name="lessequal" unicode="&#x2264;" horiz-adv-x="1124" 
d="M1079 231v-137h-1033v137h1033zM1079 481v-146l-1033 469v130l1033 471v-147l-839 -390z" />
    <glyph glyph-name="greaterequal" unicode="&#x2265;" horiz-adv-x="1124" 
d="M1079 231v-137h-1033v137h1033zM46 481l839 387l-839 390v147l1033 -471v-130l-1033 -469v146z" />
    <glyph glyph-name="house" unicode="&#x2302;" horiz-adv-x="1229" 
d="M234 81h761v519l-381 427l-380 -427v-519zM153 0v634l461 519l462 -519v-634h-923z" />
    <glyph glyph-name="revlogicalnot" unicode="&#x2310;" horiz-adv-x="1241" 
d="M115 1024h1012v-137h-875v-440h-137v577z" />
    <glyph glyph-name="integraltp" unicode="&#x2320;" horiz-adv-x="1229" 
d="M687 -515h-145v1811q0 207 86 324t206 117q74 -1 106 -35t32 -74t-26 -66t-62 -26q-34 0 -56 14t-44 48q-22 36 -48 36t-38 -24t-11 -154v-1971z" />
    <glyph glyph-name="integralbt" unicode="&#x2321;" horiz-adv-x="1229" 
d="M542 1737h145v-1811q0 -207 -86 -324t-206 -117q-59 0 -99 28t-39 75q1 46 27 72t60 26t56 -14t44 -49t49 -35q25 0 37 24t12 154v1971z" />
    <glyph glyph-name="SF100000" unicode="&#x2500;" 
d="M1478 534h-1496v175h1496v-175z" />
    <glyph glyph-name="SF110000" unicode="&#x2502;" 
d="M643 -621v2485h175v-2485h-175z" />
    <glyph glyph-name="SF010000" unicode="&#x250c;" 
d="M1479 709v-175h-661v-1155h-175v1330h836z" />
    <glyph glyph-name="SF030000" unicode="&#x2510;" 
d="M642 534h-660v175h835v-1330h-175v1155z" />
    <glyph glyph-name="SF020000" unicode="&#x2514;" 
d="M643 534v1330h175v-1155h661v-175h-836z" />
    <glyph glyph-name="SF040000" unicode="&#x2518;" 
d="M817 534h-835v175h660v1155h175v-1330z" />
    <glyph glyph-name="SF080000" unicode="&#x251c;" 
d="M643 -621v2485h175v-1155h661v-175h-661v-1155h-175z" />
    <glyph glyph-name="SF090000" unicode="&#x2524;" 
d="M642 -621v1155h-660v175h660v1155h175v-2485h-175z" />
    <glyph glyph-name="SF060000" unicode="&#x252c;" 
d="M642 534h-660v175h1496v-175h-661v-1155h-175v1155z" />
    <glyph glyph-name="SF070000" unicode="&#x2534;" 
d="M1478 534h-1496v175h660v1155h175v-1155h661v-175z" />
    <glyph glyph-name="SF050000" unicode="&#x253c;" 
d="M642 534h-660v175h660v1155h175v-1155h661v-175h-661v-1155h-175v1155z" />
    <glyph glyph-name="SF430000" unicode="&#x2550;" 
d="M1478 344h-1496v175h1496v-175zM1478 724h-1496v175h1496v-175z" />
    <glyph glyph-name="SF240000" unicode="&#x2551;" 
d="M453 -621v2485h175v-2485h-175zM833 -621v2485h175v-2485h-175z" />
    <glyph glyph-name="SF510000" unicode="&#x2552;" 
d="M643 -621v1520h836v-175h-661v-205h661v-175h-661v-965h-175z" />
    <glyph glyph-name="SF520000" unicode="&#x2553;" 
d="M453 -621v1330h1026v-175h-471v-1155h-175v1140h-205v-1140h-175z" />
    <glyph glyph-name="SF390000" unicode="&#x2554;" 
d="M1008 344v-965h-175v1140h645v-175h-470zM628 -621h-175v1520h1025v-175h-850v-1345z" />
    <glyph glyph-name="SF220000" unicode="&#x2555;" 
d="M642 344h-660v175h660v205h-660v175h835v-1520h-175v965z" />
    <glyph glyph-name="SF210000" unicode="&#x2556;" 
d="M452 -621v1155h-470v175h1025v-1330h-175v1155h-205v-1155h-175z" />
    <glyph glyph-name="SF250000" unicode="&#x2557;" 
d="M452 344h-470v175h645v-1140h-175v965zM832 -621v1345h-850v175h1025v-1520h-175z" />
    <glyph glyph-name="SF500000" unicode="&#x2558;" 
d="M643 344v1520h175v-965h661v-175h-661v-205h661v-175h-836z" />
    <glyph glyph-name="SF490000" unicode="&#x2559;" 
d="M1478 534h-1025v1330h175v-1155h205v1155h175v-1155h470v-175z" />
    <glyph glyph-name="SF380000" unicode="&#x255a;" 
d="M1008 899h470v-175h-645v1140h175v-965zM628 1864v-1345h850v-175h-1025v1520h175z" />
    <glyph glyph-name="SF280000" unicode="&#x255b;" 
d="M817 344h-835v175h660v205h-660v175h660v965h175v-1520z" />
    <glyph glyph-name="SF270000" unicode="&#x255c;" 
d="M1007 534h-1025v175h470v1155h175v-1155h205v1155h175v-1330z" />
    <glyph glyph-name="SF260000" unicode="&#x255d;" 
d="M452 899v965h175v-1140h-645v175h470zM832 1864h175v-1520h-1025v175h850v1345z" />
    <glyph glyph-name="SF360000" unicode="&#x255e;" 
d="M643 -621v2485h175v-965h661v-175h-661v-205h661v-175h-661v-965h-175z" />
    <glyph glyph-name="SF370000" unicode="&#x255f;" 
d="M453 -621v2485h175v-2485h-175zM833 -621v2485h175v-1155h471v-175h-471v-1155h-175z" />
    <glyph glyph-name="SF420000" unicode="&#x2560;" 
d="M833 -621v1140h646v-175h-471v-965h-175zM833 724v1140h175v-965h471v-175h-646zM453 -621v2485h175v-2485h-175z" />
    <glyph glyph-name="SF190000" unicode="&#x2561;" 
d="M642 344h-660v175h660v205h-660v175h660v965h175v-2485h-175v965z" />
    <glyph glyph-name="SF200000" unicode="&#x2562;" 
d="M832 -621v2485h175v-2485h-175zM452 -621v1155h-470v175h470v1155h175v-2485h-175z" />
    <glyph glyph-name="SF230000" unicode="&#x2563;" 
d="M452 344h-470v175h645v-1140h-175v965zM627 1864v-1140h-645v175h470v965h175zM832 -621v2485h175v-2485h-175z" />
    <glyph glyph-name="SF470000" unicode="&#x2564;" 
d="M642 344h-660v175h1496v-175h-661v-965h-175v965zM1478 724h-1496v175h1496v-175z" />
    <glyph glyph-name="SF480000" unicode="&#x2565;" 
d="M452 -621v1155h-470v175h1496v-175h-471v-1155h-175v1140h-205v-1140h-175z" />
    <glyph glyph-name="SF410000" unicode="&#x2566;" 
d="M832 -621v1140h646v-175h-471v-965h-175zM452 344h-470v175h645v-1140h-175v965zM1478 724h-1496v175h1496v-175z" />
    <glyph glyph-name="SF450000" unicode="&#x2567;" 
d="M1478 344h-1496v175h1496v-175zM1478 724h-1496v175h660v965h175v-965h661v-175z" />
    <glyph glyph-name="SF460000" unicode="&#x2568;" 
d="M1478 534h-1496v175h470v1155h175v-1155h205v1155h175v-1155h471v-175z" />
    <glyph glyph-name="SF400000" unicode="&#x2569;" 
d="M1478 344h-1496v175h1496v-175zM1478 724h-646v1140h175v-965h471v-175zM627 724h-645v175h470v965h175v-1140z" />
    <glyph glyph-name="SF540000" unicode="&#x256a;" 
d="M642 344h-660v175h660v205h-660v175h660v965h175v-965h661v-175h-661v-205h661v-175h-661v-965h-175v965z" />
    <glyph glyph-name="SF530000" unicode="&#x256b;" 
d="M452 -621v1155h-470v175h470v1155h175v-1155h205v1155h175v-1155h471v-175h-471v-1155h-175v1155h-205v-1155h-175z" />
    <glyph glyph-name="SF440000" unicode="&#x256c;" 
d="M1008 344v-965h-175v1140h645v-175h-470zM452 344h-470v175h645v-1140h-175v965zM452 899v965h175v-1140h-645v175h470zM1008 899h470v-175h-645v1140h175v-965z" />
    <glyph glyph-name="upblock" unicode="&#x2580;" 
d="M1478 621h-1496v1243h1496v-1243z" />
    <glyph glyph-name="dnblock" unicode="&#x2584;" 
d="M1478 -621h-1496v1242h1496v-1242z" />
    <glyph glyph-name="block" unicode="&#x2588;" 
d="M-18 -621v2485h1496v-2485h-1496z" />
    <glyph glyph-name="lfblock" unicode="&#x258c;" 
d="M-18 -621v2485h748v-2485h-748z" />
    <glyph glyph-name="rtblock" unicode="&#x2590;" 
d="M730 -621v2485h748v-2485h-748z" />
    <glyph glyph-name="ltshade" unicode="&#x2591;" 
d="M1353 -379h125v-125h-125v125zM855 -379h124v-125h-124v125zM356 -379h125v-125h-125v125zM107 -130h125v-125h-125v125zM605 -130h125v-125h-125v125zM1104 -130h125v-125h-125v125zM1353 119h125v-124h-125v124zM855 119h124v-124h-124v124zM356 119h125v-124h-125v124
zM1104 369h125v-125h-125v125zM605 369h125v-125h-125v125zM107 369h125v-125h-125v125zM356 618h125v-125h-125v125zM855 618h124v-125h-124v125zM1353 618h125v-125h-125v125zM1104 867h125v-125h-125v125zM605 867h125v-125h-125v125zM107 867h125v-125h-125v125z
M356 1116h125v-124h-125v124zM855 1116h124v-124h-124v124zM1353 1116h125v-124h-125v124zM107 1366h125v-125h-125v125zM605 1366h125v-125h-125v125zM1104 1366h125v-125h-125v125zM1353 1615h125v-125h-125v125zM855 1615h124v-125h-124v125zM356 1615h125v-125h-125v125
zM1104 1864h125v-125h-125v125zM605 1864h125v-125h-125v125zM107 1864h125v-125h-125v125z" />
    <glyph glyph-name="shade" unicode="&#x2592;" 
d="M1228 -379h125v-125h-125v125zM979 -379h125v-125h-125v125zM730 -379h124v-125h-124v125zM480 -379h125v-125h-125v125zM231 -379h125v-125h-125v125zM-18 -379h125v-125h-125v125zM107 -130h124v-125h-124v125zM356 -130h124v-125h-124v125zM605 -130h125v-125h-125
v125zM854 -130h125v-125h-125v125zM1104 -130h124v-125h-124v125zM1353 -130h124v-125h-124v125zM1228 119h125v-124h-125v124zM979 119h125v-124h-125v124zM730 119h124v-124h-124v124zM480 119h125v-124h-125v124zM231 119h125v-124h-125v124zM-18 119h125v-124h-125v124z
M107 369h124v-125h-124v125zM356 369h124v-125h-124v125zM605 369h125v-125h-125v125zM854 369h125v-125h-125v125zM1104 369h124v-125h-124v125zM1353 369h124v-125h-124v125zM231 618h125v-125h-125v125zM1228 618h125v-125h-125v125zM979 618h125v-125h-125v125zM730 618
h124v-125h-124v125zM480 618h125v-125h-125v125zM-18 618h125v-125h-125v125zM1353 867h124v-125h-124v125zM1104 867h124v-125h-124v125zM854 867h125v-125h-125v125zM605 867h125v-125h-125v125zM356 867h124v-125h-124v125zM107 867h124v-125h-124v125zM1228 1116h125
v-124h-125v124zM979 1116h125v-124h-125v124zM730 1116h124v-124h-124v124zM480 1116h125v-124h-125v124zM231 1116h125v-124h-125v124zM-18 1116h125v-124h-125v124zM1353 1366h124v-125h-124v125zM1104 1366h124v-125h-124v125zM854 1366h125v-125h-125v125zM605 1366h125
v-125h-125v125zM356 1366h124v-125h-124v125zM107 1366h124v-125h-124v125zM1228 1615h125v-125h-125v125zM979 1615h125v-125h-125v125zM730 1615h124v-125h-124v125zM480 1615h125v-125h-125v125zM231 1615h125v-125h-125v125zM-18 1615h125v-125h-125v125zM1353 1864h124
v-125h-124v125zM1104 1864h124v-125h-124v125zM854 1864h125v-125h-125v125zM605 1864h125v-125h-125v125zM356 1864h124v-125h-124v125zM107 1864h124v-125h-124v125z" />
    <glyph glyph-name="dkshade" unicode="&#x2593;" horiz-adv-x="1495" 
d="M1122 -379v-125h124v125h-124zM872 -379v-125h125v125h-125zM623 -379v-125h125v125h-125zM374 -379v-125h124v125h-124zM125 -379v-125h124v125h-124zM374 -255v125h-125v-125h125zM623 -255v125h-125v-125h125zM872 -255v125h-124v-125h124zM1122 -255v125h-125v-125
h125zM1371 -255v125h-125v-125h125zM1122 119v-124h124v124h-124zM872 119v-124h125v124h-125zM623 119v-124h125v124h-125zM374 119v-124h124v124h-124zM125 119v-124h124v124h-124zM374 244v125h-125v-125h125zM623 244v125h-125v-125h125zM872 244v125h-124v-125h124z
M1122 244v125h-125v-125h125zM1371 244v125h-125v-125h125zM1122 618v-125h124v125h-124zM872 618v-125h125v125h-125zM498 493v125h-124v-125h124zM623 618v-125h125v125h-125zM125 618v-125h124v125h-124zM1246 867v-125h125v125h-125zM997 867v-125h125v125h-125z
M748 867v-125h124v125h-124zM498 867v-125h125v125h-125zM374 867h-125v-125h125v125zM1122 1116v-124h124v124h-124zM872 1116v-124h125v124h-125zM623 1116v-124h125v124h-125zM374 1116v-124h124v124h-124zM125 1116v-124h124v124h-124zM374 1366h-125v-125h125v125z
M623 1366h-125v-125h125v125zM872 1366h-124v-125h124v125zM1122 1366h-125v-125h125v125zM1371 1366h-125v-125h125v125zM1122 1615v-125h124v125h-124zM872 1615v-125h125v125h-125zM623 1615v-125h125v125h-125zM374 1615v-125h124v125h-124zM125 1615v-125h124v125h-124
zM1495 1490v-374h-124v-124h124v-374h-124v-125h124v-374h-124v-124h124v-374h-124v-125h124v-124h-1495v373h125v125h-125v374h125v125h-125v373h125v125h-125v374h125v125h-125v373h125v125h124v-125h125v125h124v-125h125v125h125v-125h124v125h125v-125h125v125h124
v-125h125v125h124v-249h-124v-125h124z" />
    <glyph glyph-name="filledbox" unicode="&#x25a0;" horiz-adv-x="1237" 
d="M146 944h944v-944h-944v944z" />
    <glyph glyph-name="H22073" unicode="&#x25a1;" horiz-adv-x="1237" 
d="M222 868v-792h792v792h-792zM146 944h944v-944h-944v944z" />
    <glyph glyph-name="H18543" unicode="&#x25aa;" horiz-adv-x="726" 
d="M594 445h-463v463l463 1v-464z" />
    <glyph glyph-name="H18551" unicode="&#x25ab;" horiz-adv-x="726" 
d="M207 521h311v312l-311 -1v-311zM594 445h-463v463l463 1v-464z" />
    <glyph glyph-name="filledrect" unicode="&#x25ac;" horiz-adv-x="2048" 
d="M0 703h2047v-386h-2047v386z" />
    <glyph glyph-name="triagup" unicode="&#x25b2;" horiz-adv-x="2027" 
d="M304 0l710 1419l710 -1419h-1420z" />
    <glyph glyph-name="triagrt" unicode="&#x25ba;" horiz-adv-x="2027" 
d="M288 1417l1451 -724l-1451 -724v1448z" />
    <glyph glyph-name="triagdn" unicode="&#x25bc;" horiz-adv-x="2027" 
d="M1724 1388l-710 -1419l-710 1419h1420z" />
    <glyph glyph-name="triaglf" unicode="&#x25c4;" horiz-adv-x="2027" 
d="M1739 1417v-1448l-1451 724z" />
    <glyph glyph-name="lozenge" unicode="&#x25ca;" horiz-adv-x="1012" 
d="M495 1325l-340 -616l340 -615l359 615zM549 1422l418 -713l-418 -709h-111l-391 709l391 713h111z" />
    <glyph glyph-name="circle" unicode="&#x25cb;" horiz-adv-x="1229" 
d="M979 578q0 150 -107 257q-108 107 -258 107t-257 -108t-107 -256q0 -149 107 -257t257 -108q150 -1 258 107q107 108 107 258zM1055 578q1 -182 -129 -312t-312 -129q-182 0 -311 129q-129 130 -129 312t130 311t311 129q182 0 311 -129t129 -311z" />
    <glyph glyph-name="H18533" unicode="&#x25cf;" horiz-adv-x="1237" 
d="M620 1018q180 0 309.5 -129t129.5 -311t-129 -311.5t-311 -129.5t-311.5 129.5t-129.5 315.5t131 311t311 125z" />
    <glyph glyph-name="invbullet" unicode="&#x25d8;" horiz-adv-x="1229" 
d="M816 490q0 82 -59 142t-142 60t-143 -59t-60 -143t60 -142q60 -60 142 -60q84 0 143 60t59 142zM124 0v980h980v-980h-980z" />
    <glyph glyph-name="invcircle" unicode="&#x25d9;" horiz-adv-x="1229" 
d="M980 578q0 -151 -107 -258t-257 -107t-258 107q-107 108 -107 258q-1 150 107 257t258 107t257 -106t107 -258zM1056 577q0 181 -130 311t-311 130q-182 0 -311 -130t-129 -311t129 -311t311 -129q181 -1 311 129t130 311zM38 0v1155h1155v-1155h-1155z" />
    <glyph glyph-name="openbullet" unicode="&#x25e6;" horiz-adv-x="726" 
d="M363 852q-71 0 -123 -50t-52 -124t51.5 -125t123.5 -51t123.5 51t51.5 125t-52 124t-123 50zM362 928q102 0 177 -72t75 -178t-73.5 -179t-177.5 -73t-177.5 73.5t-73.5 177.5t74 177.5t176 73.5z" />
    <glyph glyph-name="smileface" unicode="&#x263a;" horiz-adv-x="2091" 
d="M1046 205q153 0 231 144l63 -36q-104 -195 -294 -195t-294 195l62 36q79 -144 232 -144zM1371 650q0 -34 -24 -57q-24 -24 -57 -24t-57 24q-24 23 -24 57t24 58t57 23q33 1 57 -23t24 -58zM882 650q0 -34 -24 -57q-24 -24 -56 -24q-34 0 -58 24q-24 23 -24 57t24 58
t58 23q34 1 56 -23q24 -24 24 -58zM1591 518q-1 224 -161 385q-160 160 -384 160t-385 -160q-160 -161 -160 -385t160 -384q161 -160 385 -160t384 160t161 384zM1683 520q0 -264 -187 -452q-186 -188 -450 -187t-451 187t-187 450t188 450q188 188 450 188q264 0 450 -186
t187 -450z" />
    <glyph glyph-name="invsmileface" unicode="&#x263b;" horiz-adv-x="2155" 
d="M1078 118q190 0 294 195l-63 36q-78 -144 -231 -144t-232 144l-62 -36q104 -195 294 -195zM1403 650q0 34 -24 58t-57 23q-33 1 -57 -23t-24 -58t24 -57q24 -24 57 -24t57 24q24 23 24 57zM914 650q0 34 -24 58t-56 23q-34 1 -58 -23t-24 -58t24 -57q24 -24 58 -24t56 24
q24 23 24 57zM1715 520q0 -264 -187 -452q-186 -188 -450 -187t-451 187t-187 450t188 450q188 188 450 188q264 0 450 -186t187 -450z" />
    <glyph glyph-name="sun" unicode="&#x263c;" horiz-adv-x="1878" 
d="M1450 700q0 212 -150 361q-150 150 -362 150q-212 -1 -362 -151t-151 -361q1 -211 151 -362t361 -151t362 151t151 363zM902 1621h76v-337q191 -7 350 -140l289 283l52 -53l-286 -286q140 -175 143 -358h336v-69h-336q-14 -190 -143 -348l286 -289l-57 -51l-284 280
q-167 -125 -350 -139v-337h-76v337q-203 25 -345 139l-296 -280l-49 51l284 289q-125 153 -144 352h-336v69h336q14 197 144 349l-284 287l49 57l291 -283q180 130 350 140v337z" />
    <glyph glyph-name="female" unicode="&#x2640;" horiz-adv-x="1131" 
d="M992 955q0 176 -125 301t-301 125q-176 1 -302 -125t-126 -302t126 -300q126 -126 301 -126t301 126t126 301zM591 116h417v-54h-417v-399h-54v399h-418v54h418v365q-81 -1 -189 51t-184 168q-75 116 -75 256q-1 196 139 336t336 140t337 -140q140 -140 140 -330
q1 -190 -127 -330q-128 -138 -323 -151v-365z" />
    <glyph glyph-name="male" unicode="&#x2642;" horiz-adv-x="1366" 
d="M528 516q-156 0 -269 -114q-114 -114 -114 -276q1 -164 117 -274t276 -111t272 113t111 276t-119 274t-274 112zM1047 81q0 -188 -133 -304t-332 -116q-200 1 -340 135t-140 322t130 316t307 128q76 0 170 -33l293 636q-214 -90 -457 -104v27q165 52 255 98t307 186
l29 -10q35 -359 161 -615l-25 -16q-149 188 -222 415l-295 -635q110 -42 201 -162t91 -268z" />
    <glyph glyph-name="spade" unicode="&#x2660;" horiz-adv-x="1092" 
d="M1032 492q0 -89 -64 -153t-156 -64q-154 0 -254 190q0 -229 101 -325t277 -103l7 -37h-793l8 37q182 0 282 105t101 282v41q-90 -190 -262 -190q-91 0 -155 66t-64 155q0 150 188 305q262 215 299 430q19 -82 65 -169t186 -214t186 -197q48 -70 48 -159z" />
    <glyph glyph-name="club" unicode="&#x2663;" horiz-adv-x="1354" 
d="M328 273q-104 0 -186 81q-82 82 -82 196t72 196t170 82q64 0 163 -51q-67 106 -67 182q0 113 79 193t197 79q118 1 198 -79t81 -181q0 -101 -69 -194q106 53 162 53q105 0 176 -82t71 -196t-81 -196t-193 -82q-78 0 -167 50t-165 187q7 -289 171 -395q78 -51 237 -82
l8 -34h-848l8 34q153 32 219 68t126 139q58 103 58 228l-1 42q-55 -117 -143 -177t-194 -61z" />
    <glyph glyph-name="heart" unicode="&#x2665;" horiz-adv-x="1210" 
d="M60 982q0 96 74 172t183 76q206 0 290 -251q33 129 113 191t180 61q100 0 176 -75q74 -75 74 -168t-40 -188t-174 -264q-284 -360 -329 -560q-33 122 -93 228t-218 315q-158 208 -197 287t-39 176z" />
    <glyph glyph-name="diamond" unicode="&#x2666;" horiz-adv-x="1038" 
d="M517 1231q193 -323 461 -627q-52 -52 -214 -265t-247 -363q-101 190 -457 628q324 383 457 627z" />
    <glyph glyph-name="musicalnote" unicode="&#x266a;" horiz-adv-x="1579" 
d="M1554 941q0 -17 -20 -45t-44 -28t-68 55q-45 55 -185 179t-242 188l26 -1374q1 -122 -71 -193t-218 -131t-291 -61q-197 0 -306 99t-109 228q0 159 162 279t364 120q201 0 405 -94l-31 1372h60q164 -100 366 -309t202 -285z" />
    <glyph glyph-name="musicalnotedbl" unicode="&#x266b;" horiz-adv-x="2048" 
d="M1766 185q0 -148 -38 -221t-124 -121q-88 -48 -217 -48t-197 77t-67 190q0 113 90 198t234 85q84 0 200 -50v850l-699 -217v-981q0 -123 -30 -203t-120 -136q-92 -56 -215 -57q-123 0 -201 69t-78 195q0 125 93 207t230 82q95 0 205 -54v1145l934 291v-1301z" />
    <glyph glyph-name="apple" unicode="&#xf000;" horiz-adv-x="1617" 
 />
    <glyph glyph-name="fi" unicode="&#xf001;" horiz-adv-x="997" 
d="M716 1088h142v-1088h-142v1088zM368 1136v-48h226v-123h-226v-965h-142v965h-142v123h142v48q0 157 35.5 232.5t110 121.5t192.5 46t202 -76t92 -196h-142q-29 138 -160 138t-159.5 -73t-28.5 -193z" />
    <glyph glyph-name="fi" unicode="&#xfb01;" horiz-adv-x="997" 
d="M716 1088h142v-1088h-142v1088zM368 1136v-48h226v-123h-226v-965h-142v965h-142v123h142v48q0 157 35.5 232.5t110 121.5t192.5 46t202 -76t92 -196h-142q-29 138 -160 138t-159.5 -73t-28.5 -193z" />
    <glyph glyph-name="fl" unicode="&#xf002;" horiz-adv-x="993" 
d="M603 1088v-124h-224v-964h-144v964h-143v124h143v36q0 169 33.5 243t108.5 121.5t175 47.5t175.5 -49t106.5 -122t31 -258v-1107h-143v1115q0 138 -15.5 185.5t-58 76.5t-98.5 29t-98.5 -30t-57.5 -78t-15 -210h224z" />
    <glyph glyph-name="fl" unicode="&#xfb02;" horiz-adv-x="993" 
d="M603 1088v-124h-224v-964h-144v964h-143v124h143v36q0 169 33.5 243t108.5 121.5t175 47.5t175.5 -49t106.5 -122t31 -258v-1107h-143v1115q0 138 -15.5 185.5t-58 76.5t-98.5 29t-98.5 -30t-57.5 -78t-15 -210h224z" />
    <glyph glyph-name="foursuperior" unicode="&#xf003;" horiz-adv-x="705" 
d="M451 1000v248l-214 -248h214zM562 1000h105v-97h-105v-170h-111v170h-432l543 625v-528z" />
    <glyph glyph-name="commaaccent" unicode="&#xf004;" horiz-adv-x="682" 
d="M326 -121l122 -57l-183 -340l-89 38z" />
    <glyph glyph-name="undercommaaccent" unicode="&#xf005;" horiz-adv-x="664" 
d="M328 -112q157 0 157 -110q0 -69 -62.5 -113.5t-146.5 -44.5t-166 22l22 71q68 -14 104 -14q130 0 130 65q0 43 -73 43q-27 0 -72 -13l12 79q46 15 95 15z" />
    <glyph glyph-name="uniF006" unicode="&#xf006;" horiz-adv-x="1124" 
d="M0 1063h1124v-158h-162v-905h-189v905h-426v-905h-188v905h-159v158z" />
    <glyph glyph-name="noGamma" unicode="&#xf100;" horiz-adv-x="1111" 
d="M177 1467h889v-174h-695v-1293h-194v1467z" />
    <glyph glyph-name="noTheta" unicode="&#xf101;" horiz-adv-x="1530" 
d="M492 829h547v-167h-547v167zM769 1345q-210 0 -329 -150t-119 -458q0 -222 83 -420.5t357 -198.5q211 0 330 149t119 455t-115.5 464.5t-325.5 158.5zM761 1503q311 0 482.5 -203.5t171.5 -568.5q0 -225 -73.5 -404t-221.5 -273t-352 -94t-345 86.5t-224.5 261
t-83.5 426.5q0 348 167.5 558.5t478.5 210.5z" />
    <glyph glyph-name="noPhi" unicode="&#xf102;" horiz-adv-x="1713" 
d="M1390 722q0 425 -435 433v-866q435 8 435 433zM325 723q0 -409 436 -434v866q-436 -4 -436 -432zM761 1503h194v-194q643 -23 643 -587t-643 -585v-312h-194v312q-646 23 -646 587q0 264 150.5 417.5t495.5 167.5v194z" />
    <glyph glyph-name="noalpha" unicode="&#xf103;" horiz-adv-x="1287" 
d="M626 942q-152 0 -232 -109t-80 -303t79 -307t226 -113t227.5 104.5t80.5 303.5t-74.5 311.5t-226.5 112.5zM584 -28q-231 0 -355.5 154t-124.5 399t130 400t363 155t350 -197l44 180h195q-71 -259 -71 -531t84 -532h-202q-31 113 -45 192q-137 -220 -368 -220z" />
    <glyph glyph-name="nodelta" unicode="&#xf104;" horiz-adv-x="1270" 
d="M642 841q-159 0 -244.5 -97.5t-85.5 -267.5t87.5 -269t231.5 -99t234.5 93.5t90.5 260.5t-77.5 273t-236.5 106zM394 1307q0 116 99 182.5t248 66.5t256 -31v-132q-123 20 -205 20t-137.5 -35.5t-55.5 -84.5t31 -90t115 -108q244 -191 332.5 -325t88.5 -290
q0 -215 -140 -361.5t-386 -146.5t-391 144t-145 369q0 151 67 251.5t167 157t223 56.5q36 0 91 -8q-159 123 -208.5 202t-49.5 163z" />
    <glyph glyph-name="noepsilon" unicode="&#xf105;" horiz-adv-x="1047" 
d="M746 -28q-300 0 -471 142.5t-171 396.5t153.5 411.5t456.5 157.5q100 0 216 -14v-147l-26 2q-129 9 -180 9q-366 0 -407 -320h605v-141h-607q3 -152 114 -249.5t344 -97.5q96 0 170 16v-150q-102 -16 -197 -16z" />
    <glyph glyph-name="nosigma" unicode="&#xf106;" horiz-adv-x="1398" 
d="M640 955q-330 0 -330 -443q0 -180 81 -292t243 -112t241 113t79 305t-75.5 310.5t-238.5 118.5zM1359 1064v-152h-340q142 -136 142 -386t-138 -402t-386 -152t-390.5 149t-142.5 407t141.5 405t362.5 147l288 -16h463z" />
    <glyph glyph-name="notau" unicode="&#xf107;" horiz-adv-x="981" 
d="M41 1063h900v-160h-353v-903h-194v903h-353v160z" />
    <glyph glyph-name="nophi" unicode="&#xf108;" horiz-adv-x="1580" 
d="M1266 530q0 406 -380 411v-819q380 2 380 408zM315 534q0 -410 381 -412v819q-132 -5 -256.5 -72t-124.5 -335zM698 1332h188v-257q269 -4 429.5 -137t160.5 -393q0 -174 -55 -288t-195.5 -191t-341.5 -81v-372h-190v373q-246 2 -418 130.5t-172 409.5t160 411t434 140
v255z" />
  </font>
</defs>
</svg>
