<?xml version="1.0" standalone="no"?>
<!DOCTYPE svg PUBLIC "-//W3C//DTD SVG 1.1//EN" "http://www.w3.org/Graphics/SVG/1.1/DTD/svg11.dtd" >
<svg xmlns="http://www.w3.org/2000/svg">
<metadata>
Created by FontPrep 20130207 at Tue Jul 16 13:49:03 2013
 By John Horstman
Copyright (c) 2011 by Jan Tonellato. All rights reserved.
</metadata>
<defs>
<font id="80f3a7fa68780569af58fcfa5561c79f" >
  <font-face 
    font-family="Novecentowide-Light"
    font-weight="300"
    font-stretch="expanded"
    units-per-em="2048"
    panose-1="0 0 4 5 0 0 0 0 0 0"
    ascent="1741"
    descent="-307"
    x-height="1434"
    cap-height="1434"
    bbox="-68 -444 1874 1847"
    underline-thickness="63"
    underline-position="-236"
    unicode-range="U+000D-E000"
  />
<missing-glyph horiz-adv-x="748" 
d="M136 68h408v1229h-408v-1229zM68 0v1365h544v-1365h-544z" />
    <glyph glyph-name=".notdef" horiz-adv-x="748" 
d="M136 68h408v1229h-408v-1229zM68 0v1365h544v-1365h-544z" />
    <glyph glyph-name="glyph1" horiz-adv-x="2048" 
 />
    <glyph glyph-name="glyph1" horiz-adv-x="2048" 
 />
    <glyph glyph-name="uni000D" unicode="&#xd;" horiz-adv-x="2048" 
 />
    <glyph glyph-name="space" unicode=" " horiz-adv-x="512" 
 />
    <glyph glyph-name="exclam" unicode="!" horiz-adv-x="491" 
d="M207 481v953h78v-953h-78zM207 0v322h78v-322h-78z" />
    <glyph glyph-name="quotedbl" unicode="&#x22;" horiz-adv-x="720" 
d="M432 989v445h82v-445h-82zM207 989v445h82v-445h-82z" />
    <glyph glyph-name="numbersign" unicode="#" horiz-adv-x="1679" 
d="M440 481h533l258 504h-535zM63 418l33 63h269l258 504h-271l33 64h270l197 385h74l-197 -385h535l196 385h74l-197 -385h289l-33 -64h-288l-256 -504h286l-32 -63h-287l-213 -418h-76l213 418h-532l-213 -418h-76l213 418h-269z" />
    <glyph glyph-name="dollar" unicode="$" horiz-adv-x="1200" 
d="M602 45q194 0 311 92.5t117 237.5q0 113 -60 173t-102.5 81t-85 38.5t-213.5 62t-254 83.5q-200 96 -200 279q0 158 123 258.5t317 109.5v158h74v-156q180 -9 304 -111t152 -268l-75 -20q-23 150 -136.5 238t-283.5 88t-282.5 -79.5t-112.5 -217.5q0 -92 60.5 -142.5
t118.5 -75.5t111.5 -41t183.5 -50q131 -35 214 -76q227 -112 227 -332q0 -170 -132.5 -283.5t-348.5 -120.5v-155h-74v157q-204 13 -328.5 130t-138.5 286l76 21q9 -155 126.5 -260t311.5 -105z" />
    <glyph glyph-name="percent" unicode="%" horiz-adv-x="1837" 
d="M1135 402q0 -146 82.5 -248.5t216.5 -102.5t216.5 102t82.5 249t-82.5 249.5t-216.5 102.5t-216.5 -103t-82.5 -249zM1063 401q0 114 44 209t130 153t197 58q168 0 270 -122.5t102 -298.5t-101.5 -296t-269.5 -120t-270 120t-102 297zM406 0l954 1434h70l-951 -1434h-73z
M104 1030q0 -146 83 -248t217 -102t216 102t82 249t-82 249t-216 102t-217 -103t-83 -249zM33 1030q0 176 101.5 298t268.5 122q112 0 198 -57.5t130.5 -152.5t44.5 -210q0 -176 -102 -297t-270 -121t-269.5 121t-101.5 297z" />
    <glyph glyph-name="ampersand" unicode="&#x26;" horiz-adv-x="1452" 
d="M176 387q0 -152 120 -247t306 -95q254 0 349.5 123t95.5 350v191h-445q-259 0 -342.5 -106.5t-83.5 -215.5zM98 374q0 172 94.5 264t231.5 107v3q-105 14 -196 96.5t-91 211.5t85.5 267.5t361.5 138.5q189 0 322 -106.5t167 -306.5l-76 -21q-71 363 -415 363
q-230 0 -297.5 -116t-67.5 -202q0 -127 101 -210t284 -83h793v-71h-273v-191q0 -270 -122.5 -408.5t-397.5 -138.5q-224 0 -364 115.5t-140 287.5z" />
    <glyph glyph-name="quotesingle" unicode="'" horiz-adv-x="495" 
d="M207 989v445h82v-445h-82z" />
    <glyph glyph-name="parenleft" unicode="(" horiz-adv-x="702" 
d="M100 721q0 432 122.5 683t369.5 341l31 -72q-146 -52 -295.5 -227t-149.5 -725q0 -415 112 -644.5t333 -309.5l-31 -68q-247 89 -369.5 339.5t-122.5 682.5z" />
    <glyph glyph-name="parenright" unicode=")" horiz-adv-x="706" 
d="M530 721q0 280 -52.5 476.5t-149 310t-242.5 165.5l31 72q247 -90 369 -340.5t122 -683.5t-122 -683t-369 -339l-31 68q146 53 242.5 166.5t149 310.5t52.5 477z" />
    <glyph glyph-name="asterisk" unicode="*" horiz-adv-x="1085" 
d="M510 1434h65l-4 -301l287 92l21 -60l-287 -88l180 -248l-51 -36l-178 251l-176 -251l-52 36l179 248l-287 88l20 60l283 -92v301z" />
    <glyph glyph-name="plus" unicode="+" horiz-adv-x="1429" 
d="M238 692v72h438v426h80v-426h438v-72h-438v-434h-80v434h-438z" />
    <glyph glyph-name="comma" unicode="," horiz-adv-x="389" 
d="M272 23q0 -156 -122 -295h-50q97 108 97 233l16 10h-16q-28 -3 -52 17t-24 54t22.5 53.5t54.5 19.5t53 -25.5t21 -66.5z" />
    <glyph glyph-name="hyphen" unicode="-" horiz-adv-x="1372" 
d="M207 692v72h958v-72h-958z" />
    <glyph glyph-name="period" unicode="." horiz-adv-x="389" 
d="M123 43q0 30 21 51t51 21t50.5 -21.5t20.5 -51.5t-21 -50.5t-51 -20.5t-50.5 21t-20.5 51z" />
    <glyph glyph-name="slash" unicode="/" horiz-adv-x="919" 
d="M57 0l734 1434h73l-731 -1434h-76z" />
    <glyph glyph-name="zero" unicode="0" horiz-adv-x="1470" 
d="M178 717q0 -106 34.5 -256t170.5 -282t352 -132q314 0 435.5 224.5t121.5 445.5q0 272 -103.5 415.5t-212 198.5t-228.5 55t-211.5 -36t-156.5 -99t-111 -147.5t-68.5 -182.5t-22.5 -204zM98 702q0 133 26.5 242.5t80 203.5t128.5 164t178.5 110t223.5 40t268.5 -57.5
t258.5 -250.5t110 -437q0 -303 -121.5 -463t-244 -221.5t-271.5 -61.5t-271.5 61.5t-201.5 165.5t-121.5 237.5t-42.5 266.5z" />
    <glyph glyph-name="one" unicode="1" horiz-adv-x="782" 
d="M500 1321q-1 0 -47 -50.5t-60 -64.5l-241 -237l-54 51l420 414h57v-1434h-79v1114l6 207h-2z" />
    <glyph glyph-name="two" unicode="2" horiz-adv-x="1136" 
d="M84 1090q108 372 520 372q198 0 329.5 -124.5t131.5 -328.5t-116 -324t-189 -177q-74 -56 -117 -90t-238.5 -189t-195.5 -157l2 -2h5q30 6 212 6h635v-76h-969v63q228 188 688 564q89 72 146 174t57 219q0 162 -110 265.5t-280 103.5t-282 -82t-153 -238z" />
    <glyph glyph-name="three" unicode="3" horiz-adv-x="1204" 
d="M1026 410q0 151 -110.5 226t-305.5 75h-127v71h129q400 0 400 312q0 83 -40.5 139t-111 106t-242.5 50q-336 0 -413 -324l-74 20q39 176 167 276.5t320 100.5q287 0 380.5 -129t93.5 -239q0 -147 -96 -242.5t-234 -101.5v-2q140 -8 242 -95.5t102 -242.5
q0 -201 -136 -320t-343 -119t-353.5 113t-175.5 301l72 21q22 -163 147 -262t317 -99t292 107t100 258z" />
    <glyph glyph-name="four" unicode="4" horiz-adv-x="1255" 
d="M893 485v537l5 288l1 7h-2q-1 0 -48.5 -63.5t-115.5 -145.5l-387 -457q-30 -35 -149 -166l2 -2l268 2h426zM98 412v53l813 969h58v-949h215v-73h-215v-412h-76v412h-795z" />
    <glyph glyph-name="five" unicode="5" horiz-adv-x="1167" 
d="M603 45q181 0 297 116.5t116 293.5t-116 293t-296 116q-229 0 -300 -89t-89 -130l-70 21l125 768h742v-76h-682l-51 -318q-22 -137 -48 -242l-8 -32l2 -2q40 63 143 116.5t236 53.5q213 0 352.5 -135t139.5 -344t-139 -346.5t-351 -137.5t-349 112.5t-173 299.5l74 20
q31 -166 147.5 -262t297.5 -96z" />
    <glyph glyph-name="six" unicode="6" horiz-adv-x="1204" 
d="M178 462q0 -186 120.5 -301.5t316.5 -115.5t317.5 115.5t124.5 301.5t-119 298t-320 112t-319 -112t-121 -298zM98 465q0 123 39 227.5t131 225.5l394 516h92l-496 -650l2 -2q125 162 355 162t375 -137t145 -347t-146.5 -349.5t-372.5 -139.5t-372 140.5t-146 353.5z" />
    <glyph glyph-name="seven" unicode="7" horiz-adv-x="1114" 
d="M784 1358h-710v76h983v-56l-774 -1378h-84l682 1212q40 74 80 128l14 20l-2 2h-12q-48 -4 -177 -4z" />
    <glyph glyph-name="eight" unicode="8" horiz-adv-x="1253" 
d="M236 1091q0 -132 109 -213t281 -79t281 81.5t109 211.5t-108.5 216.5t-280.5 84.5t-281.5 -85t-109.5 -217zM176 386q0 -158 120 -251t330 -93t330.5 93t120.5 251t-120.5 246.5t-330.5 88.5t-330 -88.5t-120 -246.5zM162 1090q0 157 130 264.5t335 107.5t335 -107.5
t130 -271.5t-123.5 -240.5t-188.5 -78.5v-2q211 -15 293 -140t82 -233q0 -188 -145.5 -302t-383.5 -114t-383 114t-145 291t113.5 275.5t263.5 108.5v2q-66 2 -129.5 41.5t-123.5 100.5t-60 184z" />
    <glyph glyph-name="nine" unicode="9" horiz-adv-x="1218" 
d="M147 968q0 -211 134 -310t320 -99t313.5 108t127.5 314t-130.5 307t-313.5 101t-279.5 -74t-134 -157.5t-37.5 -189.5zM70 967q0 222 149 358.5t379 136.5t376 -130t146 -365q0 -139 -67.5 -273.5t-233.5 -328.5l-313 -365h-92l551 651l-2 2q-143 -166 -371 -166
q-158 0 -278 64t-182 172.5t-62 243.5z" />
    <glyph glyph-name="colon" unicode=":" horiz-adv-x="389" 
d="M123 698q0 30 21 51t51 21t50.5 -21t20.5 -51t-21 -50.5t-51 -20.5t-50.5 20.5t-20.5 50.5zM123 43q0 30 21 51t51 21t50.5 -21.5t20.5 -51.5t-21 -50.5t-51 -20.5t-50.5 21t-20.5 51z" />
    <glyph glyph-name="semicolon" unicode=";" horiz-adv-x="415" 
d="M141 698q0 30 21 51t51 21t51 -21t21 -51t-21.5 -50.5t-51.5 -20.5t-50.5 20.5t-20.5 50.5zM295 14q0 -152 -123 -295h-49q96 107 96 234l17 10h-17q-28 -3 -52 17.5t-24 53.5t22.5 52.5t54.5 19.5t53.5 -25.5t21.5 -66.5z" />
    <glyph glyph-name="less" unicode="&#x3c;" horiz-adv-x="1429" 
d="M225 752l826 499h133l-824 -499l824 -500h-133z" />
    <glyph glyph-name="equal" unicode="=" horiz-adv-x="1429" 
d="M238 856v72h956v-72h-956zM238 528v72h956v-72h-956z" />
    <glyph glyph-name="greater" unicode="&#x3e;" horiz-adv-x="1429" 
d="M246 252l823 500l-823 499h133l825 -499l-825 -500h-133z" />
    <glyph glyph-name="question" unicode="?" horiz-adv-x="1157" 
d="M508 0v322h84v-322h-84zM594 1386q-348 0 -426 -321l-70 20q39 180 170 278.5t326 98.5q286 0 375.5 -132.5t89.5 -256.5q0 -200 -157.5 -300.5t-309.5 -156.5v-135h-84v176q259 99 364 193t105 237t-106 221t-277 78z" />
    <glyph glyph-name="at" unicode="@" horiz-adv-x="1619" 
d="M784 393q130 0 208.5 88.5t78.5 237.5v125q0 100 -82.5 161.5t-212.5 61.5t-211 -96.5t-81 -248.5t85 -240.5t215 -88.5zM98 701q0 182 54 318.5t147.5 233.5t226 153t284.5 56t284 -56t226 -153t148 -234t54 -303t-70.5 -278t-187.5 -112q-79 0 -131.5 49.5t-55.5 142.5
l-2 2q-32 -86 -114.5 -140t-176.5 -54q-161 0 -265.5 109t-104.5 286t101.5 295.5t273.5 118.5t225.5 -70t54.5 -82h2v111h66v-576q0 -59 37 -97t90 -38q89 0 142.5 95.5t53.5 268.5t-84.5 328t-233.5 242.5t-333 87.5t-332.5 -87.5t-232.5 -242.5t-84 -347t83.5 -352.5
t233 -253.5t332.5 -93q239 0 328.5 61.5t105.5 77.5t17 16l51 -30q-25 -30 -133 -106.5t-374 -76.5q-196 0 -359.5 101t-255 274t-91.5 355z" />
    <glyph glyph-name="A" unicode="A" horiz-adv-x="1472" 
d="M737 1339h-2q-1 0 -20 -48t-45 -107l-295 -662h723l-295 662q-13 29 -38.5 92t-27.5 63zM57 0l645 1434h68l645 -1434h-84l-201 451h-788l-201 -451h-84z" />
    <glyph glyph-name="B" unicode="B" horiz-adv-x="1310" 
d="M285 819h403q149 0 243.5 80.5t94.5 198.5t-92 191t-246 73h-403v-543zM285 72h471q159 0 264.5 92t105.5 242t-114 247t-273 97h-454v-678zM207 0v1434h495q182 0 293 -93t111 -247q0 -108 -83 -195.5t-183 -103.5v-2q116 -6 204.5 -77t126 -143t37.5 -155
q0 -191 -124 -304.5t-330 -113.5h-547z" />
    <glyph glyph-name="C" unicode="C" horiz-adv-x="1564" 
d="M98 717q0 159 58.5 298t158.5 237t237 154t290 56q208 0 380.5 -100t270.5 -272l-80 -21q-85 148 -236 232.5t-312 84.5t-283 -48.5t-211.5 -135t-141 -212.5t-51.5 -296t88.5 -324t240 -237.5t339.5 -83.5t347 96.5t243 262.5l77 -23q-91 -192 -269.5 -303t-401.5 -111
q-153 0 -290 56.5t-237 154t-158.5 237t-58.5 298.5z" />
    <glyph glyph-name="D" unicode="D" horiz-adv-x="1638" 
d="M285 76h532q264 0 453.5 171t189.5 487q0 168 -89.5 317.5t-239 228t-332.5 78.5h-514v-1282zM207 0v1434h592q152 0 288.5 -53.5t236 -147.5t158 -229.5t58.5 -317.5t-98.5 -345.5t-263 -252t-361.5 -88.5h-610z" />
    <glyph glyph-name="E" unicode="E" horiz-adv-x="1253" 
d="M207 0v1434h913v-76h-835v-547h678v-74h-678v-661h848v-76h-926z" />
    <glyph glyph-name="F" unicode="F" horiz-adv-x="1169" 
d="M207 0v1434h893v-76h-815v-586h657v-76h-657v-696h-78z" />
    <glyph glyph-name="G" unicode="G" horiz-adv-x="1632" 
d="M1438 262h-2q-143 -201 -319.5 -246t-302.5 -45t-262.5 56.5t-236.5 154t-158.5 237t-58.5 298.5t58.5 298t158.5 237t237 154t290 56q223 -7 389.5 -105.5t261.5 -266.5l-80 -21q-85 148 -236 232.5t-312 84.5t-283 -48.5t-211.5 -135t-141 -212.5t-51.5 -296
t88.5 -324.5t240 -238.5t335.5 -84q109 0 212 31.5t218 108t164 182.5v268h-467v70h540v-711h-73v20v67v84l2 91v4z" />
    <glyph glyph-name="H" unicode="H" horiz-adv-x="1478" 
d="M207 0v1434h78v-641h907v641h80v-1434h-80v717h-907v-717h-78z" />
    <glyph glyph-name="I" unicode="I" horiz-adv-x="491" 
d="M207 0v1434h78v-1434h-78z" />
    <glyph glyph-name="J" unicode="J" horiz-adv-x="1316" 
d="M578 45q244 0 370.5 136.5t126.5 383.5v869h80v-861q0 -285 -148 -444.5t-429 -159.5q-198 0 -345 103t-200 270l80 20q45 -146 172.5 -231.5t292.5 -85.5z" />
    <glyph glyph-name="K" unicode="K" horiz-adv-x="1366" 
d="M285 610q1 0 91 92t175 177l555 555h98l-575 -576l639 -858h-94l-601 803l-288 -289v-514h-78v1434h78v-459l-2 -365h2z" />
    <glyph glyph-name="L" unicode="L" horiz-adv-x="1140" 
d="M207 0v1434h78v-1358h815v-76h-893z" />
    <glyph glyph-name="M" unicode="M" horiz-adv-x="1683" 
d="M279 1282q6 -126 6 -489v-793h-78v1434h74l399 -693q108 -186 149 -272l11 -23h2l12 23q36 76 150 272l399 693h74v-1434h-78v793l6 489v14h-2q-1 0 -121 -217l-420 -727h-41l-420 727q-28 50 -73.5 133.5t-46.5 83.5h-2v-14z" />
    <glyph glyph-name="N" unicode="N" horiz-adv-x="1531" 
d="M207 0v1434h74l802 -1080q48 -64 107 -144.5t61 -80.5h2q1 0 -2.5 104t-3.5 236v965h78v-1434h-74l-807 1087q-106 145 -133 185.5t-28 40.5h-2q-1 0 1.5 -108.5t2.5 -233.5v-971h-78z" />
    <glyph glyph-name="O" unicode="O" 
d="M178 694q0 -170 88.5 -324.5t240 -238.5t356.5 -84t375.5 124t219.5 277t49 269q0 196 -89.5 350t-240.5 236.5t-312 82.5t-283 -48.5t-211.5 -135t-141 -212.5t-51.5 -296zM98 717q0 159 58.5 298t158.5 237t237 154t290 56t290 -56t237 -154t159 -237t59 -298
q0 -212 -100 -383.5t-270.5 -267t-348.5 -95.5t-315.5 56.5t-237.5 154t-158.5 237t-58.5 298.5z" />
    <glyph glyph-name="P" unicode="P" horiz-adv-x="1171" 
d="M285 627h307q211 0 324.5 97.5t113.5 271.5t-117 268t-321 94h-307v-731zM207 0v1434h385q243 0 380.5 -117.5t137.5 -323.5t-137.5 -323t-380.5 -117h-307v-553h-78z" />
    <glyph glyph-name="Q" unicode="Q" 
d="M178 694q0 -170 88.5 -324.5t240 -238.5t356.5 -84t375.5 124t219.5 277t49 269q0 196 -89.5 350t-240.5 236.5t-312 82.5t-283 -48.5t-211.5 -135t-141 -212.5t-51.5 -296zM98 720q0 156 58.5 295t158.5 237t237 154t290 56t290 -56t237 -154t159 -237t59 -295t-55 -292
t-149.5 -233.5t-224 -156t-275.5 -65.5v-243h-82v243q-146 7 -275.5 65.5t-223.5 156t-149 233.5t-55 292z" />
    <glyph glyph-name="R" unicode="R" horiz-adv-x="1259" 
d="M285 639h307q210 0 324 97t114 267t-116.5 262.5t-321.5 92.5h-307v-719zM207 0v1434h385q243 0 380.5 -116t137.5 -319q0 -157 -84.5 -262t-239.5 -145l369 -592h-92l-354 578q-55 -9 -117 -9h-307v-569h-78z" />
    <glyph glyph-name="S" unicode="S" horiz-adv-x="1200" 
d="M602 45q194 0 311 92.5t117 237.5q0 113 -60 173t-102.5 81t-85 38.5t-213.5 62t-254 83.5q-200 96 -200 270t136.5 276.5t336.5 102.5t334 -102.5t163 -276.5l-75 -20q-23 150 -136.5 238t-283.5 88t-282.5 -79.5t-112.5 -217.5q0 -92 60.5 -142.5t118.5 -75.5
t111.5 -41t183.5 -50q131 -35 214 -76q227 -112 227 -332q0 -175 -140 -289.5t-366 -114.5t-363 119t-153 299l76 21q9 -155 126.5 -260t311.5 -105z" />
    <glyph glyph-name="T" unicode="T" horiz-adv-x="1198" 
d="M57 1358v76h1084v-76h-502v-1358h-80v1358h-502z" />
    <glyph glyph-name="U" unicode="U" horiz-adv-x="1454" 
d="M162 573v861h78v-869q0 -257 123 -388.5t365 -131.5t364 131.5t122 388.5v869h80v-861q0 -295 -145 -449.5t-423 -154.5t-421 154t-143 450z" />
    <glyph glyph-name="V" unicode="V" horiz-adv-x="1468" 
d="M733 92h2q1 0 28 69t54 128l512 1145h84l-643 -1434h-70l-643 1434h82l512 -1145q27 -59 54 -128t28 -69z" />
    <glyph glyph-name="W" unicode="W" horiz-adv-x="1933" 
d="M598 123h2q1 0 11.5 48t43.5 148l283 893h57l285 -893q25 -78 39.5 -137t15.5 -59h2q1 0 11.5 35t50.5 161l397 1115h78l-508 -1434h-61l-250 801q-51 161 -81 276l-5 23h-2l-6 -24q-28 -107 -80 -275l-252 -801h-60l-510 1434h80l396 -1115q25 -71 43.5 -133.5
t19.5 -62.5z" />
    <glyph glyph-name="X" unicode="X" horiz-adv-x="1347" 
d="M672 799h2q1 0 44 60.5t52 72.5l385 502h100l-530 -684l584 -750h-101l-444 571q-30 39 -59.5 82t-30.5 43h-2q-1 0 -20.5 -29.5t-67.5 -95.5l-445 -571h-100l584 750l-531 684h98l388 -502q9 -13 33 -47t42 -60t19 -26z" />
    <glyph glyph-name="Y" unicode="Y" horiz-adv-x="1273" 
d="M637 805h2q1 0 39 49t55 70l408 510h94l-559 -695v-739h-78v739l-559 695h94l410 -510q21 -24 57 -71.5t37 -47.5z" />
    <glyph glyph-name="Z" unicode="Z" horiz-adv-x="1390" 
d="M387 76h881v-76h-1145v72l958 1183q29 36 63 69t34 34l-2 2h-4h-7h-19l-36 -2h-967v76h1125v-72l-955 -1182q-17 -22 -94 -106l2 -2h9q32 4 157 4z" />
    <glyph glyph-name="bracketleft" unicode="[" horiz-adv-x="643" 
d="M207 -307v2060h358v-76h-274v-1908h274v-76h-358z" />
    <glyph glyph-name="backslash" unicode="\" horiz-adv-x="919" 
d="M57 1434h74l733 -1434h-78z" />
    <glyph glyph-name="bracketright" unicode="]" horiz-adv-x="671" 
d="M106 -231h275v1908h-275v76h359v-2060h-359v76z" />
    <glyph glyph-name="asciicircum" unicode="^" horiz-adv-x="1372" 
d="M207 977l479 481l479 -481l-51 -51l-428 436l-428 -436z" />
    <glyph glyph-name="underscore" unicode="_" horiz-adv-x="1540" 
d="M207 0h1126v-61h-1126v61z" />
    <glyph glyph-name="grave" unicode="`" horiz-adv-x="614" 
d="M82 1737l35 61l413 -223l-30 -53z" />
    <glyph glyph-name="a" unicode="a" horiz-adv-x="1472" 
d="M737 1339h-2q-1 0 -20 -48t-45 -107l-295 -662h723l-295 662q-13 29 -38.5 92t-27.5 63zM57 0l645 1434h68l645 -1434h-84l-201 451h-788l-201 -451h-84z" />
    <glyph glyph-name="b" unicode="b" horiz-adv-x="1310" 
d="M285 819h403q149 0 243.5 80.5t94.5 198.5t-92 191t-246 73h-403v-543zM285 72h471q159 0 264.5 92t105.5 242t-114 247t-273 97h-454v-678zM207 0v1434h495q182 0 293 -93t111 -247q0 -108 -83 -195.5t-183 -103.5v-2q116 -6 204.5 -77t126 -143t37.5 -155
q0 -191 -124 -304.5t-330 -113.5h-547z" />
    <glyph glyph-name="c" unicode="c" horiz-adv-x="1564" 
d="M98 717q0 159 58.5 298t158.5 237t237 154t290 56q208 0 380.5 -100t270.5 -272l-80 -21q-85 148 -236 232.5t-312 84.5t-283 -48.5t-211.5 -135t-141 -212.5t-51.5 -296t88.5 -324t240 -237.5t339.5 -83.5t347 96.5t243 262.5l77 -23q-91 -192 -269.5 -303t-401.5 -111
q-153 0 -290 56.5t-237 154t-158.5 237t-58.5 298.5z" />
    <glyph glyph-name="d" unicode="d" horiz-adv-x="1638" 
d="M285 76h532q264 0 453.5 171t189.5 487q0 168 -89.5 317.5t-239 228t-332.5 78.5h-514v-1282zM207 0v1434h592q152 0 288.5 -53.5t236 -147.5t158 -229.5t58.5 -317.5t-98.5 -345.5t-263 -252t-361.5 -88.5h-610z" />
    <glyph glyph-name="e" unicode="e" horiz-adv-x="1253" 
d="M207 0v1434h913v-76h-835v-547h678v-74h-678v-661h848v-76h-926z" />
    <glyph glyph-name="f" unicode="f" horiz-adv-x="1169" 
d="M207 0v1434h893v-76h-815v-586h657v-76h-657v-696h-78z" />
    <glyph glyph-name="g" unicode="g" horiz-adv-x="1632" 
d="M1438 262h-2q-143 -201 -319.5 -246t-302.5 -45t-262.5 56.5t-236.5 154t-158.5 237t-58.5 298.5t58.5 298t158.5 237t237 154t290 56q223 -7 389.5 -105.5t261.5 -266.5l-80 -21q-85 148 -236 232.5t-312 84.5t-283 -48.5t-211.5 -135t-141 -212.5t-51.5 -296
t88.5 -324.5t240 -238.5t335.5 -84q109 0 212 31.5t218 108t164 182.5v268h-467v70h540v-711h-73v20v67v84l2 91v4z" />
    <glyph glyph-name="h" unicode="h" horiz-adv-x="1478" 
d="M207 0v1434h78v-641h907v641h80v-1434h-80v717h-907v-717h-78z" />
    <glyph glyph-name="i" unicode="i" horiz-adv-x="491" 
d="M207 0v1434h78v-1434h-78z" />
    <glyph glyph-name="j" unicode="j" horiz-adv-x="1316" 
d="M578 45q244 0 370.5 136.5t126.5 383.5v869h80v-861q0 -285 -148 -444.5t-429 -159.5q-198 0 -345 103t-200 270l80 20q45 -146 172.5 -231.5t292.5 -85.5z" />
    <glyph glyph-name="k" unicode="k" horiz-adv-x="1366" 
d="M285 610q1 0 91 92t175 177l555 555h98l-575 -576l639 -858h-94l-601 803l-288 -289v-514h-78v1434h78v-459l-2 -365h2z" />
    <glyph glyph-name="l" unicode="l" horiz-adv-x="1140" 
d="M207 0v1434h78v-1358h815v-76h-893z" />
    <glyph glyph-name="m" unicode="m" horiz-adv-x="1683" 
d="M279 1282q6 -126 6 -489v-793h-78v1434h74l399 -693q108 -186 149 -272l11 -23h2l12 23q36 76 150 272l399 693h74v-1434h-78v793l6 489v14h-2q-1 0 -121 -217l-420 -727h-41l-420 727q-28 50 -73.5 133.5t-46.5 83.5h-2v-14z" />
    <glyph glyph-name="n" unicode="n" horiz-adv-x="1531" 
d="M207 0v1434h74l802 -1080q48 -64 107 -144.5t61 -80.5h2q1 0 -2.5 104t-3.5 236v965h78v-1434h-74l-807 1087q-106 145 -133 185.5t-28 40.5h-2q-1 0 1.5 -108.5t2.5 -233.5v-971h-78z" />
    <glyph glyph-name="o" unicode="o" 
d="M178 694q0 -170 88.5 -324.5t240 -238.5t356.5 -84t375.5 124t219.5 277t49 269q0 196 -89.5 350t-240.5 236.5t-312 82.5t-283 -48.5t-211.5 -135t-141 -212.5t-51.5 -296zM98 717q0 159 58.5 298t158.5 237t237 154t290 56t290 -56t237 -154t159 -237t59 -298
q0 -212 -100 -383.5t-270.5 -267t-348.5 -95.5t-315.5 56.5t-237.5 154t-158.5 237t-58.5 298.5z" />
    <glyph glyph-name="p" unicode="p" horiz-adv-x="1171" 
d="M285 627h307q211 0 324.5 97.5t113.5 271.5t-117 268t-321 94h-307v-731zM207 0v1434h385q243 0 380.5 -117.5t137.5 -323.5t-137.5 -323t-380.5 -117h-307v-553h-78z" />
    <glyph glyph-name="q" unicode="q" 
d="M178 694q0 -170 88.5 -324.5t240 -238.5t356.5 -84t375.5 124t219.5 277t49 269q0 196 -89.5 350t-240.5 236.5t-312 82.5t-283 -48.5t-211.5 -135t-141 -212.5t-51.5 -296zM98 720q0 156 58.5 295t158.5 237t237 154t290 56t290 -56t237 -154t159 -237t59 -295t-55 -292
t-149.5 -233.5t-224 -156t-275.5 -65.5v-243h-82v243q-146 7 -275.5 65.5t-223.5 156t-149 233.5t-55 292z" />
    <glyph glyph-name="r" unicode="r" horiz-adv-x="1259" 
d="M285 639h307q210 0 324 97t114 267t-116.5 262.5t-321.5 92.5h-307v-719zM207 0v1434h385q243 0 380.5 -116t137.5 -319q0 -157 -84.5 -262t-239.5 -145l369 -592h-92l-354 578q-55 -9 -117 -9h-307v-569h-78z" />
    <glyph glyph-name="s" unicode="s" horiz-adv-x="1200" 
d="M602 45q194 0 311 92.5t117 237.5q0 113 -60 173t-102.5 81t-85 38.5t-213.5 62t-254 83.5q-200 96 -200 270t136.5 276.5t336.5 102.5t334 -102.5t163 -276.5l-75 -20q-23 150 -136.5 238t-283.5 88t-282.5 -79.5t-112.5 -217.5q0 -92 60.5 -142.5t118.5 -75.5
t111.5 -41t183.5 -50q131 -35 214 -76q227 -112 227 -332q0 -175 -140 -289.5t-366 -114.5t-363 119t-153 299l76 21q9 -155 126.5 -260t311.5 -105z" />
    <glyph glyph-name="t" unicode="t" horiz-adv-x="1198" 
d="M57 1358v76h1084v-76h-502v-1358h-80v1358h-502z" />
    <glyph glyph-name="u" unicode="u" horiz-adv-x="1454" 
d="M162 573v861h78v-869q0 -257 123 -388.5t365 -131.5t364 131.5t122 388.5v869h80v-861q0 -295 -145 -449.5t-423 -154.5t-421 154t-143 450z" />
    <glyph glyph-name="v" unicode="v" horiz-adv-x="1468" 
d="M733 92h2q1 0 28 69t54 128l512 1145h84l-643 -1434h-70l-643 1434h82l512 -1145q27 -59 54 -128t28 -69z" />
    <glyph glyph-name="w" unicode="w" horiz-adv-x="1933" 
d="M598 123h2q1 0 11.5 48t43.5 148l283 893h57l285 -893q25 -78 39.5 -137t15.5 -59h2q1 0 11.5 35t50.5 161l397 1115h78l-508 -1434h-61l-250 801q-51 161 -81 276l-5 23h-2l-6 -24q-28 -107 -80 -275l-252 -801h-60l-510 1434h80l396 -1115q25 -71 43.5 -133.5
t19.5 -62.5z" />
    <glyph glyph-name="x" unicode="x" horiz-adv-x="1347" 
d="M672 799h2q1 0 44 60.5t52 72.5l385 502h100l-530 -684l584 -750h-101l-444 571q-30 39 -59.5 82t-30.5 43h-2q-1 0 -20.5 -29.5t-67.5 -95.5l-445 -571h-100l584 750l-531 684h98l388 -502q9 -13 33 -47t42 -60t19 -26z" />
    <glyph glyph-name="y" unicode="y" horiz-adv-x="1273" 
d="M637 805h2q1 0 39 49t55 70l408 510h94l-559 -695v-739h-78v739l-559 695h94l410 -510q21 -24 57 -71.5t37 -47.5z" />
    <glyph glyph-name="z" unicode="z" horiz-adv-x="1390" 
d="M387 76h881v-76h-1145v72l958 1183q29 36 63 69t34 34l-2 2h-4h-7h-19l-36 -2h-967v76h1125v-72l-955 -1182q-17 -22 -94 -106l2 -2h9q32 4 157 4z" />
    <glyph glyph-name="braceleft" unicode="{" horiz-adv-x="733" 
d="M342 1036v285q0 239 95.5 335.5t256.5 96.5v-76q-274 0 -274 -334v-299q0 -248 -113 -323q20 -10 66.5 -70t46.5 -256v-297q0 -334 274 -334v-75q-259 0 -305.5 156t-46.5 276v285q0 154 -44 225t-77 85l-14 5q87 35 111 136.5t24 178.5z" />
    <glyph glyph-name="bar" unicode="|" horiz-adv-x="485" 
d="M207 -152v1739h74v-1739h-74z" />
    <glyph glyph-name="braceright" unicode="}" horiz-adv-x="733" 
d="M39 -236q274 0 274 334v297q0 235 51.5 278t61.5 48q-113 75 -113 323v299q0 334 -274 334v76q259 0 305.5 -156t46.5 -276v-285q0 -201 56 -253.5t79 -61.5q-45 -16 -90 -88.5t-45 -226.5v-285q0 -239 -95.5 -335.5t-256.5 -96.5v75z" />
    <glyph glyph-name="asciitilde" unicode="~" horiz-adv-x="1429" 
d="M913 614q-115 0 -205.5 81t-158.5 81q-69 0 -109.5 -35.5t-48.5 -91.5l-72 19q14 80 74.5 128t146.5 48t139 -41t103.5 -82t111.5 -41t102 36.5t46 92.5l72 -21q-12 -79 -71 -126.5t-130 -47.5z" />
    <glyph glyph-name="uni00A0" unicode="&#xa0;" horiz-adv-x="512" 
 />
    <glyph glyph-name="exclamdown" unicode="&#xa1;" horiz-adv-x="491" 
d="M207 1112v322h78v-322h-78zM207 0v952h78v-952h-78z" />
    <glyph glyph-name="cent" unicode="&#xa2;" horiz-adv-x="1144" 
d="M98 720q0 216 140.5 364.5t345.5 160.5v217h69v-217q138 -7 251 -78.5t175 -187.5l-67 -21q-59 104 -162 162t-232 58q-193 0 -318.5 -126.5t-125.5 -329.5t125.5 -328.5t318.5 -125.5q138 0 246.5 64t163.5 180l66 -20q-59 -130 -176 -209t-265 -86v-226h-67v224
q-206 12 -347 160.5t-141 364.5z" />
    <glyph glyph-name="sterling" unicode="&#xa3;" horiz-adv-x="1349" 
d="M817 76h434v-76h-1044v76q182 39 193 191t-1 288l-14 156h-160v71h154l-21 230q-17 192 96.5 318.5t303.5 131.5q147 4 277 -80t184 -299l-74 -20q-50 179 -148.5 255t-248.5 72t-239 -110.5t-75 -267.5l21 -230h530v-71h-524l14 -156q21 -217 -12 -329.5t-121 -153.5
l2 -2h14q84 6 459 6z" />
    <glyph glyph-name="currency" unicode="&#xa4;" horiz-adv-x="1323" 
d="M211 700q0 -189 130.5 -321.5t320.5 -132.5t321 132t131 322t-131 322.5t-321 132.5t-320.5 -133t-130.5 -322zM1190 709q0 -198 -121 -344l156 -158l-47 -47l-156 155q-153 -143 -359 -143t-362 143l-156 -155l-47 47l158 160q-121 143 -121 341t141 353l-147 147l47 47
l152 -149q146 123 334 123t335 -121l150 147l47 -47l-147 -147q143 -154 143 -352z" />
    <glyph glyph-name="yen" unicode="&#xa5;" horiz-adv-x="1273" 
d="M637 805h2q1 0 39 49t55 70l408 510h94l-492 -611h357v-69h-412l-12 -15v-75h424v-70h-424v-594h-78v594h-408v70h408v75l-12 15h-396v69h340l-491 611h94l410 -510q21 -24 57 -71.5t37 -47.5z" />
    <glyph glyph-name="brokenbar" unicode="&#xa6;" horiz-adv-x="485" 
d="M207 1014v573h74v-573h-74zM207 -152v594h74v-594h-74z" />
    <glyph glyph-name="section" unicode="&#xa7;" horiz-adv-x="1071" 
d="M176 768q0 -86 125 -136t183 -58t66 -10t122 -27q101 20 166 71.5t65 116.5t-24.5 92t-41.5 42t-47 28.5t-68 29t-139 36.5q-101 22 -128 28q-203 -31 -241 -101t-38 -112zM100 768q0 90 68 151.5t184 88.5q-91 31 -145.5 79t-54.5 127q0 115 113 185.5t281 70.5
t278.5 -71t133.5 -193l-75 -22q-15 101 -105.5 160t-229.5 59t-230 -51t-91 -138q0 -58 63 -101t248 -81q185 -39 270 -78q171 -77 171 -223q0 -165 -223 -221q221 -84 221 -252q0 -128 -124 -211.5t-321 -83.5t-312.5 88.5t-131.5 222.5l70 19q11 -114 106 -187.5
t263 -73.5t270 63.5t102 151.5t-67.5 144t-185 83.5t-216.5 49.5q-100 23 -163 48q-167 69 -167 196z" />
    <glyph glyph-name="dieresis" unicode="&#xa8;" horiz-adv-x="761" 
d="M530 1636q0 30 21 52t53 22t53 -21t21 -52t-21 -52.5t-53 -21.5t-53 21.5t-21 51.5zM82 1637q0 31 21 52t52 21t52.5 -21t21.5 -52t-20.5 -52.5t-52.5 -21.5t-53 21.5t-21 52.5z" />
    <glyph glyph-name="copyright" unicode="&#xa9;" 
d="M481 713q0 162 105 268t266 106q102 0 196 -56t134 -140l-62 -21q-35 67 -110.5 110.5t-157.5 43.5q-132 0 -218.5 -87.5t-86.5 -223.5t86 -223t219 -87q88 0 166 49.5t112 125.5l64 -21q-38 -94 -136.5 -156.5t-205.5 -62.5q-161 0 -266 106.5t-105 268.5zM170 693
q0 -176 88.5 -331.5t241 -239t342.5 -83.5t342.5 83.5t242 239t89.5 331.5t-52 304t-142.5 215t-214 135t-265.5 48t-265.5 -48t-213.5 -135t-141.5 -215t-51.5 -304zM98 717q0 159 58.5 298t158.5 237t237 154t290 56t290 -56t237 -154t159 -237t59 -298
q0 -212 -100 -383.5t-270.5 -267t-348.5 -95.5t-315.5 56.5t-237.5 154t-158.5 237t-58.5 298.5z" />
    <glyph glyph-name="ordfeminine" unicode="&#xaa;" horiz-adv-x="706" 
d="M354 1372h-2q-1 0 -11.5 -45t-27.5 -88l-94 -227h266l-92 227q-17 43 -27.5 88t-11.5 45zM47 768l283 682h45l282 -682h-73l-76 186h-311l-78 -186h-72zM41 563v66h625v-66h-625z" />
    <glyph glyph-name="guillemotleft" unicode="&#xab;" horiz-adv-x="1497" 
d="M758 721l481 479l51 -49l-434 -430l434 -430l-51 -49zM207 721l481 479l51 -49l-434 -430l434 -430l-51 -49z" />
    <glyph glyph-name="uni00AD" unicode="&#xad;" horiz-adv-x="1372" 
d="M207 692v72h958v-72h-958z" />
    <glyph glyph-name="registered" unicode="&#xae;" 
d="M692 698h156q107 0 158 41t51 127q0 166 -209 166h-156v-334zM627 340v754h221q128 0 201 -60.5t73 -167.5q0 -169 -164 -215l195 -311h-76l-186 299q-14 -2 -43 -2h-156v-297h-65zM170 693q0 -176 88.5 -331.5t241 -239t342.5 -83.5t342.5 83.5t242 239t89.5 331.5
t-52 304t-142.5 215t-214 135t-265.5 48t-265.5 -48t-213.5 -135t-141.5 -215t-51.5 -304zM98 717q0 159 58.5 298t158.5 237t237 154t290 56t290 -56t237 -154t159 -237t59 -298q0 -212 -100 -383.5t-270.5 -267t-348.5 -95.5t-315.5 56.5t-237.5 154t-158.5 237
t-58.5 298.5z" />
    <glyph glyph-name="macron" unicode="&#xaf;" horiz-adv-x="794" 
d="M78 1442v63h637v-63h-637z" />
    <glyph glyph-name="degree" unicode="&#xb0;" horiz-adv-x="555" 
d="M152 1410q0 -52 36.5 -89t87.5 -37t89 37t38 89t-37.5 87t-89.5 35t-88 -35t-36 -87zM96 1408q0 76 52 128.5t127 52.5t130.5 -53t55.5 -127t-55.5 -128t-130.5 -54t-127 52.5t-52 128.5z" />
    <glyph glyph-name="plusminus" unicode="&#xb1;" horiz-adv-x="1429" 
d="M238 692v72h438v426h80v-426h438v-72h-438v-422h-80v422h-438zM238 -20v71h956v-71h-956z" />
    <glyph glyph-name="uni00B2" unicode="&#xb2;" horiz-adv-x="661" 
d="M340 1782q118 0 199.5 -75t81.5 -183q0 -141 -160 -271q-24 -18 -98 -75.5t-119 -91.5t-111 -70l2 -2q72 12 197 12h280v-65h-553v53l367 289q127 99 127 233q0 70 -62 125t-157 55t-148 -44.5t-80 -141.5l-65 18q61 234 299 234z" />
    <glyph glyph-name="uni00B3" unicode="&#xb3;" horiz-adv-x="659" 
d="M342 1010q100 0 153.5 51.5t53.5 125.5t-59 118.5t-154 44.5h-86v57h86q94 0 150.5 45.5t56.5 109.5t-50 110t-155 46q-178 0 -217 -184l-64 20q17 102 93.5 165t200.5 63t191.5 -61.5t67.5 -144.5t-55 -136.5t-133 -59.5v-2q82 -6 138 -57t56 -147t-78 -163t-197 -67
t-204.5 70.5t-95.5 185.5l68 14q3 -91 68 -147.5t165 -56.5z" />
    <glyph glyph-name="acute" unicode="&#xb4;" horiz-adv-x="614" 
d="M82 1575l414 223l34 -61l-417 -215z" />
    <glyph glyph-name="paragraph" unicode="&#xb6;" horiz-adv-x="1146" 
d="M98 1092q0 160 111 251t309 91h422v-1434h-78v1358h-176v-1358h-78v750h-90q-198 0 -309 91t-111 251z" />
    <glyph glyph-name="periodcentered" unicode="&#xb7;" horiz-adv-x="389" 
d="M123 698q0 30 21 51t51 21t50.5 -21t20.5 -51t-21 -50.5t-51 -20.5t-50.5 20.5t-20.5 50.5z" />
    <glyph glyph-name="cedilla" unicode="&#xb8;" horiz-adv-x="464" 
d="M178 -387q63 0 102 31.5t39 84.5t-39 86t-102 33h-86l55 152h64l-37 -96q94 2 150.5 -46t56.5 -128t-56 -127t-147 -47h-96l24 57h72z" />
    <glyph glyph-name="uni00B9" unicode="&#xb9;" horiz-adv-x="411" 
d="M256 1493q0 38 10 188h-2q-1 0 -19 -25.5t-42 -49.5l-125 -123l-45 43l246 239h47v-804h-70v532z" />
    <glyph glyph-name="ordmasculine" unicode="&#xba;" horiz-adv-x="755" 
d="M86 1106q0 -126 83 -208.5t207 -82.5t208 83t84 209t-84 209t-208 83t-207 -83.5t-83 -209.5zM43 563v66h672v-66h-672zM20 1107q0 153 104 255t254 102t253.5 -102t103.5 -255t-104.5 -255t-253.5 -102t-253 102t-104 255z" />
    <glyph glyph-name="guillemotright" unicode="&#xbb;" horiz-adv-x="1497" 
d="M760 291l434 430l-434 430l49 49l483 -479l-481 -479zM207 291l434 430l-434 430l51 49l481 -479l-481 -479z" />
    <glyph glyph-name="onequarter" unicode="&#xbc;" horiz-adv-x="1308" 
d="M1087 487q0 149 11 215v5h-2q-1 0 -49.5 -69.5t-100.5 -127.5l-110 -125q-25 -31 -90 -85l-19 -15l2 -2h3l29 1l326 1v202zM655 221v49l455 535h45v-520h113v-64h-113v-221h-68v221h-432zM113 0l954 1434h70l-953 -1434h-71zM326 1434v-805h-70v532q0 39 1 54l9 135h-2
q-1 0 -20.5 -27.5t-40.5 -48.5l-125 -123l-45 43l246 240h47z" />
    <glyph glyph-name="onehalf" unicode="&#xbd;" horiz-adv-x="1398" 
d="M1077 821q118 0 199.5 -75t81.5 -183q0 -140 -160 -270q-27 -20 -100 -77t-117 -91t-111 -70l2 -2q78 13 197 13h281v-66h-553v53l366 289q127 98 127 232q0 70 -62 126t-156 56t-147.5 -45t-80.5 -142l-66 19q61 233 299 233zM113 0l954 1434h70l-953 -1434h-71z
M326 1434v-805h-70v532q0 39 1 54l9 135h-2q-1 0 -20.5 -27.5t-40.5 -48.5l-125 -123l-45 43l246 240h47z" />
    <glyph glyph-name="threequarters" unicode="&#xbe;" horiz-adv-x="1474" 
d="M1253 487q0 149 11 215v5h-2q-1 0 -49.5 -69.5t-100.5 -127.5l-111 -125q-27 -33 -89 -85l-19 -15l2 -2h3l29 1l326 1v202zM821 221v49l455 535h45v-520h113v-64h-113v-221h-68v221h-432zM279 0l952 1434h72l-953 -1434h-71zM342 678q100 0 153.5 51.5t53.5 125.5
t-59 118.5t-154 44.5h-86v57h86q94 0 150.5 45.5t56.5 109.5t-50 110t-155 46q-178 0 -217 -184l-64 21q17 102 93.5 164.5t200.5 62.5t191.5 -61.5t67.5 -144.5t-54.5 -136t-133.5 -59v-2q82 -6 138 -57.5t56 -147.5t-78 -163t-197 -67t-204.5 70.5t-95.5 185.5l68 15
q3 -91 68 -148t165 -57z" />
    <glyph glyph-name="questiondown" unicode="&#xbf;" horiz-adv-x="1157" 
d="M565 1112v322h84v-322h-84zM98 367q0 66 39.5 154.5t157.5 164t270 131.5v135h84v-176q-259 -99 -364 -193t-105 -237t106 -221t277 -78q347 0 426 322l70 -21q-39 -180 -170 -278.5t-326 -98.5q-286 0 -375.5 132.5t-89.5 263.5z" />
    <glyph glyph-name="Agrave" unicode="&#xc0;" horiz-adv-x="1472" 
d="M434 1737l35 61l414 -223l-31 -53zM737 1339h-2q-1 0 -20 -48t-45 -107l-295 -662h723l-295 662q-13 29 -38.5 92t-27.5 63zM57 0l645 1434h68l645 -1434h-84l-201 451h-788l-201 -451h-84z" />
    <glyph glyph-name="Aacute" unicode="&#xc1;" horiz-adv-x="1472" 
d="M565 1575l414 223l35 -61l-418 -215zM737 1339h-2q-1 0 -20 -48t-45 -107l-295 -662h723l-295 662q-13 29 -38.5 92t-27.5 63zM57 0l645 1434h68l645 -1434h-84l-201 451h-788l-201 -451h-84z" />
    <glyph glyph-name="Acircumflex" unicode="&#xc2;" horiz-adv-x="1472" 
d="M424 1583l311 264l312 -264l-48 -47l-264 225l-264 -225zM737 1339h-2q-1 0 -20 -48t-45 -107l-295 -662h723l-295 662q-13 29 -38.5 92t-27.5 63zM57 0l645 1434h68l645 -1434h-84l-201 451h-788l-201 -451h-84z" />
    <glyph glyph-name="Atilde" unicode="&#xc3;" horiz-adv-x="1472" 
d="M428 1581q0 69 50 114.5t108 45.5q94 0 158 -56.5t111 -56.5t77.5 29t32.5 72h69q2 -69 -48 -114.5t-122 -45.5t-139 56t-117 56t-80 -28.5t-30 -71.5h-70zM737 1339h-2q-1 0 -20 -48t-45 -107l-295 -662h723l-295 662q-13 29 -38.5 92t-27.5 63zM57 0l645 1434h68
l645 -1434h-84l-201 451h-788l-201 -451h-84z" />
    <glyph glyph-name="Adieresis" unicode="&#xc4;" horiz-adv-x="1472" 
d="M883 1637q0 31 21.5 52t52.5 21t52 -21t21 -52t-21 -52.5t-53 -21.5t-52.5 21.5t-20.5 52.5zM434 1637q0 31 21 52t53 21t53 -22t21 -52t-21 -51.5t-53 -21.5t-53 21.5t-21 52.5zM737 1339h-2q-1 0 -20 -48t-45 -107l-295 -662h723l-295 662q-13 29 -38.5 92t-27.5 63z
M57 0l645 1434h68l645 -1434h-84l-201 451h-788l-201 -451h-84z" />
    <glyph glyph-name="Aring" unicode="&#xc5;" horiz-adv-x="1472" 
d="M612 1609q0 -52 36 -89t88 -37t89 37t37 89t-37 87t-89 35t-88 -35t-36 -87zM737 1339h-2q-1 0 -20 -48t-45 -107l-295 -662h723l-295 662q-13 29 -38.5 92t-27.5 63zM555 1613q0 71 52.5 123t128.5 52t130 -52t54 -122t-43 -121t-105 -63l643 -1430h-84l-201 451h-788
l-201 -451h-84l643 1430q-63 12 -104 62t-41 121z" />
    <glyph glyph-name="AE" unicode="&#xc6;" horiz-adv-x="1992" 
d="M946 522v836h-176q-1 0 -51 -112t-68 -150l-266 -574h561zM1862 1434v-76h-834v-547h680v-74h-680v-661h846v-76h-928v451h-596l-209 -451h-84l668 1434h1137z" />
    <glyph glyph-name="Ccedilla" unicode="&#xc7;" horiz-adv-x="1564" 
d="M98 721q0 155 58.5 294t158.5 237t237 154t290 56q208 0 380.5 -100t270.5 -272l-80 -21q-85 148 -236 232.5t-312 84.5t-283 -48.5t-211.5 -135t-141 -212.5t-51.5 -296t88.5 -324t240 -237.5t339.5 -83.5t347 96.5t243 262.5l77 -23q-91 -191 -268 -302t-399 -112
l-27 -67q94 2 150.5 -46t56.5 -128t-56 -127t-147 -47h-96l25 57h71q63 0 102.5 31.5t39.5 84.5t-39.5 86t-102.5 33h-86l45 125q-142 11 -268 71t-218 156.5t-145 231t-53 289.5z" />
    <glyph glyph-name="Egrave" unicode="&#xc8;" horiz-adv-x="1253" 
d="M360 1737l35 61l414 -223l-31 -53zM207 0v1434h913v-76h-835v-547h678v-74h-678v-661h848v-76h-926z" />
    <glyph glyph-name="Eacute" unicode="&#xc9;" horiz-adv-x="1253" 
d="M492 1575l413 223l35 -61l-418 -215zM207 0v1434h913v-76h-835v-547h678v-74h-678v-661h848v-76h-926z" />
    <glyph glyph-name="Ecircumflex" unicode="&#xca;" horiz-adv-x="1253" 
d="M350 1583l312 264l311 -264l-47 -47l-264 225l-265 -225zM207 0v1434h913v-76h-835v-547h678v-74h-678v-661h848v-76h-926z" />
    <glyph glyph-name="Edieresis" unicode="&#xcb;" horiz-adv-x="1253" 
d="M809 1636q0 30 21.5 52t53.5 22t52 -21t20 -52t-20 -52.5t-52 -21.5t-53.5 21.5t-21.5 51.5zM360 1637q0 31 21 52t53 21t53 -22t21 -52t-21 -51.5t-53 -21.5t-53 21.5t-21 52.5zM207 0v1434h913v-76h-835v-547h678v-74h-678v-661h848v-76h-926z" />
    <glyph glyph-name="Igrave" unicode="&#xcc;" horiz-adv-x="491" 
d="M207 0v1434h78v-1434h-78zM-57 1737l34 61l414 -223l-31 -53z" />
    <glyph glyph-name="Iacute" unicode="&#xcd;" horiz-adv-x="491" 
d="M207 0v1434h78v-1434h-78zM74 1575l413 223l35 -61l-418 -215z" />
    <glyph glyph-name="Icircumflex" unicode="&#xce;" horiz-adv-x="491" 
d="M207 0v1434h78v-1434h-78zM-68 1583l312 264l311 -264l-47 -47l-264 225l-264 -225z" />
    <glyph glyph-name="Idieresis" unicode="&#xcf;" horiz-adv-x="491" 
d="M391 1636q0 30 21.5 52t53.5 22t52.5 -21t20.5 -52t-20.5 -52.5t-52.5 -21.5t-53.5 21.5t-21.5 51.5zM207 0v1434h78v-1434h-78zM-57 1637q0 31 20.5 52t52.5 21t53 -22t21 -52t-21 -51.5t-53 -21.5t-52.5 21.5t-20.5 52.5z" />
    <glyph glyph-name="Eth" unicode="&#xd0;" horiz-adv-x="1640" 
d="M285 76h532q264 0 453.5 171t189.5 487q0 168 -89.5 317.5t-239 228t-332.5 78.5h-514v-588h438v-74h-438v-620zM98 696v74h109v664h592q152 0 288.5 -53.5t236 -147.5t158 -229.5t58.5 -317.5t-98.5 -345.5t-263 -252t-361.5 -88.5h-610v696h-109z" />
    <glyph glyph-name="Ntilde" unicode="&#xd1;" horiz-adv-x="1531" 
d="M461 1581q0 69 49.5 114.5t107.5 45.5q94 0 158.5 -56.5t111.5 -56.5t77 29t32 72h70q2 -69 -48 -114.5t-122 -45.5t-139 56t-117 56t-80.5 -28.5t-30.5 -71.5h-69zM207 0v1434h74l802 -1080q48 -64 107 -144.5t61 -80.5h2q1 0 -2.5 104t-3.5 236v965h78v-1434h-74
l-807 1087q-106 145 -133 185.5t-28 40.5h-2q-1 0 1.5 -108.5t2.5 -233.5v-971h-78z" />
    <glyph glyph-name="Ograve" unicode="&#xd2;" 
d="M549 1737l35 61l413 -223l-30 -53zM178 694q0 -170 88.5 -324.5t240 -238.5t356.5 -84t375.5 124t219.5 277t49 269q0 196 -89.5 350t-240.5 236.5t-312 82.5t-283 -48.5t-211.5 -135t-141 -212.5t-51.5 -296zM98 717q0 159 58.5 298t158.5 237t237 154t290 56t290 -56
t237 -154t159 -237t59 -298q0 -212 -100 -383.5t-270.5 -267t-348.5 -95.5t-315.5 56.5t-237.5 154t-158.5 237t-58.5 298.5z" />
    <glyph glyph-name="Oacute" unicode="&#xd3;" 
d="M680 1575l414 223l34 -61l-417 -215zM178 694q0 -170 88.5 -324.5t240 -238.5t356.5 -84t375.5 124t219.5 277t49 269q0 196 -89.5 350t-240.5 236.5t-312 82.5t-283 -48.5t-211.5 -135t-141 -212.5t-51.5 -296zM98 717q0 159 58.5 298t158.5 237t237 154t290 56t290 -56
t237 -154t159 -237t59 -298q0 -212 -100 -383.5t-270.5 -267t-348.5 -95.5t-315.5 56.5t-237.5 154t-158.5 237t-58.5 298.5z" />
    <glyph glyph-name="Ocircumflex" unicode="&#xd4;" 
d="M539 1583l311 264l311 -264l-47 -47l-264 225l-264 -225zM178 694q0 -170 88.5 -324.5t240 -238.5t356.5 -84t375.5 124t219.5 277t49 269q0 196 -89.5 350t-240.5 236.5t-312 82.5t-283 -48.5t-211.5 -135t-141 -212.5t-51.5 -296zM98 717q0 159 58.5 298t158.5 237
t237 154t290 56t290 -56t237 -154t159 -237t59 -298q0 -212 -100 -383.5t-270.5 -267t-348.5 -95.5t-315.5 56.5t-237.5 154t-158.5 237t-58.5 298.5z" />
    <glyph glyph-name="Otilde" unicode="&#xd5;" 
d="M543 1581q0 69 49.5 114.5t107.5 45.5q94 0 158.5 -56.5t111.5 -56.5t77 29t32 72h70q2 -69 -48 -114.5t-122 -45.5t-139 56t-117 56t-80.5 -28.5t-30.5 -71.5h-69zM178 694q0 -170 88.5 -324.5t240 -238.5t356.5 -84t375.5 124t219.5 277t49 269q0 196 -89.5 350
t-240.5 236.5t-312 82.5t-283 -48.5t-211.5 -135t-141 -212.5t-51.5 -296zM98 717q0 159 58.5 298t158.5 237t237 154t290 56t290 -56t237 -154t159 -237t59 -298q0 -212 -100 -383.5t-270.5 -267t-348.5 -95.5t-315.5 56.5t-237.5 154t-158.5 237t-58.5 298.5z" />
    <glyph glyph-name="Odieresis" unicode="&#xd6;" 
d="M997 1636q0 30 21.5 52t53.5 22t52.5 -21t20.5 -52t-20.5 -52.5t-52.5 -21.5t-53.5 21.5t-21.5 51.5zM549 1637q0 31 20.5 52t52.5 21t53 -21t21 -52t-21 -52.5t-53 -21.5t-52.5 21.5t-20.5 52.5zM178 694q0 -170 88.5 -324.5t240 -238.5t356.5 -84t375.5 124t219.5 277
t49 269q0 196 -89.5 350t-240.5 236.5t-312 82.5t-283 -48.5t-211.5 -135t-141 -212.5t-51.5 -296zM98 717q0 159 58.5 298t158.5 237t237 154t290 56t290 -56t237 -154t159 -237t59 -298q0 -212 -100 -383.5t-270.5 -267t-348.5 -95.5t-315.5 56.5t-237.5 154t-158.5 237
t-58.5 298.5z" />
    <glyph glyph-name="multiply" unicode="&#xd7;" horiz-adv-x="1429" 
d="M338 416l326 325l-326 326l51 51l326 -323l325 323l52 -51l-324 -326l326 -325l-54 -51l-325 325l-326 -325z" />
    <glyph glyph-name="Oslash" unicode="&#xd8;" 
d="M1507 738q0 138 -60 270.5t-167 222.5l-815 -1073q163 -111 383 -111t439.5 159.5t219.5 531.5zM178 710q0 -154 61.5 -286.5t170.5 -224.5l815 1075q-165 112 -383 112q-138 0 -260 -48.5t-211.5 -135t-141 -212.5t-51.5 -280zM1325 1290q262 -218 262 -592
q0 -194 -100 -365t-270.5 -266.5t-388.5 -95.5t-408 125l-78 -102l-55 43l78 102q-126 102 -196.5 251.5t-70.5 317.5t58.5 307t158.5 237t237 154t290 56q238 0 428 -129l84 109l55 -41z" />
    <glyph glyph-name="Ugrave" unicode="&#xd9;" horiz-adv-x="1454" 
d="M430 1737l35 61l414 -223l-31 -53zM162 573v861h78v-869q0 -257 123 -388.5t365 -131.5t364 131.5t122 388.5v869h80v-861q0 -295 -145 -449.5t-423 -154.5t-421 154t-143 450z" />
    <glyph glyph-name="Uacute" unicode="&#xda;" horiz-adv-x="1454" 
d="M561 1575l414 223l35 -61l-418 -215zM162 573v861h78v-869q0 -257 123 -388.5t365 -131.5t364 131.5t122 388.5v869h80v-861q0 -295 -145 -449.5t-423 -154.5t-421 154t-143 450z" />
    <glyph glyph-name="Ucircumflex" unicode="&#xdb;" horiz-adv-x="1454" 
d="M420 1583l311 264l311 -264l-47 -47l-264 225l-264 -225zM162 573v861h78v-869q0 -257 123 -388.5t365 -131.5t364 131.5t122 388.5v869h80v-861q0 -295 -145 -449.5t-423 -154.5t-421 154t-143 450z" />
    <glyph glyph-name="Udieresis" unicode="&#xdc;" horiz-adv-x="1454" 
d="M879 1637q0 31 21.5 52t52.5 21t52 -21t21 -52t-21 -52.5t-53 -21.5t-52.5 21.5t-20.5 52.5zM430 1637q0 31 21 52t53 21t53 -22t21 -52t-21 -51.5t-53 -21.5t-53 21.5t-21 52.5zM162 573v861h78v-869q0 -257 123 -388.5t365 -131.5t364 131.5t122 388.5v869h80v-861
q0 -295 -145 -449.5t-423 -154.5t-421 154t-143 450z" />
    <glyph glyph-name="Yacute" unicode="&#xdd;" horiz-adv-x="1273" 
d="M465 1575l414 223l34 -61l-417 -215zM637 805h2q1 0 39 49t55 70l408 510h94l-559 -695v-739h-78v739l-559 695h94l410 -510q21 -24 57 -71.5t37 -47.5z" />
    <glyph glyph-name="Thorn" unicode="&#xde;" horiz-adv-x="1198" 
d="M285 362h362q163 0 266 101t103 261t-103 260.5t-266 98.5h-362v-721zM207 0v1434h78v-275h362q198 0 323.5 -122t125.5 -314t-125.5 -314t-323.5 -122h-362v-287h-78z" />
    <glyph glyph-name="germandbls" unicode="&#xdf;" horiz-adv-x="1515" 
d="M285 1358v-1358h-78v1434h1067l-262 -471q-32 -56 -63 -105.5t-31 -50.5l2 -2h16q222 1 351.5 -114t129.5 -299t-129 -302.5t-330 -118.5q-157 0 -289 77t-194 208l76 23q56 -107 165 -171.5t258 -64.5t257 98t108 242t-97.5 248t-283.5 104h-112v70l217 393
q30 56 62 107.5t32 52.5l-2 2h-8h-25z" />
    <glyph glyph-name="agrave" unicode="&#xe0;" horiz-adv-x="1472" 
d="M434 1737l35 61l414 -223l-31 -53zM737 1339h-2q-1 0 -20 -48t-45 -107l-295 -662h723l-295 662q-13 29 -38.5 92t-27.5 63zM57 0l645 1434h68l645 -1434h-84l-201 451h-788l-201 -451h-84z" />
    <glyph glyph-name="aacute" unicode="&#xe1;" horiz-adv-x="1472" 
d="M565 1575l414 223l35 -61l-418 -215zM737 1339h-2q-1 0 -20 -48t-45 -107l-295 -662h723l-295 662q-13 29 -38.5 92t-27.5 63zM57 0l645 1434h68l645 -1434h-84l-201 451h-788l-201 -451h-84z" />
    <glyph glyph-name="acircumflex" unicode="&#xe2;" horiz-adv-x="1472" 
d="M424 1583l311 264l312 -264l-48 -47l-264 225l-264 -225zM737 1339h-2q-1 0 -20 -48t-45 -107l-295 -662h723l-295 662q-13 29 -38.5 92t-27.5 63zM57 0l645 1434h68l645 -1434h-84l-201 451h-788l-201 -451h-84z" />
    <glyph glyph-name="atilde" unicode="&#xe3;" horiz-adv-x="1472" 
d="M428 1581q0 69 50 114.5t108 45.5q94 0 158 -56.5t111 -56.5t77.5 29t32.5 72h69q2 -69 -48 -114.5t-122 -45.5t-139 56t-117 56t-80 -28.5t-30 -71.5h-70zM737 1339h-2q-1 0 -20 -48t-45 -107l-295 -662h723l-295 662q-13 29 -38.5 92t-27.5 63zM57 0l645 1434h68
l645 -1434h-84l-201 451h-788l-201 -451h-84z" />
    <glyph glyph-name="adieresis" unicode="&#xe4;" horiz-adv-x="1472" 
d="M883 1637q0 31 21.5 52t52.5 21t52 -21t21 -52t-21 -52.5t-53 -21.5t-52.5 21.5t-20.5 52.5zM434 1637q0 31 21 52t53 21t53 -22t21 -52t-21 -51.5t-53 -21.5t-53 21.5t-21 52.5zM737 1339h-2q-1 0 -20 -48t-45 -107l-295 -662h723l-295 662q-13 29 -38.5 92t-27.5 63z
M57 0l645 1434h68l645 -1434h-84l-201 451h-788l-201 -451h-84z" />
    <glyph glyph-name="aring" unicode="&#xe5;" horiz-adv-x="1472" 
d="M612 1609q0 -52 36 -89t88 -37t89 37t37 89t-37 87t-89 35t-88 -35t-36 -87zM737 1339h-2q-1 0 -20 -48t-45 -107l-295 -662h723l-295 662q-13 29 -38.5 92t-27.5 63zM555 1613q0 71 52.5 123t128.5 52t130 -52t54 -122t-43 -121t-105 -63l643 -1430h-84l-201 451h-788
l-201 -451h-84l643 1430q-63 12 -104 62t-41 121z" />
    <glyph glyph-name="ae" unicode="&#xe6;" horiz-adv-x="1992" 
d="M946 522v836h-176q-1 0 -51 -112t-68 -150l-266 -574h561zM1862 1434v-76h-834v-547h680v-74h-680v-661h846v-76h-928v451h-596l-209 -451h-84l668 1434h1137z" />
    <glyph glyph-name="ccedilla" unicode="&#xe7;" horiz-adv-x="1564" 
d="M98 721q0 155 58.5 294t158.5 237t237 154t290 56q208 0 380.5 -100t270.5 -272l-80 -21q-85 148 -236 232.5t-312 84.5t-283 -48.5t-211.5 -135t-141 -212.5t-51.5 -296t88.5 -324t240 -237.5t339.5 -83.5t347 96.5t243 262.5l77 -23q-91 -191 -268 -302t-399 -112
l-27 -67q94 2 150.5 -46t56.5 -128t-56 -127t-147 -47h-96l25 57h71q63 0 102.5 31.5t39.5 84.5t-39.5 86t-102.5 33h-86l45 125q-142 11 -268 71t-218 156.5t-145 231t-53 289.5z" />
    <glyph glyph-name="egrave" unicode="&#xe8;" horiz-adv-x="1253" 
d="M350 1737l35 61l414 -223l-31 -53zM207 0v1434h913v-76h-835v-547h678v-74h-678v-661h848v-76h-926z" />
    <glyph glyph-name="eacute" unicode="&#xe9;" horiz-adv-x="1253" 
d="M481 1575l414 223l35 -61l-418 -215zM207 0v1434h913v-76h-835v-547h678v-74h-678v-661h848v-76h-926z" />
    <glyph glyph-name="ecircumflex" unicode="&#xea;" horiz-adv-x="1253" 
d="M340 1583l311 264l312 -264l-48 -47l-264 225l-264 -225zM207 0v1434h913v-76h-835v-547h678v-74h-678v-661h848v-76h-926z" />
    <glyph glyph-name="edieresis" unicode="&#xeb;" horiz-adv-x="1253" 
d="M799 1637q0 31 21.5 52t52.5 21t52 -21t21 -52t-21 -52.5t-53 -21.5t-52.5 21.5t-20.5 52.5zM350 1637q0 31 21 52t53 21t53 -22t21 -52t-21 -51.5t-53 -21.5t-53 21.5t-21 52.5zM207 0v1434h913v-76h-835v-547h678v-74h-678v-661h848v-76h-926z" />
    <glyph glyph-name="igrave" unicode="&#xec;" horiz-adv-x="491" 
d="M207 0v1434h78v-1434h-78zM-55 1737l35 61l413 -223l-31 -53z" />
    <glyph glyph-name="iacute" unicode="&#xed;" horiz-adv-x="491" 
d="M207 0v1434h78v-1434h-78zM76 1575l413 223l35 -61l-418 -215z" />
    <glyph glyph-name="icircumflex" unicode="&#xee;" horiz-adv-x="491" 
d="M207 0v1434h78v-1434h-78zM-66 1583l312 264l311 -264l-47 -47l-264 225l-264 -225z" />
    <glyph glyph-name="idieresis" unicode="&#xef;" horiz-adv-x="491" 
d="M393 1636q0 30 21.5 52t53.5 22t52.5 -21t20.5 -52t-20.5 -52.5t-52.5 -21.5t-53.5 21.5t-21.5 51.5zM207 0v1434h78v-1434h-78zM-55 1637q0 31 20.5 52t52.5 21t53 -22t21 -52t-21 -51.5t-53 -21.5t-52.5 21.5t-20.5 52.5z" />
    <glyph glyph-name="eth" unicode="&#xf0;" horiz-adv-x="1640" 
d="M285 76h532q264 0 453.5 171t189.5 487q0 168 -89.5 317.5t-239 228t-332.5 78.5h-514v-588h438v-74h-438v-620zM98 696v74h109v664h592q152 0 288.5 -53.5t236 -147.5t158 -229.5t58.5 -317.5t-98.5 -345.5t-263 -252t-361.5 -88.5h-610v696h-109z" />
    <glyph glyph-name="ntilde" unicode="&#xf1;" horiz-adv-x="1531" 
d="M461 1581q0 69 49.5 114.5t107.5 45.5q94 0 158.5 -56.5t111.5 -56.5t77 29t32 72h70q2 -69 -48 -114.5t-122 -45.5t-139 56t-117 56t-80.5 -28.5t-30.5 -71.5h-69zM207 0v1434h74l802 -1080q48 -64 107 -144.5t61 -80.5h2q1 0 -2.5 104t-3.5 236v965h78v-1434h-74
l-807 1087q-106 145 -133 185.5t-28 40.5h-2q-1 0 1.5 -108.5t2.5 -233.5v-971h-78z" />
    <glyph glyph-name="ograve" unicode="&#xf2;" 
d="M545 1737l35 61l413 -223l-30 -53zM178 694q0 -170 88.5 -324.5t240 -238.5t356.5 -84t375.5 124t219.5 277t49 269q0 196 -89.5 350t-240.5 236.5t-312 82.5t-283 -48.5t-211.5 -135t-141 -212.5t-51.5 -296zM98 717q0 159 58.5 298t158.5 237t237 154t290 56t290 -56
t237 -154t159 -237t59 -298q0 -212 -100 -383.5t-270.5 -267t-348.5 -95.5t-315.5 56.5t-237.5 154t-158.5 237t-58.5 298.5z" />
    <glyph glyph-name="oacute" unicode="&#xf3;" 
d="M676 1575l414 223l34 -61l-417 -215zM178 694q0 -170 88.5 -324.5t240 -238.5t356.5 -84t375.5 124t219.5 277t49 269q0 196 -89.5 350t-240.5 236.5t-312 82.5t-283 -48.5t-211.5 -135t-141 -212.5t-51.5 -296zM98 717q0 159 58.5 298t158.5 237t237 154t290 56t290 -56
t237 -154t159 -237t59 -298q0 -212 -100 -383.5t-270.5 -267t-348.5 -95.5t-315.5 56.5t-237.5 154t-158.5 237t-58.5 298.5z" />
    <glyph glyph-name="ocircumflex" unicode="&#xf4;" 
d="M535 1583l311 264l311 -264l-47 -47l-264 225l-264 -225zM178 694q0 -170 88.5 -324.5t240 -238.5t356.5 -84t375.5 124t219.5 277t49 269q0 196 -89.5 350t-240.5 236.5t-312 82.5t-283 -48.5t-211.5 -135t-141 -212.5t-51.5 -296zM98 717q0 159 58.5 298t158.5 237
t237 154t290 56t290 -56t237 -154t159 -237t59 -298q0 -212 -100 -383.5t-270.5 -267t-348.5 -95.5t-315.5 56.5t-237.5 154t-158.5 237t-58.5 298.5z" />
    <glyph glyph-name="otilde" unicode="&#xf5;" 
d="M539 1581q0 69 49.5 114.5t107.5 45.5q94 0 158.5 -56.5t111.5 -56.5t77 29t32 72h70q2 -69 -48 -114.5t-122 -45.5t-139 56t-117 56t-80.5 -28.5t-30.5 -71.5h-69zM178 694q0 -170 88.5 -324.5t240 -238.5t356.5 -84t375.5 124t219.5 277t49 269q0 196 -89.5 350
t-240.5 236.5t-312 82.5t-283 -48.5t-211.5 -135t-141 -212.5t-51.5 -296zM98 717q0 159 58.5 298t158.5 237t237 154t290 56t290 -56t237 -154t159 -237t59 -298q0 -212 -100 -383.5t-270.5 -267t-348.5 -95.5t-315.5 56.5t-237.5 154t-158.5 237t-58.5 298.5z" />
    <glyph glyph-name="odieresis" unicode="&#xf6;" 
d="M993 1636q0 30 21.5 52t53.5 22t52.5 -21t20.5 -52t-20.5 -52.5t-52.5 -21.5t-53.5 21.5t-21.5 51.5zM545 1637q0 31 20.5 52t52.5 21t53 -22t21 -52t-21 -51.5t-53 -21.5t-52.5 21.5t-20.5 52.5zM178 694q0 -170 88.5 -324.5t240 -238.5t356.5 -84t375.5 124t219.5 277
t49 269q0 196 -89.5 350t-240.5 236.5t-312 82.5t-283 -48.5t-211.5 -135t-141 -212.5t-51.5 -296zM98 717q0 159 58.5 298t158.5 237t237 154t290 56t290 -56t237 -154t159 -237t59 -298q0 -212 -100 -383.5t-270.5 -267t-348.5 -95.5t-315.5 56.5t-237.5 154t-158.5 237
t-58.5 298.5z" />
    <glyph glyph-name="divide" unicode="&#xf7;" horiz-adv-x="1429" 
d="M627 1184q0 30 20.5 50.5t50.5 20.5t51 -20.5t21 -50.5t-21 -51t-51 -21t-50.5 21t-20.5 51zM627 283q0 30 20.5 50.5t50.5 20.5t51 -21t21 -51t-21 -50.5t-51 -20.5t-50.5 21t-20.5 51zM225 692v72h957v-72h-957z" />
    <glyph glyph-name="oslash" unicode="&#xf8;" 
d="M1507 738q0 138 -60 270.5t-167 222.5l-815 -1073q163 -111 383 -111t439.5 159.5t219.5 531.5zM178 710q0 -154 61.5 -286.5t170.5 -224.5l815 1075q-165 112 -383 112q-138 0 -260 -48.5t-211.5 -135t-141 -212.5t-51.5 -280zM1325 1290q262 -218 262 -592
q0 -194 -100 -365t-270.5 -266.5t-388.5 -95.5t-408 125l-78 -102l-55 43l78 102q-126 102 -196.5 251.5t-70.5 317.5t58.5 307t158.5 237t237 154t290 56q238 0 428 -129l84 109l55 -41z" />
    <glyph glyph-name="ugrave" unicode="&#xf9;" horiz-adv-x="1454" 
d="M430 1737l35 61l414 -223l-31 -53zM162 573v861h78v-869q0 -257 123 -388.5t365 -131.5t364 131.5t122 388.5v869h80v-861q0 -295 -145 -449.5t-423 -154.5t-421 154t-143 450z" />
    <glyph glyph-name="uacute" unicode="&#xfa;" horiz-adv-x="1454" 
d="M561 1575l414 223l35 -61l-418 -215zM162 573v861h78v-869q0 -257 123 -388.5t365 -131.5t364 131.5t122 388.5v869h80v-861q0 -295 -145 -449.5t-423 -154.5t-421 154t-143 450z" />
    <glyph glyph-name="ucircumflex" unicode="&#xfb;" horiz-adv-x="1454" 
d="M420 1583l311 264l311 -264l-47 -47l-264 225l-264 -225zM162 573v861h78v-869q0 -257 123 -388.5t365 -131.5t364 131.5t122 388.5v869h80v-861q0 -295 -145 -449.5t-423 -154.5t-421 154t-143 450z" />
    <glyph glyph-name="udieresis" unicode="&#xfc;" horiz-adv-x="1454" 
d="M879 1637q0 31 21.5 52t52.5 21t52 -21t21 -52t-21 -52.5t-53 -21.5t-52.5 21.5t-20.5 52.5zM430 1637q0 31 21 52t53 21t53 -22t21 -52t-21 -51.5t-53 -21.5t-53 21.5t-21 52.5zM162 573v861h78v-869q0 -257 123 -388.5t365 -131.5t364 131.5t122 388.5v869h80v-861
q0 -295 -145 -449.5t-423 -154.5t-421 154t-143 450z" />
    <glyph glyph-name="yacute" unicode="&#xfd;" horiz-adv-x="1273" 
d="M465 1575l414 223l34 -61l-417 -215zM637 805h2q1 0 39 49t55 70l408 510h94l-559 -695v-739h-78v739l-559 695h94l410 -510q21 -24 57 -71.5t37 -47.5z" />
    <glyph glyph-name="thorn" unicode="&#xfe;" horiz-adv-x="1198" 
d="M285 362h362q163 0 266 101t103 261t-103 260.5t-266 98.5h-362v-721zM207 0v1434h78v-275h362q198 0 323.5 -122t125.5 -314t-125.5 -314t-323.5 -122h-362v-287h-78z" />
    <glyph glyph-name="ydieresis" unicode="&#xff;" horiz-adv-x="1273" 
d="M782 1636q0 30 21 52t53 22t53 -21t21 -52t-21 -52.5t-53 -21.5t-53 21.5t-21 51.5zM334 1637q0 31 21 52t52 21t52.5 -21t21.5 -52t-20.5 -52.5t-52.5 -21.5t-53 21.5t-21 52.5zM637 805h2q1 0 39 49t55 70l408 510h94l-559 -695v-739h-78v739l-559 695h94l410 -510
q21 -24 57 -71.5t37 -47.5z" />
    <glyph glyph-name="OE" unicode="&#x152;" horiz-adv-x="1986" 
d="M178 718q0 -196 83.5 -344t229 -227t330.5 -79q69 0 121 14v1272q-56 12 -121 12q-185 0 -330.5 -77.5t-229 -226t-83.5 -344.5zM98 717q0 212 94.5 378t259 256.5t369.5 90.5q66 0 121 -8h913v-76h-835v-547h678v-74h-678v-661h848v-76h-924q-55 -8 -123 -8
q-205 0 -369.5 90.5t-259 256.5t-94.5 378z" />
    <glyph glyph-name="oe" unicode="&#x153;" horiz-adv-x="1986" 
d="M178 718q0 -196 83.5 -344t229 -227t330.5 -79q69 0 121 14v1272q-56 12 -121 12q-185 0 -330.5 -77.5t-229 -226t-83.5 -344.5zM98 717q0 212 94.5 378t259 256.5t369.5 90.5q66 0 121 -8h913v-76h-835v-547h678v-74h-678v-661h848v-76h-924q-55 -8 -123 -8
q-205 0 -369.5 90.5t-259 256.5t-94.5 378z" />
    <glyph glyph-name="Ydieresis" unicode="&#x178;" horiz-adv-x="1273" 
d="M782 1636q0 30 21 52t53 22t53 -21t21 -52t-21 -52.5t-53 -21.5t-53 21.5t-21 51.5zM334 1637q0 31 21 52t52 21t52.5 -21t21.5 -52t-20.5 -52.5t-52.5 -21.5t-53 21.5t-21 52.5zM637 805h2q1 0 39 49t55 70l408 510h94l-559 -695v-739h-78v739l-559 695h94l410 -510
q21 -24 57 -71.5t37 -47.5z" />
    <glyph glyph-name="circumflex" unicode="&#x2c6;" horiz-adv-x="780" 
d="M78 1583l311 264l311 -264l-47 -47l-264 225l-264 -225z" />
    <glyph glyph-name="tilde" unicode="&#x2dc;" horiz-adv-x="772" 
d="M82 1581q0 69 50 114.5t108 45.5q94 0 158 -56.5t111 -56.5t77 29t32 72h70q2 -69 -48 -114.5t-122 -45.5t-139 56t-117 56t-80 -28.5t-30 -71.5h-70z" />
    <glyph glyph-name="uni2000" unicode="&#x2000;" horiz-adv-x="923" 
 />
    <glyph glyph-name="uni2001" unicode="&#x2001;" horiz-adv-x="1847" 
 />
    <glyph glyph-name="uni2002" unicode="&#x2002;" horiz-adv-x="923" 
 />
    <glyph glyph-name="uni2003" unicode="&#x2003;" horiz-adv-x="1847" 
 />
    <glyph glyph-name="uni2004" unicode="&#x2004;" horiz-adv-x="615" 
 />
    <glyph glyph-name="uni2005" unicode="&#x2005;" horiz-adv-x="461" 
 />
    <glyph glyph-name="uni2006" unicode="&#x2006;" horiz-adv-x="307" 
 />
    <glyph glyph-name="uni2007" unicode="&#x2007;" horiz-adv-x="307" 
 />
    <glyph glyph-name="uni2008" unicode="&#x2008;" horiz-adv-x="230" 
 />
    <glyph glyph-name="uni2009" unicode="&#x2009;" horiz-adv-x="369" 
 />
    <glyph glyph-name="uni200A" unicode="&#x200a;" horiz-adv-x="102" 
 />
    <glyph glyph-name="uni2010" unicode="&#x2010;" horiz-adv-x="1372" 
d="M207 692v72h958v-72h-958z" />
    <glyph glyph-name="uni2011" unicode="&#x2011;" horiz-adv-x="1372" 
d="M207 692v72h958v-72h-958z" />
    <glyph glyph-name="figuredash" unicode="&#x2012;" horiz-adv-x="1372" 
d="M207 692v72h958v-72h-958z" />
    <glyph glyph-name="endash" unicode="&#x2013;" horiz-adv-x="1243" 
d="M207 690v74h829v-74h-829z" />
    <glyph glyph-name="emdash" unicode="&#x2014;" horiz-adv-x="2072" 
d="M207 690v74h1659v-74h-1659z" />
    <glyph glyph-name="quoteleft" unicode="&#x2018;" horiz-adv-x="583" 
d="M207 1167q0 152 123 295h47q-94 -108 -94 -233l-17 -10h17q27 2 50 -18.5t23 -53.5t-21 -52.5t-53 -19.5t-53.5 25.5t-21.5 66.5z" />
    <glyph glyph-name="quoteright" unicode="&#x2019;" horiz-adv-x="583" 
d="M377 1370q0 -152 -123 -295h-47q96 107 96 234l14 10h-14q-28 -3 -52 17t-24 54t21.5 53t53.5 19t53.5 -26.5t21.5 -65.5z" />
    <glyph glyph-name="quotesinglbase" unicode="&#x201a;" horiz-adv-x="583" 
d="M377 25q0 -152 -123 -295h-47q96 107 96 233l14 10h-14q-28 -3 -52 17t-24 54t21.5 53.5t53.5 19.5t53.5 -26.5t21.5 -65.5z" />
    <glyph glyph-name="quotedblleft" unicode="&#x201c;" horiz-adv-x="911" 
d="M535 1167q0 156 122 295h48q-95 -114 -95 -233l-16 -10h16q28 2 52 -18.5t24 -53.5t-23 -52.5t-55 -19.5t-52.5 25.5t-20.5 66.5zM207 1167q0 152 123 295h47q-94 -108 -94 -233l-17 -10h17q27 2 50 -18.5t23 -53.5t-21 -52.5t-53 -19.5t-53.5 25.5t-21.5 66.5z" />
    <glyph glyph-name="quotedblright" unicode="&#x201d;" horiz-adv-x="911" 
d="M705 1370q0 -157 -121 -295h-49q96 107 96 234l14 10h-14q-28 -3 -52 17t-24 54t22.5 53t54.5 19t52.5 -26t20.5 -66zM377 1370q0 -152 -123 -295h-47q96 107 96 234l14 10h-14q-28 -3 -52 17t-24 54t21.5 53t53.5 19t53.5 -26.5t21.5 -65.5z" />
    <glyph glyph-name="quotedblbase" unicode="&#x201e;" horiz-adv-x="870" 
d="M664 25q0 -152 -123 -295h-47q96 107 96 233l14 10h-14q-28 -3 -52 17t-24 54t22 53.5t54 19.5t53 -26.5t21 -65.5zM377 25q0 -152 -123 -295h-47q96 107 96 233l14 10h-14q-28 -3 -52 17t-24 54t21.5 53.5t53.5 19.5t53.5 -26.5t21.5 -65.5z" />
    <glyph glyph-name="bullet" unicode="&#x2022;" horiz-adv-x="739" 
d="M207 727q0 67 47.5 114.5t115.5 47.5t115 -47t47 -115t-47 -115t-115 -47t-115.5 47.5t-47.5 114.5z" />
    <glyph glyph-name="ellipsis" unicode="&#x2026;" horiz-adv-x="1447" 
d="M1208 30q0 24 17 41t43 17t42.5 -17t16.5 -42t-17 -41.5t-42 -16.5t-42.5 17.5t-17.5 41.5zM655 30q0 24 17.5 41t43.5 17t42 -17t16 -42t-17 -41.5t-42 -16.5t-42.5 17.5t-17.5 41.5zM123 30q0 24 16.5 41t42.5 17t43 -17t17 -42t-18 -41.5t-42 -16.5t-41.5 17.5
t-17.5 41.5z" />
    <glyph glyph-name="uni202F" unicode="&#x202f;" horiz-adv-x="369" 
 />
    <glyph glyph-name="guilsinglleft" unicode="&#x2039;" horiz-adv-x="946" 
d="M207 721l481 479l51 -49l-436 -430l436 -430l-51 -49z" />
    <glyph glyph-name="guilsinglright" unicode="&#x203a;" horiz-adv-x="946" 
d="M207 291l434 430l-434 430l51 49l481 -479l-481 -479z" />
    <glyph glyph-name="uni205F" unicode="&#x205f;" horiz-adv-x="461" 
 />
    <glyph glyph-name="Euro" unicode="&#x20ac;" horiz-adv-x="1638" 
d="M98 596v68h84q-2 18 -2 51t2 49h-84v67h90q40 276 245.5 451.5t486.5 175.5q207 0 379 -99.5t268 -271.5l-84 -22q-85 148 -233 231.5t-330 83.5q-252 0 -434 -150.5t-220 -398.5h678v-67h-684q-2 -16 -2 -49t2 -51h684v-68h-676q39 -244 221 -393.5t431 -149.5
q194 0 350.5 96t238.5 261l78 -23q-90 -191 -267.5 -301.5t-380.5 -110.5t-360 78t-260.5 220t-130.5 323h-90z" />
    <glyph glyph-name="trademark" unicode="&#x2122;" horiz-adv-x="1605" 
d="M1341 1333q-1 0 -14.5 -31t-46.5 -85l-178 -295h-43l-176 295q-30 47 -46.5 81.5t-17.5 34.5h-2q-1 0 4.5 -82.5t5.5 -171.5v-311h-67v666h63l201 -342q32 -55 43 -80t12 -25h2q1 0 15.5 28.5t42.5 74.5l198 344h64v-666h-66v311l8 254h-2zM57 1370v64h570v-64h-252v-602
h-66v602h-252z" />
    <glyph glyph-name="uniE000" unicode="&#xe000;" horiz-adv-x="1433" 
d="M0 0v1434h1434v-1434h-1434z" />
  </font>
</defs>
</svg>
