<?xml version="1.0" standalone="no"?>
<!DOCTYPE svg PUBLIC "-//W3C//DTD SVG 1.1//EN" "http://www.w3.org/Graphics/SVG/1.1/DTD/svg11.dtd" >
<svg xmlns="http://www.w3.org/2000/svg">
<metadata>
Created by FontPrep 20130207 at Tue Jul 16 13:23:42 2013
 By John Horstman
Copyright (c) 2011 by Jan Tonellato. All rights reserved.
</metadata>
<defs>
<font id="fcad973783aee7d2d36dd8df78ee20e8" >
  <font-face 
    font-family="Novecentowide-Bold"
    font-weight="700"
    font-stretch="expanded"
    units-per-em="2048"
    panose-1="0 0 8 5 0 0 0 0 0 0"
    ascent="1741"
    descent="-307"
    x-height="1434"
    cap-height="1434"
    bbox="-104 -559 2111 2001"
    underline-thickness="311"
    underline-position="-111"
    unicode-range="U+000D-E000"
  />
<missing-glyph horiz-adv-x="748" 
d="M136 68h408v1229h-408v-1229zM68 0v1365h544v-1365h-544z" />
    <glyph glyph-name=".notdef" horiz-adv-x="748" 
d="M136 68h408v1229h-408v-1229zM68 0v1365h544v-1365h-544z" />
    <glyph glyph-name="glyph1" horiz-adv-x="2048" 
 />
    <glyph glyph-name="glyph1" horiz-adv-x="2048" 
 />
    <glyph glyph-name="uni000D" unicode="&#xd;" horiz-adv-x="2048" 
 />
    <glyph glyph-name="space" unicode=" " horiz-adv-x="512" 
 />
    <glyph glyph-name="exclam" unicode="!" horiz-adv-x="663" 
d="M160 440v994h344v-994h-344zM160 0v322h344v-322h-344z" />
    <glyph glyph-name="quotedbl" unicode="&#x22;" horiz-adv-x="1234" 
d="M754 989v445h321v-445h-321zM160 989v445h321v-445h-321z" />
    <glyph glyph-name="numbersign" unicode="#" horiz-adv-x="1910" 
d="M733 569h273l145 285h-279zM55 270l158 299h172l145 285h-178l158 299h174l143 281h330l-137 -281h285l143 281h330l-138 -281h207l-155 -299h-199l-139 -285h196l-155 -299h-189l-133 -270h-358l139 270h-268l-133 -270h-359l139 270h-178z" />
    <glyph glyph-name="dollar" unicode="$" horiz-adv-x="1257" 
d="M652 276q98 0 144 35.5t46 91.5q0 75 -82 112t-167 66t-130 47t-82 34t-100 51.5t-123 116t-60 212.5q0 133 105 247t274 155v174h344v-182q137 -43 236 -140t137 -227l-332 -90q-25 90 -95.5 138t-148.5 48t-121.5 -31.5t-43.5 -74.5t26.5 -64.5t42 -32.5t52 -25.5
t56.5 -22.5t69 -25t95 -34t145 -63t183 -140t84 -243q0 -148 -104 -263.5t-281 -155.5v-174h-344v176q-157 38 -267.5 144.5t-168.5 269.5l330 88q31 -90 107 -154t174 -64z" />
    <glyph glyph-name="percent" unicode="%" horiz-adv-x="1802" 
d="M1280 396q0 -78 38 -131.5t100 -53.5t100 53.5t38 131.5t-38 132t-100 54t-100 -54t-38 -132zM1055 395q0 180 101.5 297t261.5 117t262 -116.5t102 -296.5t-101.5 -296t-262.5 -116t-262 115.5t-101 295.5zM276 0l1029 1434h221l-1028 -1434h-222zM246 1036
q0 -78 38 -131t100 -53t100 53.5t38 131.5t-38 132t-100 54t-100 -54.5t-38 -132.5zM20 1036q0 180 102 297t262 117t262 -117t102 -297t-101.5 -295.5t-262.5 -115.5t-262.5 115.5t-101.5 295.5z" />
    <glyph glyph-name="ampersand" unicode="&#x26;" horiz-adv-x="1452" 
d="M408 436q0 -74 61 -122t171 -48q238 0 237 232v102h-254q-106 0 -160.5 -45t-54.5 -119zM72 426q0 118 80.5 205.5t197.5 105.5v2q-91 11 -175.5 88t-84.5 211q0 185 138.5 304.5t361.5 119.5t360.5 -107.5t184.5 -295.5l-289 -80q-36 102 -86.5 148.5t-143.5 46.5
q-122 0 -144.5 -62t-22.5 -86q0 -69 49.5 -113.5t148.5 -44.5h805v-268h-252v-121q0 -210 -100 -317.5t-214 -149t-263 -41.5q-249 0 -400 125.5t-151 329.5z" />
    <glyph glyph-name="quotesingle" unicode="'" horiz-adv-x="641" 
d="M160 989v445h321v-445h-321z" />
    <glyph glyph-name="parenleft" unicode="(" horiz-adv-x="806" 
d="M72 683q0 140 15 249t39.5 192.5t62 156.5t75.5 124.5t105.5 113.5t146 101.5t168.5 69.5l86 -328q-193 -58 -273.5 -220.5t-80.5 -441.5t80.5 -441t273.5 -220l-86 -328q-199 65 -286 143.5t-144 156.5t-94.5 171t-62.5 227t-25 274z" />
    <glyph glyph-name="parenright" unicode=")" horiz-adv-x="806" 
d="M391 700q0 279 -80.5 441.5t-273.5 220.5l86 328q149 -50 380.5 -210t231.5 -780q0 -440 -119.5 -603.5t-206.5 -242t-286 -143.5l-86 328q193 58 273.5 220t80.5 441z" />
    <glyph glyph-name="asterisk" unicode="*" horiz-adv-x="1040" 
d="M412 1434h213v-203l190 63l66 -204l-195 -56l125 -162l-174 -129l-117 172l-114 -172l-177 127l125 164l-194 56l65 204l187 -63v203z" />
    <glyph glyph-name="plus" unicode="+" horiz-adv-x="1429" 
d="M252 586v280h313v330h299v-330h316v-280h-314v-330h-299v330h-315z" />
    <glyph glyph-name="comma" unicode="," horiz-adv-x="567" 
d="M123 142q0 63 47.5 110t114.5 47t113 -50t46 -137t-66.5 -195t-166.5 -187h-125q53 33 104.5 117.5t51.5 134.5l30 8l-30 4q-46 7 -82.5 46t-36.5 102z" />
    <glyph glyph-name="hyphen" unicode="-" horiz-adv-x="1247" 
d="M160 586v280h927v-280h-927z" />
    <glyph glyph-name="period" unicode="." horiz-adv-x="567" 
d="M123 136q0 66 47.5 113.5t113.5 47.5t113 -47.5t47 -113.5t-47 -113.5t-113 -47.5t-113.5 47.5t-47.5 113.5z" />
    <glyph glyph-name="slash" unicode="/" horiz-adv-x="1062" 
d="M0 0l733 1434h330l-705 -1434h-358z" />
    <glyph glyph-name="zero" unicode="0" horiz-adv-x="1468" 
d="M430 717q0 -250 99.5 -328t202.5 -78t173 54t101.5 143.5t31.5 208.5t-31.5 208t-101.5 143t-172 54q-154 0 -228.5 -110.5t-74.5 -294.5zM72 717q0 154 46 290t129.5 237t209 159.5t276.5 58.5t277 -58.5t256.5 -215.5t130.5 -471q0 -207 -79 -375.5t-231.5 -269.5
t-353.5 -101q-151 0 -276.5 58.5t-209 160t-129.5 237.5t-46 290z" />
    <glyph glyph-name="one" unicode="1" horiz-adv-x="962" 
d="M463 930q-1 0 -34.5 -40t-82.5 -89l-63 -64l-211 203l491 494h240v-1434h-344v690l6 240h-2z" />
    <glyph glyph-name="two" unicode="2" horiz-adv-x="1253" 
d="M661 1462q218 0 363 -133t145 -334q0 -165 -60 -242.5t-83 -102.5t-105.5 -91t-218 -155.5t-135.5 -90.5l2 -2l9 1q9 0 25.5 1t39 2t85.5 4t200 3h243v-322h-1052v281q99 87 294 260t301 265t107 189q0 67 -50 115.5t-132 48.5q-149 0 -215 -180l-318 84
q53 178 195 288.5t360 110.5z" />
    <glyph glyph-name="three" unicode="3" horiz-adv-x="1257" 
d="M624 279q88 0 145.5 44.5t57.5 116.5t-56.5 116t-149.5 44h-121v268h121q89 0 135.5 41t46.5 106t-50 104.5t-131 39.5t-134.5 -43t-86.5 -137l-307 82q48 185 194 293t370 108t362.5 -119.5t138.5 -304.5q0 -66 -27 -123.5t-91 -113.5t-156 -60v-2q121 0 211 -85.5
t90 -227.5q0 -198 -153 -326.5t-374 -128.5t-382.5 113.5t-204.5 284.5l311 86q26 -80 89.5 -128t151.5 -48z" />
    <glyph glyph-name="four" unicode="4" horiz-adv-x="1347" 
d="M793 967q-1 0 -49.5 -66t-90.5 -115l-114 -135q-78 -93 -78 -94v-2l172 2h155v70l6 329l1 11h-2zM72 258v258l757 918h283v-877h154v-299h-154v-258h-324v258h-716z" />
    <glyph glyph-name="five" unicode="5" horiz-adv-x="1269" 
d="M673 940q128 0 250.5 -60t193.5 -168t71 -243q0 -214 -153.5 -356t-375.5 -142t-368 109t-185 254l316 84q58 -152 215 -152q88 0 145.5 59t57.5 149t-59 147t-144 57q-146 0 -184 -103l-297 82l129 777h815v-322h-568l-45 -203l2 -2q56 33 184 33z" />
    <glyph glyph-name="six" unicode="6" horiz-adv-x="1239" 
d="M420 476q0 -90 63.5 -147t162.5 -57t161.5 58t62.5 148t-63 147t-163 57t-162 -58t-62 -148zM715 963q148 0 260 -71t167.5 -184.5t55.5 -253.5t-74 -251t-202 -171.5t-286 -60.5t-284.5 59.5t-203 176t-76.5 275.5t66.5 288t191.5 297l276 367h371l-381 -508l2 -2
q39 39 117 39z" />
    <glyph glyph-name="seven" unicode="7" horiz-adv-x="1179" 
d="M543 1112h-482v322h1098v-199l-692 -1235h-369l437 768q88 154 183 296l32 50l-2 2h-14q-60 -4 -191 -4z" />
    <glyph glyph-name="eight" unicode="8" horiz-adv-x="1241" 
d="M428 1060q0 -67 55 -109t139 -42t137.5 43t53.5 110t-54.5 111t-138.5 44t-138 -45t-54 -112zM399 418q0 -78 63 -129t160 -51t158.5 51t61.5 129t-62.5 129t-159.5 51t-159 -51t-62 -129zM72 416q0 130 86 225t196 121v2q-63 13 -140 98t-77 213q0 165 136.5 276
t346.5 111t347 -111t137 -282t-94 -235t-123 -70v-2q110 -28 196 -123t86 -224t-70.5 -229t-196 -158t-281.5 -58t-282 58t-196.5 158t-70.5 230z" />
    <glyph glyph-name="nine" unicode="9" horiz-adv-x="1241" 
d="M373 954q0 -90 63.5 -147t162.5 -57t161.5 58t62.5 148t-62.5 146.5t-162.5 56.5t-162.5 -57.5t-62.5 -147.5zM41 993q0 125 74 237.5t202 172t286 59.5t285 -59.5t204 -176t77 -270.5q0 -280 -239 -561l-338 -395h-391l442 504l-2 2q-27 -35 -129 -35t-197 40t-154 109
t-89.5 158.5t-30.5 214.5z" />
    <glyph glyph-name="colon" unicode=":" horiz-adv-x="567" 
d="M123 730q0 66 47.5 113.5t113.5 47.5t113 -47.5t47 -113.5t-47 -113.5t-113 -47.5t-113.5 47.5t-47.5 113.5zM123 136q0 66 47.5 113.5t113.5 47.5t113 -47.5t47 -113.5t-47 -113.5t-113 -47.5t-113.5 47.5t-47.5 113.5z" />
    <glyph glyph-name="semicolon" unicode=";" horiz-adv-x="604" 
d="M160 730q0 66 48 113.5t114 47.5t112.5 -47.5t46.5 -113.5t-46.5 -113.5t-113.5 -47.5t-114 47.5t-47 113.5zM160 142q0 63 47.5 110t114.5 47t113 -50t46 -137t-66.5 -195t-166.5 -187h-125q53 33 104.5 117.5t51.5 134.5l30 8l-30 4q-46 7 -82.5 46t-36.5 102z" />
    <glyph glyph-name="less" unicode="&#x3c;" horiz-adv-x="1429" 
d="M238 752l540 499h389l-510 -499l510 -502h-389z" />
    <glyph glyph-name="equal" unicode="=" horiz-adv-x="1429" 
d="M252 811v281h928v-281h-928zM252 319v281h928v-281h-928z" />
    <glyph glyph-name="greater" unicode="&#x3e;" horiz-adv-x="1429" 
d="M262 250l510 502l-510 499h389l541 -499l-541 -502h-389z" />
    <glyph glyph-name="question" unicode="?" horiz-adv-x="1208" 
d="M422 0v322h344v-322h-344zM636 1462q224 0 362.5 -119.5t138.5 -304.5q0 -126 -47.5 -196.5t-132 -136.5t-191.5 -119v-146h-344v267q214 130 260 164q96 71 96 145q0 53 -42.5 99t-134.5 46t-149.5 -42.5t-91.5 -139.5l-288 80q46 186 193 294.5t371 108.5z" />
    <glyph glyph-name="at" unicode="@" horiz-adv-x="1644" 
d="M790 518q58 0 106.5 40t51.5 124v16q3 140 -62.5 160.5t-90.5 20.5q-62 0 -112.5 -46.5t-49.5 -136.5t50 -134t107 -44zM1165 575q0 -143 88 -143q119 0 119 262t-156 423t-396 161t-395 -162t-155 -409q0 -161 70.5 -290.5t196.5 -202.5t272 -73t204 22t83 34.5t38.5 21
t16.5 8.5l149 -73q0 -19 -57 -58.5t-148 -82t-263 -42.5q-173 0 -312 55.5t-237.5 153t-154.5 234t-56 293.5q0 215 95.5 387.5t266 270t358.5 97.5t328.5 -57t239.5 -156.5t156 -240t57 -284.5q0 -226 -101.5 -340t-250.5 -114q-82 0 -150.5 49t-85.5 117l-2 2
q-22 -57 -93.5 -106t-148.5 -49q-163 0 -261.5 111.5t-98.5 297.5t104.5 300t276.5 114q72 0 121 -36t63 -64h2v67h217v-498z" />
    <glyph glyph-name="A" unicode="A" horiz-adv-x="1472" 
d="M737 1016h-2q-1 0 -24.5 -77.5t-44.5 -133.5l-103 -279h346l-102 279q-26 71 -47.5 141t-22.5 70zM0 0l573 1434h326l574 -1434h-371l-82 225h-567l-82 -225h-371z" />
    <glyph glyph-name="B" unicode="B" horiz-adv-x="1351" 
d="M504 874h207q69 0 114 38.5t45 97.5t-45 97t-114 38h-207v-271zM504 289h239q85 0 136 45t51 118t-52 116.5t-135 43.5h-239v-323zM160 0v1434h622q189 0 312 -110t123 -269q0 -96 -55 -176t-124 -105v-2q101 -28 176.5 -128.5t75.5 -209.5q0 -191 -129.5 -312.5
t-382.5 -121.5h-618z" />
    <glyph glyph-name="C" unicode="C" horiz-adv-x="1544" 
d="M72 717q0 159 58.5 298t158 237t236.5 154t290 56q209 0 381.5 -103t269.5 -278l-350 -92q-49 61 -132 97t-169 36q-176 0 -280.5 -112t-104.5 -294t107.5 -291.5t277.5 -109.5q102 0 192.5 47t135.5 121l348 -90q-90 -193 -271.5 -307.5t-395.5 -114.5t-383.5 95.5
t-269 267t-99.5 383.5z" />
    <glyph glyph-name="D" unicode="D" horiz-adv-x="1599" 
d="M504 322h282q161 0 272 106t111 284t-112 289t-271 111h-282v-790zM160 0v1434h626q204 0 373 -90t269 -256.5t100 -376.5q0 -158 -58.5 -292t-158.5 -225.5t-236 -142.5t-289 -51h-626z" />
    <glyph glyph-name="E" unicode="E" horiz-adv-x="1357" 
d="M160 0v1434h1042v-322h-698v-235h547v-302h-547v-253h710v-322h-1054z" />
    <glyph glyph-name="F" unicode="F" horiz-adv-x="1253" 
d="M160 0v1434h1022v-322h-678v-281h526v-309h-526v-522h-344z" />
    <glyph glyph-name="G" unicode="G" horiz-adv-x="1622" 
d="M1206 117h-2q-62 -66 -171.5 -106t-217.5 -40q-204 0 -374 95.5t-269.5 267t-99.5 383.5q0 159 58.5 298t158 237t236.5 154t290 56q207 0 380 -102.5t271 -278.5l-350 -92q-51 61 -133 97t-168 36q-176 0 -280.5 -112t-104.5 -296t113.5 -295.5t285.5 -111.5t258 69.5
t119 155.5v3h-377v276h670v-811h-295v12l2 102v3z" />
    <glyph glyph-name="H" unicode="H" horiz-adv-x="1544" 
d="M160 0v1434h344v-555h536v555h344v-1434h-344v557h-536v-557h-344z" />
    <glyph glyph-name="I" unicode="I" horiz-adv-x="663" 
d="M160 0v1434h344v-1434h-344z" />
    <glyph glyph-name="J" unicode="J" horiz-adv-x="1390" 
d="M612 293q141 0 221 89t80 243v809h344v-797q0 -211 -82.5 -362.5t-227.5 -227.5t-341 -76t-358 103t-228 264l338 90q77 -135 254 -135z" />
    <glyph glyph-name="K" unicode="K" horiz-adv-x="1501" 
d="M502 893q1 0 35 37.5t153 156.5l348 347h422l-608 -611l612 -823h-405l-434 596l-121 -121v-475h-344v1434h344v-234l-4 -307h2z" />
    <glyph glyph-name="L" unicode="L" horiz-adv-x="1222" 
d="M160 0v1434h344v-1112h678v-322h-1022z" />
    <glyph glyph-name="M" unicode="M" horiz-adv-x="1751" 
d="M160 0v1434h323l269 -435q80 -129 100.5 -167.5t21.5 -38.5h3q1 0 21.5 38.5t100.5 167.5l269 435h323v-1434h-338v350q0 228 9 457l2 51h-2q-3 0 -64.5 -106.5t-64.5 -110.5l-168 -287h-179l-168 287q-3 4 -64.5 110.5t-64.5 106.5h-2l2 -51q9 -230 9 -457v-350h-338z
" />
    <glyph glyph-name="N" unicode="N" horiz-adv-x="1605" 
d="M502 852v-69l2 -466v-317h-344v1434h323l305 -410q60 -80 186.5 -256t127.5 -176h2v76l-2 438v328h344v-1434h-324l-293 399q-55 76 -189.5 264.5t-135.5 188.5h-2z" />
    <glyph glyph-name="O" unicode="O" 
d="M430 718q0 -182 106 -294.5t280 -112.5t280 112.5t106 294.5t-106 293t-280 111t-280 -111t-106 -293zM72 717q0 159 58.5 298t158 237t236.5 154t315 56t349 -95t271.5 -266.5t100.5 -383.5q0 -159 -59 -298.5t-159.5 -237t-237.5 -154t-315 -56.5t-348.5 95.5t-270 267
t-99.5 383.5z" />
    <glyph glyph-name="P" unicode="P" horiz-adv-x="1333" 
d="M504 772h196q100 0 156.5 45t56.5 125t-56.5 125t-156.5 45h-196v-340zM160 0v1434h547q264 0 414.5 -131t150.5 -361t-150.5 -360.5t-414.5 -130.5h-203v-451h-344z" />
    <glyph glyph-name="Q" unicode="Q" 
d="M430 718q0 -182 106 -294.5t280 -112.5t280 112.5t106 294.5t-106 293t-280 111t-280 -111t-106 -293zM72 717q0 159 58.5 298t158 237t236.5 154t315 56t349 -95t271.5 -266.5t100.5 -383.5q0 -274 -162.5 -473t-415.5 -254v-260h-344v262q-249 57 -408 255t-159 470z
" />
    <glyph glyph-name="R" unicode="R" horiz-adv-x="1392" 
d="M504 772h237q85 0 128.5 51.5t43.5 118.5t-43.5 118.5t-128.5 51.5h-237v-340zM160 0v1434h534q268 0 423 -134.5t155 -357.5q0 -144 -66.5 -249.5t-191.5 -164.5l317 -528h-385l-266 467h-176v-467h-344z" />
    <glyph glyph-name="S" unicode="S" horiz-adv-x="1257" 
d="M652 276q98 0 144 35.5t46 91.5q0 75 -82 112t-167 66t-130 47t-82 34t-100 51.5t-123 116t-60 206.5q0 171 154.5 298.5t369.5 127.5t367.5 -110.5t204.5 -282.5l-332 -90q-25 90 -95.5 138t-148.5 48t-121.5 -31.5t-43.5 -74.5t26.5 -64.5t42 -32.5t52 -25.5
t56.5 -22.5t69 -25t95 -34t145 -63t183 -140t84 -232q0 -198 -155 -323.5t-390 -125.5t-391.5 115t-228.5 320l330 88q31 -90 107 -154t174 -64z" />
    <glyph glyph-name="T" unicode="T" horiz-adv-x="1251" 
d="M20 1112v322h1211v-322h-436v-1112h-344v1112h-431z" />
    <glyph glyph-name="U" unicode="U" horiz-adv-x="1531" 
d="M766 293q289 0 289 352v789h344v-797q0 -317 -171.5 -491.5t-461.5 -174.5t-461.5 174.5t-171.5 491.5v797h344v-789q0 -352 289 -352z" />
    <glyph glyph-name="V" unicode="V" horiz-adv-x="1472" 
d="M735 381h2q1 0 17.5 61.5t64.5 200.5l277 791h377l-551 -1434h-371l-551 1434h377l276 -791q48 -139 64.5 -200.5t17.5 -61.5z" />
    <glyph glyph-name="W" unicode="W" horiz-adv-x="2152" 
d="M643 526q1 0 16.5 57.5t57.5 174.5l198 540h322l199 -540q37 -105 54.5 -168.5t18.5 -63.5h2q1 0 22 88t36 144l176 676h366l-434 -1434h-323l-213 662q-35 109 -49 175t-15 66h-2l-6 -29q-23 -105 -57 -212l-213 -662h-324l-434 1434h367l176 -676q15 -57 35.5 -144.5
t21.5 -87.5h2z" />
    <glyph glyph-name="X" unicode="X" horiz-adv-x="1411" 
d="M707 1012q1 0 28.5 52t48.5 89l172 281h414l-459 -703l480 -731h-410l-168 256q-7 12 -56 97t-50 85h-2q-1 0 -50.5 -85t-56.5 -97l-168 -256h-410l480 731l-459 703h414l172 -281q8 -14 42.5 -77.5t35.5 -63.5h2z" />
    <glyph glyph-name="Y" unicode="Y" horiz-adv-x="1480" 
d="M739 946h2q3 0 74 105l260 383h385l-549 -799v-635h-342v635l-549 799h386l260 -383q71 -105 73 -105z" />
    <glyph glyph-name="Z" unicode="Z" horiz-adv-x="1458" 
d="M1335 322v-322h-1212v322l639 671q41 44 87 83t46 40l-2 2h-15q-90 -6 -208 -6h-527v322h1192v-322l-610 -657q-54 -58 -93.5 -97.5t-39.5 -40.5l2 -2l6 1l217 6h518z" />
    <glyph glyph-name="bracketleft" unicode="[" horiz-adv-x="798" 
d="M160 -311v2064h618v-321h-274v-1422h274v-321h-618z" />
    <glyph glyph-name="backslash" unicode="\" horiz-adv-x="1062" 
d="M0 1434h330l733 -1434h-358z" />
    <glyph glyph-name="bracketright" unicode="]" horiz-adv-x="798" 
d="M20 10h275v1422h-275v321h619v-2064h-619v321z" />
    <glyph glyph-name="asciicircum" unicode="^" horiz-adv-x="1277" 
d="M160 977l479 481l479 -481l-147 -129l-332 342l-332 -342z" />
    <glyph glyph-name="underscore" unicode="_" horiz-adv-x="1603" 
d="M160 0h1284v-272h-1284v272z" />
    <glyph glyph-name="grave" unicode="`" horiz-adv-x="657" 
d="M-8 1700l117 231l489 -262l-98 -180z" />
    <glyph glyph-name="a" unicode="a" horiz-adv-x="1472" 
d="M737 1016h-2q-1 0 -24.5 -77.5t-44.5 -133.5l-103 -279h346l-102 279q-26 71 -47.5 141t-22.5 70zM0 0l573 1434h326l574 -1434h-371l-82 225h-567l-82 -225h-371z" />
    <glyph glyph-name="b" unicode="b" horiz-adv-x="1351" 
d="M504 874h207q69 0 114 38.5t45 97.5t-45 97t-114 38h-207v-271zM504 289h239q85 0 136 45t51 118t-52 116.5t-135 43.5h-239v-323zM160 0v1434h622q189 0 312 -110t123 -269q0 -96 -55 -176t-124 -105v-2q101 -28 176.5 -128.5t75.5 -209.5q0 -191 -129.5 -312.5
t-382.5 -121.5h-618z" />
    <glyph glyph-name="c" unicode="c" horiz-adv-x="1544" 
d="M72 717q0 159 58.5 298t158 237t236.5 154t290 56q209 0 381.5 -103t269.5 -278l-350 -92q-49 61 -132 97t-169 36q-176 0 -280.5 -112t-104.5 -294t107.5 -291.5t277.5 -109.5q102 0 192.5 47t135.5 121l348 -90q-90 -193 -271.5 -307.5t-395.5 -114.5t-383.5 95.5
t-269 267t-99.5 383.5z" />
    <glyph glyph-name="d" unicode="d" horiz-adv-x="1599" 
d="M504 322h282q161 0 272 106t111 284t-112 289t-271 111h-282v-790zM160 0v1434h626q204 0 373 -90t269 -256.5t100 -376.5q0 -158 -58.5 -292t-158.5 -225.5t-236 -142.5t-289 -51h-626z" />
    <glyph glyph-name="e" unicode="e" horiz-adv-x="1357" 
d="M160 0v1434h1042v-322h-698v-235h547v-302h-547v-253h710v-322h-1054z" />
    <glyph glyph-name="f" unicode="f" horiz-adv-x="1253" 
d="M160 0v1434h1022v-322h-678v-281h526v-309h-526v-522h-344z" />
    <glyph glyph-name="g" unicode="g" horiz-adv-x="1622" 
d="M1206 117h-2q-62 -66 -171.5 -106t-217.5 -40q-204 0 -374 95.5t-269.5 267t-99.5 383.5q0 159 58.5 298t158 237t236.5 154t290 56q207 0 380 -102.5t271 -278.5l-350 -92q-51 61 -133 97t-168 36q-176 0 -280.5 -112t-104.5 -296t113.5 -295.5t285.5 -111.5t258 69.5
t119 155.5v3h-377v276h670v-811h-295v12l2 102v3z" />
    <glyph glyph-name="h" unicode="h" horiz-adv-x="1544" 
d="M160 0v1434h344v-555h536v555h344v-1434h-344v557h-536v-557h-344z" />
    <glyph glyph-name="i" unicode="i" horiz-adv-x="663" 
d="M160 0v1434h344v-1434h-344z" />
    <glyph glyph-name="j" unicode="j" horiz-adv-x="1390" 
d="M612 293q141 0 221 89t80 243v809h344v-797q0 -211 -82.5 -362.5t-227.5 -227.5t-341 -76t-358 103t-228 264l338 90q77 -135 254 -135z" />
    <glyph glyph-name="k" unicode="k" horiz-adv-x="1501" 
d="M502 893q1 0 35 37.5t153 156.5l348 347h422l-608 -611l612 -823h-405l-434 596l-121 -121v-475h-344v1434h344v-234l-4 -307h2z" />
    <glyph glyph-name="l" unicode="l" horiz-adv-x="1222" 
d="M160 0v1434h344v-1112h678v-322h-1022z" />
    <glyph glyph-name="m" unicode="m" horiz-adv-x="1751" 
d="M160 0v1434h323l269 -435q80 -129 100.5 -167.5t21.5 -38.5h3q1 0 21.5 38.5t100.5 167.5l269 435h323v-1434h-338v350q0 228 9 457l2 51h-2q-3 0 -64.5 -106.5t-64.5 -110.5l-168 -287h-179l-168 287q-3 4 -64.5 110.5t-64.5 106.5h-2l2 -51q9 -230 9 -457v-350h-338z
" />
    <glyph glyph-name="n" unicode="n" horiz-adv-x="1605" 
d="M502 852v-69l2 -466v-317h-344v1434h323l305 -410q60 -80 186.5 -256t127.5 -176h2v76l-2 438v328h344v-1434h-324l-293 399q-55 76 -189.5 264.5t-135.5 188.5h-2z" />
    <glyph glyph-name="o" unicode="o" 
d="M430 718q0 -182 106 -294.5t280 -112.5t280 112.5t106 294.5t-106 293t-280 111t-280 -111t-106 -293zM72 717q0 159 58.5 298t158 237t236.5 154t315 56t349 -95t271.5 -266.5t100.5 -383.5q0 -159 -59 -298.5t-159.5 -237t-237.5 -154t-315 -56.5t-348.5 95.5t-270 267
t-99.5 383.5z" />
    <glyph glyph-name="p" unicode="p" horiz-adv-x="1333" 
d="M504 772h196q100 0 156.5 45t56.5 125t-56.5 125t-156.5 45h-196v-340zM160 0v1434h547q264 0 414.5 -131t150.5 -361t-150.5 -360.5t-414.5 -130.5h-203v-451h-344z" />
    <glyph glyph-name="q" unicode="q" 
d="M430 718q0 -182 106 -294.5t280 -112.5t280 112.5t106 294.5t-106 293t-280 111t-280 -111t-106 -293zM72 717q0 159 58.5 298t158 237t236.5 154t315 56t349 -95t271.5 -266.5t100.5 -383.5q0 -274 -162.5 -473t-415.5 -254v-260h-344v262q-249 57 -408 255t-159 470z
" />
    <glyph glyph-name="r" unicode="r" horiz-adv-x="1392" 
d="M504 772h237q85 0 128.5 51.5t43.5 118.5t-43.5 118.5t-128.5 51.5h-237v-340zM160 0v1434h534q268 0 423 -134.5t155 -357.5q0 -144 -66.5 -249.5t-191.5 -164.5l317 -528h-385l-266 467h-176v-467h-344z" />
    <glyph glyph-name="s" unicode="s" horiz-adv-x="1257" 
d="M652 276q98 0 144 35.5t46 91.5q0 75 -82 112t-167 66t-130 47t-82 34t-100 51.5t-123 116t-60 206.5q0 171 154.5 298.5t369.5 127.5t367.5 -110.5t204.5 -282.5l-332 -90q-25 90 -95.5 138t-148.5 48t-121.5 -31.5t-43.5 -74.5t26.5 -64.5t42 -32.5t52 -25.5
t56.5 -22.5t69 -25t95 -34t145 -63t183 -140t84 -232q0 -198 -155 -323.5t-390 -125.5t-391.5 115t-228.5 320l330 88q31 -90 107 -154t174 -64z" />
    <glyph glyph-name="t" unicode="t" horiz-adv-x="1251" 
d="M20 1112v322h1211v-322h-436v-1112h-344v1112h-431z" />
    <glyph glyph-name="u" unicode="u" horiz-adv-x="1531" 
d="M766 293q289 0 289 352v789h344v-797q0 -317 -171.5 -491.5t-461.5 -174.5t-461.5 174.5t-171.5 491.5v797h344v-789q0 -352 289 -352z" />
    <glyph glyph-name="v" unicode="v" horiz-adv-x="1472" 
d="M735 381h2q1 0 17.5 61.5t64.5 200.5l277 791h377l-551 -1434h-371l-551 1434h377l276 -791q48 -139 64.5 -200.5t17.5 -61.5z" />
    <glyph glyph-name="w" unicode="w" horiz-adv-x="2152" 
d="M643 526q1 0 16.5 57.5t57.5 174.5l198 540h322l199 -540q37 -105 54.5 -168.5t18.5 -63.5h2q1 0 22 88t36 144l176 676h366l-434 -1434h-323l-213 662q-35 109 -49 175t-15 66h-2l-6 -29q-23 -105 -57 -212l-213 -662h-324l-434 1434h367l176 -676q15 -57 35.5 -144.5
t21.5 -87.5h2z" />
    <glyph glyph-name="x" unicode="x" horiz-adv-x="1411" 
d="M707 1012q1 0 28.5 52t48.5 89l172 281h414l-459 -703l480 -731h-410l-168 256q-7 12 -56 97t-50 85h-2q-1 0 -50.5 -85t-56.5 -97l-168 -256h-410l480 731l-459 703h414l172 -281q8 -14 42.5 -77.5t35.5 -63.5h2z" />
    <glyph glyph-name="y" unicode="y" horiz-adv-x="1480" 
d="M739 946h2q3 0 74 105l260 383h385l-549 -799v-635h-342v635l-549 799h386l260 -383q71 -105 73 -105z" />
    <glyph glyph-name="z" unicode="z" horiz-adv-x="1458" 
d="M1335 322v-322h-1212v322l639 671q41 44 87 83t46 40l-2 2h-15q-90 -6 -208 -6h-527v322h1192v-322l-610 -657q-54 -58 -93.5 -97.5t-39.5 -40.5l2 -2l6 1l217 6h518z" />
    <glyph glyph-name="braceleft" unicode="{" horiz-adv-x="929" 
d="M291 1036v197q0 255 160 410t458 155v-321q-116 0 -195 -56.5t-79 -249.5v-120q0 -205 -47.5 -267.5t-63.5 -62.5q16 0 63.5 -62.5t47.5 -267.5v-121q0 -216 89.5 -260.5t184.5 -44.5v-321q-298 0 -458 155t-160 410v197q0 154 -42.5 224.5t-74.5 85.5l-14 5
q84 34 107.5 136t23.5 179z" />
    <glyph glyph-name="bar" unicode="|" horiz-adv-x="589" 
d="M160 -152v1739h270v-1739h-270z" />
    <glyph glyph-name="braceright" unicode="}" horiz-adv-x="929" 
d="M20 -35q156 0 215.5 77.5t59.5 227.5v121q0 205 47.5 267.5t63.5 62.5q-16 0 -63.5 62.5t-47.5 267.5v120q0 217 -90 261.5t-185 44.5v321q303 0 461 -156.5t158 -408.5v-197q0 -202 54.5 -254t76.5 -61q-43 -15 -87 -88t-44 -227v-197q0 -252 -158 -408.5t-461 -156.5
v321z" />
    <glyph glyph-name="asciitilde" unicode="~" horiz-adv-x="1429" 
d="M484 891q116 0 249.5 -63.5t181.5 -63.5q89 0 115.5 41t26.5 86l284 -76q-26 -181 -148.5 -242t-212.5 -61q-89 0 -176.5 32t-158.5 63.5t-113 31.5q-82 0 -109.5 -40t-27.5 -85l-280 76q30 220 169 260.5t200 40.5z" />
    <glyph glyph-name="uni00A0" unicode="&#xa0;" horiz-adv-x="512" 
 />
    <glyph glyph-name="exclamdown" unicode="&#xa1;" horiz-adv-x="663" 
d="M160 1112v322h344v-322h-344zM160 0v993h344v-993h-344z" />
    <glyph glyph-name="cent" unicode="&#xa2;" horiz-adv-x="1191" 
d="M72 707q0 196 115.5 342.5t293.5 193.5v219h275v-217q123 -29 220 -108.5t148 -192.5l-301 -78q-74 99 -192 99t-181 -68.5t-63 -189.5t63 -189.5t173 -68.5q151 0 215 131l301 -82q-47 -123 -149 -211t-234 -119v-197h-275v199q-178 47 -293.5 194t-115.5 343z" />
    <glyph glyph-name="sterling" unicode="&#xa3;" horiz-adv-x="1331" 
d="M872 322h381v-322h-1093v322q83 15 108.5 59.5t16.5 142.5l-2 31h-123v268h96l-16 172q-12 121 53 229t251.5 211.5t373.5 1t251.5 -185.5t90.5 -192l-289 -80q-30 88 -88.5 136t-140.5 44t-124 -61.5t-34 -134.5l14 -140h385v-268h-360q18 -178 -64 -242l2 -2l8 1
q8 0 22.5 1t34 2t73.5 4t173 3z" />
    <glyph glyph-name="currency" unicode="&#xa4;" horiz-adv-x="1372" 
d="M432 696q0 -114 73 -185t181 -71t181 71t73 185t-74 186t-180 72t-180 -72t-74 -186zM680 1251q168 0 313 -92l140 139l167 -168l-141 -141q86 -134 86 -298t-92 -306l135 -135l-168 -168l-137 137q-138 -88 -300 -88t-296 86l-135 -135l-168 168l133 133
q-92 145 -92 307t86 301l-139 139l168 168l139 -139q133 92 301 92z" />
    <glyph glyph-name="yen" unicode="&#xa5;" horiz-adv-x="1478" 
d="M739 946h2q3 0 74 105l260 383h385l-319 -465h178v-221h-330l-43 -62h373v-221h-408v-465h-342v465h-405v221h371l-43 62h-328v221h176l-320 465h386l260 -383q71 -105 73 -105z" />
    <glyph glyph-name="brokenbar" unicode="&#xa6;" horiz-adv-x="589" 
d="M160 1014v573h270v-573h-270zM160 -152v594h270v-594h-270z" />
    <glyph glyph-name="section" unicode="&#xa7;" horiz-adv-x="1091" 
d="M373 759q0 -28 6.5 -41.5t21.5 -24t31 -18.5t42.5 -16t47.5 -13.5t55.5 -14t57.5 -15.5q104 19 104 103q0 70 -72 89.5t-96.5 26.5t-72.5 17q-56 -8 -90.5 -36.5t-34.5 -56.5zM86 731q0 133 162 209q-154 81 -154 223q0 120 130 209.5t310 89.5t307.5 -74.5t174.5 -189.5
l-275 -74q-22 64 -80.5 96.5t-126.5 32.5t-104.5 -21.5t-36.5 -49.5t12.5 -45.5t42 -30t56 -20.5t76.5 -21t104 -29q129 -38 236.5 -109t107.5 -194q0 -148 -164 -203q176 -96 176 -238t-133 -231.5t-335 -89.5t-335 79t-196 220l278 74q29 -65 94.5 -110.5t149.5 -45.5
t124 26t40 54t-8 43t-25.5 27t-36.5 21.5t-50.5 19.5t-58 17.5t-69.5 20t-85 25.5t-114 40.5t-133 88.5t-61 160z" />
    <glyph glyph-name="dieresis" unicode="&#xa8;" horiz-adv-x="911" 
d="M545 1722q0 63 43.5 107.5t107.5 44.5t108 -44.5t44 -107.5t-44 -106t-108 -43t-107.5 43t-43.5 106zM-8 1722q0 63 44 107.5t108 44.5t107.5 -44.5t43.5 -107.5t-43.5 -106t-107.5 -43t-108 43t-44 106z" />
    <glyph glyph-name="copyright" unicode="&#xa9;" 
d="M473 719q0 147 101 246.5t243 99.5q102 0 187.5 -54.5t125.5 -142.5l-192 -51q-45 57 -116 57t-109.5 -41t-38.5 -113t38 -114.5t116 -42.5t118 78l193 -53q-35 -96 -124.5 -155.5t-214.5 -59.5t-226 99.5t-101 246.5zM324 718q0 -223 138 -366t353 -143t354.5 143.5
t139.5 365.5t-138.5 366.5t-354.5 144.5t-354 -144t-138 -367zM72 717q0 159 58.5 298t158 237t236.5 154t315 56t349 -95t271.5 -266.5t100.5 -383.5q0 -159 -59 -298.5t-159.5 -237t-237.5 -154t-315 -56.5t-348.5 95.5t-270 267t-99.5 383.5z" />
    <glyph glyph-name="ordfeminine" unicode="&#xaa;" horiz-adv-x="753" 
d="M377 1262h-2q-1 0 -10.5 -56.5t-30.5 -128.5l-15 -49h111l-14 49q-22 75 -30 130t-9 55zM41 768l240 682h190l242 -682h-209l-31 106h-197l-30 -106h-205zM41 436v205h672v-205h-672z" />
    <glyph glyph-name="guillemotleft" unicode="&#xab;" horiz-adv-x="1624" 
d="M795 721l483 479l184 -186l-307 -293l309 -293l-188 -188zM160 721l483 479l184 -186l-307 -293l309 -293l-188 -188z" />
    <glyph glyph-name="uni00AD" unicode="&#xad;" horiz-adv-x="1247" 
d="M160 586v280h927v-280h-927z" />
    <glyph glyph-name="registered" unicode="&#xae;" 
d="M750 758h94q29 0 47 20t18 46t-18 46.5t-47 20.5h-94v-133zM565 379v680h254q127 0 200 -62.5t73 -167.5q0 -135 -119 -190l155 -260h-196l-125 229h-57v-229h-185zM324 718q0 -223 138 -366t353 -143t354.5 143.5t139.5 365.5t-138.5 366.5t-354.5 144.5t-354 -144
t-138 -367zM72 717q0 159 58.5 298t158 237t236.5 154t315 56t349 -95t271.5 -266.5t100.5 -383.5q0 -159 -59 -298.5t-159.5 -237t-237.5 -154t-315 -56.5t-348.5 95.5t-270 267t-99.5 383.5z" />
    <glyph glyph-name="macron" unicode="&#xaf;" horiz-adv-x="679" 
d="M-49 1364v264h711v-264h-711z" />
    <glyph glyph-name="degree" unicode="&#xb0;" horiz-adv-x="690" 
d="M238 1472q0 -45 32.5 -77.5t77.5 -32.5t78 32.5t33 77.5t-33 78t-78 33t-77.5 -33t-32.5 -78zM37 1468q0 126 91.5 217t217.5 91t216.5 -91t90.5 -217t-90.5 -216.5t-216.5 -90.5t-217.5 90.5t-91.5 216.5z" />
    <glyph glyph-name="plusminus" unicode="&#xb1;" horiz-adv-x="1429" 
d="M252 586v280h313v330h299v-330h316v-280h-314v-187h-299v187h-315zM252 -18v280h928v-280h-928z" />
    <glyph glyph-name="uni00B2" unicode="&#xb2;" horiz-adv-x="696" 
d="M551 1163h90v-190h-594v143l250 215q28 22 31 25l27 24q24 22 28.5 27.5t15 17.5t14 19.5t10.5 21.5t7 44t-23 50.5t-55 20.5q-60 0 -84 -40.5t-35 -74.5l-192 52q22 103 107.5 183.5t207.5 80.5t205.5 -80t83.5 -198t-121 -224q-63 -57 -128.5 -93.5t-65.5 -37.5l2 -2
q96 16 219 16z" />
    <glyph glyph-name="uni00B3" unicode="&#xb3;" horiz-adv-x="716" 
d="M362 1141q43 0 70 22.5t27 58.5t-29 58.5t-74 22.5h-71v151h71q36 0 62 22.5t26 52.5t-25 50t-67 20q-86 0 -116 -100l-183 49q23 107 106 170.5t209 63.5t204.5 -67.5t78.5 -155.5t-52 -133.5t-105 -45.5v-2q69 -2 120.5 -45t51.5 -121q0 -110 -86.5 -183t-210.5 -73
t-215 66t-113 166l186 51q22 -98 135 -98z" />
    <glyph glyph-name="acute" unicode="&#xb4;" horiz-adv-x="657" 
d="M-8 1669l489 262l117 -231l-508 -211z" />
    <glyph glyph-name="paragraph" unicode="&#xb6;" horiz-adv-x="1685" 
d="M72 1004q0 203 138 316.5t384 113.5h932v-1434h-344v1110h-172v-1110h-324v573h-92q-246 0 -384 114t-138 317z" />
    <glyph glyph-name="periodcentered" unicode="&#xb7;" horiz-adv-x="567" 
d="M123 730q0 66 47.5 113.5t113.5 47.5t113 -47.5t47 -113.5t-47 -113.5t-113 -47.5t-113.5 47.5t-47.5 113.5z" />
    <glyph glyph-name="cedilla" unicode="&#xb8;" horiz-adv-x="550" 
d="M305 -334q0 43 -59 47h-219l98 287h186l-43 -115q91 2 157.5 -58t66.5 -149t-49.5 -163t-196.5 -74h-254l69 178h185q59 0 59 47z" />
    <glyph glyph-name="uni00B9" unicode="&#xb9;" horiz-adv-x="542" 
d="M262 1337q0 42 12 150h-2q-1 0 -19 -24.5t-54 -57.5l-41 -37l-138 121l306 276h155v-792h-219v364z" />
    <glyph glyph-name="ordmasculine" unicode="&#xba;" horiz-adv-x="743" 
d="M225 1107q0 -68 41.5 -111.5t105.5 -43.5t105 43t41 111t-41 112t-105 44t-105.5 -43.5t-41.5 -111.5zM41 436v205h661v-205h-661zM20 1106q0 152 101.5 252t249.5 100t250 -100t102 -252t-102 -251t-250 -99t-249.5 99t-101.5 251z" />
    <glyph glyph-name="guillemotright" unicode="&#xbb;" horiz-adv-x="1624" 
d="M795 428l309 293l-307 293l184 186l483 -479l-481 -481zM160 428l309 293l-307 293l184 186l483 -479l-481 -481z" />
    <glyph glyph-name="onequarter" unicode="&#xbc;" horiz-adv-x="1525" 
d="M1196 311v115q0 37 2 63v13h-2q-1 0 -14 -17.5t-21 -25.5l-94 -109q-17 -20 -28 -31t-11 -12l2 -2l6 1l80 5h80zM809 135v150l414 508h168v-478h84v-180h-84v-135h-195v135h-387zM133 0l1028 1434h221l-1028 -1434h-221zM262 1006q0 41 12 149h-2q-1 0 -19 -24.5
t-54 -57.5l-41 -37l-138 121l306 277h155v-793h-219v365z" />
    <glyph glyph-name="onehalf" unicode="&#xbd;" horiz-adv-x="1587" 
d="M1442 190h90v-190h-594v143l250 215q78 66 106 99t27 71q0 38 -23.5 59t-55.5 21q-60 0 -83 -39t-35 -75l-192 51q22 103 108 183.5t208 80.5t205 -79t83 -198t-121 -225q-63 -57 -128.5 -93.5t-65.5 -37.5l2 -2q96 16 219 16zM133 0l1028 1434h221l-1028 -1434h-221z
M262 1006q0 41 12 149h-2q-1 0 -19 -24.5t-54 -57.5l-41 -37l-138 121l306 277h155v-793h-219v365z" />
    <glyph glyph-name="threequarters" unicode="&#xbe;" horiz-adv-x="1648" 
d="M1319 311v115l1 63l1 13h-2q-1 0 -14 -17.5t-21 -25.5l-94 -109q-16 -19 -27.5 -30.5t-11.5 -12.5l2 -2l5 1l81 5h80zM932 135v150l414 508h167v-478h84v-180h-84v-135h-194v135h-387zM256 0l1028 1434h221l-1028 -1434h-221zM362 809q43 0 70 22.5t27 58.5t-29 58.5
t-74 22.5h-71v151h71q36 0 62 22.5t26 52.5t-25 50.5t-67 20.5t-70.5 -22t-45.5 -79l-183 50q23 106 106 169.5t209 63.5t204.5 -67.5t78.5 -155.5t-52 -133t-105 -45v-2q69 -2 120.5 -45t51.5 -121q0 -110 -86.5 -183t-210.5 -73t-215 65.5t-113 165.5l186 51
q22 -98 135 -98z" />
    <glyph glyph-name="questiondown" unicode="&#xbf;" horiz-adv-x="1208" 
d="M442 1112v322h344v-322h-344zM72 395q0 87 25 153.5t88.5 124t106 85.5t94.5 58t56 32v145h344v-266q-16 -11 -126 -77t-160 -107q-122 -121 -53.5 -196t160.5 -75t149.5 43t91.5 140l289 -80q-46 -186 -193 -295t-371 -109t-362.5 119.5t-138.5 304.5z" />
    <glyph glyph-name="Agrave" unicode="&#xc0;" horiz-adv-x="1472" 
d="M737 1016h-2q-1 0 -24.5 -77.5t-44.5 -133.5l-103 -279h346l-102 279q-26 71 -47.5 141t-22.5 70zM336 1700l117 231l489 -262l-98 -180zM0 0l573 1434h326l574 -1434h-371l-82 225h-567l-82 -225h-371z" />
    <glyph glyph-name="Aacute" unicode="&#xc1;" horiz-adv-x="1472" 
d="M737 1016h-2q-1 0 -24.5 -77.5t-44.5 -133.5l-103 -279h346l-102 279q-26 71 -47.5 141t-22.5 70zM479 1669l490 262l116 -231l-507 -211zM0 0l573 1434h326l574 -1434h-371l-82 225h-567l-82 -225h-371z" />
    <glyph glyph-name="Acircumflex" unicode="&#xc2;" horiz-adv-x="1472" 
d="M737 1016h-2q-1 0 -24.5 -77.5t-44.5 -133.5l-103 -279h346l-102 279q-26 71 -47.5 141t-22.5 70zM324 1655l403 342l401 -342l-163 -168l-238 196l-238 -196zM0 0l573 1434h326l574 -1434h-371l-82 225h-567l-82 -225h-371z" />
    <glyph glyph-name="Atilde" unicode="&#xc3;" horiz-adv-x="1472" 
d="M737 1016h-2q-1 0 -24.5 -77.5t-44.5 -133.5l-103 -279h346l-102 279q-26 71 -47.5 141t-22.5 70zM238 1554q0 138 91 229t232 91q101 0 185 -63.5t129 -63.5q46 0 71 25t25 63h266q0 -138 -91.5 -228.5t-232.5 -90.5q-99 0 -181.5 63t-130.5 63q-47 0 -72 -25t-25 -63
h-266zM0 0l573 1434h326l574 -1434h-371l-82 225h-567l-82 -225h-371z" />
    <glyph glyph-name="Adieresis" unicode="&#xc4;" horiz-adv-x="1472" 
d="M852 1722q0 63 44 107.5t108 44.5t107.5 -44.5t43.5 -107.5t-43.5 -106t-107.5 -43t-108 43t-44 106zM737 1016h-2q-1 0 -24.5 -77.5t-44.5 -133.5l-103 -279h346l-102 279q-26 71 -47.5 141t-22.5 70zM299 1722q0 63 44.5 107.5t108.5 44.5t107 -44.5t43 -107.5
t-43 -106t-107 -43t-108.5 43t-44.5 106zM0 0l573 1434h326l574 -1434h-371l-82 225h-567l-82 -225h-371z" />
    <glyph glyph-name="Aring" unicode="&#xc5;" horiz-adv-x="1472" 
d="M627 1698q0 -45 32.5 -78t77.5 -33t78 33t33 78t-33 77.5t-78 32.5t-77.5 -32.5t-32.5 -77.5zM737 1016h-2q-1 0 -24.5 -77.5t-44.5 -133.5l-103 -279h346l-102 279q-26 71 -47.5 141t-22.5 70zM426 1694q0 126 92 216.5t218 90.5t216 -90.5t90 -216.5q0 -80 -38.5 -149
t-104.5 -111l574 -1434h-371l-82 225h-567l-82 -225h-371l573 1434q-67 40 -107 109.5t-40 150.5z" />
    <glyph glyph-name="AE" unicode="&#xc6;" horiz-adv-x="2097" 
d="M909 526v586h-137q-2 0 -46.5 -130t-61.5 -177l-101 -279h346zM1942 1434v-322h-699v-235h547v-302h-547v-253h711v-322h-1045v225h-454l-82 -225h-373l575 1434h1367z" />
    <glyph glyph-name="Ccedilla" unicode="&#xc7;" horiz-adv-x="1544" 
d="M895 -334q0 43 -59 47h-220l91 267q-134 18 -251 81t-202 158t-133.5 224t-48.5 281t58.5 291t158 237t236.5 154t290 56q209 0 381.5 -103t269.5 -278l-350 -92q-49 61 -132 97t-169 36q-176 0 -280.5 -112t-104.5 -294t107.5 -291.5t277.5 -109.5q102 0 192.5 47
t135.5 121l348 -90q-83 -175 -242 -287t-358 -131l-33 -90q90 2 156.5 -58t66.5 -159q0 -170 -97.5 -198.5t-147.5 -28.5h-254l69 178h185q59 0 59 47z" />
    <glyph glyph-name="Egrave" unicode="&#xc8;" horiz-adv-x="1357" 
d="M313 1700l117 231l490 -262l-99 -180zM160 0v1434h1042v-322h-698v-235h547v-302h-547v-253h710v-322h-1054z" />
    <glyph glyph-name="Eacute" unicode="&#xc9;" horiz-adv-x="1357" 
d="M457 1669l489 262l117 -231l-508 -211zM160 0v1434h1042v-322h-698v-235h547v-302h-547v-253h710v-322h-1054z" />
    <glyph glyph-name="Ecircumflex" unicode="&#xca;" horiz-adv-x="1357" 
d="M301 1655l404 342l401 -342l-164 -168l-237 196l-238 -196zM160 0v1434h1042v-322h-698v-235h547v-302h-547v-253h710v-322h-1054z" />
    <glyph glyph-name="Edieresis" unicode="&#xcb;" horiz-adv-x="1357" 
d="M829 1722q0 63 43.5 107.5t107.5 44.5t108.5 -44.5t44.5 -107.5t-44.5 -106t-108.5 -43t-107.5 43t-43.5 106zM276 1722q0 63 45 107.5t109 44.5t107 -44.5t43 -107.5t-43.5 -106t-107.5 -43t-108.5 43t-44.5 106zM160 0v1434h1042v-322h-698v-235h547v-302h-547v-253
h710v-322h-1054z" />
    <glyph glyph-name="Igrave" unicode="&#xcc;" horiz-adv-x="663" 
d="M160 0v1434h344v-1434h-344zM-68 1700l117 231l490 -262l-99 -180z" />
    <glyph glyph-name="Iacute" unicode="&#xcd;" horiz-adv-x="663" 
d="M160 0v1434h344v-1434h-344zM76 1669l489 262l117 -231l-508 -211z" />
    <glyph glyph-name="Icircumflex" unicode="&#xce;" horiz-adv-x="663" 
d="M160 0v1434h344v-1434h-344zM-80 1655l404 342l401 -342l-164 -168l-237 196l-238 -196z" />
    <glyph glyph-name="Idieresis" unicode="&#xcf;" horiz-adv-x="663" 
d="M449 1722q0 63 43.5 107.5t107.5 44.5t108 -44.5t44 -107.5t-44 -106t-108 -43t-107.5 43t-43.5 106zM160 0v1434h344v-1434h-344zM-104 1722q0 63 44 107.5t108 44.5t107.5 -44.5t43.5 -107.5t-43.5 -106t-107.5 -43t-108 43t-44 106z" />
    <glyph glyph-name="Eth" unicode="&#xd0;" horiz-adv-x="1628" 
d="M532 322h283q161 0 272 106t111 284t-112 289t-271 111h-283v-233h220v-310h-220v-247zM72 569v310h116v555h627q153 0 289 -53t235.5 -146.5t158 -229.5t58.5 -294q0 -210 -100 -373.5t-268 -250.5t-373 -87h-627v569h-116z" />
    <glyph glyph-name="Ntilde" unicode="&#xd1;" horiz-adv-x="1605" 
d="M305 1554q0 138 91.5 229t232.5 91q99 0 184.5 -63.5t129.5 -63.5q45 0 70 25t25 63h267q0 -138 -91.5 -228.5t-232.5 -90.5q-99 0 -181.5 63t-130.5 63q-47 0 -72.5 -25t-25.5 -63h-266zM504 0h-344v1434h323l305 -410q60 -80 186.5 -256t127.5 -176h2l-2 514v328h344
v-1434h-324l-293 399q-55 76 -189.5 264.5t-135.5 188.5h-2l2 -535v-317z" />
    <glyph glyph-name="Ograve" unicode="&#xd2;" 
d="M430 718q0 -182 106 -294.5t280 -112.5t280 112.5t106 294.5t-106 293t-280 111t-280 -111t-106 -293zM426 1700l117 231l489 -262l-98 -180zM72 717q0 159 58.5 298t158 237t236.5 154t315 56t349 -95t271.5 -266.5t100.5 -383.5q0 -159 -59 -298.5t-159.5 -237
t-237.5 -154t-315 -56.5t-348.5 95.5t-270 267t-99.5 383.5z" />
    <glyph glyph-name="Oacute" unicode="&#xd3;" 
d="M569 1669l490 262l117 -231l-508 -211zM430 718q0 -182 106 -294.5t280 -112.5t280 112.5t106 294.5t-106 293t-280 111t-280 -111t-106 -293zM72 717q0 159 58.5 298t158 237t236.5 154t315 56t349 -95t271.5 -266.5t100.5 -383.5q0 -159 -59 -298.5t-159.5 -237
t-237.5 -154t-315 -56.5t-348.5 95.5t-270 267t-99.5 383.5z" />
    <glyph glyph-name="Ocircumflex" unicode="&#xd4;" 
d="M430 718q0 -182 106 -294.5t280 -112.5t280 112.5t106 294.5t-106 293t-280 111t-280 -111t-106 -293zM414 1655l403 342l402 -342l-164 -168l-238 196l-237 -196zM72 717q0 159 58.5 298t158 237t236.5 154t315 56t349 -95t271.5 -266.5t100.5 -383.5q0 -159 -59 -298.5
t-159.5 -237t-237.5 -154t-315 -56.5t-348.5 95.5t-270 267t-99.5 383.5z" />
    <glyph glyph-name="Otilde" unicode="&#xd5;" 
d="M430 718q0 -182 106 -294.5t280 -112.5t280 112.5t106 294.5t-106 293t-280 111t-280 -111t-106 -293zM328 1554q0 138 91 229t232 91q101 0 185 -63.5t129 -63.5q46 0 71 25t25 63h266q0 -138 -91 -228.5t-232 -90.5q-98 0 -182 63t-131 63t-72 -25t-25 -63h-266z
M72 717q0 159 58.5 298t158 237t236.5 154t315 56t349 -95t271.5 -266.5t100.5 -383.5q0 -159 -59 -298.5t-159.5 -237t-237.5 -154t-315 -56.5t-348.5 95.5t-270 267t-99.5 383.5z" />
    <glyph glyph-name="Odieresis" unicode="&#xd6;" 
d="M942 1722q0 63 44 107.5t108 44.5t107.5 -44.5t43.5 -107.5t-43.5 -106t-107.5 -43t-108 43t-44 106zM430 718q0 -182 106 -294.5t280 -112.5t280 112.5t106 294.5t-106 293t-280 111t-280 -111t-106 -293zM389 1722q0 63 44.5 107.5t108.5 44.5t107 -44.5t43 -107.5
t-43 -106t-107 -43t-108.5 43t-44.5 106zM72 717q0 159 58.5 298t158 237t236.5 154t315 56t349 -95t271.5 -266.5t100.5 -383.5q0 -159 -59 -298.5t-159.5 -237t-237.5 -154t-315 -56.5t-348.5 95.5t-270 267t-99.5 383.5z" />
    <glyph glyph-name="multiply" unicode="&#xd7;" horiz-adv-x="1429" 
d="M250 948l229 230l236 -234l237 238l230 -230l-238 -237l236 -238l-230 -229l-235 237l-234 -233l-229 229l233 234z" />
    <glyph glyph-name="Oslash" unicode="&#xd8;" 
d="M815 311q174 0 280.5 112.5t106.5 293.5q0 105 -39 194l-450 -587q54 -13 102 -13zM430 717q0 -115 45 -203l455 594q-49 14 -115 14q-173 0 -279 -111.5t-106 -293.5zM72 717q0 159 58.5 298t158 237t236.5 154t303 56t317 -73l76 98l243 -182l-78 -101
q175 -207 175 -487q0 -159 -59 -298.5t-159.5 -237t-237.5 -154t-297 -56.5t-312 68l-76 -98l-244 184l76 98q-180 205 -180 494z" />
    <glyph glyph-name="Ugrave" unicode="&#xd9;" horiz-adv-x="1531" 
d="M369 1700l116 231l490 -262l-98 -180zM766 293q289 0 289 352v789h344v-797q0 -317 -171.5 -491.5t-461.5 -174.5t-461.5 174.5t-171.5 491.5v797h344v-789q0 -352 289 -352z" />
    <glyph glyph-name="Uacute" unicode="&#xda;" horiz-adv-x="1531" 
d="M512 1669l489 262l117 -231l-508 -211zM766 293q289 0 289 352v789h344v-797q0 -317 -171.5 -491.5t-461.5 -174.5t-461.5 174.5t-171.5 491.5v797h344v-789q0 -352 289 -352z" />
    <glyph glyph-name="Ucircumflex" unicode="&#xdb;" horiz-adv-x="1531" 
d="M356 1655l404 342l401 -342l-164 -168l-237 196l-238 -196zM766 293q289 0 289 352v789h344v-797q0 -317 -171.5 -491.5t-461.5 -174.5t-461.5 174.5t-171.5 491.5v797h344v-789q0 -352 289 -352z" />
    <glyph glyph-name="Udieresis" unicode="&#xdc;" horiz-adv-x="1531" 
d="M885 1722q0 63 43.5 107.5t107.5 44.5t108 -44.5t44 -107.5t-44 -106t-108 -43t-107.5 43t-43.5 106zM332 1722q0 63 44 107.5t108 44.5t107.5 -44.5t43.5 -107.5t-43.5 -106t-107.5 -43t-108 43t-44 106zM766 293q289 0 289 352v789h344v-797q0 -317 -171.5 -491.5
t-461.5 -174.5t-461.5 174.5t-171.5 491.5v797h344v-789q0 -352 289 -352z" />
    <glyph glyph-name="Yacute" unicode="&#xdd;" horiz-adv-x="1480" 
d="M483 1669l490 262l117 -231l-508 -211zM739 946h2q3 0 74 105l260 383h385l-549 -799v-635h-342v635l-549 799h386l260 -383q71 -105 73 -105z" />
    <glyph glyph-name="Thorn" unicode="&#xde;" horiz-adv-x="1331" 
d="M504 547h215q91 0 141.5 47t50.5 123t-50.5 123t-141.5 47h-215v-340zM160 0v1434h344v-226h207q250 0 404.5 -137.5t154.5 -353.5t-154.5 -354t-404.5 -138h-207v-225h-344z" />
    <glyph glyph-name="germandbls" unicode="&#xdf;" horiz-adv-x="1699" 
d="M846 1112h-342v-1112h-344v1434h1331l-201 -381q-100 -195 -100 -203l2 -2h8q171 0 299.5 -123.5t128.5 -305.5t-137.5 -315t-372.5 -133q-163 0 -294.5 75.5t-205.5 201.5l326 88q71 -74 160 -74t133.5 50t44.5 122t-50 119t-140 47h-234v248l60 127q65 138 65 139l-2 2
h-8q-32 -4 -127 -4z" />
    <glyph glyph-name="agrave" unicode="&#xe0;" horiz-adv-x="1472" 
d="M737 1016h-2q-1 0 -24.5 -77.5t-44.5 -133.5l-103 -279h346l-102 279q-26 71 -47.5 141t-22.5 70zM336 1700l117 231l489 -262l-98 -180zM0 0l573 1434h326l574 -1434h-371l-82 225h-567l-82 -225h-371z" />
    <glyph glyph-name="aacute" unicode="&#xe1;" horiz-adv-x="1472" 
d="M737 1016h-2q-1 0 -24.5 -77.5t-44.5 -133.5l-103 -279h346l-102 279q-26 71 -47.5 141t-22.5 70zM479 1669l490 262l116 -231l-507 -211zM0 0l573 1434h326l574 -1434h-371l-82 225h-567l-82 -225h-371z" />
    <glyph glyph-name="acircumflex" unicode="&#xe2;" horiz-adv-x="1472" 
d="M737 1016h-2q-1 0 -24.5 -77.5t-44.5 -133.5l-103 -279h346l-102 279q-26 71 -47.5 141t-22.5 70zM324 1655l403 342l401 -342l-163 -168l-238 196l-238 -196zM0 0l573 1434h326l574 -1434h-371l-82 225h-567l-82 -225h-371z" />
    <glyph glyph-name="atilde" unicode="&#xe3;" horiz-adv-x="1472" 
d="M737 1016h-2q-1 0 -24.5 -77.5t-44.5 -133.5l-103 -279h346l-102 279q-26 71 -47.5 141t-22.5 70zM238 1554q0 138 91 229t232 91q101 0 185 -63.5t129 -63.5q46 0 71 25t25 63h266q0 -138 -91.5 -228.5t-232.5 -90.5q-99 0 -181.5 63t-130.5 63q-47 0 -72 -25t-25 -63
h-266zM0 0l573 1434h326l574 -1434h-371l-82 225h-567l-82 -225h-371z" />
    <glyph glyph-name="adieresis" unicode="&#xe4;" horiz-adv-x="1472" 
d="M852 1722q0 63 44 107.5t108 44.5t107.5 -44.5t43.5 -107.5t-43.5 -106t-107.5 -43t-108 43t-44 106zM737 1016h-2q-1 0 -24.5 -77.5t-44.5 -133.5l-103 -279h346l-102 279q-26 71 -47.5 141t-22.5 70zM299 1722q0 63 44.5 107.5t108.5 44.5t107 -44.5t43 -107.5
t-43 -106t-107 -43t-108.5 43t-44.5 106zM0 0l573 1434h326l574 -1434h-371l-82 225h-567l-82 -225h-371z" />
    <glyph glyph-name="aring" unicode="&#xe5;" horiz-adv-x="1472" 
d="M627 1698q0 -45 32.5 -78t77.5 -33t78 33t33 78t-33 77.5t-78 32.5t-77.5 -32.5t-32.5 -77.5zM737 1016h-2q-1 0 -24.5 -77.5t-44.5 -133.5l-103 -279h346l-102 279q-26 71 -47.5 141t-22.5 70zM426 1694q0 126 92 216.5t218 90.5t216 -90.5t90 -216.5q0 -80 -38.5 -149
t-104.5 -111l574 -1434h-371l-82 225h-567l-82 -225h-371l573 1434q-67 40 -107 109.5t-40 150.5z" />
    <glyph glyph-name="ae" unicode="&#xe6;" horiz-adv-x="2097" 
d="M909 526v586h-137q-2 0 -46.5 -130t-61.5 -177l-101 -279h346zM1942 1434v-322h-699v-235h547v-302h-547v-253h711v-322h-1045v225h-454l-82 -225h-373l575 1434h1367z" />
    <glyph glyph-name="ccedilla" unicode="&#xe7;" horiz-adv-x="1544" 
d="M895 -334q0 43 -59 47h-220l91 267q-134 18 -251 81t-202 158t-133.5 224t-48.5 281t58.5 291t158 237t236.5 154t290 56q209 0 381.5 -103t269.5 -278l-350 -92q-49 61 -132 97t-169 36q-176 0 -280.5 -112t-104.5 -294t107.5 -291.5t277.5 -109.5q102 0 192.5 47
t135.5 121l348 -90q-83 -175 -242 -287t-358 -131l-33 -90q90 2 156.5 -58t66.5 -159q0 -170 -97.5 -198.5t-147.5 -28.5h-254l69 178h185q59 0 59 47z" />
    <glyph glyph-name="egrave" unicode="&#xe8;" horiz-adv-x="1357" 
d="M313 1700l117 231l490 -262l-99 -180zM160 0v1434h1042v-322h-698v-235h547v-302h-547v-253h710v-322h-1054z" />
    <glyph glyph-name="eacute" unicode="&#xe9;" horiz-adv-x="1357" 
d="M457 1669l489 262l117 -231l-508 -211zM160 0v1434h1042v-322h-698v-235h547v-302h-547v-253h710v-322h-1054z" />
    <glyph glyph-name="ecircumflex" unicode="&#xea;" horiz-adv-x="1357" 
d="M301 1655l404 342l401 -342l-164 -168l-237 196l-238 -196zM160 0v1434h1042v-322h-698v-235h547v-302h-547v-253h710v-322h-1054z" />
    <glyph glyph-name="edieresis" unicode="&#xeb;" horiz-adv-x="1357" 
d="M829 1722q0 63 43.5 107.5t107.5 44.5t108.5 -44.5t44.5 -107.5t-44.5 -106t-108.5 -43t-107.5 43t-43.5 106zM276 1722q0 63 45 107.5t109 44.5t107 -44.5t43 -107.5t-43.5 -106t-107.5 -43t-108.5 43t-44.5 106zM160 0v1434h1042v-322h-698v-235h547v-302h-547v-253
h710v-322h-1054z" />
    <glyph glyph-name="igrave" unicode="&#xec;" horiz-adv-x="663" 
d="M160 0v1434h344v-1434h-344zM-68 1700l117 231l490 -262l-99 -180z" />
    <glyph glyph-name="iacute" unicode="&#xed;" horiz-adv-x="663" 
d="M160 0v1434h344v-1434h-344zM76 1669l489 262l117 -231l-508 -211z" />
    <glyph glyph-name="icircumflex" unicode="&#xee;" horiz-adv-x="663" 
d="M160 0v1434h344v-1434h-344zM-80 1655l404 342l401 -342l-164 -168l-237 196l-238 -196z" />
    <glyph glyph-name="idieresis" unicode="&#xef;" horiz-adv-x="663" 
d="M449 1722q0 63 43.5 107.5t107.5 44.5t108 -44.5t44 -107.5t-44 -106t-108 -43t-107.5 43t-43.5 106zM160 0v1434h344v-1434h-344zM-104 1722q0 63 44 107.5t108 44.5t107.5 -44.5t43.5 -107.5t-43.5 -106t-107.5 -43t-108 43t-44 106z" />
    <glyph glyph-name="eth" unicode="&#xf0;" horiz-adv-x="1628" 
d="M532 322h283q161 0 272 106t111 284t-112 289t-271 111h-283v-233h220v-310h-220v-247zM72 569v310h116v555h627q153 0 289 -53t235.5 -146.5t158 -229.5t58.5 -294q0 -210 -100 -373.5t-268 -250.5t-373 -87h-627v569h-116z" />
    <glyph glyph-name="ntilde" unicode="&#xf1;" horiz-adv-x="1605" 
d="M305 1554q0 138 91.5 229t232.5 91q99 0 184.5 -63.5t129.5 -63.5q45 0 70 25t25 63h267q0 -138 -91.5 -228.5t-232.5 -90.5q-99 0 -181.5 63t-130.5 63q-47 0 -72.5 -25t-25.5 -63h-266zM504 0h-344v1434h323l305 -410q60 -80 186.5 -256t127.5 -176h2l-2 514v328h344
v-1434h-324l-293 399q-55 76 -189.5 264.5t-135.5 188.5h-2l2 -535v-317z" />
    <glyph glyph-name="ograve" unicode="&#xf2;" 
d="M430 718q0 -182 106 -294.5t280 -112.5t280 112.5t106 294.5t-106 293t-280 111t-280 -111t-106 -293zM422 1700l117 231l489 -262l-98 -180zM72 717q0 159 58.5 298t158 237t236.5 154t315 56t349 -95t271.5 -266.5t100.5 -383.5q0 -159 -59 -298.5t-159.5 -237
t-237.5 -154t-315 -56.5t-348.5 95.5t-270 267t-99.5 383.5z" />
    <glyph glyph-name="oacute" unicode="&#xf3;" 
d="M565 1669l490 262l116 -231l-507 -211zM430 718q0 -182 106 -294.5t280 -112.5t280 112.5t106 294.5t-106 293t-280 111t-280 -111t-106 -293zM72 717q0 159 58.5 298t158 237t236.5 154t315 56t349 -95t271.5 -266.5t100.5 -383.5q0 -159 -59 -298.5t-159.5 -237
t-237.5 -154t-315 -56.5t-348.5 95.5t-270 267t-99.5 383.5z" />
    <glyph glyph-name="ocircumflex" unicode="&#xf4;" 
d="M430 718q0 -182 106 -294.5t280 -112.5t280 112.5t106 294.5t-106 293t-280 111t-280 -111t-106 -293zM410 1655l403 342l401 -342l-163 -168l-238 196l-238 -196zM72 717q0 159 58.5 298t158 237t236.5 154t315 56t349 -95t271.5 -266.5t100.5 -383.5q0 -159 -59 -298.5
t-159.5 -237t-237.5 -154t-315 -56.5t-348.5 95.5t-270 267t-99.5 383.5z" />
    <glyph glyph-name="otilde" unicode="&#xf5;" 
d="M430 718q0 -182 106 -294.5t280 -112.5t280 112.5t106 294.5t-106 293t-280 111t-280 -111t-106 -293zM324 1554q0 138 91 229t232 91q101 0 185 -63.5t129 -63.5q46 0 71 25t25 63h266q0 -138 -91.5 -228.5t-232.5 -90.5q-99 0 -181.5 63t-130.5 63q-47 0 -72 -25
t-25 -63h-266zM72 717q0 159 58.5 298t158 237t236.5 154t315 56t349 -95t271.5 -266.5t100.5 -383.5q0 -159 -59 -298.5t-159.5 -237t-237.5 -154t-315 -56.5t-348.5 95.5t-270 267t-99.5 383.5z" />
    <glyph glyph-name="odieresis" unicode="&#xf6;" 
d="M938 1722q0 63 44 107.5t108 44.5t107.5 -44.5t43.5 -107.5t-43.5 -106t-107.5 -43t-108 43t-44 106zM430 718q0 -182 106 -294.5t280 -112.5t280 112.5t106 294.5t-106 293t-280 111t-280 -111t-106 -293zM385 1722q0 63 44.5 107.5t108.5 44.5t107 -44.5t43 -107.5
t-43 -106t-107 -43t-108.5 43t-44.5 106zM72 717q0 159 58.5 298t158 237t236.5 154t315 56t349 -95t271.5 -266.5t100.5 -383.5q0 -159 -59 -298.5t-159.5 -237t-237.5 -154t-315 -56.5t-348.5 95.5t-270 267t-99.5 383.5z" />
    <glyph glyph-name="divide" unicode="&#xf7;" horiz-adv-x="1429" 
d="M543 1187q0 67 47.5 114t113.5 47t113 -47t47 -113t-47 -114t-113 -48t-113.5 47t-47.5 114zM543 265q0 67 47.5 114t113.5 47t113 -47t47 -113t-47 -114t-113 -48t-113.5 47t-47.5 114zM252 586v280h928v-280h-928z" />
    <glyph glyph-name="oslash" unicode="&#xf8;" 
d="M815 311q174 0 280.5 112.5t106.5 293.5q0 105 -39 194l-450 -587q54 -13 102 -13zM430 717q0 -115 45 -203l455 594q-49 14 -115 14q-173 0 -279 -111.5t-106 -293.5zM72 717q0 159 58.5 298t158 237t236.5 154t303 56t317 -73l76 98l243 -182l-78 -101
q175 -207 175 -487q0 -159 -59 -298.5t-159.5 -237t-237.5 -154t-297 -56.5t-312 68l-76 -98l-244 184l76 98q-180 205 -180 494z" />
    <glyph glyph-name="ugrave" unicode="&#xf9;" horiz-adv-x="1531" 
d="M369 1700l116 231l490 -262l-98 -180zM766 293q289 0 289 352v789h344v-797q0 -317 -171.5 -491.5t-461.5 -174.5t-461.5 174.5t-171.5 491.5v797h344v-789q0 -352 289 -352z" />
    <glyph glyph-name="uacute" unicode="&#xfa;" horiz-adv-x="1531" 
d="M512 1669l489 262l117 -231l-508 -211zM766 293q289 0 289 352v789h344v-797q0 -317 -171.5 -491.5t-461.5 -174.5t-461.5 174.5t-171.5 491.5v797h344v-789q0 -352 289 -352z" />
    <glyph glyph-name="ucircumflex" unicode="&#xfb;" horiz-adv-x="1531" 
d="M356 1655l404 342l401 -342l-164 -168l-237 196l-238 -196zM766 293q289 0 289 352v789h344v-797q0 -317 -171.5 -491.5t-461.5 -174.5t-461.5 174.5t-171.5 491.5v797h344v-789q0 -352 289 -352z" />
    <glyph glyph-name="udieresis" unicode="&#xfc;" horiz-adv-x="1531" 
d="M885 1722q0 63 43.5 107.5t107.5 44.5t108 -44.5t44 -107.5t-44 -106t-108 -43t-107.5 43t-43.5 106zM332 1722q0 63 44 107.5t108 44.5t107.5 -44.5t43.5 -107.5t-43.5 -106t-107.5 -43t-108 43t-44 106zM766 293q289 0 289 352v789h344v-797q0 -317 -171.5 -491.5
t-461.5 -174.5t-461.5 174.5t-171.5 491.5v797h344v-789q0 -352 289 -352z" />
    <glyph glyph-name="yacute" unicode="&#xfd;" horiz-adv-x="1480" 
d="M485 1669l490 262l117 -231l-508 -211zM739 946h2q3 0 74 105l260 383h385l-549 -799v-635h-342v635l-549 799h386l260 -383q71 -105 73 -105z" />
    <glyph glyph-name="thorn" unicode="&#xfe;" horiz-adv-x="1331" 
d="M504 547h215q91 0 141.5 47t50.5 123t-50.5 123t-141.5 47h-215v-340zM160 0v1434h344v-226h207q250 0 404.5 -137.5t154.5 -353.5t-154.5 -354t-404.5 -138h-207v-225h-344z" />
    <glyph glyph-name="ydieresis" unicode="&#xff;" horiz-adv-x="1480" 
d="M858 1722q0 63 44 107.5t108 44.5t107.5 -44.5t43.5 -107.5t-43.5 -106t-107.5 -43t-108 43t-44 106zM305 1722q0 63 44.5 107.5t108.5 44.5t107 -44.5t43 -107.5t-43 -106t-107 -43t-108.5 43t-44.5 106zM739 946h2q3 0 74 105l260 383h385l-549 -799v-635h-342v635
l-549 799h386l260 -383q71 -105 73 -105z" />
    <glyph glyph-name="OE" unicode="&#x152;" horiz-adv-x="2183" 
d="M430 718q0 -174 99 -280t266 -106q119 0 200 35v700q-74 35 -200 35q-167 0 -266 -105t-99 -279zM72 717q0 208 96.5 374.5t261.5 258.5t365 92q131 0 200 -8h1033v-322h-699v-235h547v-302h-547v-253h711v-322h-1045q-63 -8 -200 -8q-200 0 -365 92t-261.5 258.5
t-96.5 374.5z" />
    <glyph glyph-name="oe" unicode="&#x153;" horiz-adv-x="2183" 
d="M430 718q0 -174 99 -280t266 -106q119 0 200 35v700q-74 35 -200 35q-167 0 -266 -105t-99 -279zM72 717q0 208 96.5 374.5t261.5 258.5t365 92q131 0 200 -8h1033v-322h-699v-235h547v-302h-547v-253h711v-322h-1045q-63 -8 -200 -8q-200 0 -365 92t-261.5 258.5
t-96.5 374.5z" />
    <glyph glyph-name="Ydieresis" unicode="&#x178;" horiz-adv-x="1480" 
d="M856 1722q0 63 44 107.5t108 44.5t107.5 -44.5t43.5 -107.5t-43.5 -106t-107.5 -43t-108 43t-44 106zM303 1722q0 63 44.5 107.5t108.5 44.5t107 -44.5t43 -107.5t-43 -106t-107 -43t-108.5 43t-44.5 106zM739 946h2q3 0 74 105l260 383h385l-549 -799v-635h-342v635
l-549 799h386l260 -383q71 -105 73 -105z" />
    <glyph glyph-name="circumflex" unicode="&#x2c6;" horiz-adv-x="772" 
d="M-51 1655l403 342l402 -342l-164 -168l-238 196l-237 -196z" />
    <glyph glyph-name="tilde" unicode="&#x2dc;" horiz-adv-x="1050" 
d="M-8 1554q0 138 91 229t232 91q101 0 185 -63.5t129 -63.5q46 0 71 25t25 63h266q0 -138 -91 -228.5t-232 -90.5q-98 0 -182 63t-131 63t-72 -25t-25 -63h-266z" />
    <glyph glyph-name="uni2000" unicode="&#x2000;" horiz-adv-x="1000" 
 />
    <glyph glyph-name="uni2001" unicode="&#x2001;" horiz-adv-x="2001" 
 />
    <glyph glyph-name="uni2002" unicode="&#x2002;" horiz-adv-x="1000" 
 />
    <glyph glyph-name="uni2003" unicode="&#x2003;" horiz-adv-x="2001" 
 />
    <glyph glyph-name="uni2004" unicode="&#x2004;" horiz-adv-x="667" 
 />
    <glyph glyph-name="uni2005" unicode="&#x2005;" horiz-adv-x="500" 
 />
    <glyph glyph-name="uni2006" unicode="&#x2006;" horiz-adv-x="333" 
 />
    <glyph glyph-name="uni2007" unicode="&#x2007;" horiz-adv-x="333" 
 />
    <glyph glyph-name="uni2008" unicode="&#x2008;" horiz-adv-x="250" 
 />
    <glyph glyph-name="uni2009" unicode="&#x2009;" horiz-adv-x="400" 
 />
    <glyph glyph-name="uni200A" unicode="&#x200a;" horiz-adv-x="111" 
 />
    <glyph glyph-name="uni2010" unicode="&#x2010;" horiz-adv-x="1247" 
d="M160 586v280h927v-280h-927z" />
    <glyph glyph-name="uni2011" unicode="&#x2011;" horiz-adv-x="1247" 
d="M160 586v280h927v-280h-927z" />
    <glyph glyph-name="figuredash" unicode="&#x2012;" horiz-adv-x="1247" 
d="M160 586v280h927v-280h-927z" />
    <glyph glyph-name="endash" unicode="&#x2013;" horiz-adv-x="1202" 
d="M160 565v322h882v-322h-882z" />
    <glyph glyph-name="emdash" unicode="&#x2014;" horiz-adv-x="2121" 
d="M160 565v322h1802v-322h-1802z" />
    <glyph glyph-name="quoteleft" unicode="&#x2018;" horiz-adv-x="677" 
d="M160 1076q0 87 66.5 195t166.5 187h125q-53 -33 -104.5 -117.5t-51.5 -134.5l-30 -8l30 -4q46 -7 82.5 -46t36.5 -102t-47.5 -110t-114.5 -47t-113 50t-46 137z" />
    <glyph glyph-name="quoteright" unicode="&#x2019;" horiz-adv-x="677" 
d="M197 1301q0 63 46.5 110t114.5 47t114 -50t46 -137t-66.5 -195t-166.5 -187h-125q53 33 104 117.5t51 134.5l31 8l-31 4q-46 7 -82 46t-36 102z" />
    <glyph glyph-name="quotesinglbase" unicode="&#x201a;" horiz-adv-x="677" 
d="M197 142q0 63 46.5 110t114.5 47t114 -50t46 -137t-66.5 -195t-166.5 -187h-125q53 33 104 117.5t51 134.5l31 8l-31 4q-46 7 -82 46t-36 102z" />
    <glyph glyph-name="quotedblleft" unicode="&#x201c;" horiz-adv-x="1148" 
d="M631 1076q0 87 66.5 195t166.5 187h125q-53 -33 -104 -117.5t-51 -134.5l-31 -8l31 -4q46 -7 82 -46t36 -102t-47 -110t-115 -47t-113.5 50t-45.5 137zM160 1076q0 87 66.5 195t166.5 187h125q-53 -33 -104.5 -117.5t-51.5 -134.5l-30 -8l30 -4q46 -7 82.5 -46t36.5 -102
t-47.5 -110t-114.5 -47t-113 50t-46 137z" />
    <glyph glyph-name="quotedblright" unicode="&#x201d;" horiz-adv-x="1148" 
d="M668 1301q0 63 47 110t115 47t113.5 -50t45.5 -137t-66.5 -195t-166.5 -187h-125q53 33 104 117.5t51 134.5l31 8l-31 4q-46 7 -82 46t-36 102zM197 1301q0 63 46.5 110t114.5 47t114 -50t46 -137t-66.5 -195t-166.5 -187h-125q53 33 104 117.5t51 134.5l31 8l-31 4
q-46 7 -82 46t-36 102z" />
    <glyph glyph-name="quotedblbase" unicode="&#x201e;" horiz-adv-x="1148" 
d="M668 142q0 63 47 110t115 47t113.5 -50t45.5 -137t-66.5 -195t-166.5 -187h-125q53 33 104 117.5t51 134.5l31 8l-31 4q-46 7 -82 46t-36 102zM197 142q0 63 46.5 110t114.5 47t114 -50t46 -137t-66.5 -195t-166.5 -187h-125q53 33 104 117.5t51 134.5l31 8l-31 4
q-46 7 -82 46t-36 102z" />
    <glyph glyph-name="bullet" unicode="&#x2022;" horiz-adv-x="843" 
d="M160 726q0 109 77 185t185 76t185 -76.5t77 -184.5t-76 -185.5t-185 -77.5t-186 77t-77 186z" />
    <glyph glyph-name="ellipsis" unicode="&#x2026;" horiz-adv-x="1597" 
d="M1208 105q0 55 39 94t94 39t94.5 -39t39.5 -93t-38.5 -93.5t-94.5 -39.5t-95 38.5t-39 93.5zM655 105q0 55 39 94t94 39t94.5 -39t39.5 -93t-39 -93.5t-95 -39.5t-94.5 38.5t-38.5 93.5zM123 105q0 55 39 94t94 39t94 -39t39 -94t-38.5 -93.5t-94.5 -38.5t-94.5 38.5
t-38.5 93.5z" />
    <glyph glyph-name="uni202F" unicode="&#x202f;" horiz-adv-x="400" 
 />
    <glyph glyph-name="guilsinglleft" unicode="&#x2039;" horiz-adv-x="989" 
d="M160 721l483 479l184 -186l-307 -293l309 -293l-188 -188z" />
    <glyph glyph-name="guilsinglright" unicode="&#x203a;" horiz-adv-x="989" 
d="M160 428l309 293l-307 293l184 186l483 -479l-481 -481z" />
    <glyph glyph-name="uni205F" unicode="&#x205f;" horiz-adv-x="500" 
 />
    <glyph glyph-name="Euro" unicode="&#x20ac;" horiz-adv-x="1642" 
d="M920 1124q-96 0 -180 -41t-142 -114h342v-221h-424q-2 -10 -2 -31t2 -31h422v-221h-338q56 -71 140 -111.5t184 -40.5t186.5 45.5t134.5 122.5l344 -86q-89 -192 -269 -306t-412 -114t-423 134t-266 356h-147v221h106v62h-104v221h145q75 222 265 355.5t416 133.5
t398 -102.5t267 -276.5l-348 -86q-106 131 -297 131z" />
    <glyph glyph-name="trademark" unicode="&#x2122;" horiz-adv-x="1613" 
d="M1282 1118q-2 0 -82 -117l-51 -77h-84l-51 77q-76 117 -82 117h-2q-1 0 2.5 -41t3.5 -119v-190h-197v666h189l108 -162q35 -51 70 -131h2q35 80 70 131l108 162h189v-666h-197v190l6 160h-2zM20 1237v197h623v-197h-209v-469h-205v469h-209z" />
    <glyph glyph-name="uniE000" unicode="&#xe000;" horiz-adv-x="1433" 
d="M0 0v1434h1434v-1434h-1434z" />
  </font>
</defs>
</svg>
