<?xml version="1.0" standalone="no"?>
<!DOCTYPE svg PUBLIC "-//W3C//DTD SVG 1.1//EN" "http://www.w3.org/Graphics/SVG/1.1/DTD/svg11.dtd" >
<svg xmlns="http://www.w3.org/2000/svg">
<metadata>
Created by FontPrep 20130207 at Tue Jul 16 13:49:01 2013
 By John Horstman
Copyright (c) 2011 by Jan Tonellato. All rights reserved.
</metadata>
<defs>
<font id="5f9b8783cc4520a201de22d83f26dcf8" >
  <font-face 
    font-family="Novecentowide-Medium"
    font-weight="600"
    font-stretch="expanded"
    units-per-em="2048"
    panose-1="0 0 7 5 0 0 0 0 0 0"
    ascent="1741"
    descent="-307"
    x-height="1434"
    cap-height="1434"
    bbox="-84 -508 2007 1929"
    underline-thickness="200"
    underline-position="-166"
    unicode-range="U+000D-E000"
  />
<missing-glyph horiz-adv-x="748" 
d="M136 68h408v1229h-408v-1229zM68 0v1365h544v-1365h-544z" />
    <glyph glyph-name=".notdef" horiz-adv-x="748" 
d="M136 68h408v1229h-408v-1229zM68 0v1365h544v-1365h-544z" />
    <glyph glyph-name="glyph1" horiz-adv-x="2048" 
 />
    <glyph glyph-name="glyph1" horiz-adv-x="2048" 
 />
    <glyph glyph-name="uni000D" unicode="&#xd;" horiz-adv-x="2048" 
 />
    <glyph glyph-name="space" unicode=" " horiz-adv-x="512" 
 />
    <glyph glyph-name="exclam" unicode="!" horiz-adv-x="587" 
d="M180 459v975h228v-975h-228zM180 0v322h228v-322h-228z" />
    <glyph glyph-name="quotedbl" unicode="&#x22;" horiz-adv-x="1007" 
d="M610 989v445h215v-445h-215zM180 989v445h215v-445h-215z" />
    <glyph glyph-name="numbersign" unicode="#" horiz-adv-x="1808" 
d="M604 530h385l197 383h-391zM59 336l103 194h213l196 383h-219l103 195h217l166 326h217l-162 -326h393l166 326h217l-162 -326h242l-100 -195h-240l-190 -383h235l-100 -194h-234l-168 -336h-233l172 336h-385l-168 -336h-234l172 336h-217z" />
    <glyph glyph-name="dollar" unicode="$" horiz-adv-x="1232" 
d="M630 174q140 0 218 61t78 147t-52 134t-109 70t-89 32.5t-88 28t-95 30.5t-67 23.5t-75 31.5t-104.5 58t-99 105.5t-41.5 165.5q0 147 113 256t293 137v164h223v-166q157 -31 266.5 -131t143.5 -246l-217 -59q-24 117 -113 183.5t-209 66.5t-194 -53.5t-74 -143.5
t124 -151q79 -38 185 -69q107 -32 146 -46t89.5 -37t165.5 -96t115 -271q0 -164 -116.5 -279t-311.5 -143v-161h-223v164q-177 30 -293.5 140.5t-157.5 276.5l218 60q22 -120 116.5 -201.5t234.5 -81.5z" />
    <glyph glyph-name="percent" unicode="%" horiz-adv-x="1818" 
d="M1214 398q0 -108 58.5 -183.5t152.5 -75.5t151.5 75.5t57.5 183.5t-57.5 183.5t-151.5 75.5t-152.5 -75.5t-58.5 -183.5zM1057 397q0 178 101.5 297t265.5 119t266 -119t102 -297t-102 -295.5t-266 -117.5t-265.5 117.5t-101.5 295.5zM336 0l993 1434h156l-996 -1434
h-153zM182 1034q0 -108 58.5 -183t152.5 -75t151.5 75t57.5 183t-57.5 184t-151.5 76t-152.5 -76t-58.5 -184zM25 1034q0 178 101.5 297t265.5 119t266 -119t102 -297t-102 -295.5t-266 -117.5t-265.5 117.5t-101.5 295.5z" />
    <glyph glyph-name="ampersand" unicode="&#x26;" horiz-adv-x="1452" 
d="M305 417q0 -111 87 -180t244 -69q316 0 316 338v143h-338q-144 0 -226.5 -60.5t-82.5 -171.5zM84 410q0 134 86.5 223.5t212.5 107.5v2q-94 10 -183 89t-89 232q0 152 121 275t364 123q199 0 335 -107t177 -300l-195 -54q-36 137 -109.5 203t-201.5 66q-192 0 -224 -94
t-32 -129q0 -95 72.5 -156.5t208.5 -61.5h800v-180h-262v-151q0 -405 -217 -466t-334 -61q-238 0 -384 121t-146 318z" />
    <glyph glyph-name="quotesingle" unicode="'" horiz-adv-x="577" 
d="M180 989v445h215v-445h-215z" />
    <glyph glyph-name="parenleft" unicode="(" horiz-adv-x="759" 
d="M84 820.5q0 515.5 220 684t339 209.5l62 -213q-206 -69 -300 -260t-94 -531t94.5 -532.5t299.5 -259.5l-62 -213q-272 94 -415.5 347t-143.5 768.5z" />
    <glyph glyph-name="parenright" unicode=")" horiz-adv-x="761" 
d="M453 710q0 340 -94 531t-300 260l62 213q272 -94 415.5 -347t143.5 -768.5t-220 -684t-339 -209.5l-62 213q205 67 299.5 259.5t94.5 532.5z" />
    <glyph glyph-name="asterisk" unicode="*" horiz-adv-x="1060" 
d="M455 1434h147v-246l232 76l47 -142l-236 -69l148 -199l-119 -88l-144 207l-143 -207l-119 86l148 201l-236 69l45 142l230 -76v246z" />
    <glyph glyph-name="plus" unicode="+" horiz-adv-x="1429" 
d="M246 633v188h368v373h201v-373h371v-188h-369v-377h-201v377h-370z" />
    <glyph glyph-name="comma" unicode="," horiz-adv-x="487" 
d="M123 98q0 50 35.5 84.5t87.5 34.5t86.5 -39.5t34.5 -115.5t-52.5 -170t-130.5 -162h-92q49 40 89 113t40 130l25 9l-25 2q-38 3 -68 33.5t-30 80.5z" />
    <glyph glyph-name="hyphen" unicode="-" horiz-adv-x="1302" 
d="M180 633v188h942v-188h-942z" />
    <glyph glyph-name="period" unicode="." horiz-adv-x="487" 
d="M123 96q0 50 35 84.5t86 34.5t86 -34.5t35 -85.5t-35 -86.5t-86 -35.5t-86 36.5t-35 86.5z" />
    <glyph glyph-name="slash" unicode="/" horiz-adv-x="999" 
d="M25 0l733 1434h217l-717 -1434h-233z" />
    <glyph glyph-name="zero" unicode="0" horiz-adv-x="1468" 
d="M317 668q0 -227 125.5 -350t276.5 -123t247 72t140.5 187.5t44.5 262.5t-44.5 262.5t-140.5 187.5t-233 72q-241 0 -328.5 -172t-87.5 -399zM84 717q0 152 44.5 286.5t125.5 237t205 162t274 59.5t275 -59.5t206.5 -162t126.5 -237t45 -286.5t-45 -287t-126.5 -237
t-206.5 -162t-275 -60t-274 60t-205 162t-125.5 237t-44.5 287z" />
    <glyph glyph-name="one" unicode="1" horiz-adv-x="882" 
d="M479 1104q-1 0 -36 -41t-76 -82l-144 -141l-139 135l459 459h159v-1434h-227v879l6 225h-2z" />
    <glyph glyph-name="two" unicode="2" horiz-adv-x="1202" 
d="M1122 213v-213h-1013v184q506 434 630 539q156 132 156 283q0 110 -77 183t-199 73t-201 -67t-111 -175l-211 55q54 184 193 285.5t348 101.5t347 -128.5t138 -334.5t-115 -318.5t-182 -161.5q-67 -50 -75 -56l-342 -256l2 -2l8 1l287 7h417z" />
    <glyph glyph-name="three" unicode="3" horiz-adv-x="1234" 
d="M621 1262q-235 0 -308 -244l-202 53q43 181 182 286t362 105t348 -118.5t125 -280.5q0 -92 -68.5 -201.5t-230.5 -116.5v-2q183 -4 252.5 -115t69.5 -210q0 -198 -145.5 -322.5t-360.5 -124.5t-369.5 113.5t-191.5 292.5l205 55q23 -117 114 -187.5t223 -70.5t210.5 72
t78.5 180t-81 165.5t-218 57.5h-124v180h124q135 0 207 57t72 153t-69 159.5t-205 63.5z" />
    <glyph glyph-name="four" unicode="4" horiz-adv-x="1306" 
d="M834 803q0 249 6 309v10h-2q-1 0 -45.5 -60t-104.5 -132l-235 -279q-51 -61 -80 -93.5t-29 -33.5v-2l215 2h275v279zM84 326v168l782 940h183v-910h180v-198h-180v-326h-215v326h-750z" />
    <glyph glyph-name="five" unicode="5" horiz-adv-x="1224" 
d="M622 168q129 0 212.5 84.5t83.5 212.5t-84 211.5t-211 83.5q-214 0 -275 -154l-196 56l127 772h782v-213h-615l-28 -152q-30 -156 -42 -201l-5 -22l2 -2q32 35 101 64.5t157 29.5q221 0 368.5 -134.5t147.5 -343.5t-146.5 -349t-362.5 -140t-360 109.5t-182 275.5l209 56
q25 -107 106.5 -175.5t210.5 -68.5z" />
    <glyph glyph-name="six" unicode="6" horiz-adv-x="1222" 
d="M311 470q0 -132 90 -215t232 -83t230.5 83.5t88.5 215.5q2 132 -86 213.5t-232 81.5t-233.5 -82t-89.5 -214zM84 468q0 144 52.5 263t166.5 270l328 433h246l-431 -572l3 -2q79 94 226 94t261 -67t173.5 -179t59.5 -249q0 -213 -154 -350.5t-390 -137.5q-151 0 -274 61.5
t-195 176.5t-72 259z" />
    <glyph glyph-name="seven" unicode="7" horiz-adv-x="1150" 
d="M68 1221v213h1046v-136l-729 -1298h-242l545 965q66 114 138 222l24 36l-2 2l-14 -1l-185 -3h-581z" />
    <glyph glyph-name="eight" unicode="8" horiz-adv-x="1245" 
d="M342 1074q0 -96 79.5 -155t202.5 -59t201 60t78 156t-78.5 157t-202.5 61t-202 -62t-78 -158zM299 404q0 -113 88.5 -182.5t236.5 -69.5t235 69.5t87 183.5t-88 181t-236 67t-235.5 -68t-87.5 -181zM84 399q0 153 100 249t224 114v2q-72 9 -137.5 67.5t-94.5 119.5
t-29 130q0 162 134.5 271.5t342.5 109.5t341 -109.5t133 -271.5q0 -69 -28.5 -130t-94 -120t-135.5 -67v-2q124 -21 223.5 -117t99.5 -246q0 -186 -151.5 -307.5t-388.5 -121.5t-388 121t-151 308z" />
    <glyph glyph-name="nine" unicode="9" horiz-adv-x="1230" 
d="M272 960q0 -141 93.5 -217.5t232.5 -76.5t230.5 79t91.5 219t-91.5 219t-231.5 79t-232.5 -80.5t-92.5 -221.5zM602 1462q153 0 275.5 -57t196 -172t73.5 -261t-61.5 -284.5t-204.5 -306.5l-328 -381h-258l491 569l-2 2q-80 -92 -213 -92q-254 0 -386 141.5t-132 355.5
q0 215 155 350.5t394 135.5z" />
    <glyph glyph-name="colon" unicode=":" horiz-adv-x="487" 
d="M123 716q0 50 35 85t86 35t86 -34.5t35 -85.5t-35 -86.5t-86 -35.5t-86 36t-35 86zM123 96q0 50 35 84.5t86 34.5t86 -34.5t35 -85.5t-35 -86.5t-86 -35.5t-86 36.5t-35 86.5z" />
    <glyph glyph-name="semicolon" unicode=";" horiz-adv-x="520" 
d="M152 716q0 50 34.5 85t85.5 35t86 -34.5t35 -85.5t-35 -86.5t-86 -35.5t-85.5 36t-34.5 86zM154 94q0 50 35 84.5t87 34.5t86.5 -39.5t34.5 -115.5t-52.5 -170t-129.5 -162h-92q49 40 89 113t40 130l24 8l-24 3q-38 3 -68 33.5t-30 80.5z" />
    <glyph glyph-name="less" unicode="&#x3c;" horiz-adv-x="1429" 
d="M233 752l666 499h277l-650 -499l650 -502h-277z" />
    <glyph glyph-name="equal" unicode="=" horiz-adv-x="1429" 
d="M246 831v189h940v-189h-940zM246 412v188h940v-188h-940z" />
    <glyph glyph-name="greater" unicode="&#x3e;" horiz-adv-x="1429" 
d="M254 250l649 502l-649 499h276l666 -499l-666 -502h-276z" />
    <glyph glyph-name="question" unicode="?" horiz-adv-x="1185" 
d="M461 0v322h227v-322h-227zM608 1462q357 0 425.5 -162.5t68.5 -229.5t-13 -114t-32.5 -83.5t-68 -86.5t-118.5 -91.5t-182 -94.5v-141h-227v225q235 118 320 189.5t85 158.5t-59 158.5t-200 71.5t-219 -60.5t-114 -183.5l-190 53q43 183 182.5 287t341.5 104z" />
    <glyph glyph-name="at" unicode="@" horiz-adv-x="1634" 
d="M788 463q89 0 152 61.5t64 173.5v64q1 102 -62.5 151.5t-154.5 49.5t-156 -69t-65 -186t66.5 -181t155.5 -64zM84 690q0 184 55 322.5t151 237.5t232 155.5t320 56.5t351.5 -96.5t262 -267.5t94.5 -381t-92.5 -316t-218.5 -106q-81 0 -142 49t-71 129l-2 2
q-27 -70 -103 -122t-161 -52q-161 0 -263 111t-102 293t103.5 297.5t273.5 115.5q132 0 179 -56t50 -67h3v86h149v-530q0 -65 27 -103t78 -38t102 62.5t51 242.5q0 268 -169 443t-427 175q-169 0 -305 -79.5t-212.5 -220.5t-76.5 -317t76.5 -318t213 -224t304.5 -82
q237 0 310 58.5t75 58.5l105 -55q-8 -24 -63 -61t-148 -79.5t-290 -42.5t-365 97.5t-261.5 267.5t-93.5 354z" />
    <glyph glyph-name="A" unicode="A" horiz-adv-x="1472" 
d="M737 1159h-2q-1 0 -19 -55t-48 -131l-185 -449h506l-184 449q-23 58 -45 122t-23 64zM25 0l606 1434h211l606 -1434h-244l-133 326h-670l-133 -326h-243z" />
    <glyph glyph-name="B" unicode="B" horiz-adv-x="1333" 
d="M408 850h292q105 0 172.5 57t67.5 142t-66 138.5t-174 53.5h-292v-391zM408 193h340q120 0 195 65.5t75 172.5t-80 175t-197 68h-333v-481zM180 0v1434h565q187 0 304.5 -102t117.5 -259q0 -102 -67 -185.5t-150 -105.5v-2q70 -12 139 -59.5t116.5 -127t47.5 -167.5
q0 -191 -127 -308.5t-358 -117.5h-588z" />
    <glyph glyph-name="C" unicode="C" horiz-adv-x="1552" 
d="M84 717q0 159 58.5 298t158 237t236.5 154t290 56q208 0 381 -102t271 -275l-232 -61q-64 99 -177.5 157t-242.5 58q-224 0 -367 -145.5t-143 -376.5q0 -153 67 -272.5t182.5 -183.5t259.5 -64t265 69.5t183 184.5l227 -62q-92 -192 -272 -305t-393 -113t-383 95.5
t-269.5 267t-99.5 383.5z" />
    <glyph glyph-name="D" unicode="D" horiz-adv-x="1617" 
d="M408 213h393q204 0 310.5 97t146.5 192.5t40 209.5t-40.5 210.5t-147.5 197.5t-319 101h-383v-1008zM180 0v1434h611q153 0 289 -53t236.5 -146.5t159 -229.5t58.5 -293t-58 -291t-157 -225.5t-233.5 -143.5t-284.5 -52h-621z" />
    <glyph glyph-name="E" unicode="E" horiz-adv-x="1310" 
d="M180 0v1434h985v-213h-757v-373h604v-201h-604v-434h770v-213h-998z" />
    <glyph glyph-name="F" unicode="F" horiz-adv-x="1216" 
d="M180 0v1434h965v-213h-737v-416h583v-205h-583v-600h-228z" />
    <glyph glyph-name="G" unicode="G" horiz-adv-x="1626" 
d="M1309 180h-2q-66 -79 -194.5 -144t-308.5 -65t-350.5 95.5t-270 267t-99.5 383.5q0 159 58.5 298t158 237t236.5 154t290 56q213 -3 384 -104t268 -273l-232 -61q-64 99 -177.5 157t-242.5 58q-224 0 -367 -145.5t-143 -376.5q0 -154 68.5 -274.5t187.5 -185t239 -64.5
q217 0 337 85.5t160 180.5v121h-418v186h612v-768h-196v14l1 46v58l1 61v3z" />
    <glyph glyph-name="H" unicode="H" horiz-adv-x="1515" 
d="M180 0v1434h228v-594h700v594h227v-1434h-227v629h-700v-629h-228z" />
    <glyph glyph-name="I" unicode="I" horiz-adv-x="587" 
d="M180 0v1434h228v-1434h-228z" />
    <glyph glyph-name="J" unicode="J" horiz-adv-x="1357" 
d="M598 182q186 0 286.5 110.5t100.5 305.5v836h227v-826q0 -300 -164 -468.5t-450 -168.5q-201 0 -356.5 102.5t-216.5 266.5l225 59q40 -101 133 -159t215 -58z" />
    <glyph glyph-name="K" unicode="K" horiz-adv-x="1441" 
d="M406 768q1 0 71 72.5t152 154.5l440 439h277l-594 -594l624 -840h-266l-508 690l-194 -196v-494h-228v1434h228v-334l-5 -332h3z" />
    <glyph glyph-name="L" unicode="L" horiz-adv-x="1185" 
d="M180 0v1434h228v-1221h737v-213h-965z" />
    <glyph glyph-name="M" unicode="M" horiz-adv-x="1720" 
d="M403 0h-223v1434h213l326 -549q87 -143 141 -246h2q57 108 139 246l326 549h213v-1434h-223v547l10 500v6h-2q-5 0 -127 -217l-278 -482h-119l-279 482q-122 217 -125 217h-2v-8l8 -498v-547z" />
    <glyph glyph-name="N" unicode="N" horiz-adv-x="1572" 
d="M180 0v1434h213l527 -707q83 -112 164.5 -226t82.5 -114h2q1 0 -1.5 145t-2.5 291v611h228v-1434h-213l-523 705q-73 100 -161.5 226t-89.5 126h-3q-1 0 2 -109t3 -340v-608h-228z" />
    <glyph glyph-name="O" unicode="O" 
d="M317 718q0 -232 143.5 -377.5t365.5 -145.5t366.5 146t144.5 377t-144.5 376t-366.5 145t-365.5 -144.5t-143.5 -376.5zM84 717q0 159 58.5 298t158 237t236.5 154t315 56t349 -95t271.5 -266.5t100.5 -383.5q0 -159 -59 -298.5t-159.5 -237t-237.5 -154t-315 -56.5
t-348.5 95.5t-270 267t-99.5 383.5z" />
    <glyph glyph-name="P" unicode="P" horiz-adv-x="1261" 
d="M408 709h243q150 0 232 67.5t82 189.5t-83 188.5t-231 66.5h-243v-512zM180 0v1434h475q255 0 400 -124.5t145 -344.5t-145 -344.5t-400 -124.5h-247v-496h-228z" />
    <glyph glyph-name="Q" unicode="Q" 
d="M317 718q0 -232 143.5 -377.5t365.5 -145.5t366.5 146t144.5 377t-144.5 376t-366.5 145t-365.5 -144.5t-143.5 -376.5zM84 724q0 152 58.5 291t158 237t236.5 154t315 56t349 -95t271.5 -266.5t100.5 -383.5q0 -144 -49 -273.5t-134 -224.5t-202 -158t-250 -81v-250
h-227v250q-270 41 -448.5 242.5t-178.5 501.5z" />
    <glyph glyph-name="R" unicode="R" horiz-adv-x="1333" 
d="M408 713h268q140 0 214.5 72.5t74.5 184.5t-76.5 181.5t-212.5 69.5h-268v-508zM180 0v1434h469q256 0 403.5 -125.5t147.5 -339.5q0 -150 -74.5 -256.5t-212.5 -157.5l340 -555h-256l-303 514q-14 -2 -45 -2h-241v-512h-228z" />
    <glyph glyph-name="S" unicode="S" horiz-adv-x="1232" 
d="M630 174q140 0 218 61t78 147t-52 134t-109 70t-89 32.5t-88 28t-95 30.5t-67 23.5t-75 31.5t-104.5 58t-99 105.5t-41.5 165.5q0 169 146 285t354 116t353.5 -107t185.5 -280l-217 -59q-24 117 -113 183.5t-209 66.5t-194 -53.5t-74 -143.5t124 -151q79 -38 185 -69
q107 -32 146 -46t89.5 -37t115.5 -64.5t114 -117.5t51 -185q0 -187 -148.5 -307.5t-378.5 -120.5t-379 116.5t-196 309.5l218 60q22 -120 116.5 -201.5t234.5 -81.5z" />
    <glyph glyph-name="T" unicode="T" horiz-adv-x="1228" 
d="M37 1221v213h1153v-213h-465v-1221h-225v1221h-463z" />
    <glyph glyph-name="U" unicode="U" horiz-adv-x="1497" 
d="M145 608v826h228v-824q1 -428 377 -428t376 428v824h226v-826q0 -308 -159 -472.5t-445 -164.5t-444.5 164.5t-158.5 472.5z" />
    <glyph glyph-name="V" unicode="V" horiz-adv-x="1470" 
d="M735 254h2q1 0 23.5 69t58.5 162l381 949h246l-592 -1434h-238l-591 1434h247l381 -949q44 -118 62.5 -174.5t19.5 -56.5z" />
    <glyph glyph-name="W" unicode="W" horiz-adv-x="2056" 
d="M623 346h2q1 0 13.5 53.5t51.5 163.5l236 697h204l236 -697q34 -95 49.5 -156t16.5 -61h2q1 0 20.5 76t38.5 141l274 871h240l-469 -1434h-207l-229 723q-42 135 -57.5 200.5t-16.5 65.5h-2l-6 -26q-7 -26 -25 -93.5t-43 -146.5l-229 -723h-207l-467 1434h240l272 -871
q30 -95 45.5 -156t16.5 -61z" />
    <glyph glyph-name="X" unicode="X" horiz-adv-x="1382" 
d="M690 918h2q1 0 36 58t50 79l266 379h275l-490 -695l525 -739h-273l-290 397q-41 60 -69.5 108t-29.5 48h-2q-1 0 -32.5 -53.5t-65.5 -102.5l-291 -397h-272l526 739l-492 695h275l266 -379q15 -21 50 -79t36 -58z" />
    <glyph glyph-name="Y" unicode="Y" horiz-adv-x="1388" 
d="M694 883h2q2 0 82 110l326 441h256l-553 -754v-680h-225v680l-553 754h256l325 -441q81 -110 84 -110z" />
    <glyph glyph-name="Z" unicode="Z" horiz-adv-x="1427" 
d="M1305 213v-213h-1182v211l780 899q35 38 76 76t41 39l-2 2l-12 -1l-187 -5h-676v213h1162v-211l-762 -891q-43 -48 -80 -85t-37 -38l2 -2l10 1l189 5h678z" />
    <glyph glyph-name="bracketleft" unicode="[" horiz-adv-x="729" 
d="M180 -309v2062h504v-213h-274v-1638h274v-211h-504z" />
    <glyph glyph-name="backslash" unicode="\" horiz-adv-x="999" 
d="M25 1434h217l733 -1434h-234z" />
    <glyph glyph-name="bracketright" unicode="]" horiz-adv-x="743" 
d="M59 -98h275v1638h-275v213h504v-2062h-504v211z" />
    <glyph glyph-name="asciicircum" unicode="^" horiz-adv-x="1318" 
d="M180 977l479 481l480 -481l-105 -94l-375 383l-374 -383z" />
    <glyph glyph-name="underscore" unicode="_" horiz-adv-x="1574" 
d="M180 0h1215v-178h-1215v178z" />
    <glyph glyph-name="grave" unicode="`" horiz-adv-x="638" 
d="M33 1716l80 156l454 -244l-67 -125z" />
    <glyph glyph-name="a" unicode="a" horiz-adv-x="1472" 
d="M737 1159h-2q-1 0 -19 -55t-48 -131l-185 -449h506l-184 449q-23 58 -45 122t-23 64zM25 0l606 1434h211l606 -1434h-244l-133 326h-670l-133 -326h-243z" />
    <glyph glyph-name="b" unicode="b" horiz-adv-x="1333" 
d="M408 850h292q105 0 172.5 57t67.5 142t-66 138.5t-174 53.5h-292v-391zM408 193h340q120 0 195 65.5t75 172.5t-80 175t-197 68h-333v-481zM180 0v1434h565q187 0 304.5 -102t117.5 -259q0 -102 -67 -185.5t-150 -105.5v-2q70 -12 139 -59.5t116.5 -127t47.5 -167.5
q0 -191 -127 -308.5t-358 -117.5h-588z" />
    <glyph glyph-name="c" unicode="c" horiz-adv-x="1552" 
d="M84 717q0 159 58.5 298t158 237t236.5 154t290 56q208 0 381 -102t271 -275l-232 -61q-64 99 -177.5 157t-242.5 58q-224 0 -367 -145.5t-143 -376.5q0 -153 67 -272.5t182.5 -183.5t259.5 -64t265 69.5t183 184.5l227 -62q-92 -192 -272 -305t-393 -113t-383 95.5
t-269.5 267t-99.5 383.5z" />
    <glyph glyph-name="d" unicode="d" horiz-adv-x="1617" 
d="M408 213h393q204 0 310.5 97t146.5 192.5t40 209.5t-40.5 210.5t-147.5 197.5t-319 101h-383v-1008zM180 0v1434h611q153 0 289 -53t236.5 -146.5t159 -229.5t58.5 -293t-58 -291t-157 -225.5t-233.5 -143.5t-284.5 -52h-621z" />
    <glyph glyph-name="e" unicode="e" horiz-adv-x="1310" 
d="M180 0v1434h985v-213h-757v-373h604v-201h-604v-434h770v-213h-998z" />
    <glyph glyph-name="f" unicode="f" horiz-adv-x="1216" 
d="M180 0v1434h965v-213h-737v-416h583v-205h-583v-600h-228z" />
    <glyph glyph-name="g" unicode="g" horiz-adv-x="1626" 
d="M1309 180h-2q-66 -79 -194.5 -144t-308.5 -65t-350.5 95.5t-270 267t-99.5 383.5q0 159 58.5 298t158 237t236.5 154t290 56q213 -3 384 -104t268 -273l-232 -61q-64 99 -177.5 157t-242.5 58q-224 0 -367 -145.5t-143 -376.5q0 -154 68.5 -274.5t187.5 -185t239 -64.5
q217 0 337 85.5t160 180.5v121h-418v186h612v-768h-196v14l1 46v58l1 61v3z" />
    <glyph glyph-name="h" unicode="h" horiz-adv-x="1515" 
d="M180 0v1434h228v-594h700v594h227v-1434h-227v629h-700v-629h-228z" />
    <glyph glyph-name="i" unicode="i" horiz-adv-x="587" 
d="M180 0v1434h228v-1434h-228z" />
    <glyph glyph-name="j" unicode="j" horiz-adv-x="1357" 
d="M598 182q186 0 286.5 110.5t100.5 305.5v836h227v-826q0 -300 -164 -468.5t-450 -168.5q-201 0 -356.5 102.5t-216.5 266.5l225 59q40 -101 133 -159t215 -58z" />
    <glyph glyph-name="k" unicode="k" horiz-adv-x="1441" 
d="M406 768q1 0 71 72.5t152 154.5l440 439h277l-594 -594l624 -840h-266l-508 690l-194 -196v-494h-228v1434h228v-334l-5 -332h3z" />
    <glyph glyph-name="l" unicode="l" horiz-adv-x="1185" 
d="M180 0v1434h228v-1221h737v-213h-965z" />
    <glyph glyph-name="m" unicode="m" horiz-adv-x="1720" 
d="M403 0h-223v1434h213l326 -549q87 -143 141 -246h2q57 108 139 246l326 549h213v-1434h-223v547l10 500v6h-2q-5 0 -127 -217l-278 -482h-119l-279 482q-122 217 -125 217h-2v-8l8 -498v-547z" />
    <glyph glyph-name="n" unicode="n" horiz-adv-x="1572" 
d="M180 0v1434h213l527 -707q83 -112 164.5 -226t82.5 -114h2q1 0 -1.5 145t-2.5 291v611h228v-1434h-213l-523 705q-73 100 -161.5 226t-89.5 126h-3q-1 0 2 -109t3 -340v-608h-228z" />
    <glyph glyph-name="o" unicode="o" 
d="M317 718q0 -232 143.5 -377.5t365.5 -145.5t366.5 146t144.5 377t-144.5 376t-366.5 145t-365.5 -144.5t-143.5 -376.5zM84 717q0 159 58.5 298t158 237t236.5 154t315 56t349 -95t271.5 -266.5t100.5 -383.5q0 -159 -59 -298.5t-159.5 -237t-237.5 -154t-315 -56.5
t-348.5 95.5t-270 267t-99.5 383.5z" />
    <glyph glyph-name="p" unicode="p" horiz-adv-x="1261" 
d="M408 709h243q150 0 232 67.5t82 189.5t-83 188.5t-231 66.5h-243v-512zM180 0v1434h475q255 0 400 -124.5t145 -344.5t-145 -344.5t-400 -124.5h-247v-496h-228z" />
    <glyph glyph-name="q" unicode="q" 
d="M317 718q0 -232 143.5 -377.5t365.5 -145.5t366.5 146t144.5 377t-144.5 376t-366.5 145t-365.5 -144.5t-143.5 -376.5zM84 724q0 152 58.5 291t158 237t236.5 154t315 56t349 -95t271.5 -266.5t100.5 -383.5q0 -144 -49 -273.5t-134 -224.5t-202 -158t-250 -81v-250
h-227v250q-270 41 -448.5 242.5t-178.5 501.5z" />
    <glyph glyph-name="r" unicode="r" horiz-adv-x="1333" 
d="M408 713h268q140 0 214.5 72.5t74.5 184.5t-76.5 181.5t-212.5 69.5h-268v-508zM180 0v1434h469q256 0 403.5 -125.5t147.5 -339.5q0 -150 -74.5 -256.5t-212.5 -157.5l340 -555h-256l-303 514q-14 -2 -45 -2h-241v-512h-228z" />
    <glyph glyph-name="s" unicode="s" horiz-adv-x="1232" 
d="M630 174q140 0 218 61t78 147t-52 134t-109 70t-89 32.5t-88 28t-95 30.5t-67 23.5t-75 31.5t-104.5 58t-99 105.5t-41.5 165.5q0 169 146 285t354 116t353.5 -107t185.5 -280l-217 -59q-24 117 -113 183.5t-209 66.5t-194 -53.5t-74 -143.5t124 -151q79 -38 185 -69
q107 -32 146 -46t89.5 -37t115.5 -64.5t114 -117.5t51 -185q0 -187 -148.5 -307.5t-378.5 -120.5t-379 116.5t-196 309.5l218 60q22 -120 116.5 -201.5t234.5 -81.5z" />
    <glyph glyph-name="t" unicode="t" horiz-adv-x="1228" 
d="M37 1221v213h1153v-213h-465v-1221h-225v1221h-463z" />
    <glyph glyph-name="u" unicode="u" horiz-adv-x="1497" 
d="M145 608v826h228v-824q1 -428 377 -428t376 428v824h226v-826q0 -308 -159 -472.5t-445 -164.5t-444.5 164.5t-158.5 472.5z" />
    <glyph glyph-name="v" unicode="v" horiz-adv-x="1470" 
d="M735 254h2q1 0 23.5 69t58.5 162l381 949h246l-592 -1434h-238l-591 1434h247l381 -949q44 -118 62.5 -174.5t19.5 -56.5z" />
    <glyph glyph-name="w" unicode="w" horiz-adv-x="2056" 
d="M623 346h2q1 0 13.5 53.5t51.5 163.5l236 697h204l236 -697q34 -95 49.5 -156t16.5 -61h2q1 0 20.5 76t38.5 141l274 871h240l-469 -1434h-207l-229 723q-42 135 -57.5 200.5t-16.5 65.5h-2l-6 -26q-7 -26 -25 -93.5t-43 -146.5l-229 -723h-207l-467 1434h240l272 -871
q30 -95 45.5 -156t16.5 -61z" />
    <glyph glyph-name="x" unicode="x" horiz-adv-x="1382" 
d="M690 918h2q1 0 36 58t50 79l266 379h275l-490 -695l525 -739h-273l-290 397q-41 60 -69.5 108t-29.5 48h-2q-1 0 -32.5 -53.5t-65.5 -102.5l-291 -397h-272l526 739l-492 695h275l266 -379q15 -21 50 -79t36 -58z" />
    <glyph glyph-name="y" unicode="y" horiz-adv-x="1388" 
d="M694 883h2q2 0 82 110l326 441h256l-553 -754v-680h-225v680l-553 754h256l325 -441q81 -110 84 -110z" />
    <glyph glyph-name="z" unicode="z" horiz-adv-x="1427" 
d="M1305 213v-213h-1182v211l780 899q35 38 76 76t41 39l-2 2l-12 -1l-187 -5h-676v213h1162v-211l-762 -891q-43 -48 -80 -85t-37 -38l2 -2l10 1l189 5h678z" />
    <glyph glyph-name="braceleft" unicode="{" horiz-adv-x="843" 
d="M313 1036v236q0 245 130.5 375.5t369.5 130.5v-211q-152 0 -213 -83.5t-61 -234.5v-200q0 -199 -45.5 -260.5t-65.5 -67.5q41 -12 76 -96t35 -232v-200q0 -218 90.5 -268t183.5 -50v-211q-239 0 -369.5 130.5t-130.5 375.5v236q0 111 -25.5 181t-55.5 98t-52 36
q84 34 108.5 136t24.5 179z" />
    <glyph glyph-name="bar" unicode="|" horiz-adv-x="544" 
d="M180 -152v1739h182v-1739h-182z" />
    <glyph glyph-name="braceright" unicode="}" horiz-adv-x="843" 
d="M31 -125q152 0 213 83.5t61 234.5v200q0 199 45.5 260.5t65.5 67.5q-41 12 -76 96t-35 232v200q0 218 -90.5 268t-183.5 50v211q239 0 369 -130.5t130 -375.5v-236q0 -202 55.5 -254t78.5 -61q-44 -16 -89 -88.5t-45 -226.5v-236q0 -245 -130 -375.5t-369 -130.5v211z
" />
    <glyph glyph-name="asciitilde" unicode="~" horiz-adv-x="1429" 
d="M910 727q66 0 102.5 38.5t38.5 88.5l190 -51q-18 -120 -105.5 -183t-197.5 -63t-222 71.5t-181 71.5q-68 0 -103.5 -37t-38.5 -90l-188 52q19 120 106.5 182.5t198.5 62.5t222.5 -71.5t177.5 -71.5z" />
    <glyph glyph-name="uni00A0" unicode="&#xa0;" horiz-adv-x="512" 
 />
    <glyph glyph-name="exclamdown" unicode="&#xa1;" horiz-adv-x="587" 
d="M180 1112v322h228v-322h-228zM180 0v975h228v-975h-228z" />
    <glyph glyph-name="cent" unicode="&#xa2;" horiz-adv-x="1171" 
d="M84 713q0 204 126 352.5t316 181.5v215h185v-215q129 -20 233 -97t160 -192l-197 -51q-97 152 -286 152q-147 0 -237.5 -93.5t-90.5 -251.5t90.5 -251.5t237.5 -93.5q104 0 182 46.5t119 133.5l196 -53q-53 -127 -160.5 -212t-246.5 -108v-205h-185v207q-190 33 -316 182
t-126 353z" />
    <glyph glyph-name="sterling" unicode="&#xa3;" horiz-adv-x="1339" 
d="M1253 213v-213h-1073v213q108 22 139 101t17 225l-8 86h-140v180h123l-18 199q-18 186 114 319.5t328 137.5t330 -108t176 -284l-192 -53q-78 255 -306 246q-111 -4 -173.5 -83.5t-51.5 -193.5l17 -180h448v-180h-432l8 -82q23 -269 -96 -336l2 -2l11 1l372 7h405z" />
    <glyph glyph-name="currency" unicode="&#xa4;" horiz-adv-x="1349" 
d="M334 698q0 -148 99 -246t243 -98t243 98t99 246t-99 247t-243 99t-243 -99t-99 -247zM129 696q0 179 111 326l-144 143l115 115l145 -143q138 104 316 104t323 -104l144 143l114 -115l-143 -143q111 -143 111 -324t-105 -321l144 -146l-115 -114l-144 145
q-144 -112 -326 -112t-327 110l-143 -143l-115 114l146 144q-107 142 -107 321z" />
    <glyph glyph-name="yen" unicode="&#xa5;" horiz-adv-x="1388" 
d="M694 883h2q2 0 82 110l326 441h256l-387 -529h250v-155h-365l-51 -70v-4h416v-154h-416v-522h-225v522h-406v154h406v4l-52 70h-354v155h240l-387 529h256l325 -441q81 -110 84 -110z" />
    <glyph glyph-name="brokenbar" unicode="&#xa6;" horiz-adv-x="544" 
d="M180 1014v573h182v-573h-182zM180 -152v594h182v-594h-182z" />
    <glyph glyph-name="section" unicode="&#xa7;" horiz-adv-x="1083" 
d="M647 580q166 31 166 149q0 61 -58 94.5t-115 48t-97.5 23.5t-59.5 14q-79 -10 -138.5 -49t-59.5 -99t60.5 -91t142 -49.5t105.5 -25.5t36.5 -10t17.5 -5zM119 1186q0 118 122.5 199t296.5 81t294.5 -73t156.5 -191l-184 -51q-20 81 -92.5 124.5t-172.5 43.5t-160.5 -34
t-60.5 -84t26 -69.5t44 -29.5t50 -19.5t55 -16t63.5 -16.5t77.5 -20t75 -21.5t103 -37t129 -86t64 -152.5q0 -155 -191 -211q197 -89 197 -246q0 -135 -128.5 -222t-328.5 -87t-325.5 83t-168.5 222l187 50q20 -86 99.5 -144.5t200.5 -58.5t189 42.5t68 102.5t-53 100
t-233.5 86.5t-215.5 62.5t-66 31t-66 42.5t-57 68.5t-22 104q0 64 52 121.5t145 90.5q-170 75 -170 215z" />
    <glyph glyph-name="dieresis" unicode="&#xa8;" horiz-adv-x="843" 
d="M539 1685q0 49 33.5 82t82.5 33t83 -34t34 -82t-34 -81.5t-83 -33.5t-82.5 33.5t-33.5 82.5zM33 1684q0 48 34 82t83 34t82.5 -33t33.5 -82t-33 -82.5t-83 -33.5t-83.5 33.5t-33.5 81.5z" />
    <glyph glyph-name="copyright" unicode="&#xa9;" 
d="M477 716q0 154 102 256.5t252 102.5q103 0 192.5 -55t129.5 -141l-133 -39q-30 46 -80 73t-109 27q-94 0 -153.5 -61t-59.5 -162t59 -163t139 -62q153 0 212 120l135 -39q-37 -94 -130 -154.5t-202 -60.5q-150 0 -252 102t-102 256zM256 717q0 -127 43 -236t161 -228.5
t367 -119.5q163 0 293.5 73.5t205.5 207.5t75 304t-75 304.5t-205.5 207.5t-293.5 73q-249 0 -410 -162.5t-161 -423.5zM84 717q0 159 58.5 298t158 237t236.5 154t315 56t349 -95t271.5 -266.5t100.5 -383.5q0 -159 -59 -298.5t-159.5 -237t-237.5 -154t-315 -56.5
t-348.5 95.5t-270 267t-99.5 383.5z" />
    <glyph glyph-name="ordfeminine" unicode="&#xaa;" horiz-adv-x="733" 
d="M367 1311h-2q-1 0 -9.5 -47.5t-29.5 -114.5l-45 -129h170l-45 129q-21 67 -29.5 114.5t-9.5 47.5zM43 768l260 682h125l260 -682h-147l-49 141h-252l-50 -141h-147zM41 494v143h651v-143h-651z" />
    <glyph glyph-name="guillemotleft" unicode="&#xab;" horiz-adv-x="1568" 
d="M780 721l482 479l124 -125l-364 -354l367 -354l-127 -127zM182 721l482 479l124 -125l-364 -354l367 -354l-127 -127z" />
    <glyph glyph-name="uni00AD" unicode="&#xad;" horiz-adv-x="1302" 
d="M180 633v188h942v-188h-942z" />
    <glyph glyph-name="registered" unicode="&#xae;" 
d="M846 731q129 0 129 111q0 52 -33.5 82t-95.5 30h-121v-223h121zM1106 846q0 -151 -137 -203l170 -283h-142l-153 261h-119v-261h-133v715h239q127 0 201 -61.5t74 -167.5zM256 717q0 -127 43 -236t161 -228.5t367 -119.5q163 0 293.5 73.5t205.5 207.5t75 304t-75 304.5
t-205.5 207.5t-293.5 73q-249 0 -410 -162.5t-161 -423.5zM84 717q0 159 58.5 298t158 237t236.5 154t315 56t349 -95t271.5 -266.5t100.5 -383.5q0 -159 -59 -298.5t-159.5 -237t-237.5 -154t-315 -56.5t-348.5 95.5t-270 267t-99.5 383.5z" />
    <glyph glyph-name="macron" unicode="&#xaf;" horiz-adv-x="731" 
d="M8 1399v174h676v-174h-676z" />
    <glyph glyph-name="degree" unicode="&#xb0;" horiz-adv-x="630" 
d="M199 1445q0 -48 34.5 -83t82.5 -35t83 34.5t35 82.5t-35 82.5t-83 34.5t-82.5 -34t-34.5 -82zM63 1442q0 104 74 178t178 74t178 -74t74 -178t-74 -178t-178 -74t-178 74t-74 178z" />
    <glyph glyph-name="plusminus" unicode="&#xb1;" horiz-adv-x="1429" 
d="M246 633v188h368v373h201v-373h371v-188h-369v-291h-201v291h-370zM246 -20v188h940v-188h-940z" />
    <glyph glyph-name="uni00B2" unicode="&#xb2;" horiz-adv-x="681" 
d="M350 1782q119 0 202 -77.5t83 -199.5t-139 -237q-161 -132 -254 -178l2 -3q1 0 66.5 7.5t142.5 7.5h176v-133h-578v102l303 248q131 104 131 194q0 55 -40.5 91t-106.5 36q-117 0 -160 -145l-137 37q27 110 108.5 180t200.5 70z" />
    <glyph glyph-name="uni00B3" unicode="&#xb3;" horiz-adv-x="690" 
d="M348 1081q72 0 112 36.5t40 88.5t-42.5 84.5t-109.5 32.5h-78v111h78q61 0 100 32t39 77t-36.5 77.5t-102.5 32.5t-105.5 -33t-58.5 -104l-129 34q20 105 100.5 168.5t204.5 63.5t198.5 -65t74.5 -151t-53.5 -134.5t-118.5 -51.5v-2q75 -3 128.5 -50t53.5 -141
t-83 -164.5t-204 -70.5t-209.5 67.5t-105.5 172.5l133 37q8 -68 55 -108t119 -40z" />
    <glyph glyph-name="acute" unicode="&#xb4;" horiz-adv-x="638" 
d="M33 1628l454 244l80 -156l-467 -213z" />
    <glyph glyph-name="paragraph" unicode="&#xb6;" horiz-adv-x="1445" 
d="M84 1042q0 184 126.5 288t350.5 104h705v-1434h-228v1221h-172v-1221h-215v651h-90q-224 0 -350.5 103.5t-126.5 287.5z" />
    <glyph glyph-name="periodcentered" unicode="&#xb7;" horiz-adv-x="487" 
d="M123 716q0 50 35 85t86 35t86 -34.5t35 -85.5t-35 -86.5t-86 -35.5t-86 36t-35 86z" />
    <glyph glyph-name="cedilla" unicode="&#xb8;" horiz-adv-x="512" 
d="M215 -383q46 0 71 21.5t25 55.5t-26.5 56.5t-69.5 22.5h-160l80 227h131l-39 -106q92 2 153.5 -52t61.5 -150t-63.5 -148t-163.5 -52h-182l49 125h133z" />
    <glyph glyph-name="uni00B9" unicode="&#xb9;" horiz-adv-x="483" 
d="M412 1765v-796h-152v438q0 47 1 59l8 96l1 11h-2q-38 -52 -67 -78l-80 -76l-96 86l280 260h107z" />
    <glyph glyph-name="ordmasculine" unicode="&#xba;" horiz-adv-x="747" 
d="M164 1107q0 -94 60 -155t150 -61t150 61t60 155t-60 155t-150 61t-150 -61t-60 -155zM41 494v143h668v-143h-668zM20 1106q0 152 103 253t251 101t250.5 -101t102.5 -253t-102.5 -252t-250.5 -100t-251 100t-103 252z" />
    <glyph glyph-name="guillemotright" unicode="&#xbb;" horiz-adv-x="1568" 
d="M778 367l367 354l-365 354l125 125l481 -479l-481 -481zM180 367l367 354l-365 354l125 125l481 -479l-481 -481z" />
    <glyph glyph-name="onequarter" unicode="&#xbc;" horiz-adv-x="1431" 
d="M1149 297v156l3 131l1 8h-2q-1 0 -24.5 -34.5t-59.5 -76.5l-102 -116q-19 -23 -44.5 -46t-25.5 -24l2 -2l7 1l112 3h133zM741 172v104l433 521h112v-496h98v-129h-98v-172h-137v172h-408zM125 0l995 1434h154l-993 -1434h-156zM412 1434v-797h-152v438q0 47 1 59l8 96
l1 11h-2q-38 -52 -67 -78l-80 -76l-96 87l280 260h107z" />
    <glyph glyph-name="onehalf" unicode="&#xbd;" horiz-adv-x="1505" 
d="M1173 813q119 0 202 -77.5t83 -199.5t-144 -241t-234 -165l-15 -9l2 -2q1 0 62 7t147 7h176v-133h-578v102l304 248q131 104 131 195q0 55 -40.5 91t-106.5 36q-118 0 -161 -146l-137 37q27 110 108.5 180t200.5 70zM125 0l995 1434h154l-993 -1434h-156zM412 1434v-797
h-152v438q0 47 1 59l8 96l1 11h-2q-38 -52 -67 -78l-80 -76l-96 87l280 260h107z" />
    <glyph glyph-name="threequarters" unicode="&#xbe;" horiz-adv-x="1570" 
d="M1290 297v156q0 103 4 131v8h-2q-1 0 -24.5 -34.5t-59.5 -76.5l-102 -116q-19 -23 -44.5 -46t-25.5 -24l2 -2l6 1l113 3h133zM883 172v104l432 521h112v-496h99v-129h-99v-172h-137v172h-407zM266 0l996 1434h153l-993 -1434h-156zM348 750q72 0 112 36t40 88t-42.5 84.5
t-109.5 32.5h-78v111h78q61 0 100 32.5t39 77.5t-36.5 77t-102.5 32t-105.5 -33t-58.5 -104l-129 35q20 105 100.5 168t205.5 63t198.5 -64t73.5 -150t-53.5 -135t-118.5 -52v-2q75 -3 128.5 -50.5t53.5 -141.5t-82.5 -164t-204.5 -70t-210 67t-105 172l133 37
q8 -68 55 -107.5t119 -39.5z" />
    <glyph glyph-name="questiondown" unicode="&#xbf;" horiz-adv-x="1185" 
d="M498 1112v322h227v-322h-227zM84 364q0 67 13 114t32.5 83.5t68 86.5t118.5 91.5t182 94.5v141h227v-225q-235 -118 -320.5 -190t-85.5 -159t59.5 -158t200.5 -71t218.5 60.5t113.5 183.5l191 -54q-43 -183 -182.5 -287t-341.5 -104q-357 0 -425.5 163t-68.5 230z" />
    <glyph glyph-name="Agrave" unicode="&#xc0;" horiz-adv-x="1472" 
d="M737 1159h-2q-1 0 -19 -55t-48 -131l-185 -449h506l-184 449q-23 58 -45 122t-23 64zM379 1716l80 156l456 -244l-69 -125zM25 0l606 1434h211l606 -1434h-244l-133 326h-670l-133 -326h-243z" />
    <glyph glyph-name="Aacute" unicode="&#xc1;" horiz-adv-x="1472" 
d="M516 1628l457 244l80 -156l-467 -213zM737 1159h-2q-1 0 -19 -55t-48 -131l-185 -449h506l-184 449q-23 58 -45 122t-23 64zM25 0l606 1434h211l606 -1434h-244l-133 326h-670l-133 -326h-243z" />
    <glyph glyph-name="Acircumflex" unicode="&#xc2;" horiz-adv-x="1472" 
d="M737 1159h-2q-1 0 -19 -55t-48 -131l-185 -449h506l-184 449q-23 58 -45 122t-23 64zM367 1624l362 305l363 -305l-113 -115l-250 209l-250 -209zM25 0l606 1434h211l606 -1434h-244l-133 326h-670l-133 -326h-243z" />
    <glyph glyph-name="Atilde" unicode="&#xc3;" horiz-adv-x="1472" 
d="M737 1159h-2q-1 0 -19 -55t-48 -131l-185 -449h506l-184 449q-23 58 -45 122t-23 64zM322 1567q0 107 73 177.5t172 70.5t176 -60.5t123 -60.5q45 0 73 27t28 67h180q0 -107 -73 -177.5t-171 -70.5t-175 59.5t-125 59.5t-75.5 -26t-27.5 -66h-178zM25 0l606 1434h211
l606 -1434h-244l-133 326h-670l-133 -326h-243z" />
    <glyph glyph-name="Adieresis" unicode="&#xc4;" horiz-adv-x="1472" 
d="M864 1684q0 48 34 82t83 34t83 -34t34 -82t-34 -81.5t-83 -33.5t-83 33.5t-34 81.5zM737 1159h-2q-1 0 -19 -55t-48 -131l-185 -449h506l-184 449q-23 58 -45 122t-23 64zM358 1685q0 49 34 82t83 33t83 -33.5t34 -81.5t-33 -82t-83 -34t-84 33.5t-34 82.5zM25 0
l606 1434h211l606 -1434h-244l-133 326h-670l-133 -326h-243z" />
    <glyph glyph-name="Aring" unicode="&#xc5;" horiz-adv-x="1472" 
d="M618 1658q0 -48 35 -82t83 -34t83 34t35 82t-35 82t-83 34t-83 -34t-35 -82zM737 1159h-2q-1 0 -19 -55t-48 -131l-185 -449h506l-184 449q-23 58 -45 122t-23 64zM483 1670q0 89 73.5 163t177.5 74t178.5 -74t74.5 -162t-39.5 -149t-103.5 -92l604 -1430h-244l-133 326
h-670l-133 -326h-243l604 1427q-66 31 -106 92.5t-40 150.5z" />
    <glyph glyph-name="AE" unicode="&#xc6;" horiz-adv-x="2052" 
d="M926 524v697h-154q-2 0 -113 -287l-170 -410h437zM1905 1434v-213h-758v-373h606v-201h-606v-434h770v-213h-991v326h-518l-138 -326h-245l618 1434h1262z" />
    <glyph glyph-name="Ccedilla" unicode="&#xc7;" horiz-adv-x="1552" 
d="M84 722q0 154 58.5 293t158 237t236.5 154t290 56q208 0 381 -102t271 -275l-232 -61q-64 99 -177.5 157t-242.5 58q-224 0 -367 -145.5t-143 -376.5q0 -153 67 -272.5t182.5 -183.5t259.5 -64t265 69.5t183 184.5l227 -62q-87 -183 -254.5 -294.5t-376.5 -121.5l-30 -79
q92 2 154.5 -53t62.5 -149t-64.5 -147t-163.5 -53h-184l49 125h135q45 0 71 21.5t26 55.5t-27 56.5t-70 22.5h-159l71 202q-138 15 -259 77t-209 158.5t-138.5 227t-50.5 284.5z" />
    <glyph glyph-name="Egrave" unicode="&#xc8;" horiz-adv-x="1310" 
d="M334 1716l80 156l456 -244l-69 -125zM180 0v1434h985v-213h-757v-373h604v-201h-604v-434h770v-213h-998z" />
    <glyph glyph-name="Eacute" unicode="&#xc9;" horiz-adv-x="1310" 
d="M471 1628l457 244l80 -156l-467 -213zM180 0v1434h985v-213h-757v-373h604v-201h-604v-434h770v-213h-998z" />
    <glyph glyph-name="Ecircumflex" unicode="&#xca;" horiz-adv-x="1310" 
d="M322 1624l362 305l363 -305l-113 -115l-250 209l-250 -209zM180 0v1434h985v-213h-757v-373h604v-201h-604v-434h770v-213h-998z" />
    <glyph glyph-name="Edieresis" unicode="&#xcb;" horiz-adv-x="1310" 
d="M819 1684q0 48 34 82t83 34t83 -34t34 -82t-33.5 -81.5t-83.5 -33.5t-83.5 33.5t-33.5 81.5zM313 1685q0 49 34 82t83 33t83 -33.5t34 -81.5t-33.5 -82t-83.5 -34t-83.5 33.5t-33.5 82.5zM180 0v1434h985v-213h-757v-373h604v-201h-604v-434h770v-213h-998z" />
    <glyph glyph-name="Igrave" unicode="&#xcc;" horiz-adv-x="587" 
d="M180 0v1434h228v-1434h-228zM-63 1716l79 156l457 -244l-70 -125z" />
    <glyph glyph-name="Iacute" unicode="&#xcd;" horiz-adv-x="587" 
d="M180 0v1434h228v-1434h-228zM74 1628l456 244l80 -156l-467 -213z" />
    <glyph glyph-name="Icircumflex" unicode="&#xce;" horiz-adv-x="587" 
d="M180 0v1434h228v-1434h-228zM-76 1624l363 305l362 -305l-112 -115l-250 209l-250 -209z" />
    <glyph glyph-name="Idieresis" unicode="&#xcf;" horiz-adv-x="587" 
d="M422 1684q0 48 34 82t83 34t82.5 -33t33.5 -82t-33.5 -82.5t-82.5 -33.5t-83 33.5t-34 81.5zM180 0v1434h228v-1434h-228zM-84 1685q0 49 34 82t83 33t83 -33.5t34 -81.5t-33 -82t-83 -34t-84 33.5t-34 82.5z" />
    <glyph glyph-name="Eth" unicode="&#xd0;" horiz-adv-x="1632" 
d="M424 213h393q134 0 246.5 58.5t182 173.5t69.5 247q0 251 -148.5 390t-359.5 139h-383v-392h315v-204h-315v-412zM84 625v204h113v605h610q153 0 289 -53t236.5 -146.5t159 -229.5t58.5 -293t-58 -291t-157 -225.5t-233.5 -143.5t-284.5 -52h-620v625h-113z" />
    <glyph glyph-name="Ntilde" unicode="&#xd1;" horiz-adv-x="1572" 
d="M375 1567q0 107 73 177.5t173 70.5t175.5 -60.5t122.5 -60.5q46 0 73.5 27t27.5 67h180q0 -107 -73 -177.5t-171 -70.5t-175 59.5t-125 59.5t-75.5 -26t-27.5 -66h-178zM180 0v1434h213l527 -707q83 -112 164.5 -226t82.5 -114h2q1 0 -1.5 145t-2.5 291v611h228v-1434
h-213l-523 705q-73 100 -161.5 226t-89.5 126h-3q-1 0 2 -109t3 -340v-608h-228z" />
    <glyph glyph-name="Ograve" unicode="&#xd2;" 
d="M481 1716l80 156l457 -244l-70 -125zM317 718q0 -232 143.5 -377.5t365.5 -145.5t366.5 146t144.5 377t-144.5 376t-366.5 145t-365.5 -144.5t-143.5 -376.5zM84 717q0 159 58.5 298t158 237t236.5 154t315 56t349 -95t271.5 -266.5t100.5 -383.5q0 -159 -59 -298.5
t-159.5 -237t-237.5 -154t-315 -56.5t-348.5 95.5t-270 267t-99.5 383.5z" />
    <glyph glyph-name="Oacute" unicode="&#xd3;" 
d="M618 1628l457 244l80 -156l-467 -213zM317 718q0 -232 143.5 -377.5t365.5 -145.5t366.5 146t144.5 377t-144.5 376t-366.5 145t-365.5 -144.5t-143.5 -376.5zM84 717q0 159 58.5 298t158 237t236.5 154t315 56t349 -95t271.5 -266.5t100.5 -383.5q0 -159 -59 -298.5
t-159.5 -237t-237.5 -154t-315 -56.5t-348.5 95.5t-270 267t-99.5 383.5z" />
    <glyph glyph-name="Ocircumflex" unicode="&#xd4;" 
d="M469 1624l362 305l363 -305l-113 -115l-250 209l-249 -209zM317 718q0 -232 143.5 -377.5t365.5 -145.5t366.5 146t144.5 377t-144.5 376t-366.5 145t-365.5 -144.5t-143.5 -376.5zM84 717q0 159 58.5 298t158 237t236.5 154t315 56t349 -95t271.5 -266.5t100.5 -383.5
q0 -159 -59 -298.5t-159.5 -237t-237.5 -154t-315 -56.5t-348.5 95.5t-270 267t-99.5 383.5z" />
    <glyph glyph-name="Otilde" unicode="&#xd5;" 
d="M424 1567q0 107 73 177.5t173 70.5t175.5 -60.5t122.5 -60.5q46 0 73.5 27t27.5 67h180q0 -107 -73 -177.5t-171 -70.5t-175 59.5t-125 59.5t-75.5 -26t-27.5 -66h-178zM317 718q0 -232 143.5 -377.5t365.5 -145.5t366.5 146t144.5 377t-144.5 376t-366.5 145
t-365.5 -144.5t-143.5 -376.5zM84 717q0 159 58.5 298t158 237t236.5 154t315 56t349 -95t271.5 -266.5t100.5 -383.5q0 -159 -59 -298.5t-159.5 -237t-237.5 -154t-315 -56.5t-348.5 95.5t-270 267t-99.5 383.5z" />
    <glyph glyph-name="Odieresis" unicode="&#xd6;" 
d="M967 1685q0 49 33.5 82t82.5 33t83 -34t34 -82t-34 -81.5t-83 -33.5t-82.5 33.5t-33.5 82.5zM461 1685q0 49 34 82t83 33t82.5 -33.5t33.5 -81.5t-33.5 -82t-82.5 -34t-83 33.5t-34 82.5zM317 718q0 -232 143.5 -377.5t365.5 -145.5t366.5 146t144.5 377t-144.5 376
t-366.5 145t-365.5 -144.5t-143.5 -376.5zM84 717q0 159 58.5 298t158 237t236.5 154t315 56t349 -95t271.5 -266.5t100.5 -383.5q0 -159 -59 -298.5t-159.5 -237t-237.5 -154t-315 -56.5t-348.5 95.5t-270 267t-99.5 383.5z" />
    <glyph glyph-name="multiply" unicode="&#xd7;" horiz-adv-x="1429" 
d="M289 1001l149 150l277 -274l276 276l150 -149l-275 -277l275 -276l-150 -152l-276 276l-275 -274l-149 152l274 274z" />
    <glyph glyph-name="Oslash" unicode="&#xd8;" 
d="M827 195q221 0 365.5 146t144.5 363t-114 359l-625 -819q101 -49 229 -49zM317 729q0 -221 121 -364l627 821q-106 53 -238 53q-223 0 -366.5 -144.5t-143.5 -365.5zM1573 717q0 -159 -59 -298.5t-159.5 -237t-237.5 -154t-311 -56.5t-345 92l-76 -100l-160 123l74 98
q-102 100 -158.5 238t-56.5 296t58.5 297t158 237t236.5 154t313 56t352 -96l78 100l160 -118l-78 -103q211 -213 211 -528z" />
    <glyph glyph-name="Ugrave" unicode="&#xd9;" horiz-adv-x="1497" 
d="M397 1716l80 156l457 -244l-70 -125zM145 608v826h228v-824q1 -428 377 -428t376 428v824h226v-826q0 -308 -159 -472.5t-445 -164.5t-444.5 164.5t-158.5 472.5z" />
    <glyph glyph-name="Uacute" unicode="&#xda;" horiz-adv-x="1497" 
d="M535 1628l456 244l80 -156l-467 -213zM145 608v826h228v-824q1 -428 377 -428t376 428v824h226v-826q0 -308 -159 -472.5t-445 -164.5t-444.5 164.5t-158.5 472.5z" />
    <glyph glyph-name="Ucircumflex" unicode="&#xdb;" horiz-adv-x="1497" 
d="M385 1624l363 305l362 -305l-113 -115l-249 209l-250 -209zM145 608v826h228v-824q1 -428 377 -428t376 428v824h226v-826q0 -308 -159 -472.5t-445 -164.5t-444.5 164.5t-158.5 472.5z" />
    <glyph glyph-name="Udieresis" unicode="&#xdc;" horiz-adv-x="1497" 
d="M883 1685q0 49 33.5 82t82.5 33t83 -34t34 -82t-34 -81.5t-83 -33.5t-82.5 33.5t-33.5 82.5zM377 1685q0 49 34 82t83 33t82.5 -33.5t33.5 -81.5t-33.5 -82t-82.5 -34t-83 33.5t-34 82.5zM145 608v826h228v-824q1 -428 377 -428t376 428v824h226v-826q0 -308 -159 -472.5
t-445 -164.5t-444.5 164.5t-158.5 472.5z" />
    <glyph glyph-name="Yacute" unicode="&#xdd;" horiz-adv-x="1388" 
d="M475 1628l457 244l80 -156l-467 -213zM694 883h2q2 0 82 110l326 441h256l-553 -754v-680h-225v680l-553 754h256l325 -441q81 -110 84 -110z" />
    <glyph glyph-name="Thorn" unicode="&#xde;" horiz-adv-x="1271" 
d="M408 465h278q123 0 196.5 70.5t73.5 184.5t-73.5 184.5t-196.5 70.5h-278v-510zM180 0v1434h228v-248h274q227 0 368.5 -131t141.5 -336t-141.5 -336t-368.5 -131h-274v-252h-228z" />
    <glyph glyph-name="germandbls" unicode="&#xdf;" horiz-adv-x="1617" 
d="M408 1221v-1221h-228v1434h1215l-326 -603l2 -2h10q196 0 324.5 -118.5t128.5 -302.5t-134 -310.5t-353 -126.5q-159 0 -291.5 76.5t-200.5 204.5l215 59q90 -145 268 -145q124 0 196.5 71t72.5 176t-72 175.5t-203 70.5h-180v170l129 246q21 40 50.5 93.5t29.5 54.5
l-2 2l-8 -1l-138 -3h-505z" />
    <glyph glyph-name="agrave" unicode="&#xe0;" horiz-adv-x="1472" 
d="M737 1159h-2q-1 0 -19 -55t-48 -131l-185 -449h506l-184 449q-23 58 -45 122t-23 64zM379 1716l80 156l456 -244l-69 -125zM25 0l606 1434h211l606 -1434h-244l-133 326h-670l-133 -326h-243z" />
    <glyph glyph-name="aacute" unicode="&#xe1;" horiz-adv-x="1472" 
d="M516 1628l457 244l80 -156l-467 -213zM737 1159h-2q-1 0 -19 -55t-48 -131l-185 -449h506l-184 449q-23 58 -45 122t-23 64zM25 0l606 1434h211l606 -1434h-244l-133 326h-670l-133 -326h-243z" />
    <glyph glyph-name="acircumflex" unicode="&#xe2;" horiz-adv-x="1472" 
d="M737 1159h-2q-1 0 -19 -55t-48 -131l-185 -449h506l-184 449q-23 58 -45 122t-23 64zM367 1624l362 305l363 -305l-113 -115l-250 209l-250 -209zM25 0l606 1434h211l606 -1434h-244l-133 326h-670l-133 -326h-243z" />
    <glyph glyph-name="atilde" unicode="&#xe3;" horiz-adv-x="1472" 
d="M737 1159h-2q-1 0 -19 -55t-48 -131l-185 -449h506l-184 449q-23 58 -45 122t-23 64zM322 1567q0 107 73 177.5t172 70.5t176 -60.5t123 -60.5q45 0 73 27t28 67h180q0 -107 -73 -177.5t-171 -70.5t-175 59.5t-125 59.5t-75.5 -26t-27.5 -66h-178zM25 0l606 1434h211
l606 -1434h-244l-133 326h-670l-133 -326h-243z" />
    <glyph glyph-name="adieresis" unicode="&#xe4;" horiz-adv-x="1472" 
d="M864 1684q0 48 34 82t83 34t83 -34t34 -82t-34 -81.5t-83 -33.5t-83 33.5t-34 81.5zM737 1159h-2q-1 0 -19 -55t-48 -131l-185 -449h506l-184 449q-23 58 -45 122t-23 64zM358 1685q0 49 34 82t83 33t83 -33.5t34 -81.5t-33 -82t-83 -34t-84 33.5t-34 82.5zM25 0
l606 1434h211l606 -1434h-244l-133 326h-670l-133 -326h-243z" />
    <glyph glyph-name="aring" unicode="&#xe5;" horiz-adv-x="1472" 
d="M618 1658q0 -48 35 -82t83 -34t83 34t35 82t-35 82t-83 34t-83 -34t-35 -82zM737 1159h-2q-1 0 -19 -55t-48 -131l-185 -449h506l-184 449q-23 58 -45 122t-23 64zM483 1670q0 89 73.5 163t177.5 74t178.5 -74t74.5 -162t-39.5 -149t-103.5 -92l604 -1430h-244l-133 326
h-670l-133 -326h-243l604 1427q-66 31 -106 92.5t-40 150.5z" />
    <glyph glyph-name="ae" unicode="&#xe6;" horiz-adv-x="2052" 
d="M926 524v697h-154q-2 0 -113 -287l-170 -410h437zM1905 1434v-213h-758v-373h606v-201h-606v-434h770v-213h-991v326h-518l-138 -326h-245l618 1434h1262z" />
    <glyph glyph-name="ccedilla" unicode="&#xe7;" horiz-adv-x="1552" 
d="M84 722q0 154 58.5 293t158 237t236.5 154t290 56q208 0 381 -102t271 -275l-232 -61q-64 99 -177.5 157t-242.5 58q-224 0 -367 -145.5t-143 -376.5q0 -153 67 -272.5t182.5 -183.5t259.5 -64t265 69.5t183 184.5l227 -62q-87 -183 -254.5 -294.5t-376.5 -121.5l-30 -79
q92 2 154.5 -53t62.5 -149t-64.5 -147t-163.5 -53h-184l49 125h135q45 0 71 21.5t26 55.5t-27 56.5t-70 22.5h-159l71 202q-138 15 -259 77t-209 158.5t-138.5 227t-50.5 284.5z" />
    <glyph glyph-name="egrave" unicode="&#xe8;" horiz-adv-x="1310" 
d="M330 1716l80 156l456 -244l-69 -125zM180 0v1434h985v-213h-757v-373h604v-201h-604v-434h770v-213h-998z" />
    <glyph glyph-name="eacute" unicode="&#xe9;" horiz-adv-x="1310" 
d="M467 1628l457 244l80 -156l-467 -213zM180 0v1434h985v-213h-757v-373h604v-201h-604v-434h770v-213h-998z" />
    <glyph glyph-name="ecircumflex" unicode="&#xea;" horiz-adv-x="1310" 
d="M317 1624l363 305l362 -305l-112 -115l-250 209l-250 -209zM180 0v1434h985v-213h-757v-373h604v-201h-604v-434h770v-213h-998z" />
    <glyph glyph-name="edieresis" unicode="&#xeb;" horiz-adv-x="1310" 
d="M815 1684q0 48 34 82t83 34t83 -34t34 -82t-33.5 -81.5t-83.5 -33.5t-83.5 33.5t-33.5 81.5zM309 1685q0 49 34 82t83 33t83 -33.5t34 -81.5t-33.5 -82t-83.5 -34t-83.5 33.5t-33.5 82.5zM180 0v1434h985v-213h-757v-373h604v-201h-604v-434h770v-213h-998z" />
    <glyph glyph-name="igrave" unicode="&#xec;" horiz-adv-x="587" 
d="M180 0v1434h228v-1434h-228zM-61 1716l79 156l457 -244l-69 -125z" />
    <glyph glyph-name="iacute" unicode="&#xed;" horiz-adv-x="587" 
d="M180 0v1434h228v-1434h-228zM76 1628l456 244l80 -156l-467 -213z" />
    <glyph glyph-name="icircumflex" unicode="&#xee;" horiz-adv-x="587" 
d="M180 0v1434h228v-1434h-228zM-74 1624l363 305l362 -305l-112 -115l-250 209l-250 -209z" />
    <glyph glyph-name="idieresis" unicode="&#xef;" horiz-adv-x="587" 
d="M424 1684q0 48 34 82t83 34t82.5 -33t33.5 -82t-33.5 -82.5t-82.5 -33.5t-83 33.5t-34 81.5zM180 0v1434h228v-1434h-228zM-82 1685q0 49 34 82t83 33t83 -33.5t34 -81.5t-33 -82t-83 -34t-84 33.5t-34 82.5z" />
    <glyph glyph-name="eth" unicode="&#xf0;" horiz-adv-x="1632" 
d="M424 213h393q134 0 246.5 58.5t182 173.5t69.5 247q0 251 -148.5 390t-359.5 139h-383v-392h315v-204h-315v-412zM84 625v204h113v605h610q153 0 289 -53t236.5 -146.5t159 -229.5t58.5 -293t-58 -291t-157 -225.5t-233.5 -143.5t-284.5 -52h-620v625h-113z" />
    <glyph glyph-name="ntilde" unicode="&#xf1;" horiz-adv-x="1572" 
d="M375 1567q0 107 73 177.5t173 70.5t175.5 -60.5t122.5 -60.5q46 0 73.5 27t27.5 67h180q0 -107 -73 -177.5t-171 -70.5t-175 59.5t-125 59.5t-75.5 -26t-27.5 -66h-178zM180 0v1434h213l527 -707q83 -112 164.5 -226t82.5 -114h2q1 0 -1.5 145t-2.5 291v611h228v-1434
h-213l-523 705q-73 100 -161.5 226t-89.5 126h-3q-1 0 2 -109t3 -340v-608h-228z" />
    <glyph glyph-name="ograve" unicode="&#xf2;" 
d="M477 1716l80 156l457 -244l-70 -125zM317 718q0 -232 143.5 -377.5t365.5 -145.5t366.5 146t144.5 377t-144.5 376t-366.5 145t-365.5 -144.5t-143.5 -376.5zM84 717q0 159 58.5 298t158 237t236.5 154t315 56t349 -95t271.5 -266.5t100.5 -383.5q0 -159 -59 -298.5
t-159.5 -237t-237.5 -154t-315 -56.5t-348.5 95.5t-270 267t-99.5 383.5z" />
    <glyph glyph-name="oacute" unicode="&#xf3;" 
d="M614 1628l457 244l80 -156l-467 -213zM317 718q0 -232 143.5 -377.5t365.5 -145.5t366.5 146t144.5 377t-144.5 376t-366.5 145t-365.5 -144.5t-143.5 -376.5zM84 717q0 159 58.5 298t158 237t236.5 154t315 56t349 -95t271.5 -266.5t100.5 -383.5q0 -159 -59 -298.5
t-159.5 -237t-237.5 -154t-315 -56.5t-348.5 95.5t-270 267t-99.5 383.5z" />
    <glyph glyph-name="ocircumflex" unicode="&#xf4;" 
d="M465 1624l362 305l363 -305l-113 -115l-250 209l-249 -209zM317 718q0 -232 143.5 -377.5t365.5 -145.5t366.5 146t144.5 377t-144.5 376t-366.5 145t-365.5 -144.5t-143.5 -376.5zM84 717q0 159 58.5 298t158 237t236.5 154t315 56t349 -95t271.5 -266.5t100.5 -383.5
q0 -159 -59 -298.5t-159.5 -237t-237.5 -154t-315 -56.5t-348.5 95.5t-270 267t-99.5 383.5z" />
    <glyph glyph-name="otilde" unicode="&#xf5;" 
d="M420 1567q0 107 73 177.5t173 70.5t175.5 -60.5t122.5 -60.5q46 0 73.5 27t27.5 67h180q0 -107 -73 -177.5t-171 -70.5t-175 59.5t-125 59.5t-75.5 -26t-27.5 -66h-178zM317 718q0 -232 143.5 -377.5t365.5 -145.5t366.5 146t144.5 377t-144.5 376t-366.5 145
t-365.5 -144.5t-143.5 -376.5zM84 717q0 159 58.5 298t158 237t236.5 154t315 56t349 -95t271.5 -266.5t100.5 -383.5q0 -159 -59 -298.5t-159.5 -237t-237.5 -154t-315 -56.5t-348.5 95.5t-270 267t-99.5 383.5z" />
    <glyph glyph-name="odieresis" unicode="&#xf6;" 
d="M963 1685q0 49 33.5 82t82.5 33t83 -34t34 -82t-34 -81.5t-83 -33.5t-82.5 33.5t-33.5 82.5zM457 1685q0 49 33.5 82t82.5 33t83 -33.5t34 -81.5t-33 -82t-83 -34t-83.5 33.5t-33.5 82.5zM317 718q0 -232 143.5 -377.5t365.5 -145.5t366.5 146t144.5 377t-144.5 376
t-366.5 145t-365.5 -144.5t-143.5 -376.5zM84 717q0 159 58.5 298t158 237t236.5 154t315 56t349 -95t271.5 -266.5t100.5 -383.5q0 -159 -59 -298.5t-159.5 -237t-237.5 -154t-315 -56.5t-348.5 95.5t-270 267t-99.5 383.5z" />
    <glyph glyph-name="divide" unicode="&#xf7;" horiz-adv-x="1429" 
d="M580 1186q0 50 34.5 84.5t85.5 34.5t86 -34.5t35 -85.5t-35 -86.5t-86 -35.5t-85.5 36.5t-34.5 86.5zM580 274q0 50 34.5 84.5t85.5 34.5t86 -34.5t35 -85.5t-35 -86t-86 -35t-85.5 36t-34.5 86zM242 633v188h940v-188h-940z" />
    <glyph glyph-name="oslash" unicode="&#xf8;" 
d="M827 195q221 0 365.5 146t144.5 363t-114 359l-625 -819q101 -49 229 -49zM317 729q0 -221 121 -364l627 821q-106 53 -238 53q-223 0 -366.5 -144.5t-143.5 -365.5zM1573 717q0 -159 -59 -298.5t-159.5 -237t-237.5 -154t-311 -56.5t-345 92l-76 -100l-160 123l74 98
q-102 100 -158.5 238t-56.5 296t58.5 297t158 237t236.5 154t313 56t352 -96l78 100l160 -118l-78 -103q211 -213 211 -528z" />
    <glyph glyph-name="ugrave" unicode="&#xf9;" horiz-adv-x="1497" 
d="M397 1716l80 156l457 -244l-70 -125zM145 608v826h228v-824q1 -428 377 -428t376 428v824h226v-826q0 -308 -159 -472.5t-445 -164.5t-444.5 164.5t-158.5 472.5z" />
    <glyph glyph-name="uacute" unicode="&#xfa;" horiz-adv-x="1497" 
d="M535 1628l456 244l80 -156l-467 -213zM145 608v826h228v-824q1 -428 377 -428t376 428v824h226v-826q0 -308 -159 -472.5t-445 -164.5t-444.5 164.5t-158.5 472.5z" />
    <glyph glyph-name="ucircumflex" unicode="&#xfb;" horiz-adv-x="1497" 
d="M385 1624l363 305l362 -305l-113 -115l-249 209l-250 -209zM145 608v826h228v-824q1 -428 377 -428t376 428v824h226v-826q0 -308 -159 -472.5t-445 -164.5t-444.5 164.5t-158.5 472.5z" />
    <glyph glyph-name="udieresis" unicode="&#xfc;" horiz-adv-x="1497" 
d="M883 1685q0 49 33.5 82t82.5 33t83 -34t34 -82t-34 -81.5t-83 -33.5t-82.5 33.5t-33.5 82.5zM377 1685q0 49 34 82t83 33t82.5 -33.5t33.5 -81.5t-33.5 -82t-82.5 -34t-83 33.5t-34 82.5zM145 608v826h228v-824q1 -428 377 -428t376 428v824h226v-826q0 -308 -159 -472.5
t-445 -164.5t-444.5 164.5t-158.5 472.5z" />
    <glyph glyph-name="yacute" unicode="&#xfd;" horiz-adv-x="1388" 
d="M477 1628l457 244l80 -156l-467 -213zM694 883h2q2 0 82 110l326 441h256l-553 -754v-680h-225v680l-553 754h256l325 -441q81 -110 84 -110z" />
    <glyph glyph-name="thorn" unicode="&#xfe;" horiz-adv-x="1271" 
d="M408 465h278q123 0 196.5 70.5t73.5 184.5t-73.5 184.5t-196.5 70.5h-278v-510zM180 0v1434h228v-248h274q227 0 368.5 -131t141.5 -336t-141.5 -336t-368.5 -131h-274v-252h-228z" />
    <glyph glyph-name="ydieresis" unicode="&#xff;" horiz-adv-x="1388" 
d="M825 1684q0 48 34 82t83 34t83 -34t34 -82t-33.5 -81.5t-83.5 -33.5t-83.5 33.5t-33.5 81.5zM319 1685q0 49 34 82t83 33t83 -33.5t34 -81.5t-33.5 -82t-83.5 -34t-83.5 33.5t-33.5 82.5zM694 883h2q2 0 82 110l326 441h256l-553 -754v-680h-225v680l-553 754h256
l325 -441q81 -110 84 -110z" />
    <glyph glyph-name="OE" unicode="&#x152;" horiz-adv-x="2097" 
d="M317 718q0 -228 136 -365.5t354 -137.5q94 0 166 29v946q-65 29 -166 29q-219 0 -354.5 -136.5t-135.5 -364.5zM84 717q0 210 95.5 376.5t260 257.5t367.5 91q112 0 166 -8h977v-213h-758v-373h604v-201h-604v-434h770v-213h-989q-71 -8 -166 -8q-203 0 -367.5 91
t-260 257.5t-95.5 376.5z" />
    <glyph glyph-name="oe" unicode="&#x153;" horiz-adv-x="2097" 
d="M317 718q0 -228 136 -365.5t354 -137.5q94 0 166 29v946q-65 29 -166 29q-219 0 -354.5 -136.5t-135.5 -364.5zM84 717q0 210 95.5 376.5t260 257.5t367.5 91q112 0 166 -8h977v-213h-758v-373h604v-201h-604v-434h770v-213h-989q-71 -8 -166 -8q-203 0 -367.5 91
t-260 257.5t-95.5 376.5z" />
    <glyph glyph-name="Ydieresis" unicode="&#x178;" horiz-adv-x="1388" 
d="M823 1684q0 48 34 82t83 34t83 -34t34 -82t-33.5 -81.5t-83.5 -33.5t-83.5 33.5t-33.5 81.5zM317 1685q0 49 34 82t83 33t83 -33.5t34 -81.5t-33.5 -82t-83.5 -34t-83.5 33.5t-33.5 82.5zM694 883h2q2 0 82 110l326 441h256l-553 -754v-680h-225v680l-553 754h256
l325 -441q81 -110 84 -110z" />
    <glyph glyph-name="circumflex" unicode="&#x2c6;" horiz-adv-x="776" 
d="M6 1624l363 305l360 -305l-111 -115l-249 209l-250 -209z" />
    <glyph glyph-name="tilde" unicode="&#x2dc;" horiz-adv-x="927" 
d="M33 1567q0 108 72.5 178t173.5 70t176 -60.5t121 -60.5t73 27t29 67h178q2 -107 -71 -177.5t-172 -70.5t-174.5 59.5t-123.5 59.5q-49 0 -76.5 -26t-27.5 -66h-178z" />
    <glyph glyph-name="uni2000" unicode="&#x2000;" horiz-adv-x="964" 
 />
    <glyph glyph-name="uni2001" unicode="&#x2001;" horiz-adv-x="1929" 
 />
    <glyph glyph-name="uni2002" unicode="&#x2002;" horiz-adv-x="964" 
 />
    <glyph glyph-name="uni2003" unicode="&#x2003;" horiz-adv-x="1929" 
 />
    <glyph glyph-name="uni2004" unicode="&#x2004;" horiz-adv-x="643" 
 />
    <glyph glyph-name="uni2005" unicode="&#x2005;" horiz-adv-x="482" 
 />
    <glyph glyph-name="uni2006" unicode="&#x2006;" horiz-adv-x="321" 
 />
    <glyph glyph-name="uni2007" unicode="&#x2007;" horiz-adv-x="321" 
 />
    <glyph glyph-name="uni2008" unicode="&#x2008;" horiz-adv-x="241" 
 />
    <glyph glyph-name="uni2009" unicode="&#x2009;" horiz-adv-x="385" 
 />
    <glyph glyph-name="uni200A" unicode="&#x200a;" horiz-adv-x="107" 
 />
    <glyph glyph-name="uni2010" unicode="&#x2010;" horiz-adv-x="1302" 
d="M180 633v188h942v-188h-942z" />
    <glyph glyph-name="uni2011" unicode="&#x2011;" horiz-adv-x="1302" 
d="M180 633v188h942v-188h-942z" />
    <glyph glyph-name="figuredash" unicode="&#x2012;" horiz-adv-x="1302" 
d="M180 633v188h942v-188h-942z" />
    <glyph glyph-name="endash" unicode="&#x2013;" horiz-adv-x="1220" 
d="M180 621v210h860v-210h-860z" />
    <glyph glyph-name="emdash" unicode="&#x2014;" horiz-adv-x="2099" 
d="M180 621v210h1739v-210h-1739z" />
    <glyph glyph-name="quoteleft" unicode="&#x2018;" horiz-adv-x="636" 
d="M180 1126q0 76 53.5 170t131.5 164h90q-49 -40 -89 -113t-40 -130l-23 -11l23 -2q39 -2 69.5 -32.5t30.5 -80.5t-36 -85t-88 -35t-87 39.5t-35 115.5z" />
    <glyph glyph-name="quoteright" unicode="&#x2019;" horiz-adv-x="636" 
d="M211 1340q0 50 35.5 85t87.5 35t86.5 -39.5t34.5 -115.5t-53 -170.5t-132 -163.5h-90q49 41 89 114.5t40 128.5l25 11l-25 2q-37 2 -67.5 32.5t-30.5 80.5z" />
    <glyph glyph-name="quotesinglbase" unicode="&#x201a;" horiz-adv-x="636" 
d="M211 100q0 50 35.5 84.5t87.5 34.5t86.5 -39.5t34.5 -115.5t-53 -170.5t-132 -163.5h-90q49 41 89 114.5t40 128.5l25 11l-25 2q-37 2 -67.5 33t-30.5 81z" />
    <glyph glyph-name="quotedblleft" unicode="&#x201c;" horiz-adv-x="1044" 
d="M588 1126q0 76 53 170t131 164h90q-49 -40 -89 -113t-40 -130l-22 -11l22 -2q39 -2 70 -32.5t31 -80.5t-36 -85t-88 -35t-87 39.5t-35 115.5zM180 1126q0 76 53.5 170t131.5 164h90q-49 -40 -89 -113t-40 -130l-23 -11l23 -2q39 -2 69.5 -32.5t30.5 -80.5t-36 -85
t-88 -35t-87 39.5t-35 115.5z" />
    <glyph glyph-name="quotedblright" unicode="&#x201d;" horiz-adv-x="1044" 
d="M618 1340q0 50 35.5 85t87.5 35t86.5 -40t34.5 -116t-52.5 -170t-131.5 -163h-90q49 41 89 114.5t40 128.5l24 11l-24 2q-37 2 -68 32.5t-31 80.5zM211 1340q0 50 35.5 85t87.5 35t86.5 -39.5t34.5 -115.5t-53 -170.5t-132 -163.5h-90q49 41 89 114.5t40 128.5l25 11
l-25 2q-37 2 -67.5 32.5t-30.5 80.5z" />
    <glyph glyph-name="quotedblbase" unicode="&#x201e;" horiz-adv-x="1026" 
d="M600 99q0 50 36 84t88 34t86 -38.5t34 -114.5t-53.5 -171.5t-131.5 -162.5h-90q49 40 89 113t40 130l25 9l-25 4q-37 2 -67.5 32.5t-30.5 80.5zM211 99q0 50 35.5 84t87.5 34t86.5 -38.5t34.5 -114.5t-53.5 -171.5t-131.5 -162.5h-90q49 40 89 113t40 130l25 9l-25 4
q-37 2 -67.5 32.5t-30.5 80.5z" />
    <glyph glyph-name="bullet" unicode="&#x2022;" horiz-adv-x="796" 
d="M180 727q0 91 63 154t155 63t155 -63t63 -154t-63 -155t-155 -64t-155 64t-63 155z" />
    <glyph glyph-name="ellipsis" unicode="&#x2026;" horiz-adv-x="1531" 
d="M1208 72q0 41 30 70.5t71 29.5t70.5 -29.5t29.5 -70.5t-29.5 -71t-70.5 -30t-71 30t-30 71zM655 72q0 41 30 70.5t71 29.5t70.5 -29.5t29.5 -70.5t-29.5 -71t-70.5 -30t-71 30t-30 71zM123 72q0 41 29.5 70.5t70.5 29.5t71 -29.5t30 -70.5t-30 -71t-71 -30t-70.5 30
t-29.5 71z" />
    <glyph glyph-name="uni202F" unicode="&#x202f;" horiz-adv-x="385" 
 />
    <glyph glyph-name="guilsinglleft" unicode="&#x2039;" horiz-adv-x="970" 
d="M180 721l484 479l124 -125l-364 -354l364 -354l-126 -127z" />
    <glyph glyph-name="guilsinglright" unicode="&#x203a;" horiz-adv-x="970" 
d="M180 367l367 354l-365 354l125 125l481 -479l-481 -481z" />
    <glyph glyph-name="uni205F" unicode="&#x205f;" horiz-adv-x="482" 
 />
    <glyph glyph-name="Euro" unicode="&#x20ac;" horiz-adv-x="1640" 
d="M84 524v152h94v80h-94v151h117q62 246 260 398.5t457 152.5q208 0 380 -101.5t267 -273.5l-230 -57q-65 99 -174.5 156t-258.5 57t-282 -90t-188 -242h510v-151h-541q-2 -12 -2 -39t2 -41h539v-152h-506q55 -149 187.5 -237t287.5 -88t273 67t180 183l227 -58
q-90 -192 -269 -304t-402 -112q-171 0 -320 68.5t-252.5 193.5t-144.5 287h-117z" />
    <glyph glyph-name="trademark" unicode="&#x2122;" horiz-adv-x="1609" 
d="M1309 1214q-1 0 -23 -36.5t-51 -79.5l-107 -174h-65l-109 174q-17 27 -43.5 71.5t-27.5 44.5h-2q-1 0 2.5 -62t3.5 -140v-244h-139v666h135l147 -242q32 -50 47.5 -84.5t16.5 -34.5h2q1 0 12.5 28.5t50.5 88.5l150 244h133v-666h-139v244l8 202h-2zM37 1296v138h598v-138
h-227v-528h-144v528h-227z" />
    <glyph glyph-name="uniE000" unicode="&#xe000;" horiz-adv-x="1433" 
d="M0 0v1434h1434v-1434h-1434z" />
  </font>
</defs>
</svg>
